<?xml version="1.0" encoding="UTF-8"?>
<svg id="Layer_1" data-name="Layer 1" xmlns="http://www.w3.org/2000/svg" viewBox="0 0 467.9 472.73">
  <defs>
    <style>
      .cls-1 {
        fill: #cf7eb4;
      }
    </style>
  </defs>
  <path class="cls-1" d="m451.55,143.55c.77,2.05,1.99.68,2.4.86-1.86-3.21-2.76-.6-2.4-.86Z"/>
  <polygon class="cls-1" points="431.51 113.7 432.44 113.86 428.17 110.39 431.51 113.7"/>
  <path class="cls-1" d="m411.92,86.92c-.07,2.12,1.87,4.38,4.24,6.76,1.16,1.21,2.52,2.39,3.6,3.72,1.11,1.31,2.1,2.65,2.76,3.99l.04,1.17,3.44.83c-1.14-1.41-2.41-2.88-3.72-4.37-1.32-1.48-2.61-3.01-3.99-4.39-2.69-2.81-5.07-5.5-6.38-7.7Z"/>
  <path class="cls-1" d="m404.26,69.58c0,1.58-3.43-2.12,2.72,3.26-.2-.38-.23-.51-.34-.74-.53-.51-1.24-1.24-2.39-2.52Z"/>
  <path class="cls-1" d="m406.65,72.1c2.58,2.51-.98-2.32,0,0h0Z"/>
  <path class="cls-1" d="m394.31,61.06l4.15,2.47c-.28-1.15-3.29-4.12-1.82-3.41-3.96-2.9-3.64-1.72-2.33.94Z"/>
  <path class="cls-1" d="m389.61,59.66c.72.41,1.42.82,2.1,1.28-.13-.49-.53-1.02-2.1-1.28Z"/>
  <path class="cls-1" d="m396.1,63.77l-4.39-2.83c.2.81-.37,1.54,1.95,1.36-.88.34.41.42,2.44,1.47Z"/>
  <path class="cls-1" d="m397.95,66.07c.76,1.11,1.68,2.32,1.87,2.97.19.65-.24.61-2.28-.63,3.32,2.96,5.04,3.94,5.18,3.34.06-.29-.29-.97-1.06-1.95-.78-.98-1.96-2.3-3.7-3.73Z"/>
  <path class="cls-1" d="m408.56,87.59c.55,1.03,1.1,2.05,1.58,3.12l2.59,1.68c-.65-.42-1.53-1.82-2.32-3.03-.81-1.19-1.59-2.14-1.85-1.78Z"/>
  <path class="cls-1" d="m372.16,41.61c-.59.33.39,2.22.22,3.05,1.1.44,2.16.96,3.22,1.48-1.15-1.46-3.76-3.65-3.44-4.53Z"/>
  <path class="cls-1" d="m372.38,44.66l-4.87-2.06c3.74,2.7,4.73,2.77,4.87,2.06Z"/>
  <path class="cls-1" d="m386.9,61.53l1.97.93,1.91,1.01,3.84,2.04c-2.97-1.73-5.9-3.48-8.97-4.99l1.26,1.01Z"/>
  <path class="cls-1" d="m355.33,30.75c1.09.09,2.17.22,3.26.33l-2.81-.47-2.85-.36,2.39.5Z"/>
  <path class="cls-1" d="m343.54,24.66c2.51-.07-1.83-3.09.59-2.7-3.38-1.4-6.58-1.91-9.48-2.24,2.89.77,5.67,2.32,8.89,4.95Z"/>
  <path class="cls-1" d="m329.84,19.07c1.46.32,3.06.47,4.8.65-1.55-.38-3.12-.63-4.8-.65Z"/>
  <path class="cls-1" d="m360.29,37.55c-.15-.52-.29-1.74-2.58-3.62l.86,2.53c.53.33,1.12.71,1.72,1.09Z"/>
  <path class="cls-1" d="m358.6,36.54l-.03-.08c-1.86-1.2-3.15-2.02-3.7-2.38.47.31,1.59,1.05,3.73,2.46Z"/>
  <path class="cls-1" d="m360.72,37.82c-.16-.1-.28-.18-.43-.27.08.25.15.35.43.27Z"/>
  <path class="cls-1" d="m377.45,51.9c-3-1.07-8.55-3.97-4.62.82,2.41.35.14-2.4,4.62-.82Z"/>
  <path class="cls-1" d="m361.72,40.94c1.48,1.06,2.87,2.24,4.31,3.35.17-.43-.28-1.54,1.22-1.08-1.85-.76-3.65-1.58-5.53-2.27Z"/>
  <polygon class="cls-1" points="359.16 40.01 361.72 40.94 360.08 39.76 359.16 40.01"/>
  <path class="cls-1" d="m337.8,24.45c-1.23-.19-2.43-.55-3.66-1.01-1.25-.43-2.54-.92-3.91-1.45,1.37.79,2.8,1.49,4.19,2.27,1.39.77,2.79,1.51,4.17,2.18.62-.29,2.27-.56-.79-1.99Z"/>
  <path class="cls-1" d="m348,30.2c-.16-.04-.36-.13-.51-.17.22.28.42.45.51.17Z"/>
  <path class="cls-1" d="m303.21,11.97c.13.14.22.29.35.44.06-.08.12-.17.19-.25l-.54-.19Z"/>
  <path class="cls-1" d="m338.92,26.96c1.97,1.33,3.41,1.57,4.86,1.69-1.66-.62-3.39-1.34-5.19-2.21-.28.13-.38.26.33.52Z"/>
  <path class="cls-1" d="m322.05,16.69c.51.38,1.07.77,1.66,1.16.58.4,1.18.82,1.8,1.25-.45-.48-1.16-1.19-1.84-1.69-.69-.5-1.33-.85-1.62-.72Z"/>
  <path class="cls-1" d="m347.01,29.23c.12.03.23.06.35.1-.51-.7-.51-.49-.35-.1Z"/>
  <path class="cls-1" d="m347.01,29.23c-1.19-.37-2.22-.46-3.23-.58,1.32.57,2.57,1.05,3.71,1.38-.2-.25-.37-.55-.48-.8Z"/>
  <path class="cls-1" d="m292.01,20.25c.39-.71,2.12-1.04,4.32-.81,1.1.12,2.33.35,3.54.79,1.21.47,2.42,1.1,3.51,1.9,5.17.42,3.72-5.52.17-9.73-.36.64-.53,1.12-5.97.65.79.68,3.54,1.87,5.41,3.14,1.89,1.21,2.98,2.24.64,2.25-3.44-.72-4.79-1.18-5.65-1.78-.86-.59-1.22-1.26-2.77-2.11,1.15,1.33-1.21,1.44-3.71,1.63-2.5.14-5.21.6-4.8,2.16,2.05.06,4.06.3,6.1.49,0,.47-2.3.59-.79,1.43Z"/>
  <path class="cls-1" d="m313.32,15.75l2.15.6c-1.15-.56-2.08-1.2-3.1-1.89-1.02-.7-2.11-1.54-3.52-2.65-3.8-.41-4.7-.08-5.1.34l5.2,1.79c1.72.62,3.48,1.14,5.17,1.85l-.79-.04Z"/>
  <path class="cls-1" d="m324.81,19.94c-.57.23-1.31.3-2.07.36-.77.07-1.57.11-2.21.2-1.3.19-2,.62-.83,2.05.76.27,1.4.47,1.95.63.55.17,1,.3,1.39.38.78.17,1.3.18,1.75.13.91-.09,1.55-.37,3.48.05-9.78-3.75,3.15.31-3.45-3.59,2.02.55,3.77,1.21,5.42,1.84-1.66-.94-3.25-1.91-4.72-2.89.07.07.12.13.18.2h.05s-.02.02-.02.04c.34.38.42.56,0,.24-.04,0-.16-.04-.22-.05-.16.19-.42.31-.69.41-2.68-1.54-.27-.61.69-.41.06-.06.17-.11.22-.19,0-.01-.02-.02-.03-.04-1.67-.58-3.39-1.06-5.1-1.52l-5.12-1.42c1.01.5,2.17.99,3.67,1.55.75.27,1.59.56,2.53.9.95.31,1.99.68,3.15,1.14Z"/>
  <path class="cls-1" d="m366.24,52.5c-.17-.3-.09-.4-.04-.51-.67-.2-.96-.22.04.51Z"/>
  <path class="cls-1" d="m363.36,49.27c.75.22,1.65,0,3.56,1.52,1.44,1.61-.49.67-.72,1.2,1.47.43,4.9,1.93,1.63-1.4l-.74-.22c-3.07-2.81-6.33-7.63-5.6-7.42.17,1.99.45,3.52,1.87,6.33Z"/>
  <path class="cls-1" d="m344.54,33.95c-2.63-1.19-5.37-2.15-8.07-3.17l3.26,3.26.21-.9c1.07.6,1.81,1.01,2.36,1.24.55.23.92.28,1.18.25.52-.08.63-.53,1.06-.68Z"/>
  <path class="cls-1" d="m302.49,10.84l1.64-1.38c-1.87.26-3.78.71-5.64,1.07l4,.31Z"/>
  <path class="cls-1" d="m291.34,8.05l.79-1.43c-1.06.05-2.13.17-3.19.25l2.4,1.17Z"/>
  <path class="cls-1" d="m107.25,411.75l2.17,1.07c-.99-.56-1.65-.88-2.17-1.07Z"/>
  <path class="cls-1" d="m93.83,400.93l-.84.32c.9.19,1.35.16.84-.32Z"/>
  <path class="cls-1" d="m42.7,101.42c-3.33,2.26-7.66,4.55-5.92,5.14h2.1c1.23-2.37,2.54-3.94,3.81-5.14Z"/>
  <path class="cls-1" d="m14.59,283.14c.09-.37.19-.75.28-1.14-.74-.75-1.44-1.46-2.06-2.09.55.97,1.08,2.09,1.78,3.22Z"/>
  <path class="cls-1" d="m22.17,284.09l-.06,4.76c.15-1.11.18-2.64.06-4.76Z"/>
  <path class="cls-1" d="m193.09,447.73c1.01-.38,2.02-.75,3.03-1.2-4.2-.8-2.52.4-3.03,1.2Z"/>
  <path class="cls-1" d="m175.03,9.88c-3.31.23-5.9.67-8.12,1.21,4.09-.13,7.5.47,8.12-1.21Z"/>
  <path class="cls-1" d="m90.48,422.16c1.46.71,2.21.83,2.41.5-1.47-.74-2.41-1.04-2.41-.5Z"/>
  <path class="cls-1" d="m157.94,14.05c.6-.02,1.17-.12,1.77-.17,1.08-.52,2.18-1.03,3.35-1.51,1.18-.47,2.42-.97,3.85-1.29-1.52.01-3.08.27-4.62.72-1.53.46-3.03,1.16-4.35,2.25Z"/>
  <path class="cls-1" d="m447.52,278.43c.12-.23.21-.52.33-.72-.22-.12-.29.22-.33.72Z"/>
  <path class="cls-1" d="m460.53,175.42c.39.99.86,2.65,1.33,4.21-.1-.79-.47-2.07-1.33-4.21Z"/>
  <path class="cls-1" d="m245.67.77c2.45,0,.4-.2,0,0h0Z"/>
  <path class="cls-1" d="m256.89,8.41c-.52.16-.93.38-1.02.77.23-.4.59-.64,1.02-.77Z"/>
  <path class="cls-1" d="m140,32.98c-.06.03-.11.05-.19.08.77.02.64.01.19-.08Z"/>
  <path class="cls-1" d="m249.3,1.78c-.9-.28-1.94-.53-3.09-.73.5.16,1.44.4,3.09.73Z"/>
  <path class="cls-1" d="m248.85.93c.84.13,1.49.22,2.12.32.33-.27.07-.47-2.12-.32Z"/>
  <path class="cls-1" d="m242.26.78c1.4,0,2.7.12,3.95.27-.47-.13-.67-.23-.54-.29-.72,0-1.73,0-3.41.02Z"/>
  <path class="cls-1" d="m347.71,427.29c.16-.03.33-.09.51-.1,1.61-1.78.8-1.17-.51.1Z"/>
  <path class="cls-1" d="m30.51,163.58c.02-.1,0-.17.01-.27-.06.09-.12.21-.17.29l.16-.02Z"/>
  <path class="cls-1" d="m29.16,171.63c-.98-3.91-.21-5.76,1.19-8.03-1.87.27-3.79.55-5.65.87,1.47,2.43,2.96,4.82,4.46,7.15Z"/>
  <path class="cls-1" d="m142.88,432.41l-4.35-3.86c3.61.33,6.36,1.21,7.77,1.49,1.43.24,1.45-.06-.4-2.2-.75,1.15-2.35,1.16-4.38.6-2.03-.57-4.52-1.63-6.89-2.92-2.4-1.24-4.8-2.48-6.82-3.14-1.97-.75-3.57-.9-4.44.16l-2.56-2.91c.88.6,1.19.42,2.05,1.01-4.73-5.91-6.64.49-14.02-5.43-2.43-2.23-3.72-4.29-1.59-3.45l-6.6-3.3c-.82-.67-.95-1.14-.71-1.25.24-.09.89.14,1.7.81-1.54-1.02-2.94-2.21-4.42-3.31l-4.39-3.38.17-.07c-1.78-.34-5.26-1.86-6.96-2.63-1.56-2.49,1.44.54,1.36-.45-1.8-1.08-3.66-2.12-5.43-3.26-.39-1.41.55-1.43,1.94-.73,1.44.66,3.35,2.02,4.84,3.52-.26-3.94-1.41-4.5-3.37-5.48-1.87-1.04-4.63-2.47-7.73-7.98,1.45,1.26,3,2.42,4.49,3.63-.1-1.2-.41-2.24-.87-3.22-.46-.98-1.09-1.89-1.73-2.91-1.31-1.99-2.96-4.15-4.35-7.14.12.88,1.33,4.05,1.88,6.55.54,2.49.42,4.3-2.29,2.28-.93-1.69-2.45-3.61-5.63-5.62,1.45-1.28-1.09-3.68-3.92-7l2.2-1.35c-.87-.8-1.6-1.31-2.19-1.7-.58-.39-1.08-.62-1.55-.79-.94-.34-1.79-.46-3.07-1.24-2.91-4.42-1.93-6.41-1.19-8.39-2.1-3.58-1.98-1.95-2.05-.4-.07,1.55-.32,3.03-3.25-1.02-.75-1.6-1.54-3.02-2.39-4.35-.8-1.36-1.63-2.65-2.57-3.92-1.87-2.56-4.19-5.08-6.74-8.51-1.49-4.79,1.78.04,1.62-1.87l-3.83-2.95c-.45-.97.27-.94.64-.93-2.33-2.96-2.44.87-5.52-4.16-.8-.07-1.29-.9-1.65-2.18-.18-.64-.33-1.4-.47-2.23-.07-.41-.14-.85-.22-1.29-.05-.45-.11-.92-.16-1.4-.23-1.92-.53-3.98-1.12-5.9-.58-1.93-1.53-3.7-2.82-5.16.12-1.93,1.75.28,2.51-.57-2.56-4.29-3.61-6.19-4.66-7.84-1.04-1.67-1.98-3.12-4.47-6.68l-.14-3.57c-.06-1.18,0-2.39,0-3.58-.72,5.45-4.38-.34-7.53-5.7-.49,2-.93,3.74-1.06,4.87l-1.73-4.46c-.59-1.49-1.03-3.02-1.55-4.53.21-1.21,1.25-.42,2.56.9-.32-.59-.63-1.15-.9-1.59.34-3.49,2.11-2,3.92.07-.3,1.2-.63,2.42-.96,3.6,2.04,1.94,4.19,3.63,5.55,2.85-.42-.51-.93-1.58-1.35-2.78.55.49,1,.78,1.19.46.21-.36-.62-1.16-1.49-2.51l2.44-2.58-1.2-.28-.16-5.99c-.05-.99-.02-1.99,0-2.99l.07-2.99c-.97-2-2.04-3.94-3.1-5.95-.97-2.02-1.97-4.1-2.92-6.37-.48-1.14-.95-2.32-1.4-3.56-.43-1.24-.77-2.55-1.12-3.94-.34-1.38-.65-2.84-.93-4.39-.27-1.55-.54-3.18-.61-4.92,2.01,3.44,3.4.74,5.87.94-1.36,1.84-.94,4.5-.34,7.52.31,1.51.65,3.12,1,4.78.36,1.66.63,3.38.63,5.13,0-3.66,1.24-2.93,1.72-2.04-1.21-4.05-1.96-8.17-2.91-12.33,1.02.13,1.38-.54,1.58-1.64.21-1.1.36-2.64.81-4.25-2.03,1.2-2.64-1.13-2.89-4.43-.06-.82-.11-1.71-.13-2.61.01-.9.03-1.82.04-2.71.02-1.79,0-3.5-.22-4.8,1.36-.2,2.65,1.12,1.88,7.26,1.75-3.32.73-5.56-.34-7.86-1.12-2.29-2.09-4.63-.42-7.85-.15,1.52-.45,2.31.15,2.98-.38-1.83-.08-4.89.44-7.21.53-2.32,1.4-3.86,1.79-2.77l-.23,1.49c.54-2.46,1.13-5.58,1.66-8.9.6-3.31,1.32-6.79,1.77-10.08.2-1.65.54-3.19.72-4.65.2-1.46.34-2.8.39-3.99.1-2.37-.12-4.09-.79-4.69.45.03,3.52,2.44,4.04,3.21-1.92-6.75-3.72-13.79-4.98-20.97,1.08,1.29,3.8,1.07,6.05,1.65,2.26.57,4.06,1.89,3.38,6.05.61-1.04,1.29-2.21,1.92-3.74.63-1.53,1.15-3.46,1.71-5.94-1.04,1.31-5.51,2.17-4.89-.01,2.74-2.24,3.55-3.03,4.39-4.03.41-.5.85-1.03,1.5-1.82.66-.78,1.54-1.81,3.02-3.19-1.64,1.93-4.6-2.44-2.73-5.94.35.85,4.2,1.71,4.01,3.19l.1-5.33c.05-1.79.21-3.54.32-5.33-.46,2.52,3.16,2.17,5.3.92-.63.22.39-1.58,1.66-3.75,1.33-2.13,3.02-4.56,3.48-5.77l-3.02,2.92c1.57-2.22,2.36-4.11,2.77-5.85.21-.87.3-1.71.39-2.51.09-.8.13-1.58.17-2.36.08-1.57.15-3.16.61-4.92.47-1.75,1.26-3.73,3.01-5.88-.07,1.64,2.68,5.94,6.42,1.92-.08-.85-.26-2.24-.39-4.02-.13-1.77-.25-3.95-.07-6.22.15-2.29.49-4.78,1.11-7.26.32-1.23.67-2.5,1.19-3.66.51-1.17,1.11-2.3,1.79-3.38l2.28-.53c1.37-2.22,2.72-4.49,4.24-6.62-.55,2.85-1.63,8.13-2.91,13.35-.68,2.58-1.19,5.35-1.79,7.81-.58,2.48-1.18,4.7-1.71,6.5,3.38-2.48,1.93.1,5.69-4.6,2.29-.83-.66,3.72-1.72,5.1l4.75-5.07,1.18-1.27,1.25-1.21,2.49-2.41c-1.2-.68.1-3.1,1.48-5.51,1.45-2.33,3.01-4.62,2.03-5.24-3.08,4.18-5.73,8.68-8.49,12.98-1.22-.66-1.16-3.53.16-7.2.68-1.81,1.59-3.9,2.94-5.84,1.35-1.94,3-3.88,4.9-5.59,2.58-1.04,1.93,4.81,2.73,5.29.07-.39.45-1.08,1-1.91.55-.83,1.26-1.78,2.07-2.63,1.57-1.73,3.25-3.29,3.81-3.35l-2.2,3.89c2.41-1.47,3.49-3.63,4.84-5.77,1.36-2.11,3.1-4.07,6.49-5.19.97-.64,2.8-1.1,4.39-1.43,1.58-.35,2.83-.73,2.52-1.49-4.82-.29-11.31-7.3-10.54-10.71.41-.17,3.45-1.48,6.74-2.76.83-.32,1.66-.65,2.49-.93.84-.27,1.66-.52,2.43-.73,1.53-.44,2.82-.74,3.6-.8,2.31-.07,1.84,1.95,1.32,3.95-.52,2-1.08,3.98.86,3.95-.29-.69.98-2.6,1.57-3.33,2.39-.81.39,2.47,4.64-.71-.68-2.78,9.45-5.26.96-3.24,2.06-1.65,3.33-2.24,4.74-2.8,1.41-.56,2.92-1.16,5.64-2.58-1.28-.33-.78-2.28.64-4.56.71-1.14,1.65-2.37,2.69-3.51.52-.56,1.06-1.13,1.63-1.61.57-.47,1.15-.9,1.72-1.27,0,.76,1.49,1.07,2.19,1.21,2.51-1.08,4.76-1.97,6.86-2.76,2.13-.72,4.13-1.29,6.09-1.89,1.96-.6,3.89-1.2,5.94-1.83,2.07-.57,4.24-1.22,6.64-2.02,1.09.31,5.94-.44,4.32,1.32,1.24-.86,2.25-2.1,5.22-3.01,6.39.64-6.53,2.23-1.35,3.71-.04-.81,1.72-1.88,4-3.01,1.14-.55,2.4-1.2,3.65-1.69,1.25-.51,2.47-1.02,3.49-1.51-.47-.52-1.34-.66-2.44-.56-1.1.11-2.44.44-3.82,1.02-2.76,1.11-5.76,2.73-7.74,3.8-.5-1.61.85-3.79,3.62-6.13,1.39-1.15,3.12-2.43,5.17-3.54,2.06-1.09,4.42-2.16,6.99-3.15,2.07-.69,3.36-.96,4.16-.92.8.02,1.1.25,1.17.54.15.57-.56,1.34.13.98,4-.56,6.78-1.35,8.94-2.23,2.17-.77,3.71-1.65,5.18-2.46,1.47-.81,2.88-1.56,4.79-2.06,1.9-.5,4.33-.57,7.76-.24,5.51,1.74.52,4.25,1.82,5.71-3.43.68-6.1.5-8.52.31-2.41-.13-4.57-.39-6.91-.05l5.88.28c-2.12.99-6.61,2.1-9.2,1.8,1.17.34,3.41.32,6.32.11,1.46-.1,3.07-.27,4.81-.44,1.74-.11,3.6-.23,5.52-.35,1.92-.12,3.89-.29,5.88-.35,1.99-.02,3.99-.04,5.93-.02,1.95.04,3.84,0,5.63.2,1.79.17,3.47.38,4.99.64,2.18-.67,5.98-1.33,4.24-2.24l-3.9.21c-3.57-1.81,7.46-2.23,2.52-3.15.67-.14,1.35-.29,2.04-.44.69-.13,1.4-.24,2.12-.36,1.44-.23,2.94-.45,4.5-.6,1.57-.14,3.2-.22,4.91-.15,1.7.14,3.47.42,5.31.89l1.1,2.6c-.06-.73-4.68-2.04-6.84-1.53,1.6-.37,4.37.81,7.16,1.71,1.4.46,2.81.83,4.11.95,1.29.16,2.48.03,3.45-.62-1.63-.84-3.27-1.74-4.94-2.48,1.38-.17,2.84-.32,4.36-.47,1.53-.15,3.13-.31,4.76-.39,1.63-.06,3.32-.13,4.97.07,1.66.2,3.31.55,4.92,1.1-2.51-3.02-1.55-.08-5.73-3.85,1.73,2.08-2.54,1.31-6.5.63-1.98-.34-3.88-.68-4.91-.59-1.04.11-1.18.55.34,1.69-2.2-1.95-4.29-2.53-6.57-3.1-2.29-.56-4.75-1.13-7.89-2.71.14.82,2.17,1.7-3.5.9-.27.22-.9.47-1.3.62-.17-.04-.23-.05-.38-.09.11.04.2.07.31.12-.25.1-.28.13.11.04,1.33.45,2.4.95,2.81,1.43-1.47.85-4.43,1.02-7.41,1.24-2.98.27-5.97.43-7.48.88-3.33-.46,1.4-.9-.41-1.8l-2.27.67-2.25.77c-.44-1.79-9.01-2.75-1.07-4.01l-7.19.11c-2.14-.46-4.67-.54-7.12-.51-2.44.07-4.8.28-6.55.88-3.43.04-8.26,3.05-5.51,1.28-1.84.43-3.68.82-5.51,1.28l-5.44,1.53-.18-.42c-5.51.74-10.9,2.89-16.54,4.54-5.57,1.97-11.41,3.45-17.9,4.07-1.7.82-3.41,1.65-5.45,2.51-2.01.93-4.34,1.87-7.34,2.78l-1.72-.99c-2.16,1.07-5.58,2.26-8.67,3.39-3.09,1.13-5.83,2.22-6.37,3.47-1.62-.34-3.77.12-6.2,1.05-1.22.47-2.51,1.05-3.83,1.71-1.31.69-2.63,1.52-3.97,2.35-1.34.84-2.68,1.72-4.01,2.59-1.32.88-2.64,1.71-3.85,2.61-2.44,1.76-4.7,3.31-6.59,4.33l.87,1.86c-.62.39-1.23.78-1.83,1.18-.58.44-1.15.88-1.73,1.32-1.15.9-2.29,1.83-3.44,2.82s-2.33,2.02-3.54,3.11c-1.19,1.12-2.38,2.36-3.66,3.64l1.46,1.12c-1.92,2.53-5.26,4.65-8.81,7.29-1.8,1.29-3.72,2.62-5.64,4.06-1.87,1.49-3.68,3.12-5.4,4.87-.01-.95,1.89-2.57,3.43-3.51-2.78,1.32-5.17,3.22-7.31,5.38-2.07,2.23-3.83,4.79-5.56,7.29-1.77,2.47-3.25,5.12-4.97,7.44-1.71,2.33-3.61,4.36-5.75,6.06-1.07,2.5-2.4,3.89-3.88,5.1.14-.2.25-.39.32-.58-.18.2-.43.52-.67.85-.97.74-1.95,1.52-2.91,2.44.99-.67,1.86-1.34,2.56-1.97-1.19,1.65-2.7,4.37-4.05,7.11h-2.33c-.12.22-.23.38-.35.61-2.28,2.09-.58,2.47,1.52,1.96-.62,1.41-.98,2.83-1.16,3.98-1.94.19-2.76,2.02-3.65,3.92-.44.95-.91,1.92-1.54,2.72-.61.82-1.38,1.48-2.5,1.79.21,1.29-1.35,4.77-2.67,8.28-1.18,3.59-2.11,7.21-.92,8.64-.44-.1-1.02.6-.34-.86-1.87,2.78-3.5,5.72-3.8,8.83l-2.81.34.08,3.98.25,3.99c-2.93,3.56-4.41,5.04-4.62.24-.26,2.76-.52,4.65-.74,6.11-.18,1.47-.36,2.49-.54,3.47-.33,1.94-.67,3.7-.59,8.39l-1.41-.87c-.79,3.15-.07,8.63-1.84,10.17-1.16,1.56-2.19,4.54-3.27,8.38-.26.96-.55,1.97-.79,3.04-.21,1.07-.43,2.19-.66,3.34-.42,2.31-.86,4.78-1.32,7.33-1.46,10.27-2.47,21.97-3.86,31.3,2.39-1.78,1.77.37,1.12,3.07-.58,2.7-1.28,6,.54,6.31-1.07,1.11-1.62,3.76-2.66.76.17,1.19.27,2.31.33,3.37.08,1.06.17,2.05.2,3,.08,1.9.05,3.61.08,5.23.05,1.62.06,3.15.46,4.65.37,1.5.95,2.99,1.92,4.53-.96,1.23-1.86-1.83-2.39-.79.33.74,1.33,2.91.81,3.99-.53,1.06-1.09-1.27-1.76-2.73.36,2.44.84,4.31,1.42,5.73.65,1.41,1.37,2.37,2.13,3.04,1.53,1.33,3.22,1.45,4.85,1.52-.32,2.53-.32,4.4.1,6.01.49,1.59,1.39,2.93,2.8,4.4-.64,1.87-1.06,4.91-2.77-.87.14.83.43,2.53.79,4.6.19,1.04.4,2.17.61,3.33.27,1.15.58,2.33.89,3.49,1.27,4.62,2.73,8.79,4.07,8.54-.28,1.2,1.33,4.52,1.89,5.26.56,1.8.99,3.19,1.36,4.38.38,1.18.75,2.13,1.09,3.09.71,1.91,1.45,3.79,2.93,7.19l-.37-2.07c3.86,1.55,3.02,5.36,5.83,10.64l-.36-.02c.87,3.36,1.69,5.28,2.29,6.55.61,1.27,1.05,1.86,1.49,2.45.44.59.86,1.18,1.42,2.45.29.63.59,1.44.98,2.49.42,1.03.91,2.31,1.48,3.93l1.29-1.59c2.11-.48,3.06,2.35,4.18,6.1,1.23,3.67,2.76,8.24,5.56,11.06-.23-.98-.43-1.98-.65-2.97,1.7,1.41,2.31,4.57,2.75,7.97.45,3.38.69,7.04,1.91,8.87.33.96-1.42-.8-2.43-1.72,5.27,10.51,2.91-.36,8.68,5.88-.03,1.04-1.01,1.2-1.55,1.68-.27.24-.44.55-.32,1.1.12.55.51,1.34,1.44,2.45.55,1.43,4.17,3.87,8.05,6.8,2.01,1.4,4.09,2.93,5.9,4.57.9.82,1.73,1.67,2.46,2.55.75.85,1.41,1.71,1.9,2.61-.56-1.94-1.07-3.83,2.35-1.74,1.17.95,2.33,2.29,3.52,3.79.59.76,1.2,1.54,1.82,2.34.64.77,1.3,1.55,1.97,2.31,2.69,3.02,5.52,5.86,8.75,6.13.44.69.5,1.08.37,1.3,1.05.53,2.38,1.28,3.82,2.13,1.45.84,3,1.78,4.6,2.55,3.17,1.59,6.19,2.94,7.81,2.97-.06,2.02,1.61,3.71,4,5.32,2.4,1.59,5.53,3.08,8.66,4.23,3.11,1.18,6.04,2.37,8.11,3.42,2.06,1.05,3.17,2.19,2.48,3.55,2.16.97,4.28,2.02,6.46,2.92l6.57,2.66-.58.43c1.02.5,1.97.93,2.86,1.3.89.37,1.74.63,2.51.87,1.56.48,2.89.77,4.07.95,2.36.34,4.08.25,5.82.05,1.84,1.03.22,1.11-.05,1.35,6.09,2.6,9.48,4.02,12.83,4.55,1.67.3,3.3.45,5.23.52.97.02,1.99.08,3.15.02,1.16-.06,2.43-.12,3.85-.19l.69,2.18c.79-.12,2.31.26,4.35.92,2.04.67,4.65,1.38,7.57,2.22,1.46.4,3,.83,4.6,1.2,1.61.31,3.27.6,4.95.83,1.68.23,3.39.41,5.08.5,1.69.11,3.39-.02,5.03-.17-.14.21-.44.58-1.5.78,7.38-.55,16.04,1.18,23.72,1.76,1.92.14,3.76.24,5.49.26.87,0,1.7,0,2.5-.05.8-.08,1.56-.18,2.29-.31,2.89-.54,5.11-1.58,6.28-3.47l2.35-.63c.78-.23,1.56-.49,2.33-.73l4.63-1.48c-6.16.49-5.77-.34-4.52-1.37,1.25-1.03,3.35-2.24.81-2.53,2.33-.51,5.45-.35,7.29.06.92.2,1.51.42,1.51.72,0,.28-.58.67-2.03.93l-.97-.24c-.41,1,.34,1.46,1.71,1.63,1.37.16,3.33-.09,5.35-.35,2.02-.26,4.09-.58,5.67-.66,1.58-.07,2.65-.05,2.7.62,2.98-.7,5.95-1.37,8.92-2.02,2.96-.7,5.87-1.52,8.8-2.24,1.46-.39,2.94-.69,4.38-1.14,1.44-.43,2.88-.86,4.32-1.29,1.44-.42,2.88-.85,4.31-1.27.72-.22,1.44-.41,2.15-.64l2.11-.73c2.82-.98,5.63-1.95,8.43-2.92,2.77-1.06,5.48-2.21,8.21-3.32,1.35-.57,2.73-1.1,4.05-1.72,1.32-.64,2.63-1.27,3.95-1.9,1.31-.64,2.61-1.29,3.91-1.93,1.3-.64,2.6-1.29,3.84-2.03-1.25-.41-2.47-.79-3.72-1.26,2.36-1.21,4.65-2.56,6.98-3.83,2.15-.47,3.62.54-1.4,3.33,1.72-.04,3.63-1.56,5.07-3.14,1.46-1.54,2.33-3.32,2.24-3.61,4.98-2.55,4.55-1.25,3.21.49-1.34,1.73-3.61,3.89-2.14,2.98l3.82-2.76-1.07.29c1.27-1.54,1.79-2.62,2.72-3.77.46-.58,1.04-1.16,1.85-1.84.79-.72,1.81-1.53,3.22-2.51,3.85-2.08,2.87.14,4.32-.78.11.17.65-.09,2.18-1.49,2.73-2,5.39-4.1,8.09-6.16l-4.61.75c1.38-1.84,3.23-3.3,4.08-4.19.43-.44.58-.77.32-.89-.25-.12-.94-.07-2.26.14,3.86-.63,11.23-6.52,17.58-12.99,1.65-1.55,3.11-3.26,4.55-4.83,1.43-1.57,2.77-3.06,3.97-4.38,2.36-2.68,4.09-4.76,5.02-5.35.68-1.47,1.43-2.86,2.25-4.21.78-1.38,1.61-2.75,2.53-4.1,1.81-2.72,3.99-5.37,6.16-8.5-1.46,1.29-4.21.71-.3-4.46.78,1.24,1.71,1.33,2.76.71,1.05-.61,2.27-1.91,3.45-3.51,1.21-1.59,2.5-3.41,3.88-5,.69-.8,1.4-1.53,2.12-2.16.69-.64,1.41-1.17,2.15-1.52-2.27,1.47-.13-2.74,1.7-6.69.96-1.96,1.66-3.95,1.81-5.07.14-1.13-.33-1.44-1.96-.18,2.79-4.71,1.94.61,4.91-2.6.47-1.6,1.11-3.16,1.68-4.78.58-1.62,1.24-3.25,1.96-4.89.71-1.64,1.51-3.28,2.28-4.97.73-1.7,1.5-3.42,2.29-5.16.77-1.75,1.63-3.49,2.37-5.3.72-1.82,1.45-3.66,2.15-5.53.34-.94.69-1.88,1.03-2.82l.5-1.42.42-1.45c.55-1.94,1.06-3.91,1.5-5.9-.62-.42-2.36,1.92-2.47-1.69,1.93-2.43,3.6-4.97,5.38-7.53.18-1.61-.66-2.55-1.08-3.72-.21-.59-.32-1.24-.16-2.07.13-.84.53-1.86,1.38-3.19-.72.71-1.8,1.76-1.67-.39,4.47-15.28,5-31.74,4.15-47.93-.85-16.27-3-32.25-3.77-48.8-.34,4.62-1.12,1.78-1.93-1.46.18,2.2-1.69.38-2.52,1.03-.15-2.26-.35-4.53-.53-6.81l-.28-3.43c-.09-1.15-.19-2.3-.36-3.43-1.66-.77-2.85-4.17-4-7.45-.54-1.65-1.19-3.23-1.85-4.43-.65-1.2-1.32-2.03-2.04-2.12l1.99,3.78c-2.45-2.1-3.23.34-4.01,3.3-.85,3-1.64,6.51-3.58,6.74,1.29,1.16,1.96,2.8,2.36,4.7.34,1.92.33,4.14.43,6.42.04,1.14.11,2.31.24,3.48.06.58.14,1.17.24,1.75.08.59.17,1.18.29,1.77.48,2.35,1.4,4.64,3.15,6.8-.28,2.29-1.62-1.55-2.23-.23,2.23,2.06,3.02,5.02,3.29,10.65l-.51-.56c.19.96.37,1.89.55,2.79.15.9.24,1.78.35,2.64.21,1.71.38,3.32.51,4.87.12,1.55.3,3.03.29,4.51.02,1.47.02,2.92,0,4.38-.02,1.46-.04,2.94-.06,4.46,0,1.53-.18,3.11-.26,4.78-.09,1.67-.19,3.43-.3,5.31-.02.47-.05.95-.07,1.44-.05.49-.09.98-.14,1.49-.09,1.01-.18,2.06-.28,3.15l1.92-1.27c-.34,3.78-.95,4.55-1.46,6.29,2.77,4.45.4-10.59,3.48-6.58-.99,1.25-1.53,3.54-1.84,6.32-.12,1.39-.35,2.9-.5,4.47-.14,1.57-.28,3.19-.42,4.8-.07.8-.14,1.61-.21,2.4-.09.79-.22,1.56-.34,2.31-.24,1.5-.51,2.92-.82,4.18-.63,2.52-1.42,4.41-2.68,5.06-.99,5.68,2.45-1.34,1.46,4.37l-1.42,1.31,1.26,1.72c-.23.93-.48,1.73-.82,2.39-.34.66-.71,1.2-1.07,1.63-.73.84-1.44,1.21-1.95,1.18.31-.87.28-2.59.41-3.56-1.21,2.25-1.83,5.61-2.24,8.63-.18,1.52-.45,2.91-.65,4.04-.21,1.13-.41,1.97-.63,2.35.7-1.71,1.45-3.42,2.13-5.15-.34,1.94-.8,3.91-1.26,5.91-.24,1-.49,2.01-.73,3.03-.13.51-.26,1.02-.38,1.53l-.46,1.52c-1.3,4.05-2.5,8.24-4.09,12.28-.74,2.04-1.47,4.08-2.2,6.1-.81,1.99-1.59,3.97-2.32,5.94-1.38,3.97-2.96,7.72-4.08,11.44l1.31-.65c-.46,1.41-.87,2.6-1.29,3.61-.45.99-.86,1.82-1.26,2.54-.79,1.43-1.51,2.43-2.27,3.43-.77,1-1.52,2.05-2.54,3.51-1.03,1.46-2.23,3.37-3.75,6.22l.06-.51c-.53,2.71-2.17,5.78-4.24,8.66.96-3.27-5.11,3.88-3.66-.3-.35.72-.67,1.36-.96,1.95-.31.58-.59,1.09-.84,1.56-.5.94-.88,1.68-1.17,2.28-.58,1.21-.79,1.86-.89,2.44-.1.58-.07,1.08-.18,1.98-.11.9-.32,2.23-1.06,4.37l-2.4.56c-.4,1.53-.51,2.46-1.01,3.67-.5,1.19-1.32,2.72-3.43,5.23,2.66-4.77-4.47,1.52-1.71-3.96-2.89,1.94-5,3.94-6.7,5.91-1.74,1.92-3.13,3.73-4.35,5.4-1.25,1.64-2.31,3.17-3.66,4.2-1.34,1.05-2.84,1.74-4.77,1.87-.94,3.59,1.6,2.09,4.16.03,2.61-2,4.93-4.81,4.02-3.24,1.51-.54,1.13.91-.07,2.86-1.25,1.89-3.38,4.2-5.12,5.48-.83.71-1.81,1.13-2.94,1.47-1.12.34-2.45.52-3.89.87-1.45.34-3.04.8-4.79,1.6-.87.4-1.79.89-2.74,1.49-.99.56-2.02,1.22-3.11,2.02.88-.62.75-.91,1.63-1.52-1.94.77-3.32,2.21-4.85,3.66-.76.73-1.57,1.45-2.49,2.09-.95.6-2.03,1.1-3.29,1.42-.96,3.59-5.44,3.39-4.44,6.52l7.96-6.08c-2.13,1.88-3.8,4.33-6.08,6.78-1.12,1.26-2.48,2.35-4.08,3.43-1.6,1.06-3.48,2.04-5.74,2.83.33-.93,2.32-3.07,3.73-4.44-1.42.29-2.47,1.08-3.54,1.88-1.07.8-2.15,1.62-3.65,1.83-.21-.8.37-1.54,1.33-2.4.97-.86,2.38-1.75,3.94-2.71,1.56-.96,3.28-1.97,4.84-3.08,1.52-1.18,2.89-2.43,3.81-3.76-1.58.21-3.59,2.3-5.24,3.63-1.65,1.32-2.79,2.05-2.38-.18-.74,2.96-3.12,4.19-5.86,5.48-2.81,1.18-5.98,2.36-8.49,5.54l-.42-1.92c-.86.84-2.66,2.62-4.62,3.46l2.43-3.81c-2.21,2.16-4.99,2.92-7.76,3.55-2.75.69-5.6.95-7.98,2.53,5.44-2.17,6.26-1.91,6.38-1.16.13.77-.47,2.06,2.1,1.66-1.53,1.09-2.89,1.74-4.06,2.26-1.17.5-2.15.81-3.02.97-1.74.33-3.01.11-4.34-.14-1.32-.22-2.74-.59-4.74-.48-2.01.09-4.58.71-8.35,2.15,2-.88,8.14-1.54,5.18.42-1.54.29-3.3.67-4.99.77-1.68.11-3.24.1-4.28-.13-10.19,3.3,2.11,1.43-1.98,3.8-4.12-1.17-4.9,2.21-9.41,4.04l-.45-1.88c-1.54.19-2.72.41-3.65.65-.93.2-1.6.41-2.1.65-.99.47-1.26,1.03-1.5,1.56-.48,1.07-.83,2.09-6.49,2.34l4.21-3.47c-1.86.54-3.72,1.18-5.6,1.65.29-.78.58-1.53.85-2.33-2.97,1.22-4.99,1.76-7.01,2.04-1.01.14-2.03.21-3.18.25-1.15.04-2.44-.04-3.98-.07,1.55,1.25-.5,3.55-6.02,4.03-3.81-.95,2-1.86-5.76-1.36.86-.63,1.75-1.33,2.85-1.67.55-.17,1.15-.24,1.84-.18.68.04,1.44.22,2.31.6.31-.65,1.64-1.34,1.94-1.99-4.04-.89-9.97.16-12.76.28,1.07.04,2.35.11,3.01.37-1.84.49-3.7,1.01-5.57,1.47l-5.64,1.21c-1.75-.76-.33-1.31,1.07-1.85-1.13.08-2.1.33-3.2.58-1.1.24-2.35.51-4.02.45.94-1.52.83-3.06,5.51-3.73-3.53.58-7.07.83-10.64,1.17-.33-.36-1.64-.93-2.69-1.46-1.05-.51-1.82-1.1-1.12-1.29-2.84-.82-6.45-.45-10.35-.23-1.94.04-3.94.05-5.93-.09-1.99-.16-3.97-.41-5.8-1.17-.46.21-1.31.32-2.97.19-1.77-.48-3.47-1.04-5.15-1.61-1.67-.64-3.32-1.31-5.03-1.9-1.71-.6-3.48-1.1-5.38-1.53-1.88-.48-3.89-.84-6.12-.99-1.26-1.42-2.54-2.73-3.74-4.21-3.25-.88-2.02.53-1.31,1.8.71,1.27.91,2.4-4.63.89-3.95-1.01-4.44-1.82-4.22-2.63.22-.79,1.1-1.52-.03-2.43-2.09-.13-5.01-.22-8.18-.92-3.14-.73-6.44-2.27-9.25-4.88,2.44.6,3.97,1.81,6.11,2.63Zm-68.02-48.82c.7.47,1.81,1.11,2.75,1.83.98.68,1.78,1.45,1.79,2.27-1.45.1-2.24-.29-2.86-1.01-.6-.74-.98-1.83-1.68-3.08Zm-58.88-113.71c.79,1.14.85,3.06.5,5.33-.42-1.53-.7-3.3-.5-5.33ZM219,2.73c-.07.04-.12.06-.18.11-4.01-.45-2.58-.26.18-.11Zm8.23.4c.81-.29.75-.56.39-.82-.56.51-2.4.58-4.5.52.61.47,1.68.8,4.11.3Zm148.52,421.07l-1.58.53c2.56-2.55,2.05-1.56,1.58-.53Z"/>
  <path class="cls-1" d="m21.28,283.94c-.21.53-.54.73-.87.92.46.57.83.49.87-.92Z"/>
  <path class="cls-1" d="m192.53,447.94c.08.03.16.05.24.08.16-.08.26-.18.32-.29l-.56.21Z"/>
  <path class="cls-1" d="m116.67,54.57c-1.46.62-2.39.81-3.08.83.19.44,1.01.38,3.08-.83Z"/>
  <path class="cls-1" d="m270.98,2.39c-1.77-.17-3.56-.17-5.33-.22,2.56.22,3.42.71,4.64,1.26-.05-.47-.95-1.28.69-1.03Z"/>
  <path class="cls-1" d="m311.61,24.94c.77.04,1.47.53,2.24.56l.12-.91c-2.98-1.06-5.28-1.15-2.36.36Z"/>
  <path class="cls-1" d="m274.74,9.53c.06.83.91,1.25,2.2,1.5.64.12,1.4.2,2.21.27.81.1,1.69.21,2.58.33-.21-.04-.42-.07-.62-.14.75-1,.14-1.52-1.15-1.8-1.29-.27-3.27-.19-5.23-.15Z"/>
  <path class="cls-1" d="m282.56,11.75c1.1.16,2.22.37,3.27.68.61-.8-1.29-.48-3.27-.68Z"/>
  <path class="cls-1" d="m237.62,1.92c1.74.46,1.13-2.05,2.11-1.37,1.01-1.01-1.96-.45-3.93.25-.99.34-1.73.78-1.63,1.02.1.23,1.04.31,3.44.1Z"/>
  <polygon class="cls-1" points="276.65 15.28 275.75 13.09 273.51 14.35 276.65 15.28"/>
  <path class="cls-1" d="m249.01,10.41l5.63.96c-.06-.34.68-.49,1.58-.57-3.49-.32-7.31-.99-7.21-.38Z"/>
  <path class="cls-1" d="m256.22,10.8c1.82.19,3.54.4,4.59.18-.99-.08-3.11-.32-4.59-.18Z"/>
  <path class="cls-1" d="m268.93,14.58c-.53-.23-1.05-.47-1.59-.68l-3.94-.62c1.85.44,3.71.76,5.53,1.3Z"/>
  <path class="cls-1" d="m188.08,14.59l-5.93,1.95c-.45.81,1.29.84,3.47.06,1.34-.8,3.53-1.57,2.46-2.01Z"/>
  <path class="cls-1" d="m207.33,16.9c-1.68-.21-1.85-.64-2.87-1.17l.16,2.48,2.71-1.31Z"/>
  <path class="cls-1" d="m189.98,20.38c-.46.81-8.09,3.89-.7,2.03.23-.4,1.78-1.09,2.59-1.57.41-.22.63-.41.4-.52-.23-.11-.91-.14-2.3.05Z"/>
  <polygon class="cls-1" points="105.1 54.17 106.34 53.23 103.82 50.02 105.1 54.17"/>
  <path class="cls-1" d="m56.67,117.8c4.74-5.19-1.16-2.81,3.45-7.31.12-.93-.91-.07-1.8.88-.92.94-1.82,1.88-1.69.94-1.57,4.1-3.29,5.6.04,5.49Z"/>
  <path class="cls-1" d="m56.63,112.31c.25-.66.5-1.37.72-2.16-.49,1.17-.66,1.76-.72,2.16Z"/>
  <path class="cls-1" d="m457.23,157.7c-.22-1.66-.62-3.26-.95-4.89l-.12,3.43c.38.48.71.97,1.06,1.46Z"/>
  <path class="cls-1" d="m451.03,150.05l1.98-2.05-3.25-1.81c.51.97,1.5,2.87,1.27,3.86Z"/>
  <path class="cls-1" d="m70.75,370.77l-.7.13c-.1.96.52,1.8,1.74,3.49l-1.05-3.62Z"/>
  <polygon class="cls-1" points="113.33 412.95 112.5 412.32 112.77 415.35 113.33 412.95"/>
  <path class="cls-1" d="m159.08,433.91c-.93-.42-2.03-.66-3.09-1.01-1.06-.34-2.12-.69-3.05-1.14,4.21,1.43,5.6,5.05,6.13,2.15Z"/>
</svg>