<?xml version="1.0" encoding="UTF-8"?>
<svg id="Layer_3" data-name="Layer 3" xmlns="http://www.w3.org/2000/svg" viewBox="0 0 844 849.34">
  <defs>
    <style>
      .cls-1 {
        fill: #3bceac;
        stroke: #000;
      }

      .cls-1, .cls-2 {
        stroke-miterlimit: 10;
      }

      .cls-3 {
        fill: #111;
      }

      .cls-2 {
        fill: #fff;
        stroke: #111;
      }

      .cls-4 {
        fill: #fcfcfc;
      }
    </style>
  </defs>
  <rect class="cls-1" x=".5" y="124.14" width="843" height="601" transform="translate(844 849.27) rotate(180)"/>
  <path class="cls-3" d="m263.5,516.18l-46-67s-16-21,5-33c1-2,45.6-40.56,56.8-53.28,5.4-.44,18.2-16.72,24.2-12.72,3-1,66-21,66-21,0,0,18-8,25,13,10,16,51.78,95.28,51.78,95.28,0,0,7.22,6.72-3.78,18.72-3,7-46.78,60-46.78,60l-18.22,18h0c3.61,2.62,1.87,8.32-2.59,8.48-35.59,1.25-129.33,4.52-137.41,4.52-8.57,0-29.39,1.13-28.34-9.43.35-3.55,3.05-6.43,6.49-7.37,10.68-2.9,39.17-10.38,50.85-6.2,14,5-3-8-3-8Z"/>
  <path class="cls-2" d="m325.16,532.63c14.56,1.17,34.19-1.34,30.34-24.45-3.58-7.66-8.72-17.94-12.9-26.16-3.16-6.23-5.57-12.81-7.1-19.62-.67-2.99-2.43-7-6.64-11.72-8.73-15-18.36-30.64-18.36-30.64,0,0-9-9.86-17-2.86-13,4-66,14-66,14,0,0-7,4.15,0,15.07,7,10.93,50,76.93,50,76.93,0,0,24.29,12.82,31.3,10.75,5.28-1.56,10.87-1.74,16.36-1.3Z"/>
  <path class="cls-2" d="m375.46,340.7l-56.96,61.48s-8,10,2,24c9,17,46,75,46,75,0,0,23,23,31,5,1.36-2.05,23.2-30.14,36.94-47.8,6.68-8.58,7.47-20.36,2-29.76l-50.48-86.76c-2.22-3.82-7.5-4.4-10.51-1.16Z"/>
  <path class="cls-2" d="m227.5,417.18l59-53s7.51-11.26,17.07-11.06c.77.02,1.52-.13,2.25-.36,9.94-3.05,68.68-20.59,68.68-20.59h0c2.21,0,3.32,2.67,1.75,4.23l-60.78,60.82s-4.8,19.93-30.39,17.44c-12.17,3.02-49.59,11.51-49.59,11.51,0,0-12,1-8-9Z"/>
  <path class="cls-3" d="m418.19,379.2l12.81-30.51s0-9,9-9c34-8,42.21-12,46.11-7.5,8.79,3,114.89,49.39,114.89,49.39,0,0,16,6.11,8,30.11l-35,103h0s66.5,16.45,27,19.47c-108,5.05-120.5,6.03-120.5,6.03,0,0-7,10-19,4,0,0-30.62,15.83-43.31,1.92-.27-.03-.55-.06-.82-.09-18.02-1.97-26.14-23.61-13.9-36.98l18.5-20.22,21.73-32.11c4.83-7.13,5.51-16.29,1.79-24.06h0s31-95.46,31-95.46c0,0-3-5-5,3l-18.43,55.3c-1.46,4.38-4.94,7.88-9.4,9.04-5.69,1.48-12.44-1-12.71-20.84-.91-25-12.77-4.49-12.77-4.49Z"/>
  <path class="cls-2" d="m439.13,463.47s-1.82,40.48,85.28,49.6c-.81.24,41.1,7.12,44.1-16.88,4.72-10.22,24.88-66.79,33.29-90.52,2.08-5.87-.81-12.34-6.56-14.72l-99.82-41.2c-8.61-3.55-18.42.92-21.39,9.75l-34.9,103.97Z"/>
  <path class="cls-4" d="m429.5,366.18l4-15s1-8,7.5-8c8-3,26.5-7,26.5-7,0,0,5,.26,0,8.63-10.04,28.87-14.45,42.06-16.38,48.08-1.56,4.85-6.93,7.59-11.63,5.62-3.46-1.45-6.52-5.37-6.66-14.6.34-3.44-3.33-17.72-3.33-17.72Z"/>
</svg>