<?xml version="1.0" encoding="UTF-8"?>
<svg id="Layer_6" data-name="Layer 6" xmlns="http://www.w3.org/2000/svg" xmlns:xlink="http://www.w3.org/1999/xlink" viewBox="0 0 851.12 844.33">
  <defs>
    <style>
      .cls-1 {
        fill: #fff;
      }

      .cls-2 {
        fill: #0ead69;
      }

      .cls-2, .cls-3 {
        stroke: #000;
        stroke-miterlimit: 10;
      }

      .cls-3 {
        fill: #942eff;
        filter: url(#outer-glow-1);
      }
    </style>
    <filter id="outer-glow-1" filterUnits="userSpaceOnUse">
      <feOffset dx="0" dy="0"/>
      <feGaussianBlur result="blur" stdDeviation="10"/>
      <feFlood flood-color="#000" flood-opacity=".8"/>
      <feComposite in2="blur" operator="in"/>
      <feComposite in="SourceGraphic"/>
    </filter>
  </defs>
  <rect class="cls-2" x="2.28" y="124.33" width="848.34" height="597" transform="translate(852.9 845.66) rotate(180)"/>
  <path class="cls-3" d="m421.79,364.73h10.96l22.54-80.5s3-39,45-35c4,0,71,15,84,49-2-4,24,19-7,54,1,0-18.77,8-40.88,12.5,2.77,1-11.12,19.5-17.12,39.5,0,2,67.81,91.77-12.09,167.88-2.81,4.23-72.71,68.88-163.81,0,4.81.23-76.1-65.88-8.1-162.88,0-2-38.66-143.55-27.33-180.78-1.34.55,28.33-69.22,88.33-2.22,0,0,19,12,25.5,138.5Z"/>
  <path d="m328.29,522.23s-21-73,22-110c-1-2-55.13-186.79-13.56-201.39,1.13-1.21,66.56-15.61,66.56,110.39,1,4,5.89,62.44,4.95,61.72s13.54-6.28,38.3,0c-1.49,1.56,17.76-94.72,21.76-102.72l3,1s10-32,48-11c5,1,30-5,58,40-2,2,14,37-50,41,0-1-25,59-25,59,0,0,77,75-10,156,2-4-92,77-164-44Z"/>
  <path class="cls-1" d="m356.79,468.73l52,16s-8,19-30,14c-1,0-16-2-22-30Z"/>
  <path class="cls-1" d="m442.96,484.15l23.83-6.42,3-18,3.81,12.21,23.19-6.21s1.55,29.68-24.72,33.84c1.45-.68-2.18,12.29-2.18,12.29l-3.43-12.29s-12.32,1-23.49-15.42Z"/>
  <path class="cls-1" d="m408.84,524.73l-.04-.1s11.34-12.19,34.17-2.04c-.34,1.3,7.83,5.15-15.17,21.15.36-.71-1.33-1.81-3.64-2.93-6.9-3.33-12.39-9-15.32-16.08Z"/>
</svg>