<?xml version="1.0" encoding="UTF-8"?>
<svg id="Layer_1" data-name="Layer 1" xmlns="http://www.w3.org/2000/svg" viewBox="0 0 600.82 843">
  <defs>
    <style>
      .cls-1 {
        fill: #fff;
      }

      .cls-2 {
        fill: #540d6e;
      }

      .cls-2, .cls-3 {
        stroke: #000;
        stroke-miterlimit: 10;
      }

      .cls-3 {
        fill: none;
      }
    </style>
  </defs>
  <rect class="cls-2" x=".5" y=".5" width="599.82" height="842"/>
  <path d="m391.5,355.77c3.72-1.65,6.47-5.07,6.91-9.11.73-6.73-4.95-10.75-10.07-13.97l-.36-.22c-1.99-1.25-1.84-4.05.12-5.34.12-.08.23-.17.34-.26,1.11-1.03.81-2.84.27-4.25-3.63-9.5-13.62-14.86-23.19-18.28-5.45-1.95-11.53-3.54-16.84-.19-2.73,1.73-4.35,4.89-3.67,8.04.95,4.43,5.37,5.98,9.54,6.86,1.42.3,1.47,2.42.05,2.69-.01,0-.02,0-.03,0-1.15.18-2.31-.33-3.47-.19-1.73.21-2.96,1.81-3.61,3.43-1.55,3.84-.94,8.3.88,12.01s4.77,6.76,7.92,9.43c9.31,7.89,22.71,14.91,35.21,9.35Z"/>
  <ellipse cx="296" cy="421.5" rx="158" ry="154.5"/>
  <path class="cls-3" d="m309.52,319.8c.64,6.67,2.96,14.72,5.98,20.7,5.65,11.19,13.21,20.11,21.99,29.05,8.78,8.94,19.85,15.95,32.14,18.42,6.32,1.27,12.83,1.32,19.24.78,9.59-.81,19.91-3.47,25.65-11.19,2.79-3.76,4.21-8.38,4.83-13.02,1.45-10.86-1.28-22.02-6.41-31.7-5.13-9.68-12.54-17.99-20.69-25.32-9.05-8.13-19.68-14.18-30.98-18.7-20.78-8.32-54.78-.32-51.76,30.99Z"/>
  <path class="cls-1" d="m361.07,337.17l1.29,2.03c2.83,1.88,5.1,4.85,8.17,6.6,3.23,1.84,7.08,2.19,10.79,2.49,1.65.14,3.42.26,4.58-1.76.67-1.17.81-2.56.59-3.88-.99-5.76-6.55-9.41-11.52-12.24-1.63-.93-3.48-1.36-5.35-1.23-1.04.07-2.11.18-3.1.32-1.07.16-1.95.55-2.96.91-1.83.64-2.83,2.73-2.76,4.67l.29,2.1Z"/>
  <path class="cls-1" d="m376.06,320.65c0-.87-.39-1.69-.81-2.46-1.38-2.56-3.21-5.01-5.81-6.29-2.05-1.01-4.38-1.21-6.66-1.4-2.09-.17-3.15,1.24-4.27,3.01-1.2,1.89-1.38,2.94-.13,4.79,2.22,3.29,4.73,5.39,8.7,6.15,2.84.54,8.99.43,8.98-3.79Z"/>
  <path class="cls-1" d="m262.46,293.96c.95-.42,1.96-.85,2.64-1.64s.91-2.08.22-2.86c-.37-.42-.93-.61-1.46-.79-3.45-1.16-6.9-2.32-10.36-3.48-4.19-1.41-8.4-2.82-12.76-3.5-1.45-.23-2.96-.37-4.38.02-2.77.76-5.72,1.87-7.86,3.79-5.7,5.1-13.2,7.49-18.58,12.92-1.8,1.82-3.04,5.06-1.11,6.73.64.56,1.5.79,2.32,1,5.87,1.51,11.73,3.03,17.6,4.54,4.05,1.04,8.55,2.69,12.28,0,3.07-2.21,8.53-6.73,11.49-9.19,4.03-3.36,5.17-5.41,9.96-7.54Z"/>
  <path d="m329.92,262.32l-1.85.03c1.68-.01,3.01-1.39,4.08-2.69,3.38-4.11,6.49-8.64,11-11.47,11.9-7.45,28.03-.25,41.31-4.84-10.13-1.37-20.34-2.23-30.56-2.57-1.72-.06-3.46-.1-5.11-.56-2.31-.64-4.32-2.04-6.27-3.42-6.95-4.9-14.33-10.35-16.92-18.45-1.53-4.78-1.18-9.93-1.01-14.94.34-9.65-.03-19.33-1.09-28.93-.93,7.43-1.86,14.87-2.79,22.3-.76,6.08-1.53,12.2-3.47,18.01-2.56,7.7-7.18,14.71-13.24,20.1-2.09,1.86-4.38,3.55-7,4.53-4.52,1.69-9.52,1.1-14.34.96-8.51-.24-16.98,1-25.4,2.23,9.41.49,18.81.97,28.22,1.46,6.85.35,14.48,1.07,19.02,6.21,2.84,3.22,4.09,9.62,8.16,11.53,4.28,2.01,12.65.74,17.28.5Z"/>
  <path d="m390.01,288.46c7,5.3,17.43,15,23.16,21.66,3.76,4.37,7.62,7.54,10.04,11.66,2.15,3.66,6.58,5.21,10.67,4.09,1.77-.48,3.57-.88,5.35-1.26,20.74-4.41,41.8-7.29,62.96-8.6-14.6-5.33-30.17-7.39-45.12-11.64-14.95-4.25-29.92-11.22-39.13-23.74-9.79-13.32-11.57-30.7-13.02-47.16-1.02-11.6-2.04-23.19-3.07-34.79-5.43,5.84-4.99,14.78-6.23,22.66-.98,6.24-3.2,12.21-5.13,18.2l-3.59,10.89c-1.84,5.31-3.41,10.79-5.81,15.91-1.36,2.91-6.03,6.85-5.59,10.17s5.15,5.34,7.69,6.7c3.54,1.9,4.22,3.3,6.82,5.26Z"/>
  <path d="m120.48,575.16c1.67-3.85,4.55-7.04,7.48-10.05,3.66-3.76,7.72-7.48,12.79-8.84,2.79-.75,5.72-.72,8.61-.69,8.18.09,16.37.17,24.55.26-3.99-3.16-7.32-5.34-12.41-5.34-11.34,0-22.03,2.94-31-4-1.63-1.26-6.12-6.68-7.23-8.42-2.06-3.21-2.31-7.2-2.68-11-.58-6.05-1.61-12.06-3.07-17.96-1.48,3.64-.58,7.75-.81,11.67-.38,6.74-.43,15.13-4.22,20.71-2.08,3.07-7.93,3.83-10.96,5.97-4.79,3.38-10.94,3.95-16.78,4.4-6.56.51-13.12,1.03-19.68,1.54,8.27,1.75,16.78,2.36,25.22,1.81,1.84-.12,7.42,2.82,9.2,3.26,1.8.45,3.52,1.88,5,3,12.13,9.13,14.77,20.26,14.65,35.27.64-3.09-.37-6.47-.49-9.59-.16-4.08.18-8.23,1.82-12.02Z"/>
  <path class="cls-1" d="m165.94,427.78c-2.38-12.13,2.78-24.33,7.82-35.62,1.6-3.58,3.2-7.17,4.91-10.7,7.23-14.92,16.41-28.81,26.18-42.2,3.34-4.57,7.17-9.29,11.64-12.76,1.31-1.02,2.38-1.84,3.76-2.82,4.02-2.87,2.79-9.09-2.01-10.24-5.87-1.41-11.92-2.16-17.9-2.89-1.52-.19-3.09-.06-4.51.54-4.17,1.75-5.24,5.92-7.35,9.42-.87,1.45-1.7,2.97-2.7,4.34-2.22,3.02-5.31,8.3-7.01,11.64l-13.85,27.1c-2.87,5.62-4.05,10.76-5.43,16.92-1.3,5.79-2.93,12.35-2.83,18.29.18,10.87.59,20.96,4.78,30.47,1.15,2.6,5.05,1.38,4.51-1.4,0-.02,0-.05-.01-.07Z"/>
</svg>