<?xml version="1.0" encoding="UTF-8"?>
<svg id="Layer_2" data-name="Layer 2" xmlns="http://www.w3.org/2000/svg" viewBox="0 0 601.51 843.28">
  <defs>
    <style>
      .cls-1 {
        fill: #fff;
      }

      .cls-2 {
        fill: #ee4266;
        stroke: #000;
        stroke-miterlimit: 10;
      }
    </style>
  </defs>
  <rect class="cls-2" x=".5" y="1.76" width="595.91" height="841.02"/>
  <path d="m254.75,318.75c-20.76,1.03-41.02-9.87-54.28-25.87-11.98-14.46-18.71-32.65-21.72-51.25-.52-3.19,3.03-5.55,5.74-3.79,3.08,1.99,5.74,5.04,8.27,7.78,10.77,11.67,24.63,20.45,39.78,25.2,14.13,4.43,31.46,7.03,37.82,20.4,1.67,3.51,2.37,7.51,4.67,10.65s7.18,4.98,10.05,2.36c-.54-.47-.9-1-1.2-1.55-.51-.93.48-1.97,1.44-1.52,6.15,2.89,11.55,6.02,18.03,8.8-5.68-10.76-11.53-22.26-10.61-34.4.62-8.15,4.27-15.73,6.34-23.64,3.14-12,2.51-24.95-1.68-36.62-.91-2.53,1.83-4.9,4.13-3.52,1.38.83,2.67,1.87,3.86,2.93,25.35,22.65,33.77,62.23,19.86,93.25.95-.08.22-1.81-.69-1.54s-1.2,1.4-1.32,2.34c-.37,2.99-.49,6.01-.35,9.02,35.26-6.29,68.96-12.58,100.55-20.74,2.05-.53,3.91,1.4,3.25,3.41-1.28,3.85-1.97,8.16-3.08,11.76l1.15.28c2.65.64,3.84,3.71,2.34,5.98-6.07,9.24-11.3,19.04-15.6,29.23,12.23,2.61,12.31,18.86,2.39,28.91-2.79,2.83-6.99,4.97-8.86,8.48-1.15,2.16-1.43,4.66-1.66,7.1-3.31,34.74-1.26,69.98,6.07,104.09-17.17-7.22-35.71-11.16-54.34-11.57,4,1.75,6.87,5.83,7.16,10.19,4.99.89,7.04,8.47,3.17,11.75,2.96,2.56,3.76,7.28,1.81,10.67s-6.44,5.07-10.13,3.8c1.89,3.58-.14,8.62-3.98,9.89s-8.48-1.56-9.1-5.55c.13,1.99-1.02,4-2.79,4.91,1.28,8.46,9.2,13.96,15.56,19.67,6.37,5.71,11.98,15.05,7.52,22.35-2.69,1.21-6.13.43-8.04-1.81-.49,3.29-3.93,5.84-7.22,5.36s-5.86-3.91-5.39-7.2c-3.61,4.35-10.83,5.07-15.22,1.51s-5.19-10.77-1.69-15.21c-8.38-2.97-12.1-14.7-6.97-21.95-2.42-.02-4.79,1.39-5.94,3.52-6.96-1.43-14.13.18-21.22.62s-15.01-.68-19.61-6.1l5.36,7.64c-3.87,6.19-11.92,7.99-19.11,9.23-23.12,4-46.23,8-69.35,12-6.38-.5-14.96-3.74-13.52-9.98,1.37-5.95,11.66-8.44,9.95-14.3,14.71-1.83,29.42-3.66,44.13-5.5,1.53-.19,2.96-1.04,3.68-2.4,2-3.77-3.21-6.69-7.02-8.28-8.87-3.68-15.73-11.86-17.81-21.23.29-1.77-.92-3.66-2.65-4.15,1.28-4.05,3.38-7.85,6.14-11.08-18.05,2.6-35.97,6.12-53.66,10.55,14.68-30.74,19.69-66.02,14.13-99.63-7.8-7.49-12.73-16.08-15.41-26.39-1.35-5.18-.35-12.1,5-12-2.3-6.56-2.18-16.41-5-24,.82-1.48-1.73-3.7-.04-3.78-1.42-1.7-2.94-3.65-2.29-5.98.71-2.53,3.57-3.87,6.01-2.89,2.76,1.11,9.27,1.03,11.89,1.04,5.17.02,8.27,1.35,13.43,1.61,10.12.52,22.31,3.26,32.33,1.79,16.01-2.35,41.89,10.07,35.51-4.66Z"/>
  <path class="cls-1" d="m263.42,530.49c3.02.98,6.69,1.1,8.6,3.63,2.61,3.47-.55,8.74-4.66,10.12-4.11,1.38-8.58.29-12.9-.14-7.22-.72-14.61.47-21.24,3.42-6.24,2.78-12.06,7.17-18.88,7.65-4.89.34-10.04-1.36-14.56.54-2.24.94-4.26,2.74-6.69,2.67-3.37-.1-5.53-4.79-3.41-7.42-.96,1.6-2.03,3.29-3.73,4.06s-4.18.07-4.53-1.77c-.5-2.64,3.18-3.86,4.83-5.99,1.74-2.26,1.21-5.89,3.39-7.72.87-.73,2.02-1.02,3.12-1.29,13.73-3.32,28.27-4.64,42.23-4.82,3.71-.05,9.46,3.36,12.92,2.21,4.63-1.53,3.96-7.42.72-10.48,2.52-1.28,5.78,2.76,7.31-.65,1.69,2.8,4.38,4.95,7.49,5.96Z"/>
  <path class="cls-1" d="m330.78,555.63c.08-.87.15-1.77-.09-2.61-.39-1.33-1.52-2.3-2.57-3.21-3.46-3.01-6.95-7.15-5.98-11.63.24-1.12.83-2.24,1.86-2.75s2.51-.1,2.86.99c.27.87-.22,1.78-.69,2.56,1.81-.12,2.02-3.01,3.67-3.77.99-.46,2.21.06,2.9.9s.98,1.94,1.25,2.99c.88-.1.65-1.44.96-2.26.4-1.1,2.02-1.27,3-.62s1.5,1.78,2.04,2.82c3.96,7.55,11.45,12.46,18.18,17.69,1.23.96,2.47,1.96,3.33,3.26,2.46,3.73.66,9.51-3.48,11.18-1.26-1.56-2.16-3.4-2.62-5.35-.23,2.77-2.92,5.11-5.7,4.94s-5.17-2.81-5.06-5.59c-2.31,1.69-4.79,3.45-7.65,3.63-7.67.5-6.62-8.43-6.19-13.17Z"/>
  <path class="cls-1" d="m177.17,391.38c4.06,32.11.45,65.17-10.45,95.65,7.79-3.06,15.98-5.1,24.3-6.03,9.13-1.03,18.35-.73,27.53-.43,6.35.21,12.69.41,19.04.62,7.41.24,14.82.48,22.18,1.38,7.05.86,14.06,2.34,21.16,2.34,4.05,0,8.09-.48,12.11-.96,13.49-1.61,26.98-3.22,40.46-4.83,8.32-.99,17.32-1.86,24.57,2.35,16-1.68,32.67,2.39,47.47,8.7-8.55-35.4-10.39-72.42-5.38-108.5h0c-2.7.61-5.06-2.1-4.15-4.69.24-.69.28-1.45.05-2.15-.02.03-.04.05-.07.08-3.14,3.49-8.55-1.1-5.74-4.86,1.19-1.6,2.54-3.09,4.02-4.43h0c-2.41.81-4.44-1.87-3.07-4.01,2.26-3.49,5.56-6.32,9.42-7.89,2.71-1.11,5.79-1.7,7.83-3.8,1.6-1.65,2.29-3.95,3.01-6.13,2.67-8.17,6.45-15.98,11.18-23.16,1.53-2.31.19-5.47-2.53-5.96-21.62-3.92-44.01-2.2-65.84.82-21.31,2.95-43.52,7.6-59.87,21.59-2.12,1.81-4.33,3.86-7.1,4.14-1.91.19-3.78-.5-5.58-1.14-36.56-13.05-76.75-11.9-115.57-8.86-2.67.21-4.43,2.88-3.58,5.43,1.79,5.33,3.88,11.47,5.53,15.87.52,1.39.8,1.13,2.8,2.13,5.93,2.97,14.15,7.85,13.42,14.86-.18,1.71-1.69,2.9-3.39,2.62h0c1.21.9,2.66,1.45,4.16,1.63,2.43.28,3.7,3.07,2.12,4.94-1.72,2.03-4.21,3.43-6.88,3.57,1.67-.47,3.47-.95,5.07-.06.76.42,1.31,1.19,1.36,2.06.07,1.29-.84,1.88-1.7,2.41-3.28,2.03-4.62,2.71-7.89,4.74Z"/>
  <path class="cls-1" d="m231.23,278.45c-6.91-3.67-14.54-5.72-21.78-8.67-7.6-3.1-14.8-7.21-21.32-12.2,3.18,4.17,6.37,8.35,9.55,12.52,2.88,3.77,5.77,7.56,8.1,11.69,1.61,2.83,2.95,5.83,4.88,8.45,2.37,3.22,5.53,5.76,8.64,8.27,5.93,4.76,32.28,26.54,38.35,13.82s-17.67-29.23-26.43-33.88Z"/>
  <path class="cls-1" d="m314.41,304.17c2.95-9.78,5.87-20.55,1.81-29.93h0c1.89.89,4.07-.49,4.08-2.58.03-8.68-.26-17.39-2.35-25.8-2.44-9.85-7.65-19.38-16.07-25.05,6.12,10.45,4.17,23.63,1.21,35.37s-6.76,23.99-3.76,35.73c1.1,4.29,3.08,8.33,4.12,12.64,1.23,5.11,1.44,12.88,6.74,15.58,2.17-4.12,2.77-11.16,4.22-15.96Z"/>
  <path class="cls-1" d="m249.76,486.35c18.5,3.66,38.3,7.21,55.69-.08.06,14.97,5.07,29.87,14.06,41.83,1.56,2.08-24.99,6.45-27.24,6.37-6.09-.21-11.63-.85-16.84-4.18-12.68-8.11-31.11-27.38-25.67-43.95Z"/>
  <g>
    <g>
      <path d="m501.58,389.05c-1.49-55.42-22.8-107.39-59.85-145.68-23.32-24.09-52.37-42.43-84.56-53.16-39.11-13.03-82.03-14.31-123.77-4.53-.24-1.6-.49-3.2-.73-4.81,42.13-9.38,85.31-7.72,124.6,5.7,32.12,10.97,61.1,29.44,84.37,53.6,37.67,39.12,59.11,92.3,59.96,148.87Z"/>
      <path d="m490.75,432.21c6.48-52.89-4.96-105.36-33.22-147.67-18.63-27.9-44-50.85-73.63-66.6-35.2-18.7-75.85-26.71-117.03-23.34,0-1.64.01-3.28.02-4.92,41.49-2.9,82.33,5.55,117.63,24.66,29.5,15.97,54.75,39.02,73.33,66.96,28.76,43.25,40.15,96.95,32.9,150.91Z"/>
    </g>
    <g>
      <path d="m462.79,530.15c39.35-39.05,62.6-90.18,65.1-143.41,1.57-33.49-4.97-67.22-19.22-98.02-17.31-37.42-45.78-69.55-81.51-93.26,1-1.28,2-2.55,3-3.83,35.7,24.26,64.07,56.86,81.22,94.66,14.02,30.91,20.42,64.67,18.76,98.18-2.68,54.25-26.73,106.3-67.36,145.67Z"/>
      <path d="m422.63,552.75c43.52-30.74,74.69-74.47,87.04-123.84,8.14-32.55,8.09-66.75-.16-99.28-9.8-38.63-31.19-74.12-61.37-102.35,1.22-1.1,2.44-2.2,3.66-3.3,30.03,28.77,51.21,64.7,60.79,103.68,8,32.58,7.9,66.76-.31,99.3-12.7,50.37-44.81,94.88-89.64,125.78Z"/>
    </g>
    <g>
      <path d="m80.73,438.01c10.73,54.39,40.43,102.06,83.37,133.62,27.02,19.85,58.73,33.08,92.26,38.27,40.74,6.31,83.26.39,122.79-16.23.51,1.54,1.02,3.08,1.53,4.62-39.96,16.29-82.82,21.87-123.8,15.22-33.5-5.44-65.16-18.81-92.14-38.74-43.69-32.27-73.72-81.12-84.01-136.75Z"/>
      <path d="m83.6,397.56c2.45,53.23,22.5,103.04,57.44,140.04,23.04,24.39,51.88,42.78,83.73,53.35,37.83,12.55,79.25,13.65,119.29,3.44.27,1.62.54,3.24.81,4.86-40.42,9.79-82.1,8.29-120.1-4.65-31.75-10.81-60.5-29.31-83.49-53.75-35.59-37.83-55.79-88.87-57.67-143.28Z"/>
    </g>
    <g>
      <path d="m102.07,285.97c-33.07,44.5-48.41,98.53-42.92,151.53,3.45,33.35,14.97,65.72,33.66,94.04,22.71,34.41,55.67,61.92,94.54,80.02-.8,1.41-1.6,2.82-2.39,4.23-38.92-18.65-71.86-46.63-94.47-81.45-18.49-28.47-29.86-60.89-33.23-94.27-5.46-54.04,10.53-109.1,44.81-154.11Z"/>
      <path d="m135.84,257.84c-37.77,37.59-61.18,85.91-65.1,136.65-2.58,33.45,3.19,67.17,16.76,97.85,16.13,36.45,43.15,67.86,77.62,90.65-1.02,1.29-2.04,2.57-3.05,3.86-34.41-23.35-61.31-55.22-77.27-92.06-13.33-30.78-18.95-64.5-16.3-97.95,4.1-51.78,28.32-101.04,67.35-139Z"/>
    </g>
  </g>
</svg>