<?xml version="1.0" encoding="UTF-8"?>
<svg id="Layer_7" data-name="Layer 7" xmlns="http://www.w3.org/2000/svg" viewBox="0 0 840 849.34">
  <defs>
    <style>
      .cls-1 {
        fill: #0f0f0f;
      }

      .cls-2 {
        fill: #fff;
      }

      .cls-3 {
        fill: #00e945;
      }

      .cls-4 {
        fill: aqua;
      }

      .cls-5 {
        fill: #070707;
        stroke: #050505;
      }

      .cls-5, .cls-6, .cls-7 {
        stroke-miterlimit: 10;
      }

      .cls-8 {
        fill: #da0aff;
      }

      .cls-9 {
        fill: #00316a;
      }

      .cls-6 {
        fill: #1e1b1b;
        stroke: #da0aff;
      }

      .cls-7 {
        fill: #ffd23f;
        opacity: .19;
        stroke: #000;
      }

      .cls-10 {
        fill: none;
      }

      .cls-11 {
        fill: #fff200;
      }

      .cls-12 {
        fill: #050505;
      }
    </style>
  </defs>
  <rect class="cls-7" x=".5" y="127" width="839" height="595.28"/>
  <g>
    <path class="cls-10" d="m537.89,345.57c0,.76-.08,1.47-.23,2.13-.12.52-.3,1.01-.52,1.45-.17.34-.37.65-.59.95-.15.2-.31.39-.49.56-.17.18-.36.35-.56.51-1.6,1.27-4.22,1.92-7.84,1.92h-60.96v-14.72h60.96c3.62,0,6.24.61,7.84,1.84.2.16.39.32.56.49.17.17.34.35.49.54.23.28.42.58.59.91.11.22.21.44.3.67h0c.07.21.14.42.2.64.17.65.26,1.35.26,2.12Z"/>
    <path class="cls-10" d="m400.47,345.24c0,1.58-.43,1.87-.58,1.97-.35.24-1.8,1.01-5.91,1.01h-81.66c-.3-.28-.58-.56-.86-.83,1.57-.68,3.07-1.44,4.5-2.3,1.95-1.17,3.75-2.47,5.42-3.91,4.3.83,9.11,1.25,14.37,1.25h58.24c4.16,0,5.64.75,5.99.98.42.27.5,1.15.5,1.84Z"/>
    <path class="cls-1" d="m433.41,330.2v33.05c-1.67,3.1-3.94,5.8-6.79,8.08-3.74,2.99-8.51,5.28-14.32,6.88-5.81,1.59-12.78,2.4-20.88,2.4h-47.93l-23.23-24.55-.1-.09c-1.02-1.03-1.98-1.98-2.88-2.88h76.7c3.94,0,6.82-.61,8.64-1.84,1.81-1.22,2.72-3.22,2.72-6s-.91-4.74-2.72-5.92c-1.82-1.17-4.7-1.76-8.64-1.76h-58.24c-3.66,0-7.05-.22-10.18-.63-1.99-.27-3.86-.61-5.64-1.04-.72-.17-1.43-.36-2.11-.57-5.01-1.49-9.17-3.57-12.48-6.24-3.31-2.66-5.76-5.89-7.36-9.68-1.6-3.78-2.4-7.97-2.4-12.56l-4.78-2.73c-3.2-2.07-7.67-3.11-13.43-3.11h-93.13l21.6-27.84h68.8c6.08,0,12.37.56,18.88,1.68,3.95.68,7.68,1.69,11.2,3.02,1.84.69,3.62,1.48,5.34,2.35.41.21.82.41,1.22.63,5.33,2.88,9.73,6.78,13.2,11.68,2.29,3.24,3.81,7.09,4.59,11.54-1,1.11-1.5,2.68-1.5,4.71,0,2.35.68,4.1,2.01,5.26.24.21.5.4.79.57,1.02.62,2.33,1.06,3.93,1.34,1.34.23,2.88.35,4.63.35h58.24c13.12,0,23.1,2.43,29.93,7.28,2.6,1.85,4.7,4.06,6.31,6.63Z"/>
    <path d="m329.68,311.4c0,.88-.04,1.76-.1,2.63-1.33-1.16-2.01-2.91-2.01-5.26,0-2.03.51-3.6,1.5-4.71.4,2.29.61,4.73.61,7.35Z"/>
    <path class="cls-1" d="m434.45,273.57l-21.28,27.84h-74.24c-2.06,0-3.84.16-5.33.47-.98-4.6-2.69-8.68-5.15-12.16-3.47-4.91-7.83-8.96-12.96-12.06,1.61-.63,3.31-1.19,5.12-1.68,5.81-1.61,12.78-2.4,20.89-2.4h92.96Z"/>
    <path class="cls-1" d="m336.4,380.2h-44.32l-.02-.02-3.21-3.81-20.62-24.49h-50.88v28.32h-33.12v-54.72h93.13c5.12,0,9.44-1.07,12.96-3.2,1.06-.64,1.96-1.36,2.71-2.16.15.4.3.79.46,1.18,1.91,4.52,4.87,8.41,8.79,11.57,3.55,2.86,7.96,5.13,13.11,6.79-.63.43-1.27.86-1.95,1.26-3.46,2.08-7.39,3.55-11.76,4.4,1.82,1.38,3.84,3.14,6.08,5.28.19.18.39.37.59.57,1.03.99,2.2,2.12,3.51,3.41,1.45,1.42,3.07,3.03,4.86,4.82l19.68,20.8Z"/>
    <path class="cls-1" d="m566.13,333.72c-3.26-4.05-7.23-6.77-11.92-8.16,1.81-.64,3.6-1.57,5.36-2.8,1.76-1.23,3.3-2.77,4.64-4.64,1.33-1.86,2.42-4.02,3.28-6.48.86-2.45,1.28-5.28,1.28-8.48,0-4.91-.99-9.2-2.96-12.88-1.97-3.68-4.8-6.78-8.48-9.28-3.68-2.51-8.11-4.37-13.28-5.6-5.17-1.22-10.96-1.84-17.36-1.84h-70.88l-22.4,27.84h94.72c2.35,0,4.48.49,6.4,1.44,1.92.96,2.88,2.78,2.88,5.44s-.93,4.67-2.8,5.68c-1.87,1.02-4.03,1.52-6.48,1.52h-94.72v7.02c5.84,5.66,8.79,13.41,8.79,23.07,0,6.02-.97,11.57-2.89,16.48-1.39,3.57-3.37,6.76-5.9,9.56v9h94.07c8.43,0,15.44-.81,21.05-2.4,5.6-1.61,10.05-3.79,13.36-6.56,3.3-2.77,5.65-6.05,7.04-9.84,1.38-3.78,2.08-7.92,2.08-12.4,0-6.39-1.63-11.62-4.88-15.68Zm-28.48,13.97c-.12.52-.3,1.01-.52,1.45-.17.34-.37.65-.59.95-.15.2-.31.39-.49.56-.17.18-.36.35-.56.51-1.6,1.27-4.22,1.92-7.84,1.92h-60.96v-14.72h60.96c3.62,0,6.24.61,7.84,1.84.2.16.39.32.56.49.17.17.34.35.49.54.23.28.42.58.59.91.11.22.21.44.3.67h0c.07.21.14.42.2.64.17.65.26,1.35.26,2.12s-.08,1.47-.23,2.13Z"/>
    <path d="m437.34,345.57c0,5.44-.86,10.35-2.56,14.72-.4,1.03-.86,2.01-1.37,2.96v-33.05c2.61,4.18,3.93,9.29,3.93,15.37Z"/>
  </g>
  <g>
    <path class="cls-11" d="m297.23,239.44s16.36-1.64,22.9-16.36c3.27-4.91,21.27-37.63,21.27-37.63,0,0,2.45-7.36-5.73-10.63h47.44s27.81,1.64,14.72,26.18c-1.64,3.27-11.77,14.72-41.06,13.09,1.64,0,36.73-17.47,25.05-29.81-4.6-4.86-12.67-3.65-16.14,2.07-7.82,12.88-23.48,35.91-23.48,35.91,0,0-12.46,11.45-2.14,17.18l9.19,1.64-52.04-1.64Z"/>
    <path class="cls-11" d="m397.84,220.62s1.22-6.54-4.3-6.54h26.59s.73,5.23-3.58,10.55c-1.14,1.41-1.69,3.17-1.89,4.97-.43,3.81-5.15,11.36,5.51,8.9,12.58-1.39,41.81-17.87,44.09-24.42l-11.8,27.81-76.75-.82s13.94-.82,22.12-20.45Z"/>
    <path class="cls-11" d="m432.2,292.61l43.35-65.89s9-17.54,22.09-15.91c9.82,0,162.4-.11,162.4-.11l-154.22-4.8s-18,3.27-13.09-11.45c1.59-1.59,30.92-55.59,32.64-58.75,0-.01-.02,0-.02,0l-40.8,58.75s-7.83,12.81-20.28,10.49c-.35.28-71.34,2.59-71.34,2.59l71.34,2.42s9.08,4.84,2.27,15.1c-2.37,3.58-4.36,7.38-6.25,11.24-9.17,18.79-28.1,56.32-28.1,56.32Z"/>
    <path class="cls-11" d="m427.29,204.26l11.45-19.63s7.1-11.45,17.46-9.82c-.56,0-42.33-.16-42.33-.16,0,0,10.15,3.43,1.97,11.61,0,1.64-10.6,18-10.6,18h22.05Z"/>
    <polygon class="cls-11" points="501.87 189.46 514 166.64 526.49 202.85 506.6 204.26 501.87 189.46"/>
    <path class="cls-11" d="m503.15,241.07s12.84-1.97,11.03-11.21l-5.26-13.58h30.55s-9.1-.57-5.83,9.24c1.64,4.91,6.54,13.09,8.18,13.09s10.44,4.66,20.76-9.94c2.65.25,4.3-10.19,10.58-12.39l30.56-1.14s-18.36,5.48-18.87,12.84c-2.65,0-2.94,13.91,8.91,13.09-.84,1.64-90.61,0-90.61,0Z"/>
    <path class="cls-11" d="m556.53,171.55l38.06,1.48s-6.98.16-5.34,6.7c1.64,6.54,0,21.27,4.91,21.27s33.87-23.22,20.21-27.97c2.12.32,23.95.16,23.95.16,0,0-11.43,3.27-9.8,6.54l-28.91,22.9s-2.18,3.27-.54,3.27l-24.54-1.64s-6.54-32.72-18-32.72Z"/>
  </g>
  <g>
    <path class="cls-4" d="m392.75,661.24h19.91s-5.59,8.87,0,8.87c.17,2-7.66,12.51-7.66,12.51,0,0-15.76-6.51-12.26-24.51"/>
    <g>
      <path class="cls-4" d="m655.27,682.62l36.94-3.99s30.95-62.89,43.93-71.88c0,0,6.49-19.47,14.48-20.47,1-1,18.97-2,18.97-2,0,0,4.99-5.99-18.97-2.99-13.98,7.99-38.18,15.52-38.18,15.52,0,0-52.17,86.81-57.16,85.81Z"/>
      <path class="cls-4" d="m728.76,581.92l24.49-8.82,7.87-22.74c.71-2.05,2.32-3.66,4.37-4.36,9.36-3.22,35.76-12.61,35.76-15.9,0-5,2-24,2-24,0,0,6-16,15-22h1s0-12,3.25-16.52c.92-1.27,1.5-2.76,1.56-4.33.18-4.8,1.15-12.94-2.31-2.62,0,.91-9.5,31.46-20.5,33.46l-80,34s-3,2-4,13c0-3-1.07,16.85-4.03,17.93,2.07,1.15,15.03.07,13.03,10.07-.71.71-3.71,8-5.38,12.15-.51,1.27.54,2.62,1.9,2.44h0c1.71-.23,3.39-.7,4.98-1.37h0c.33-.14.67-.27,1.01-.4Z"/>
      <path class="cls-4" d="m613.84,612.24s20.96-33.94,19.97-55.9c-1-1,27.95-8.98,27.95-8.98,0,0,4.99-2.51,0,11.23,1,1.51-11.98,38.69-11.98,38.69,0,0-3.99,8.98,8.98,0,1-2,15.97-5.99,22.96-37.94,1-1,1-24.96,10.98-24.96,1-2.99,14.91-.79,19.93-6.38,5.03-5.6-4.96,52.3-16.94,60.29,2.99-1-28.95,11.98-28.95,11.98l-52.91,11.98Z"/>
      <path class="cls-4" d="m660.76,607.25l29.95-7.99s-40.93,92.76-76.87,89.31c0,.08-32.94.54-21.96-32.4,2-2.99,9.48-32.47,7.49-29.79-2,2.68-18.47,2.84-21.46,7.83,0,2-18.57,4-3.2-2.66,15.38-6.66,62.7-19.3,62.7-19.3l-11.72,31.72s9.12,9.21,17.11-3.77l17.97-32.94Z"/>
      <path class="cls-4" d="m547.95,640.19l-30.95,17.97s13.98-64.89,55.9-84.86c2-1,63.23-31.95,43.6,25.96-.34,2.99-7.14,15.97-7.14,15.97l-36.46,11.98s29.52-38.73,9.77-43.32c2.43-.2-25.74,23.36-34.73,56.3Z"/>
      <path class="cls-4" d="m517,663.08l23.96-12.9s-6.99,18.97,5.99,18.97c2,0,21.18-16.42,18.57-25.18,1.78,1.45,24.35,1.22,28.35-9.76,0,2-14.97,42.93-34.94,51.91,2,0-52.91,12.9-41.93-23.04Z"/>
      <path class="cls-4" d="m444.13,685.11s-9.9-19.97,22.5-69.88c.91,0,4.08-15.97,4.08-15.97l36.31-7.99s-8.98,2.99-8.98,11.98c-3.99,6.99-8.98,17.97-8.98,17.97l-8.98,2.99v2.99l18.97-3.99,16.52-33.55,26.02-9.22s-28.56,82.7-35.55,85.69c2.99-1-23.96,9.98-23.96,13.98,0,0,3.33-34.68-9.31-18.84.66-2.25-6.47,25.34-3.57,27.08.81-.51-16.07-3.25-25.05-3.25Z"/>
      <path class="cls-4" d="m498.03,622.22s-24.59,8.98-30.77,20.47c-.36,0-15.52,26-15.52,26,0,0,16.34-24.5,20.33-25.5,2.99-2,20.58-3.48,22.27-2.74,1.38.48,3.69-18.23,3.69-18.23Z"/>
      <path class="cls-4" d="m412.6,685.51l2.55-15.11s19,4.74,3.03-19.22c1,0-14.97-5.99-19.97-3.99-4.99,2-22.66,7.99-22.31,10.98s-8.63-5.99-4.64-5.99,31.15-8.21,31.15-8.21c0,0-3.2-23.74,31.74-37.71,1,0,28.22-9.98,26.59,8.98,1.72,1-4.63,7.99-4.63,7.99l-17.97,2s4.79-17.69-12.08.14c2.2-.28-.94,10.71-.94,10.71,0,0,25.99-2.45,22,17.31,0,.59-12.14,41.51-34.52,32.14Z"/>
    </g>
  </g>
  <g>
    <path class="cls-3" d="m131.75,671.31s-62,19.3-52-59.7c2,0,6.91-32.83,25.45-17.91-.91.83,20.55,37.91-8.45,46.91,0,1,2,20,31,14,1,0,4,16.7,4,16.7Z"/>
    <path class="cls-4" d="m131.79,671.34c-16.16,4.87-36.67,2.73-46.24-12.79-5.33-8.39-6.91-18.61-7.09-28.39-.12-5.97.43-12.62,1.13-18.57,0,0,.01-.13.01-.13h.14c.55-.41.74-1.35,1.03-1.97,0,0,.83-2.28.83-2.28,2.83-8.36,8.62-21.95,19.67-16.46,1.49.72,2.87,1.64,4.16,2.66,0,0,.02.56.02.56.17-.23.06-.15.1-.12.19.77.82,2.17,1.13,2.93,5.53,12.82,11.01,32.43-3.39,41.44-1.99,1.26-4.17,2.16-6.39,2.87l.36-.48c.07,1.07.41,2.3.76,3.36,4.48,12.26,18.82,12.56,29.72,10.38.32.05.35.22.42.29.64,1.23.87,2.61,1.22,3.94.91,4.09,1.74,8.61,2.42,12.76h0Zm-.09-.05c-1.16-5.24-2.08-11.11-3.86-16.16-.04-.07-.07-.15-.11-.2-.02-.07-.13-.09.02-.05,0,0,.05,0,.05,0-10.76,2.33-25.02,2.23-30.26-9.4-.7-1.67-1.24-3.37-1.32-5.22,0,0,.38-.12.38-.12,20.53-6.23,15.76-27.68,9.35-43.05-.3-.78-.95-2.28-1.13-3.11-.01-.03-.01-.12-.01-.18-.02-.01.03-.25.15-.36l.02.56c-10.31-8.64-17.2-1.46-21.32,8.8-1.21,2.72-2.02,5.83-3.35,8.5-.13.16-.2.4-.56.47,0,0,.15-.13.15-.13-.97,8.19-1.37,16.48-.51,24.68,1.24,11.99,5.79,24.81,16.55,31.4,10.57,6.52,24.03,6.45,35.77,3.58h0Z"/>
  </g>
  <g>
    <path class="cls-3" d="m112.25,648.11s11-76-19-64c-1,1-6.71-21.11-2.36-21.05-.29.11,27.36-12.95,29.36,28.05,1-1,3-28,21-19,1-1,8,29,6,64,0,0-8,51,51,58,1,0,3,16,3,16,0,0-50,3-62-39-2-5-8-28-5-34,0-1,3.89-38.65-1.05-32.33-.89.65-7.95-3.67-5.95,45.33,0-2-13,7-15-2Z"/>
    <path class="cls-4" d="m112.2,648.11c1.85-16.33,4.04-42.9-2.97-57.76-3.36-6.96-9.25-8.58-15.72-5.98-.3.3-.68.05-.82-.16-1.75-2.81-6.51-21.45-1.79-21.57,0,0,.14.81.14.81-.73-1.49-.16-.44-.32-.77,0,0,.02,0,.02,0h.03s.05-.04.05-.04c0,0,.09-.04.09-.04,0,0,.19-.08.19-.08,7.73-3.25,17.47-2.27,22.71,4.82,5.15,6.77,6.34,15.52,6.81,23.76,0,0-.61-.23-.61-.23,0-.01.07-.19.12-.34l.13-.5c1.76-7.43,3.87-18.15,12.68-19.9,2.93-.47,5.84.5,8.44,1.75,0,0-.31.05-.31.05.16-.15.36-.1.46-.03.83,1.08.98,2.56,1.38,3.83.97,3.94,1.66,7.94,2.27,11.94,2.34,16.02,3.11,32.28,2.28,48.45-2.51,22.53,8.34,43.89,29.9,52.34,6.59,2.77,14,4.42,20.9,5.21.61.08.72.71.9,1.18,1.35,5.14,1.88,10.45,2.62,15.7-13.41.37-27.07-2.3-38.87-8.8-8.74-4.82-16.12-12.22-20.5-21.21-1.52-2.86-2.7-6.34-3.6-9.24-2.85-8.29-4.8-16.84-5.69-25.55-.22-2.62-.33-6.9.69-8.63.7-8.4,1.61-17.66,1.53-26.05-.16-2.16.13-4.72-1-6.59-.33-.2-.65.34-.92.59-.43.2-.64.14-.86.21-1.65.36-2.33,2.17-2.89,3.61-.62,1.57-1.04,4.03-1.35,5.71-1.6,11.75-1.17,23.68-.89,35.51,0,0-.31,0-.31,0,.05-.19-.42-.16-.74-.08-.77.19-2.36.74-3.12,1.01-3.95,1.44-9.99,2.66-11.04-2.93h0Zm.1,0c1.1,5.44,6.98,4.15,10.85,2.68,0,0,2.07-.74,2.07-.74.56-.11,2.01-.89,2.18.05,0,0-.31,0-.31,0-.33-7.91-.58-15.83-.32-23.75.12-3.9.39-7.98.92-11.86.63-3.09,1.29-9.71,5.3-10,1.62-2.03,2.58.27,2.77,2.16.94,9.92-.38,20.51-1.05,30.44-1.06,2.62-.85,5.72-.63,8.55.93,8.56,2.83,17.14,5.63,25.27.99,3.13,2.04,6.26,3.56,9.17,4.29,8.83,11.52,16.09,20.09,20.82,11.44,6.34,24.85,9.01,37.86,8.74,0,0-.42.51-.42.51-.76-5.17-1.21-10.46-2.65-15.49,0,0-.08-.16-.08-.16-.07-.08.1.09.18.04-7.25-.86-14.44-2.55-21.19-5.4-21.72-8.65-32.65-30.4-30.01-53.05,1.06-18.82-.09-37.82-3.75-56.31-.59-2.49-.98-5.1-2.06-7.42-.02-.04-.02-.02-.03-.03.02.02.14.06.23-.03l-.31.05c-5.4-2.81-11.22-2.47-14.83,2.9-3.07,4.36-4.23,9.79-5.37,14.93-.13.47-.13.72-.43,1.18,0,0-.56.75-.56.75,0,0-.05-.99-.05-.99-.5-8.06-1.71-16.72-6.75-23.27-5.02-6.77-14.65-7.65-21.99-4.46,0,0-.04.02-.04.02,0,0-.02,0-.02,0,0,0,0,0,0,0-.16-.33.39.73-.34-.76l.14.81c-3.28.82.87,17.89,2.37,20.29,6.27-2.69,12.83-1.35,16.53,6.31,7.11,15.44,4.63,41.28,2.52,58.04h0Z"/>
  </g>
  <g>
    <path class="cls-3" d="m149.28,581.62l2.47,56.99v6.66s17,2.34,12-5.66l-1.45-57.99s1.45-6.01-9.55-4.01c1,0-6.94.02-3.47,4.01Z"/>
    <path class="cls-4" d="m149.33,581.6c.63,8.84,1.34,22.8,1.77,31.76.17,3.97.45,11.99.55,15.97.17,4.63.34,11.36.25,15.94,0,0-.13-.15-.13-.15,2.82.32,5.73.46,8.54.03,1.36-.25,2.85-.64,3.68-1.68.96-1.26.05-2.66-.54-3.86,0,0-.52-14.49-.52-14.49-.24-7.23-.63-21.77-.78-28.99-.11-4.83-.14-9.67-.22-14.5.17-.89.02-1.96-.64-2.66-2.19-2.13-5.74-1.48-8.51-1.15,0,0-.04-.42-.04-.42,0,0,.06,0,.06,0,.25,0,.3.3.12.4-.26.05-.65.05-.91.08-2.28.2-4.88,1.21-2.69,3.72h0Zm-.09.04c-1.95-2.03-.54-3.48,1.8-3.96.57-.14,1.18-.22,1.76-.28-.25.06-.21.39.01.42,0,0-.06,0-.06,0l-.04-.42c2.98-.46,6.65-1.16,9.08,1.14.8.69,1.06,2.44.88,3.07.36,8.37.67,20.49.89,28.99.12,6.96.5,22.51.45,28.85,4.35,7.43-8.09,6.48-12.27,5.96,0,0-.13-.02-.13-.02v-.13c.11-7.33-.62-16.46-1.01-23.82-.59-12.11-1.14-27.72-1.36-39.81h0Z"/>
  </g>
  <g>
    <ellipse class="cls-4" cx="155.75" cy="563.11" rx="8" ry="9.5"/>
    <path class="cls-3" d="m163.8,563.11c.25,6.13-5.19,12.49-11.48,8.89-6.18-3.77-6.66-14.31-.11-18,6.37-3.39,11.86,2.93,11.59,9.11h0Zm-.1,0c.09-7.2-8.36-12.45-13.46-6.13-4.33,5.11-2.09,15.3,5.51,15.22,4.37-.12,8.01-4.47,7.95-9.08h0Z"/>
  </g>
  <g>
    <path class="cls-3" d="m167.41,581.62s-4.66,69.99,10.34,70.99c2,0,25,14,23.5-30.5,2-4-2.5-44.5,3.5-48.5,0,1-2.51-3-9.26,0-6.49,3-8.74,2-7.74,18-1,1,2.85,37.95-7.57,21.98.15-2.95-1.43-29.98-1.43-29.98,0,0,2.32-5.98-11.34-1.99Z"/>
    <path class="cls-4" d="m167.45,581.65c-.36,12.56-2.73,65.5,9.27,70.35.59.22,1.3.19,1.88.44,5.14,2.14,11.67,3.32,15.99-1.06,6.8-7.14,6.64-19.94,6.47-29.26.95-3.93.39-8.21.43-12.25-.15-9.69-.96-21.23.47-30.79.49-2.47.94-5.06,3.38-6.46,0,0-.13,1-.13,1,.02.17-.12.54-.39.6-.24.09-.52-.06-.64-.12-.96-.55-1.99-1-3.1-1.1-2.54-.32-5.09.91-7.36,1.94-2.42.94-4.66,2.17-5.17,4.91-.79,3.83-.44,7.83-.27,11.74,0,0-.15.4-.15.4.12-.14.05-.08.05-.02-.15,1-.07,2.73-.08,3.77.06,4.03.16,8.44-.05,12.45-.21,2.82-.29,5.65-1.5,8.3-2.02,3.92-5.45-.55-6.72-2.66-.15-4.33-.34-10.75-.57-15.2.02-.08-.76-15.01-.71-15.08,1.19-5.19-8.51-2.53-11.1-1.88h0Zm-.08-.06c3.11-.94,12.68-3.66,11.6,2.01,0,0,.93,14.98.93,14.98.14,4.05.84,11.74.63,14.78,1.03,1.42,3.71,5.72,5.18,2.69,1.06-2.4,1.15-5.29,1.33-7.92.2-3.96.09-8.39.02-12.39,0-1-.06-2.7.05-3.69.07-.34-.02-.4.27-.81,0,0-.15.4-.15.4-.04-4.61-1.38-12.38,2.47-15.7,1.14-.9,2.42-1.4,3.63-1.93,1.09-.41,2.6-1.22,3.73-1.52,2.46-.81,5.31-.68,7.53.77.18.09.07,0-.06.06-.13.01-.27.24-.25.28,0,0,.72.38.72.38-1.43,1.15-1.78,3.46-2.19,5.23-1.56,10.11-.89,20.43-.82,30.63-.07,3.97.43,8.74-.54,12.25.11,10.54.28,31.36-13.56,32.85-3.29.3-6.5-.7-9.54-1.8-.26-.07-.58-.18-.85-.19-1.75-.15-3.25-1.33-4.26-2.64-8.98-12.74-6.93-52.49-5.87-68.74h0Z"/>
  </g>
  <g>
    <path class="cls-3" d="m155.75,649.61s10.34-3,12.17,0,27.83,27,40.83-7c1-1-9-55,2-68,2-2,18-20,35,9-1,1,2.47,20.35-2.77,21.17.53-1.35-6.23.83-9.23-3.17,0-1-1-19-12-6,1,1-7.09,3.1,7.96,40.05-1.91-.1,20.04,32.95-15.96,50.95,1,0-42.43,16.43-57.22-26.79.43-1.43-5.78-6.21-.78-10.21Z"/>
    <path class="cls-4" d="m155.73,649.56c2.66-.74,5.34-1.33,8.1-1.41,1.37.02,2.92.03,3.98,1.05.8,1.14,1.78,2.05,2.8,2.96,15.99,13.52,30.49,10.14,37.78-9.7,0,0,.09-.14.09-.14-.11.14-.04.04-.05-.01.01-.44-.05-1.36-.1-1.82-.42-3.86-1.27-11.09-1.71-15.02-1.09-13.01-4.15-40.69,3.93-51.05,9.07-9.69,19.96-9.92,28.88.14,2.5,2.72,4.6,5.78,6.48,8.94l.07.11s-.09.11-.09.11c-.34,1.4.04,3.92.06,5.4.2,3.72.46,7.46-.05,11.18-.3,1.77-.79,4.27-2.87,4.71,0,0-.27-.34-.27-.34.18-.01-.36-.18-.75-.17-1.29-.05-2.59-.02-3.88-.24-1.77-.27-3.56-1.07-4.65-2.57-.22-3.21-1.02-10.79-5.36-10.42-2.56.49-4.4,2.68-6.08,4.56,0,0-.02-.51-.02-.51.3.31.19.74.04,1.03-1.49,2.87-1.29,6.23-.95,9.37.41,3.42,1.23,6.79,2.14,10.13,1.87,6.67,4.32,13.17,6.93,19.6,0,0-.49.68-.49.68.15.02.29-.09.36-.18.07-.17.04-.09.05-.13,0,0,0,.06.02.12.25.83.8,2.21,1.12,3.02,3.29,8.22,5.23,17.42,2.84,26.16-2.61,10.1-11.02,17.48-20.09,21.91,0,0-.22-.94-.22-.94.15.03.21-.01.42.21.18.8-.14.58-.07.66-.09.08-.09.07-.12.09,0,0-.1.05-.1.05-5.59,2.1-11.64,2.9-17.59,2.97-12,.19-24.22-4.77-31.62-14.42-4.1-5.05-6.74-11.05-8.72-17.11-1.96-2.96-3.73-6.33-.23-8.99h0Zm.05.09c-3.34,2.65-1.57,5.88.42,8.77,1.99,5.72,4.78,11.97,8.9,16.92,11.18,14.38,31.63,16.79,48.02,11.04,0,0,.24-.1.24-.1,0,0,.1-.05.1-.05,0,0,.03-.02.02-.01,0,0,.02-.02-.06.05.08.07-.22-.15-.05.63.2.22.25.18.39.2,0,0-.22-.94-.22-.94,8.83-4.35,17-11.47,19.53-21.29,2.5-9.13.06-18.75-3.45-27.29-.19-.66-1.13-2.28.13-2.42,0,0-.49.68-.49.68-2.59-6.46-5.03-13-6.89-19.73-.91-3.37-1.69-6.78-2.09-10.28-.33-3.25-.48-6.79,1.1-9.78.04-.09.08-.18.09-.22,0-.06,0,.05.03.04l-.02-.51c1.79-1.98,3.76-4.26,6.56-4.75,4.99-.37,5.76,7.38,6.01,10.99,0,0-.06-.17-.06-.17.49.65,1.13,1.19,1.86,1.56,1.5.77,3.22.93,4.9.97.74.09,2.78-.25,2.48.9,0,0-.27-.34-.27-.34.82-.14,1.43-.85,1.78-1.67,1.57-4.34.94-9.17.82-13.71-.04-1.48-.34-3.99-.05-5.46.03-.07.08-.15.13-.22,0,0-.03.22-.03.22-1.86-3.16-3.92-6.21-6.39-8.92-8.77-9.81-19.48-9.54-28.24,0-7.84,10.33-4.59,37.72-3.45,50.61.3,2.84,1.09,10.13,1.4,12.88.09,1.17.48,3.93.21,4.48-5.66,15.05-16.63,23.39-32.09,14.56-3.52-2.08-6.98-4.59-9.44-7.88-.94-.94-2.47-.99-3.75-1.02-2.72.03-5.44.58-8.06,1.25h0Z"/>
  </g>
  <g>
    <path class="cls-4" d="m91.25,622.11s-2.6-23,6.2-16c.6,0,9.8,12-6.2,16Z"/>
    <path class="cls-3" d="m91.22,622.15c-.87-4.51-1.89-14.43,2.39-17.33,1.4-.59,2.88.31,4.01,1.07.93.47,2.56,3.13,3.03,4.77,2.3,6.6-3.47,10.75-9.43,11.48h0Zm.06-.08c5.07-1.66,10.33-5.03,8.47-11.13-.48-1.61-1.22-3.24-2.33-4.52,0,0-.04-.04-.04-.04.02.02.05.02.07,0l-.17-.06c-.99-.81-2.24-1.72-3.54-1.22-2.01,1.15-2.01,3.96-2.23,6.02-.27,3.15-.21,7.73-.23,10.94h0Z"/>
  </g>
  <g>
    <circle class="cls-4" cx="46.75" cy="593.61" r="9.5"/>
    <path class="cls-3" d="m56.3,593.61c.16,5.14-4.18,10.19-9.55,9.92-8.4-.21-13.06-10.96-7.05-16.97,6.3-6.39,16.72-1.81,16.6,7.05h0Zm-.1,0c0-7.93-10.34-11.9-15.83-6.38-3.57,3.32-3.87,9.56-.22,12.99,5.47,5.47,16.16,1.26,16.05-6.6h0Z"/>
  </g>
  <g>
    <path class="cls-3" d="m21.75,645.61s15-12,23-13c1,0,3,26,10,23,1,0,11.5-1.5,4.5-41.5-1,3-27,31-40-5-1,0-8-39,24-46,3-1,19,3,23,12,1-1,12.34-14.3,13.67-12.15.66-.7-.67,20.15,3.33,22.15,0,0-20.04,8.5-12.52,41.75-.96-.5,17.52,63.25-4.48,68.25,0,1-30,18-39-21,0-5-5.5-28.5-5.5-28.5Z"/>
    <path class="cls-4" d="m21.7,645.59c3.5-2.81,7.08-5.37,10.86-7.76,3.81-2.29,7.71-4.73,12.18-5.47.11,0,.21.07.27.15.3.49.36,1.07.5,1.61.99,3.92,3.25,23.65,9.23,21.16,2.17-.26,3.65-2.5,4.44-4.38,1.26-2.86,1.66-6.22,1.93-9.31.26-4.54.02-9.21-.39-13.75-.45-4.58-1.19-9.12-1.92-13.66,0,0,.86.06.86.06-1.09,2.11-2.81,3.64-4.48,5.26-4.99,4.49-11.25,8.44-18.25,8.12-9.68-.58-15.06-10.29-17.96-18.43,0,0,.27.19.27.19-.28-.01-.42-.35-.49-.57-1.22-4.58-1.22-9.43-.93-14.13,1.03-15.53,9.52-28.51,25.38-31.77,2.23-.43,4.59.2,6.79.74,6.43,1.86,13.37,5.06,16.49,11.34,0,0-.43-.08-.43-.08,1.79-1.97,4.48-5.03,6.35-6.93,1.66-1.69,3.31-3.39,5.24-4.79.53-.34,1.06-.74,1.75-.8.25-.05.62.11.8.38,0,0-.52-.05-.52-.05.1-.08.19-.15.36-.1.13.04.18.1.23.18.08.13.08.26.11.39.03.18.06.9.08,1.1.25,4.13-.3,18.11,2.98,20.44,0,0,.72.38.72.38,0,0-.74.37-.74.37-8.67,4.49-13.16,14.51-13.74,23.94-.19,1.62-.09,4.15-.1,5.8.15,1.93.35,3.86.56,5.79l1.06,5.73-.67.52c.21.16.63-.06.64-.29,0,0,0-.02,0-.02,0-.04,0,0,0,0,.03.24.1.67.15.91,2.55,11.53,5.01,23.19,5.92,34.99.45,6.1.59,12.28-.44,18.37-.94,5.95-3.89,12.96-10.45,14.31,0,0,.35-.44.35-.44,0,.18-.13.39-.25.49-.4.38-.86.62-1.31.9-7.44,4.04-17.17,5.15-24.6.53-7.91-4.93-11.5-14.18-13.52-22.86-.31-4.8-1.4-9.6-2.29-14.34-.7-3.57-2.25-10.68-3.02-14.23h0Zm.09.03c1.62,6.75,3.37,14.43,4.68,21.26.41,2.31.93,4.99,1.01,7.17,2.04,8.51,5.65,17.63,13.41,22.37,7.55,4.57,17.75,3.26,24.92-1.47.02-.02.03-.03.03-.03,0,0,.02-.03,0,.02-.03.05-.04.11-.03.16,0,0,.35-.44.35-.44,6.18-1.37,8.71-7.95,9.67-13.6,1.01-5.95.89-12.08.44-18.13-.9-11.74-3.34-23.39-5.87-34.88-.05-.39-.21-.87-.15-1.26,0-.29.46-.52.71-.35,0,0-.67.52-.67.52l-1.07-5.81c-.21-1.96-.41-3.92-.56-5.88,0-.95,0-3.52-.01-4.44.42-10.26,4.84-21.26,14.46-26.1,0,0-.02.75-.02.75-3.81-2.29-3.03-16.7-3.28-21.16,0,0-.03-.7-.03-.7l-.03-.33-.02-.14s-.02-.05,0,0c.08.14.36.17.45.04,0,0-.52-.05-.52-.05-.04-.1-.33-.1-.67.05-3.67,2.14-6.42,5.62-9.37,8.63,0,0-3.17,3.48-3.17,3.48l-.26.29c-3.4-7.29-12.1-10.81-19.58-12.23-1.1-.16-2.28-.32-3.31-.05-4.71,1.02-9.29,2.92-13.09,5.92-10.69,8.46-13.23,23.48-11.56,36.35.18,1.1.32,2.26.75,3.3,0,0,0,.01,0,.01-.03-.04-.1-.07-.15-.05l.27.19c2.91,7.91,8.07,17.35,17.47,17.89,8.12.41,17.51-6.37,21.84-12.93,0,0,.61-1.56.61-1.56.82,5.1,1.64,10.21,2.12,15.36.39,4.58.61,9.29.31,13.88-.3,3.18-.73,6.61-2.04,9.54-.44,1.08-1.11,2.14-1.88,3.01-.75.85-2.32,1.8-3.07,1.71-2.54,1.13-4.49-1.61-5.37-3.62-2.53-5.68-3.26-12.01-4.47-18.06-.11-.47-.19-.99-.39-1.41.02.01.07.04.11.03-4.18.67-8.31,3.04-12.02,5.24-3.76,2.29-7.44,4.87-10.93,7.53h0Z"/>
  </g>
  <g>
    <ellipse class="cls-4" cx="43.25" cy="592.61" rx="7" ry="8.5"/>
    <path class="cls-3" d="m50.3,592.61c.25,5.42-4.46,11.3-10.1,7.96-5.36-3.47-5.85-12.75-.12-16.14,5.74-3.13,10.48,2.69,10.22,8.18h0Zm-.1,0c.06-6.48-7.43-11.02-11.75-5.43-3.73,4.46-1.9,13.6,4.8,13.51,3.81-.13,6.99-4.01,6.95-8.08h0Z"/>
  </g>
  <g>
    <path class="cls-8" d="m288.75,532.61v-45.96s2.02-7.79-4.49-11.91c.98,1.74-1.51-4,18.49-.13,1,.74,8,2,6,56,1,2-4,8,4,12-1,0-23,5-24-10Z"/>
    <path class="cls-8" d="m318.75,529.61s-13-25,9-36c2-2,19-9,28-4-1,1,39,12,6,51,0,0-24.5,10.5-33.5-3.5,4,3-6-9,9-15-2,0,7,34,15,7,0,1,2-27-1-29-1-1-6.74-11.72-12.37-.86,1.74-.28-7.13,31.36-20.13,30.36Z"/>
    <path class="cls-8" d="m376.75,543.61h32.04s-10.54-1.5-8.54-21.5c.18-1.09.43-20.21,12-23,.29.82,2.17-2.16,4,2,1,0,3,16,16,4,0,0,7.7-13.56-12-17-1.25-.22-8.71,1.5-20.94,22.9l-.11.07c-.85.57-11.24,17.94-17.94,16.02,1,1,2,15-4.5,16.5Z"/>
    <path class="cls-6" d="m375.25,489.11h17s12,3,7,16c0,0-7.89,13-16.95,0-.11,0-.05-14-7.05-16Z"/>
    <path class="cls-8" d="m439.18,489.11s25.07,0,25.07,17c-1,0,0,25.44,0,25.44,0,0,1,10.56,8,8.56,0,1-9.07,5.91-16.54,4.46.07-.87-8.48-.5-10.24-10.66-.05-.32-.49-.36-.59-.06-1.18,3.72-5.93,11.67-23.64,9.25,1,0-16-4-8-19,0,2-1.81-8.05,27.27-11.51,2.89-.34,5.16-2.68,5.36-5.59.4-5.93-.1-15.24-6.71-17.9Z"/>
    <path class="cls-5" d="m445.25,519.07v7.65c0,.31-.04.62-.11.92-.59,2.35-3.61,12.41-11.47,7.49-.74-.46-1.31-1.16-1.62-1.98-1.19-3.17-5.43-13.32,8.09-17.79,2.51-.83,5.11,1.07,5.11,3.72Z"/>
  </g>
  <g>
    <g>
      <path d="m44.25,305.19l7.79,27.65s88.85-9.16,69.09-53.46c.27.96-3.86-32.16-20.05-37.99.96-.27-2.31-45.06-32.12-43.94-8.93,1.48-51.01,14.37-51.01,14.37l7.44,26.4s17.48,6.73,5.12,18.19c-.17-.61-2.01.24-2.01.24l4.83,17.13s25.03,7.71,10.66,30.46"/>
      <path class="cls-2" d="m44.3,305.18c-.1-.1,8.13,28.06,7.73,27.55,16.76-2.17,33.58-5.96,48.89-13.29,13.34-6.41,26.23-17.72,22.02-33.99-.52-2.04-1.24-4.02-2.08-5.96l.56-.2s-.04-.13-.17-.18c-.24-.08-.39.12-.4.25,0,0,0-.02,0-.02,0,0,0-.07,0-.07,0,0-.02-.17-.02-.17,0-.14-.13-.86-.14-1.03-2.1-12.11-7.18-31.44-19.73-36.34,0,0,.02-.69.02-.69-.07,0-.16.07-.18.13,0,0,0,0,0,0,0,0,0-.02.01-.06.01-.06.02-.13.02-.2-.66-18.22-9.95-44.02-31.85-42.99-16.87,3.84-34.08,9.4-50.89,14.38,0,0,.33-.61.33-.61,0,0,7.38,26.41,7.38,26.41l-.26-.29c5.37,2.14,12.14,7.58,8.96,14-.89,1.89-2.26,3.47-3.76,4.85l-.58-.16s.05.05.03.05c0,0-.07-.02-.14-.01-.46.03-.98.23-1.42.42,0,0,.19-.4.19-.4l4.76,17.15s-.19-.19-.19-.19c3.08,1.07,5.96,2.64,8.5,4.67,5.26,3.94,7.97,10.91,6.09,17.3-.82,3-2.21,6.44-4.05,8.72,1.7-2.72,3.09-5.66,3.82-8.78,2.77-10.33-5.36-18.35-14.52-21.38,0,0-.15-.05-.15-.05,0,0-.04-.14-.04-.14l-4.89-17.11-.08-.29s.27-.12.27-.12c.66-.26,1.35-.63,2.1-.43.15.04.34.22.4.42l-.58-.16c8.21-7.39,3.35-14.1-5.25-17.6,0,0-.06-.21-.06-.21,0,0-7.5-26.38-7.5-26.38,0,0-.13-.47-.13-.47,0,0,.47-.14.47-.14,8.45-2.58,16.92-5.11,25.41-7.58,8.53-2.41,16.96-5.01,25.67-6.78,5.14-.23,10.42,1.04,14.74,3.91,10.79,7.3,15.25,20.63,17.35,32.92.33,2.45.75,4.95.55,7.43-.03.19-.14.43-.35.5,0,0,.02-.69.02-.69,12.87,5.06,17.95,24.54,20.07,36.94,0,0,.1.7.1.7,0,0,.04.35.04.35,0,0,.02.18.02.18v.1s0,.03,0,.03c0,.02,0-.02,0,.09-.02.08-.08.17-.13.21-.04.02-.14.07-.27.02-.13-.06-.17-.16-.18-.2,0,0,.56-.2.56-.2.84,1.96,1.57,3.98,2.09,6.06,4.22,16.54-8.79,28.05-22.39,34.5-15.41,7.3-32.29,11.03-49.14,13.14.05-.11-7.94-27.81-7.66-27.78h0Z"/>
    </g>
    <path class="cls-2" d="m48.35,312.35s66.12-12.39,66.32-30.11c-.54-1.93,9.61-35.95-26.49-42.41,1.23.69,13.58-32.92-11.54-37.27-.69,1.23-10.02-2.37-16.49.49l-38.37,10.69,1.3,3.39s11.19,3.08,11.3,18.11c.06-.01,7.12,14.1,2.16,18.61,0,0,8.91,5.8,9.94,24.21.27.96,6.93,20.33,6.93,20.33,0,0-3.19,7.7-5.12,8.25.96-.27.05,5.7.05,5.7Z"/>
    <path class="cls-12" d="m71.77,292.24l-8.97-31.85s19.69-8.66,23.88,10.46c.16-2.03,8.86,20.92-14.91,21.39Z"/>
    <path d="m58.05,243.52l-7.94-28.18s15.53-8.2,19.46,6.05c-.55-1.32,10.32,22.21-11.52,22.13Z"/>
  </g>
  <g>
    <g>
      <path class="cls-9" d="m794.25,372.11v-94.82s-1-10.18,11-9.18v-3.76h-19.99l-20.09,60.8,7.07,6.96,16.41-49.56-.41,84.56s1,12-10,10c-1-1,0,3,0,3h25.9l1.1-3.24s-10,2.24-11-4.76Z"/>
      <path d="m794.2,372.11c-.02-21.12-.27-49.99-.36-71.11-.05-7.9-.03-15.81,0-23.71-.35-5.58,3.57-9.61,9.31-9.6,0,0,2.12.07,2.12.07l-.38.35s.01-3.76.01-3.76l.33.33-19.99-.07.25-.18-5.08,15.18c-3.42,10.08-11.57,35.13-15.01,45.62,0,0-.06-.26-.06-.26l7.1,6.93s-.48.12-.48.12l16.24-49.62s.95-2.91.95-2.91c0,0-.01,3.06-.01,3.06,0,0-.17,42.28-.17,42.28-.04,10.53-.21,31.75-.34,42.28.26,4.03-1.44,9.54-6.13,10.31-1.44.36-2.93.14-4.39-.04-.04-.03-.14-.14-.17-.15,0,0,.01,0,.06,0,.06-.01.09-.05.1-.06,0,0-.04.16-.03.29,0,.27.04.56.08.85.09.58.21,1.16.34,1.74l-.25-.2c-.07-.03,26.3.11,25.81.23,0,0,1.1-3.24,1.1-3.24l.1.12c-1.12.22-2.25.32-3.38.33-3.36.15-7.3-1.41-7.69-5.17h0Zm.1,0c.71,5.16,6.99,5.57,11.08,4.64,0,0-.05.15-.05.15,0,0-1.09,3.25-1.09,3.25.02.24-25.91.13-26,.23,0,0-.2,0-.2,0,0,0-.05-.2-.05-.2-.13-.55-1.19-4.49.45-3.26,0,0-.15-.08-.15-.08,1.35.15,2.76.33,4.08-.02,4.33-.79,5.76-5.83,5.49-9.71-.03-10.54,0-31.74.08-42.28,0,0,.24-42.28.24-42.28,0,0,.94.15.94.15,0,0-16.59,49.5-16.59,49.5l-.15.45-.33-.33-7.05-6.98-.11-.11c-.02-.14,10.18-30.36,10.18-30.52,2.91-8.88,7.03-21.44,9.95-30.43,0,0,.06-.18.06-.18h.19s19.99-.07,19.99-.07c0,0,.33,0,.33,0,0,0,0,.34,0,.34v3.76s.01.36.01.36c0,0-.38,0-.38,0-6.06-.55-10.87,2.24-10.57,8.83.15,30.1-.35,64.64-.36,94.82h0Z"/>
    </g>
    <g>
      <path class="cls-9" d="m752.25,312.11h3.73v-44.86h-3.73s.79,7-2.55,5.75c-1.4-.53-2.82-.98-4.31-1.13-2.98-.3-7.14-.76-7.14-.76v5.33s13,3.67,13,11.67c0,1,1,24,1,24Z"/>
      <path d="m752.29,312.07s3.7-.13,3.7-.13l-.17.17c-.5-14.95-.13-29.91.02-44.86,0,0,.15.15.15.15l-3.73.02.18-.2c.12,1.88.54,6.59-2.46,6.11-1.58-.47-2.98-1-4.6-1.11,0,0-2.39-.22-2.39-.22l-4.77-.45s.5-.45.5-.45l.04,5.33-.35-.47c5.7,1.85,13.07,5.32,13.37,12.19.24,7.2.41,16.61.53,23.91h0Zm-.07.07c-.5-7.41-1.1-16.63-1.46-23.98-.34-6.38-7.69-9.57-12.99-11.37,0-.53.04-5.69.04-6.18,1.85.23,5.82.68,7.63.91,1.59.16,3.19.8,4.65,1.3.73.25,1.32-.25,1.58-.92.58-1.47.54-3.21.4-4.82.09.02,3.96.01,4.08.02.04,11.27.44,22.53.23,33.8-.05,3.8-.11,7.59-.22,11.39,0,0-.16,0-.16,0,0,0-3.77-.13-3.77-.13h0Z"/>
    </g>
    <g>
      <path class="cls-9" d="m711.25,265.11h21.76l25.24,82,2-5,6,8-4.6,15.64c-.26.89-.74,1.7-1.4,2.36h0s-26-84-26-84v24l-9.41-8.38s.41-19.62.41-20.62v-1s0-10.68-14-9.84v-3.16Z"/>
      <path d="m711.22,265.07s21.79-.24,21.79-.24h.2c3.25,10.31,9.66,30.82,12.84,41.15,3.12,10.22,9.34,30.83,12.39,41.07,0,0-.38-.02-.38-.02,0,0,2.01-4.99,2.01-4.99l.12-.3.2.26s5.99,8.04,6.02,8.08c-.71,2.35-4.02,13.96-4.7,16.14-.28.76-.73,1.46-1.31,2.04-.74-.18-.21-.06-.38-.11,0,0-.04-.11-.04-.12-1.45-4.65-8.68-27.56-10.3-32.69-4.01-12.72-12-38.34-15.94-51.07,0,0,1.01-.15,1.01-.15l-.05,24v1.05s-.78-.7-.78-.7l-9.37-8.44-.14-.12v-.18s.54-20.44.54-20.44c.36-8.02-6.67-11.44-13.81-10.92,0,0,0-.08,0-.08l.05-3.19h0Zm.07.07s.05,3.12.05,3.12c0,0-.09-.08-.09-.08,7.37-.69,14.54,2.85,14.27,11.09,0,0-.29,20.46-.29,20.46l-.13-.3s9.46,8.33,9.46,8.33l-.78.35c0-2.01-.05-26.27-.06-27.46,4.44,14.35,12.35,40.07,16.72,54.46,1.62,5.32,8.5,27.99,10.01,32.92-.16-.04.37.11-.36-.07,0,0,.04-.04.04-.04,1.36-1.33,1.56-3.29,2.15-5.03,0,0,3.82-12.82,3.82-12.82l.02.14-6.02-7.98.32-.04-1.99,5.01s-.21.52-.21.52c-3.33-10.47-9.77-30.98-13.03-41.46-3.14-10.21-9.39-30.82-12.46-41.05,0,0,.27.2.27.2l-21.72-.24h0Z"/>
    </g>
    <g>
      <path class="cls-9" d="m724.25,349.11v-30.8l9,5.8v20.41s0,6.59-9,4.59Z"/>
      <path d="m724.21,349.14c-.6-10.21-.25-20.59-.12-30.83,0,0,0-.3,0-.3,1.59,1.02,3.19,2.01,4.8,2.98,0,0,4.58,2.78,4.58,2.78,0,0,.18.11.18.11v.23c.06,4.75.2,11.4.12,16.08,0,0-.06,4.02-.06,4.02-.22,5.35-5.21,6.23-9.49,4.93h0Zm.08-.06c3.88.67,8.51-.03,8.51-4.87,0,0-.06-4.02-.06-4.02-.07-4.66.05-11.36.11-16.08,0,0,.18.33.18.33-2.61-1.75-6.26-4.33-8.87-6,0,0,.25-.14.25-.14.14,10.3.46,20.45-.12,30.77h0Z"/>
    </g>
    <g>
      <path class="cls-9" d="m724.25,357.8l9.5-.19s-2,24,7,20h4v2.5h-31.32v-2.73s11.32,2.49,10.82-6.64v-12.94Z"/>
      <path d="m724.22,357.76c3.18-.18,6.53-.38,9.88-.5,0,0-.02.37-.02.37-.09,4.73-.81,17.49,3.8,19.93.89.41,1.94.14,2.87-.19,1.39.04,2.79.04,4.18.06,0,0,0,.18,0,.18l-.02,2.5s0,.15,0,.15c-2.66.01-5.32,0-7.98.07-7.78.18-16.28.27-24.02.32.01-.28,0-2.92,0-3.27,0,0,0-.63,0-.63l.63.12c4.04.89,10.18.16,10.27-5.07.09-3.49.28-10.54.4-14.03h0Zm.07.07c.07,2.34.26,8.27.31,10.52,0,2.3.42,5.01-1.06,7.01-2.28,3.16-6.78,3.09-10.21,2.51,0,0,.64-.51.64-.51,0,0,0,2.73,0,2.73l-.53-.53c5.22.04,10.44.07,15.66.16,4.6.08,11.12.24,15.66.22,0,0-.15.15-.15.15l-.02-2.5.18.18c-1.33.01-2.67.02-4,.06-.47.31-2.12.74-3.09.29-5.45-2.51-4.58-15.4-4.24-20.56,0,0,.33.35.33.35-3.09,0-6.21-.06-9.47-.1h0Z"/>
    </g>
    <g>
      <path class="cls-9" d="m722.75,327.61l-.81-5.38s-31.19,2.38-35.19,30.38c0,0-3,31,29,39,.95-.95,22.71,12.57,48.06-6.75,1.54-1.18,3.09-2.37,4.78-3.32,3.78-2.11,17.91-20.12,7.16-38.93,0,0-8.3-15.76-22.15-20.38.3.76,4.15,14.38,4.15,14.38,0,0,9.46,5.26,11.24,17.67,1.34,9.4-2.6,18.77-9.87,24.87-10.37,8.69-30.61,19.14-56.36-2.54-.95-.95-16.22-23.39-1.75-41.05,1.27-1.55,2.92-2.74,4.73-3.59,3.7-1.73,11.77-5.86,17.02-4.36Z"/>
      <path d="m722.72,327.57l-.87-5.33s.1.08.1.08c-12.53,1.59-25.54,7.88-31.49,19.51-7.07,13.27-2.45,31.02,8.46,40.79,4.76,4.29,10.73,7.03,16.92,8.62,0,0-.36.1-.36.1.23-.22.58-.16.84-.1.36.08,1.14.35,1.5.47,15.16,5.91,31.05,3.73,44.21-5.81,2.2-1.55,4.3-3.35,6.69-4.66,1.09-.74,2.02-1.75,2.89-2.78,7.75-9.29,10.54-23.12,4.79-34.1-5-9.38-12.69-18.15-22.92-21.79,0,0,.45-.48.45-.48l4.22,14.4s-.2-.26-.2-.26c8.17,5.06,12.64,14.94,11.63,24.4-1.32,14.64-14.75,24.91-28.18,28.31-8.62,2.11-17.89.63-25.78-3.28-4.72-2.28-9.09-5.43-13.15-8.74-1.82-2.33-3.05-4.89-4.28-7.54-3.45-7.79-5.05-16.83-2.33-25.08,1.84-5.31,5.13-10.77,10.58-12.88,5.01-2.18,10.67-5.16,16.27-3.85h0Zm.07.08c-5.73-1.14-11.13,1.81-16.17,4.11-5.31,2.17-8.45,7.51-10.21,12.72-3.21,10.2.05,21.32,5.49,30.17.31.55.9,1.32,1.14,1.64,0,0,2.75,2.12,2.75,2.12,3.38,2.69,7.17,4.87,11.05,6.78,7.57,3.4,16.21,4.8,24.35,2.76,8.77-2.26,17.27-7.38,22.66-14.72,8.49-12.01,5.75-28.33-6.48-36.51,0,0-4.08-14.36-4.08-14.36,0,0-.2-.71-.2-.71,10.7,3.64,18.65,12.73,23.79,22.5,5.79,11.18,2.84,25.1-4.97,34.53-.88,1.05-1.8,2.07-2.95,2.87-2.38,1.33-4.42,3.11-6.64,4.7-13.24,9.73-29.31,12.04-44.7,6.17-.42-.12-1.19-.43-1.62-.47-.04-.02-.11.05.05-.06,0,0-.36.1-.36.1-6.3-1.56-12.44-4.35-17.32-8.69-8.28-7.22-12.17-18.47-12.01-29.27.61-8.73,5.02-17.03,11.8-22.47,6.78-5.47,15.3-8.51,23.9-9.42,0,0,.01.09.01.09l.75,5.43h0Z"/>
    </g>
    <g>
      <path class="cls-9" d="m745.75,327.61l-4-12s-19-11-21-21c0,0,.09-12.12,2.04-12.06,1.91.12-.04-5.94-.04-5.94,0,0-8.64,6.68-9.32,16.34-.36-1.68,1.32,19.66,18.32,27.66l14,7.74"/>
      <path d="m745.7,327.62c-1.47-3.95-2.88-7.93-4.27-11.91-5.63-3.01-13.01-8.46-17.53-14.19-1.53-2.05-2.92-4.31-3.41-6.89.05-1.6.14-3.2.25-4.79.27-2.37.24-4.88,1.37-7.05.13-.17.3-.37.59-.39.23-.02.33-.02.45-.13.22-.21.27-.62.29-.99,0-1.54-.44-3.1-.91-4.59,0,0,.34.1.34.1-2.42,2.05-4.49,4.56-6.09,7.29-2.19,3.49-2.88,7.42-3.16,11.45,0,0-.65-2.48-.65-2.48,0-.02-.02-.05.01.02,0,0,.03.05.03.05.12.06-.23-.08.33.2.83-.33.36-.34.49-.32,0-.02.02-.09.01-.07,0,0,0,.02,0,.02,0,0,.01.17.01.17,1.47,10.07,6.65,20.15,15.42,25.69,1.56.98,3.92,2.12,5.51,3.11,3.57,2.16,7.65,4.21,10.94,6.49-4.67-2.4-9.41-4.91-14.04-7.39-10.47-4.68-16.81-15.6-18.6-26.6-.05-.47-.21-1.2-.14-1.67.14,0-.33,0,.5-.34.57.28.22.16.34.22.05.09.08.17.09.24,0,0-.91.06-.91.06.42-4.94,2.86-9.48,6.12-13.12,1.16-1.29,2.4-2.5,3.78-3.56.45,1.65.93,3.29.93,5.04-.03.4-.05.86-.41,1.23-.35.35-.75.04-1.01.47-1.1,2.04-1.03,4.6-1.26,6.88-.11,1.5-.13,3.39-.13,4.7.55,2.42,1.96,4.56,3.51,6.49,4.89,5.79,11.14,10.32,17.53,14.34,1.18,4.03,2.81,8.3,3.67,12.23h0Z"/>
    </g>
    <g>
      <path class="cls-9" d="m715.47,349.49l3.28-3.88s8.3,14,17.15,0c-.3-3,0-16.4,0-16.4,0,0,9.85,7.4,7.85,15.4,1-1-3.01,12.96-14,10.98,0,1.04-10.55.78-14.27-6.1Z"/>
      <path d="m715.42,349.48l3.14-4.03.2-.25c2.9,4.58,8.41,8.71,13.33,4.29,1.37-1.13,2.47-2.58,3.5-4.08l-.05.23c-.15-5.24.2-11.2.18-16.44,0,0,0-.36,0-.36,1.31,1.01,2.55,2.1,3.68,3.3,3.17,3.3,5.89,7.83,4.8,12.58,0,0-.79-.45-.79-.45.11-.09.15-.16.38-.19,1.64.08-.78,4.48-1.2,5.24-1.71,2.97-4.38,5.58-7.76,6.54-1.69.5-3.48.5-5.18.17l.54-.45c-.03.37-.26.51-.37.59-.64.33-1.35.29-2.03.3-4.86-.23-10.11-2.44-12.38-6.98h0Zm.1.01c2.64,4.32,8.93,6.79,13.83,5.91.04-.01-.06,0-.07.19l.54-.45c1.59.26,3.21.2,4.73-.24,4.46-1.38,7.73-5.75,8.86-10.16.04.14.26.38.54.28.14-.07.09-.04.12-.07l-.79-.45c1.31-6.01-3.18-11.5-7.5-15.15,0,0,.29-.14.29-.14l-.1,4.1c0,4-.06,8.43.3,12.38-3.03,5.45-8.64,9.1-14.13,4.33-1.44-1.23-2.62-2.69-3.59-4.29l.39.03-3.41,3.73h0Z"/>
    </g>
  </g>
</svg>