<?xml version="1.0" encoding="UTF-8"?>
<svg id="Layer_4" data-name="Layer 4" xmlns="http://www.w3.org/2000/svg" viewBox="0 0 840.7 849.34">
  <defs>
    <style>
      .cls-1 {
        fill: #0a0909;
      }

      .cls-2 {
        fill: #ffd23f;
        stroke: #000;
        stroke-miterlimit: 10;
      }
    </style>
  </defs>
  <rect class="cls-2" x="1.2" y="128.34" width="839" height="593"/>
  <g>
    <path class="cls-1" d="m546.7,494.76c11.72,7.29,25.43,10.9,39.15,12.39,9.12.99,18.41,1.07,27.4-.79,23.39-4.84,42.33-22.37,55.72-42.15,6.69-9.89,12.39-20.7,14.63-32.43,2.11-11.08,1.05-22.6-1.8-33.52-6.79-26-24.63-49.6-49.25-60.37-27.21-11.9-58.75-7.32-87.21,1.15-40.17,11.95-77.95,31.12-118.34,42.32-40.39,11.2-85.76,13.62-122.3-6.9,29.2,28.85,74.28,35.4,115.01,30.33,12.64-1.58,25.16-4.11,37.42-7.59,24.55-6.95,47.87-17.59,71.97-25.98,24.1-8.38,49.57-14.56,74.96-12.08,9.59.94,19.32,3.22,27.22,8.74,6.69,4.67,11.71,11.43,15.34,18.74,9.66,19.47,9.37,43.93-2.1,62.39-11.47,18.46-34.22,29.69-55.66,26.1-19.5-3.26-40.13-23.49-60.34-20.07-20.94,3.54,10.92,35.21,18.18,39.72Z"/>
    <path class="cls-1" d="m409.59,363.72c8-2.26,16.01-4.53,23.87-7.23,48.51-16.65,92.45-49.86,143.66-52.55,3.81-.2,7.63-.23,11.43.08,7.98.65,15.76,2.75,23.48,4.84,13.34,3.61,28.27,8.51,34.13,21.03-18.4-13.87-42.93-17.48-65.8-14.72-22.87,2.75-44.6,11.27-66.04,19.71-27.36,10.77-54.72,21.55-82.08,32.32-14.88,5.86-30.05,11.79-46,12.97-8.71.65-17.45-.14-26.14-.93-7.96-.72-15.93-1.38-23.88-2.17,12.47-.38,24.72-1.51,37.01-4.03,6.24-1.28,12.43-2.8,18.59-4.42,5.2-1.37,12.42-4.91,17.76-4.91Z"/>
  </g>
  <g>
    <path class="cls-1" d="m305.33,366.64c3.69-3.12,4.51-8.72,3.08-13.34-1.43-4.62-4.7-8.42-8.17-11.8-19.29-18.79-47.6-28.03-74.19-23.74-26.58,4.29-50.71,22.19-62.07,46.61-11.35,24.42-9.39,54.67,5.44,77.15,5.59,8.47,12.78,15.75,19.97,22.91,4.36,4.33,8.81,8.7,14.22,11.62,7.46,4.03,16.17,5.02,24.65,5.2,78.37,1.7,148.87-57.6,227.17-53.92,20.91.98,41.6,6.58,60.15,16.28-5.66-9.65-16.47-14.89-26.8-19.2-12.33-5.14-24.96-9.75-38.09-12.17-28.84-5.3-58.64.28-86.61,9.06-27.98,8.78-54.91,20.74-83.12,28.73-8.15,2.31-16.44,4.28-24.88,5.02-17.42,1.52-35.28-2.41-50.45-11.1-3.5-2.01-6.9-4.3-9.55-7.35-3.48-4.01-5.45-9.11-6.95-14.2-3.62-12.28-4.9-25.45-2.04-37.93,2.86-12.48,10.14-24.19,20.99-30.98,15.43-9.65,35.43-8.33,52.39-4.06,7.86,1.98,14.65,5.56,21.65,9.5,5.03,2.83,18,12.1,23.21,7.69Z"/>
    <path class="cls-1" d="m266.83,507.59c10.11-2.35,20.38-3.9,30.31-6.93,27.09-8.28,53.44-18.95,78.65-31.87,7.41-3.8,14.73-7.79,22.32-11.19,28.64-12.83,60.45-16.93,91.82-17.71-16.6-3.39-33.77-1.09-50.55,1.21-8.52,1.17-17.06,2.35-25.41,4.39-13.18,3.23-26.17,5.38-38.7,10.59-24.43,10.16-48.86,19.3-73.76,28.25-15.97,5.74-31.7,14.85-48.65,15.69-8.11.4-16.6-.13-24.64-1.14-6.66-.84-25.29-10.73-31.86-9.85,18.04,16.83,51.54,22.96,70.45,18.56Z"/>
  </g>
</svg>