<?xml version="1.0" standalone="no"?>
<!DOCTYPE svg PUBLIC "-//W3C//DTD SVG 20010904//EN"
 "http://www.w3.org/TR/2001/REC-SVG-20010904/DTD/svg10.dtd">
<svg version="1.0" xmlns="http://www.w3.org/2000/svg"
 width="500.000000pt" height="500.000000pt" viewBox="0 0 500.000000 500.000000"
 preserveAspectRatio="xMidYMid meet">

<g transform="translate(0.000000,500.000000) scale(0.100000,-0.100000)"
fill="#000000" stroke="none">
<path d="M1930 3610 c0 -5 14 -10 30 -10 38 0 77 -20 110 -55 21 -23 25 -38
28 -104 l4 -78 -46 -17 c-140 -54 -232 -248 -192 -405 22 -84 55 -129 152
-206 l84 -67 0 -255 c0 -275 -3 -290 -56 -332 -14 -11 -45 -23 -70 -27 -103
-15 -28 -24 206 -24 138 0 250 4 250 9 0 4 -19 11 -42 14 -45 6 -81 28 -112
71 -19 25 -21 44 -24 222 -2 107 0 194 3 194 13 0 131 -99 174 -145 83 -90
121 -211 101 -323 -23 -132 -92 -221 -216 -279 -54 -26 -69 -28 -179 -28 -113
0 -123 2 -179 30 -79 40 -151 111 -184 182 -23 50 -27 71 -27 153 0 107 16
165 70 254 37 62 32 84 -9 35 -47 -56 -76 -115 -97 -200 -19 -72 -20 -93 -11
-149 24 -154 94 -258 219 -322 90 -46 146 -59 262 -59 162 1 270 41 368 139
138 137 169 339 79 527 -42 89 -111 165 -258 282 l-118 93 0 295 0 295 28 -6
c93 -22 163 -81 182 -156 6 -24 13 -47 15 -53 2 -5 4 49 4 121 l1 131 -99 6
c-55 4 -106 10 -115 13 -13 5 -16 23 -16 90 l0 84 166 0 c192 0 227 -8 289
-62 119 -105 149 -353 62 -500 -59 -99 -158 -145 -334 -155 -57 -3 -103 -9
-103 -14 0 -4 15 -16 33 -27 35 -20 170 -166 584 -629 314 -350 441 -454 633
-519 87 -29 370 -24 370 6 0 6 -22 10 -50 10 -72 0 -146 18 -229 56 -149 69
-297 201 -634 569 -121 132 -267 291 -325 354 l-105 114 64 16 c162 41 268
160 306 347 47 231 -72 432 -292 490 -62 17 -755 20 -755 4z m170 -541 l0
-222 -42 35 c-62 51 -88 107 -88 187 0 82 22 133 78 184 23 20 44 37 47 37 3
0 5 -100 5 -221z"/>
<path d="M1874 2600 c-75 -29 -67 -141 11 -156 33 -6 73 8 87 30 15 22 8 92
-9 108 -24 20 -63 28 -89 18z"/>
<path d="M1435 1255 l0 -115 30 0 30 0 -3 110 c-3 103 -2 110 16 110 45 0 58
-76 16 -94 l-21 -9 21 -35 c36 -58 63 -82 95 -82 l29 0 -18 23 c-11 12 -30 35
-43 51 l-23 29 23 23 c28 28 29 58 3 84 -16 16 -33 20 -87 20 l-68 0 0 -115z"/>
<path d="M2283 1340 c-24 -10 -37 -41 -28 -69 3 -11 26 -32 50 -48 45 -28 58
-59 30 -69 -25 -10 -65 5 -75 29 -9 20 -9 19 -7 -8 2 -28 5 -30 49 -33 52 -3
88 20 88 57 0 18 -11 29 -79 80 -16 12 -22 24 -18 34 7 20 48 22 65 5 9 -9 12
-8 12 5 0 9 -6 17 -12 17 -7 0 -22 2 -33 5 -11 2 -30 0 -42 -5z"/>
<path d="M2499 1340 c-49 -14 -68 -30 -77 -64 -14 -48 -4 -82 30 -111 54 -46
168 -27 168 28 -1 21 -1 22 -12 2 -26 -48 -83 -60 -118 -25 -25 25 -27 105 -4
138 20 29 76 30 104 2 20 -20 20 -20 20 -1 0 11 -3 22 -7 24 -18 10 -80 15
-104 7z"/>
<path d="M3790 1340 c-80 -19 -108 -114 -51 -171 25 -24 37 -29 81 -29 66 0
90 13 89 48 0 15 -3 21 -6 12 -21 -56 -87 -68 -122 -24 -45 58 -13 154 52 154
18 0 40 -9 54 -22 l23 -21 0 21 c0 21 -7 24 -70 37 -8 1 -31 -1 -50 -5z"/>
<path d="M1680 1254 c6 -100 17 -114 91 -114 69 0 89 28 89 126 0 53 -4 74
-12 74 -9 0 -13 -22 -13 -78 0 -89 -12 -112 -55 -112 -43 0 -55 23 -55 112 0
77 0 78 -25 78 l-25 0 5 -86z"/>
<path d="M1918 1254 c2 -56 -1 -90 -8 -100 -11 -12 -7 -14 21 -14 l34 0 -3 67
-4 67 62 -55 c108 -95 100 -97 100 20 l0 101 -27 0 -28 0 3 -67 4 -66 -75 66
c-41 37 -76 67 -78 67 -2 0 -3 -38 -1 -86z"/>
<path d="M2695 1254 c-21 -47 -45 -92 -52 -100 -12 -12 -11 -14 11 -14 18 0
25 6 28 23 4 31 71 38 87 9 6 -11 7 -22 4 -26 -3 -3 14 -6 38 -6 24 0 39 4 32
8 -6 4 -30 49 -53 100 -24 50 -46 92 -49 92 -4 0 -24 -39 -46 -86z m55 -36 c0
-5 -11 -8 -25 -8 -29 0 -29 0 -13 35 l12 26 13 -23 c7 -13 12 -26 13 -30z"/>
<path d="M2875 1240 l0 -100 30 0 30 0 -3 95 c-3 96 1 108 35 87 25 -16 19
-70 -9 -81 -22 -9 -22 -9 6 -16 25 -7 33 -4 53 19 28 33 29 50 3 76 -16 16
-33 20 -82 20 l-63 0 0 -100z"/>
<path d="M3075 1240 l0 -100 73 0 c66 0 72 2 72 21 0 19 -1 19 -22 5 -12 -9
-33 -16 -45 -16 -20 0 -23 5 -23 41 0 40 1 41 30 37 23 -4 30 -1 30 12 0 13
-7 16 -30 12 -29 -4 -30 -3 -30 37 0 38 2 41 28 41 15 0 33 -5 40 -12 9 -9 12
-8 12 5 0 14 -11 17 -67 17 l-68 0 0 -100z"/>
<path d="M3345 1240 l0 -100 30 0 30 0 0 100 0 100 -30 0 -30 0 0 -100z"/>
<path d="M3468 1254 c2 -56 -1 -90 -8 -100 -11 -12 -7 -14 21 -14 l34 0 -3 67
-4 67 62 -55 c108 -95 100 -97 100 20 l0 101 -27 0 -28 0 3 -67 4 -66 -75 66
c-41 37 -76 67 -78 67 -2 0 -3 -38 -1 -86z"/>
</g>
</svg>
