<?xml version="1.0" encoding="UTF-8"?>
<svg xmlns="http://www.w3.org/2000/svg" viewBox="0 0 596 843">
  <defs>
    <style>
      .cls-1 {
        fill: #7307a0;
      }

      .cls-1, .cls-2, .cls-3, .cls-4, .cls-5, .cls-6, .cls-7, .cls-8, .cls-9, .cls-10, .cls-11, .cls-12, .cls-13 {
        stroke: #000;
        stroke-miterlimit: 10;
      }

      .cls-2 {
        fill: #7709d8;
      }

      .cls-3 {
        fill: none;
      }

      .cls-4 {
        fill: #8d0bb7;
      }

      .cls-5 {
        fill: #0f8b00;
      }

      .cls-6 {
        fill: #8c1db5;
      }

      .cls-7 {
        fill: #2a46ea;
      }

      .cls-8 {
        fill: #1a1;
      }

      .cls-9 {
        fill: #2d089e;
      }

      .cls-10 {
        fill: #ef0f0f;
      }

      .cls-11 {
        fill: #e5ef1d;
      }

      .cls-12 {
        fill: #40d800;
      }

      .cls-13 {
        fill: red;
      }
    </style>
  </defs>
  <g id="Layer_2" data-name="Layer 2">
    <path class="cls-9" d="m241.02,248.95c-.18-.35-.54-.12-1,.52.81.01,1.21-.1,1-.52Zm127.02,314.03c.35-.33.67-.68.98-1.03,5.51,3.68,7.65,5.1,8.48,5.65l.52.35-1-58s64.99-13,21.01-56.99c1.19,0,29.99-145.01,29.99-145.01l-7-8s-20-20-27-15c0,0-3,17-23,24,0,0-3.99,1-4-6.98-.22,0-8.12-35.07-17-39.02,1,2-48-17-61-10-2,0-41,3-49,15-1,1-5,3-6-3-.82-.82,3.79-12.52,6-15.48-3.1-.04-12.25-1.86-17,4.48-1,0-7,5-7,5,0,0,8,62-21,84-2,1-1,14,3,18,0,1-15,24-2,54,0,1-9,67-16,68,0,0-3,31,23,32,2,1,43,4,46,13,0,0,10,23,15,24,0,0-4,9-5,9-41.05,0-53.44,15.28-53.98,15.03,1.61,3.21-60.02,42.97-60.02,42.97,3,20,92,20,92,20,0,0,152,8,172,8,20,1,14-3,16-5,4.98-45.79-55.45-76.72-56.98-78.97Zm-129.07-152.29c-.62-.12-1.23-.3-1.78-.58-.76-.39-1.43-1.02-1.7-1.84-.2-.63-.16-1.3-.12-1.96.33-4.79.66-9.58.99-14.36.08-1.17.18-2.39.81-3.37.49-.74,1.23-1.26,2-1.71,2.29-1.31,4.93-2.01,7.58-2,1.64,0,3.32.29,4.77,1.09,1.44.8,2.62,2.16,2.97,3.77.36,1.71-.23,3.49-1.12,4.98-.62,1.04-1.38,1.98-2.14,2.92-1.24,1.54-2.49,3.08-3.73,4.62-1.14,1.4-2.27,2.8-3.51,4.11-1.51,1.62-3.19,3.09-5.02,4.33Zm-7.6-.5c-.63.34-2.69-.79-3.33-1.04-2.28-.9-4.55-1.97-6.58-3.36-3.17-2.1-5.94-4.91-7.58-8.34-.61-1.28-1.07-2.64-1.35-4.03-.08-.42-.15-.84-.06-1.26.1-.52.44-.97.79-1.37.38-.44.79-.87,1.21-1.27,1.02-.96,2.17-1.8,3.46-2.33,1.88-.78,4.04-.88,5.98-.27,2.47.77,4.52,2.63,5.83,4.86,1.31,2.23,1.94,4.81,2.18,7.39.23,2.58.08,5.18-.07,7.76-.04.67.22,2.88-.48,3.26Zm84.65-68.24c3,14,47,30,48,31,6,5-3,5-4,5-20,1-48-32-48-32-4-4,4-4,4-4Zm115-97c-15-18-51-7-54.2-4.68-3.2,2.33-7.8-4.32-6.8-4.32,0-4,19-10.69,19-10.31,5-4.31,0-3.69,0-4.69-29-11-59,0-59,0l-2-2c-.9-3.59-13.05-10.39-14.11-11.05.03.01.07.02.11.05-18-12-36-4-39.13-5.46s-12.87,8.46-12.87,8.46c0,0-1,1,11,9,7,6-8,2-7,2-22-23-60-6-57-6-7,0-26,20-19.12,19,4.98-.72,8.58.13,9.81.27-11.66,10.18-9.69,35.7-9.69,32.73,4,18,6,9,6,10,9.09-20.91,35.53-30.25,40.27-31.77h.01c.47-.16.72-.23.72-.23l18.41-11.04c-10.16,10.97-18.6,30.68-16.41,27.04,3-5,47-12,49-12,14-5,62,10,67,13,7,2,16,43,19,43,7,4,20-25,19-25,24-1,43,38,43,38,14-21-13-53-12-56s25,0,25-1c-2-5-16-16-18-17Z"/>
    <path class="cls-13" d="m.5.5v842h595V.5H.5Zm376.52,509.45l1,58-.52-.35c-.83-.55-2.97-1.97-8.48-5.65-.31.35-.63.7-.98,1.03,1.53,2.25,61.96,33.18,56.98,78.97-2,2,4,6-16,5-20,0-172-8-172-8,0,0-89,0-92-20,0,0,61.63-39.76,60.02-42.97.54.25,12.93-15.03,53.98-15.03,1,0,5-9,5-9-5-1-15-24-15-24-3-9-44-12-46-13-26-1-23-32-23-32,7-1,16-67,16-68-13-30,2-53,2-54-4-4-5-17-3-18,29-22,21-84,21-84,0,0,6-5,7-5,4.75-6.34,13.9-4.52,17-4.48.46-.64.82-.87,1-.52.21.42-.19.53-1,.52-2.21,2.96-6.82,14.66-6,15.48,1,6,5,4,6,3,8-12,47-15,49-15,13-7,62,12,61,10,8.88,3.95,16.78,39.02,17,39.02.01,7.98,4,6.98,4,6.98,20-7,23-24,23-24,7-5,27,15,27,15l7,8s-28.8,145.01-29.99,145.01c43.98,43.99-21.01,56.99-21.01,56.99Zm47-247c-1,3,26,35,12,56,0,0-19-39-43-38,1,0-12,29-19,25-3,0-12-41-19-43-5-3-53-18-67-13-2,0-46,7-49,12-2.19,3.64,6.25-16.07,16.41-27.04l-18.41,11.04s-.25.07-.72.23h-.01c-4.74,1.52-31.18,10.86-40.27,31.77,0-1-2,8-6-10,0,2.97-1.97-22.55,9.69-32.73-1.23-.14-4.83-.99-9.81-.27-6.88,1,12.12-19,19.12-19-3,0,35-17,57,6-1,0,14,4,7-2-12-8-11-9-11-9,0,0,9.74-9.92,12.87-8.46s21.13-6.54,39.13,5.46c-.04-.03-.08-.04-.11-.05,1.06.66,13.21,7.46,14.11,11.05l2,2s30-11,59,0c0,1,5,.38,0,4.69,0-.38-19,6.31-19,10.31-1,0,3.6,6.65,6.8,4.32,3.2-2.32,39.2-13.32,54.2,4.68,2,1,16,12,18,17,0,1-24-2-25,1Z"/>
  </g>
  <g id="Layer_1" data-name="Layer 1">
    <path class="cls-8" d="m425.02,641.95c-2,2,4,6-16,5-20,0-172-8-172-8,0,0-89,0-92-20,0,0,61.63-39.76,60.02-42.97.54.25,12.93-15.03,53.98-15.03,0,0,14.78,2.11,20.72,4.57h.01c1.14.47,1.95.95,2.27,1.43.84,0,46.24,9.9,73.15,2.34.04-.01.09-.03.13-.04.02-.01.04-.01.06-.02.05-.01.09-.02.14-.04.04-.01.09-.02.13-.04,4.89-1.41,9.15-3.43,12.39-6.2,0,0,.01.02.02.03,1.53,2.25,61.96,33.18,56.98,78.97Z"/>
    <path class="cls-11" d="m240.02,249.47c.46-.64.82-.87,1-.52.21.42-.19.53-1,.52Z"/>
    <path class="cls-11" d="m277.02,393.95c0-1-17-8-18-10-22-14-60,4-60,4-7,26,17,33,17,33,4-15,63-8,63-8,0,0-2-18-2-19Zm-45.65,16.24c-.63.34-2.69-.79-3.33-1.04-2.28-.9-4.55-1.97-6.58-3.36-3.17-2.1-5.94-4.91-7.58-8.34-.61-1.28-1.07-2.64-1.35-4.03-.08-.42-.15-.84-.06-1.26.1-.52.44-.97.79-1.37.38-.44.79-.87,1.21-1.27,1.02-.96,2.17-1.8,3.46-2.33,1.88-.78,4.04-.88,5.98-.27,2.47.77,4.52,2.63,5.83,4.86,1.31,2.23,1.94,4.81,2.18,7.39.23,2.58.08,5.18-.07,7.76-.04.67.22,2.88-.48,3.26Zm22-15.48c-.62,1.04-1.38,1.98-2.14,2.92-1.24,1.54-2.49,3.08-3.73,4.62-1.14,1.4-2.27,2.8-3.51,4.11-1.51,1.62-3.19,3.09-5.02,4.33-.62-.12-1.23-.3-1.78-.58-.76-.39-1.43-1.02-1.7-1.84-.2-.63-.16-1.3-.12-1.96.33-4.79.66-9.58.99-14.36.08-1.17.18-2.39.81-3.37.49-.74,1.23-1.26,2-1.71,2.29-1.31,4.93-2.01,7.58-2,1.64,0,3.32.29,4.77,1.09,1.44.8,2.62,2.16,2.97,3.77.36,1.71-.23,3.49-1.12,4.98Z"/>
    <path class="cls-11" d="m372.02,410.95c-15,39-51,30-51,29-43-14-34.59-45.29-34.59-45.29,26.4-13.28,85.59,16.29,85.59,16.29Z"/>
    <path class="cls-11" d="m428.02,307.95l-7-8s-20-20-27-15c0,0-3,17-23,24,0,0-3.99,1-4-6.98-.22,0-8.12-35.07-17-39.02,1,2-48-17-61-10-2,0-41,3-49,15-1,1-5,3-6-3-.82-.82,3.79-12.52,6-15.48-3.1-.04-12.25-1.86-17,4.48-1,0-7,5-7,5,0,0,8,62-21,84-2,1-1,14,3,18,0,1-15,24-2,54,0,1-9,67-16,68,0,0-3,31,23,32,2,1,43,4,46,13,0,0,10,23,15,24,0,0-4,9-5,9,.38.18,8.72,2.28,20.72,4.57h.01c21.64,4.11,55.18,8.81,75.42,3.77.04-.01.09-.03.13-.04.02-.01.04-.01.06-.02.05-.01.09-.02.14-.04.04-.01.09-.02.13-.04,5.19-1.33,9.47-3.33,12.41-6.17.35-.33.67-.68.98-1.03,5.51,3.68,7.65,5.1,8.48,5.65l.52.35-1-58s64.99-13,21.01-56.99c1.19,0,29.99-145.01,29.99-145.01Zm-112,34c3,14,47,30,48,31,6,5-3,5-4,5-20,1-48-32-48-32-4-4,4-4,4-4Zm48.59,97.43c-2.97,3.03-6.3,5.67-9.61,8.32-3.67,2.95-7.5,6.19-8.85,10.69-1.02,3.4-.48,7.04-.15,10.57,1.15,12.46-.59,25.19-5.04,36.88-2.35-.33-3.11-3.29-3.31-5.65-1.28-15.1-1.73-30.27-1.34-45.42-1.48-.2-.97-.13-2.45-.33l-2.61,10.74c-5.32-1.81-8.19-8.73-5.71-13.78-6.72-1.57-13.5-3.17-19.73-6.13-6.24-2.97-11.96-7.46-15.18-13.56-2.21-4.21-3.68-9.57-8.11-11.27-15.67.48-29.26,1.49-44.92,1.97-4.34.13-9.59.82-11.03,5.18-.74,2.22-.08,4.65,1.38,6.49,2.61,3.31,6.68,4.43,10.57,5.47,9.07,2.4,18.14,4.8,27.2,7.21,4.68,1.23,10.35,3.68,10.39,8.51-5.45-4.39-26.46-2.98-44.5-8.58-8.14-2.52-13.43-10.42-19.39-16.51-3.63-3.71-7.28-7.45-10.33-11.65-2.36-3.26-4.36-6.8-5.66-10.6-3.33-9.79,1.16-22.9,9.4-29.15,3.69-2.8,7.79-4.93,12.39-5.83,14.2-2.79,29.53,4.11,44,4,3.67-.03,3.33,1.94,7,2,.8,0,9.2,4.99,10,5,4.3.07,6-10.91,9.8-12.93,2.15-1.14,8.2-7.36,11.84-10.02,2.07-1.51,4.66.97,3.23,3.09-2.95,4.36-11.28,7.76-14.51,12.31-1.36,1.93-.03,4.58,2.33,4.67,27.83,1.06,58.44,11.95,82.81,25.71-.61-3.62-1.18-7.51.35-10.84,1.86-4.05,8.17-6.39,10.61-1.25.92,1.93.88,4.18.1,6.17-5.36,13.63-10.64,28.02-20.97,38.52Z"/>
    <path class="cls-1" d="m449.02,261.95c0,1-24-2-25,1s26,35,12,56c0,0-19-39-43-38,1,0-12,29-19,25-3,0-12-41-19-43-5-3-53-18-67-13-2,0-46,7-49,12-2.19,3.64,6.25-16.07,16.41-27.04l-18.41,11.04s-.25.07-.72.23h-.01c-4.74,1.52-31.18,10.86-40.27,31.77,0-1-2,8-6-10,0,2.97-1.97-22.55,9.69-32.73-1.23-.14-4.83-.99-9.81-.27-6.88,1,12.12-19,19.12-19-3,0,35-17,57,6-1,0,14,4,7-2-12-8-11-9-11-9,0,0,9.74-9.92,12.87-8.46s21.13-6.54,39.13,5.46c-.09-.05-.14-.07-.16-.08.61.41,13.24,7.42,14.16,11.08l2,2s30-11,59,0c0,1,5,.38,0,4.69,0-.38-19,6.31-19,10.31-1,0,3.6,6.65,6.8,4.32,3.2-2.32,39.2-13.32,54.2,4.68,2,1,16,12,18,17Z"/>
    <polyline class="cls-3" points="262.24 229.3 262.19 229.33 259.61 231.01 259.6 231.01 236.3 246.18"/>
    <path class="cls-12" d="m226.02,353.95s49-16,52-27c-1,1,5-2,3,3s-36,30-40,28-10,7-15-4Z"/>
    <path class="cls-12" d="m360.02,377.95c-20,1-48-32-48-32-4-4,4-4,4-4,3,14,47,30,48,31,6,5-3,5-4,5Z"/>
    <path class="cls-4" d="m277.02,393.95c0-1-17-8-18-10-22-14-60,4-60,4-7,26,17,33,17,33,4-15,63-8,63-8,0,0-2-18-2-19Zm-45.65,16.24c-.63.34-2.69-.79-3.33-1.04-2.28-.9-4.55-1.97-6.58-3.36-3.17-2.1-5.94-4.91-7.58-8.34-.61-1.28-1.07-2.64-1.35-4.03-.08-.42-.15-.84-.06-1.26.1-.52.44-.97.79-1.37.38-.44.79-.87,1.21-1.27,1.02-.96,2.17-1.8,3.46-2.33,1.88-.78,4.04-.88,5.98-.27,2.47.77,4.52,2.63,5.83,4.86,1.31,2.23,1.94,4.81,2.18,7.39.23,2.58.08,5.18-.07,7.76-.04.67.22,2.88-.48,3.26Zm22-15.48c-.62,1.04-1.38,1.98-2.14,2.92-1.24,1.54-2.49,3.08-3.73,4.62-1.14,1.4-2.27,2.8-3.51,4.11-1.51,1.62-3.19,3.09-5.02,4.33-.62-.12-1.23-.3-1.78-.58-.76-.39-1.43-1.02-1.7-1.84-.2-.63-.16-1.3-.12-1.96.33-4.79.66-9.58.99-14.36.08-1.17.18-2.39.81-3.37.49-.74,1.23-1.26,2-1.71,2.29-1.31,4.93-2.01,7.58-2,1.64,0,3.32.29,4.77,1.09,1.44.8,2.62,2.16,2.97,3.77.36,1.71-.23,3.49-1.12,4.98Z"/>
    <path class="cls-2" d="m372.02,410.95c-15,39-51,30-51,29-43-14-34.59-45.29-34.59-45.29,26.4-13.28,85.59,16.29,85.59,16.29Z"/>
    <path class="cls-10" d="m313.36,424.98c-3.21-2.07-6.4-4.26-8.95-7.1s-4.47-6.41-4.68-10.22c-.08-1.43.12-2.98,1.04-4.07.74-.87,1.85-1.35,2.97-1.6,2.21-.49,4.58-.17,6.58.88,2.58,1.1,5.15,2.2,7.73,3.3.26.11.44,2.22.49,2.55.15.9.28,1.81.39,2.72.22,1.82.35,3.65.38,5.48s-.01,3.66-.15,5.49c-.07.91-.16,1.82-.28,2.73-.07.53-.04,2.24-.43,2.61-.64.59-4.36-2.29-5.09-2.76Z"/>
    <path class="cls-10" d="m332.01,429.31c2.17-1.54,4.21-3.26,6.09-5.14,2.35-2.34,4.52-5.01,5.47-8.18.95-3.18.45-6.95-1.94-9.26-2.32-2.24-5.86-2.66-9.08-2.38-1.38.12-2.82.37-3.91,1.23-.96.75-1.54,1.89-1.99,3.03-1.13,2.86-1.64,5.93-2.14,8.96-.19,1.12-.37,2.24-.56,3.36-.2,1.24-.41,2.47-.51,3.72-.14,1.76.12,4.64,1.76,5.78,2.24,1.56,4.88.24,6.8-1.13Z"/>
    <path class="cls-10" d="m239.66,410.8l-1.07.15c.13-.08.26-.17.38-.26.23.04.46.08.69.11Z"/>
    <path class="cls-7" d="m385.48,394.69c-2.44-5.14-8.75-2.8-10.61,1.25-1.53,3.33-.96,7.22-.35,10.84-24.37-13.76-54.98-24.65-82.81-25.71-2.36-.09-3.69-2.74-2.33-4.67,3.23-4.55,11.56-7.95,14.51-12.31,1.43-2.12-1.16-4.6-3.23-3.09-3.64,2.66-9.69,8.88-11.84,10.02-3.8,2.02-5.5,13-9.8,12.93-.8-.01-9.2-4.99-10-5-3.67-.06-3.33-2.03-7-2-14.47.11-29.8-6.79-44-4-4.6.9-8.7,3.03-12.39,5.83-8.24,6.25-12.73,19.36-9.4,29.15,1.3,3.8,3.3,7.34,5.66,10.6,3.05,4.2,6.7,7.94,10.33,11.65,5.96,6.09,11.25,13.99,19.39,16.51,18.04,5.6,39.05,4.19,44.5,8.58-.04-4.83-5.71-7.28-10.39-8.51-9.06-2.41-18.13-4.81-27.2-7.21-3.89-1.04-7.96-2.16-10.57-5.47-1.46-1.84-2.12-4.27-1.38-6.49,1.44-4.36,6.69-5.05,11.03-5.18,15.66-.48,29.25-1.49,44.92-1.97,4.43,1.7,5.9,7.06,8.11,11.27,3.22,6.1,8.94,10.59,15.18,13.56,6.23,2.96,13.01,4.56,19.73,6.13-2.48,5.05.39,11.97,5.71,13.78l2.61-10.74c1.48.2.97.13,2.45.33-.39,15.15.06,30.32,1.34,45.42.2,2.36.96,5.32,3.31,5.65,4.45-11.69,6.19-24.42,5.04-36.88-.33-3.53-.87-7.17.15-10.57,1.35-4.5,5.18-7.74,8.85-10.69,3.31-2.65,6.64-5.29,9.61-8.32,10.33-10.5,15.61-24.89,20.97-38.52.78-1.99.82-4.24-.1-6.17Zm-169.46,26.26s-24-7-17-33c0,0,38-18,60-4,1,2,18,9,18,10s2,19,2,19c0,0-59-7-63,8Zm105,19c-43-14-34.59-45.29-34.59-45.29,26.4-13.28,85.59,16.29,85.59,16.29-15,39-51,30-51,29Z"/>
    <path class="cls-10" d="m253.37,394.71c-.62,1.04-1.38,1.98-2.14,2.92-1.24,1.54-2.49,3.08-3.73,4.62-1.14,1.4-2.27,2.8-3.51,4.11-1.51,1.62-3.19,3.09-5.02,4.33-.62-.12-1.23-.3-1.78-.58-.76-.39-1.43-1.02-1.7-1.84-.2-.63-.16-1.3-.12-1.96.33-4.79.66-9.58.99-14.36.08-1.17.18-2.39.81-3.37.49-.74,1.23-1.26,2-1.71,2.29-1.31,4.93-2.01,7.58-2,1.64,0,3.32.29,4.77,1.09,1.44.8,2.62,2.16,2.97,3.77.36,1.71-.23,3.49-1.12,4.98Z"/>
    <path class="cls-3" d="m277.02,393.95c0-1-17-8-18-10-22-14-60,4-60,4-7,26,17,33,17,33,4-15,63-8,63-8,0,0-2-18-2-19Zm-45.65,16.24c-.63.34-2.69-.79-3.33-1.04-2.28-.9-4.55-1.97-6.58-3.36-3.17-2.1-5.94-4.91-7.58-8.34-.61-1.28-1.07-2.64-1.35-4.03-.08-.42-.15-.84-.06-1.26.1-.52.44-.97.79-1.37.38-.44.79-.87,1.21-1.27,1.02-.96,2.17-1.8,3.46-2.33,1.88-.78,4.04-.88,5.98-.27,2.47.77,4.52,2.63,5.83,4.86,1.31,2.23,1.94,4.81,2.18,7.39.23,2.58.08,5.18-.07,7.76-.04.67.22,2.88-.48,3.26Zm22-15.48c-.62,1.04-1.38,1.98-2.14,2.92-1.24,1.54-2.49,3.08-3.73,4.62-1.14,1.4-2.27,2.8-3.51,4.11-1.51,1.62-3.19,3.09-5.02,4.33-.62-.12-1.23-.3-1.78-.58-.76-.39-1.43-1.02-1.7-1.84-.2-.63-.16-1.3-.12-1.96.33-4.79.66-9.58.99-14.36.08-1.17.18-2.39.81-3.37.49-.74,1.23-1.26,2-1.71,2.29-1.31,4.93-2.01,7.58-2,1.64,0,3.32.29,4.77,1.09,1.44.8,2.62,2.16,2.97,3.77.36,1.71-.23,3.49-1.12,4.98Z"/>
    <path class="cls-10" d="m231.37,410.19c-.63.34-2.69-.79-3.33-1.04-2.28-.9-4.55-1.97-6.58-3.36-3.17-2.1-5.94-4.91-7.58-8.34-.61-1.28-1.07-2.64-1.35-4.03-.08-.42-.15-.84-.06-1.26.1-.52.44-.97.79-1.37.38-.44.79-.87,1.21-1.27,1.02-.96,2.17-1.8,3.46-2.33,1.88-.78,4.04-.88,5.98-.27,2.47.77,4.52,2.63,5.83,4.86,1.31,2.23,1.94,4.81,2.18,7.39.23,2.58.08,5.18-.07,7.76-.04.67.22,2.88-.48,3.26Z"/>
    <path class="cls-3" d="m372.02,410.95c-15,39-51,30-51,29-43-14-34.59-45.29-34.59-45.29,26.4-13.28,85.59,16.29,85.59,16.29Z"/>
    <path class="cls-5" d="m254.68,515.71c-.45-.28-.25-.98.27-.98,6.92.05,13.84.81,20.6,2.28,3.74.81,7.48,1.86,10.78,3.81s6.13,4.9,7.28,8.55c1.85,5.88-1.52,12.91-7.27,15.13-3.93,1.52-8.55.87-12.09-1.42-6.62-4.29-8.66-12.87-10.1-20.64-.03-.15-.12-.28-.26-.35-3.65-2.09-5.9-4.26-9.21-6.37Z"/>
    <path class="cls-6" d="m378.6,491.61c-.19-3.6.36-7.24,1.59-10.62.46-1.27,1.06-2.55,2.11-3.4.96-.79,2.21-1.12,3.43-1.39,1.89-.42,3.81-.71,5.73-.88,1.28-.11,2.59-.17,3.83.16s2.43,1.09,2.99,2.24.35,2.72-.68,3.49c-1.08.81-2.61.56-3.87.07s-2.48-1.21-3.83-1.22-2.84,1.07-2.61,2.4c.19,1.1,1.36,1.69,2.38,2.15s2.15,1.2,2.14,2.32c-.01,1.2-1.48,1.95-2.66,1.71s-2.1-1.12-2.99-1.93-1.91-1.63-3.11-1.68c-.95,1.81.56,4.13-.2,6.03-.6,1.5-2.72,2.13-4.04,1.2-.84-.04-1.44-.95-1.41-1.8s.53-1.6,1.07-2.25,1.17-1.24,1.56-1.99c.62-1.2.54-2.73-.22-3.86"/>
  </g>
</svg>