<?xml version="1.0" encoding="UTF-8"?>
<svg xmlns="http://www.w3.org/2000/svg" viewBox="0 0 842 1191">
  <defs>
    <style>
      .cls-1 {
        fill: #edb7b7;
      }

      .cls-2 {
        fill: #6ab74e;
      }

      .cls-3 {
        fill: #b66f48;
      }

      .cls-4, .cls-5 {
        fill: none;
      }

      .cls-6 {
        fill: #a59898;
      }

      .cls-5 {
        stroke: #000;
        stroke-linecap: round;
        stroke-linejoin: round;
        stroke-width: 0px;
      }
    </style>
  </defs>
  <g id="Layer_5" data-name="Layer 5">
    <rect class="cls-2" width="842" height="1191"/>
  </g>
  <g id="Layer_3" data-name="Layer 3">
    <g>
      <path class="cls-4" d="m291.46,671.92c-2.14.64-4.17.91-5.22-.19-.07.12-.14.24-.21.36-.38.82-.5,1.79-.03,2.55,1.75-1.01,3.57-1.9,5.45-2.72Z"/>
      <path class="cls-4" d="m310.35,658.61c.14-.1.27-.2.41-.3-.23-.11-.47-.22-.7-.34-.09.24-.15.49-.22.73.17-.03.34-.06.51-.09Z"/>
      <path class="cls-4" d="m303.07,654.56c.26.59.22,1.36-.1,1.91.16.03.33.08.5.14.62-.33,1.24-.66,1.87-.96-.78-.38-1.55-.75-2.28-1.08Z"/>
      <path class="cls-4" d="m260.66,688.75c.73.38,2.7,1.47,3.47,1.89,3.57,2.16,5.92,3.15,7.7-1.48,3.1-6.2,7.82-10.67,13.38-14.03-7.69,2.43-13.95,8.98-15.94,16.82l-.05.2-.13-.16c-6.12-7.31-16.25-8.57-25.22-8.81-.42-.02-.85-.03-1.28-.04,4.93.83,9.78,2.1,14.48,4.01.86.37,2.79,1.25,3.6,1.61Z"/>
      <path class="cls-4" d="m317.7,653.76c0,.08-.01.17-.02.26.07-.04.14-.08.21-.11-.06-.05-.13-.1-.19-.14Z"/>
      <path class="cls-4" d="m228.06,682.56c2.19.19,4.39.27,6.6.3-2.19-.17-4.4-.27-6.6-.3Z"/>
      <path class="cls-4" d="m327.14,655.55c6.06-2.79,12.36-5.05,18.8-6.79-2.8-.32-5.6-.56-8.42-.64-4.09,1.38-7.77,3.99-10.38,7.43Z"/>
      <path class="cls-4" d="m334.03,648.1c-1.83,0-3.83,0-5,1.44,2.26-.62,4.55-1.09,6.87-1.43-.62,0-1.24-.02-1.87-.01Z"/>
      <path class="cls-4" d="m436.08,722.02c.75-2.09,1.2-4.28,1.4-6.51-.37,2.2-.8,4.39-1.4,6.51Z"/>
      <path class="cls-4" d="m390.37,746.38c3.75-.62,7.47-1.39,11.16-2.3-.37.04-.75.07-1.12.13-2.68.34-5.31,1.02-7.93,1.68-.7.18-1.4.34-2.11.5Z"/>
      <path class="cls-4" d="m354.94,747.48c2.77.29,5.55.49,8.33.61-2.85-.2-5.69-.42-8.33-.61Z"/>
      <path class="cls-4" d="m400.66,643.51c.31.03.62.08.93.14-3.56-2.2-7.79-3.61-10.84-2.14-.67.43-1.13,1.04-1.5,1.72,3.81-.18,7.62-.13,11.42.28Z"/>
      <path class="cls-4" d="m214.52,682.22c-.57.03-1.11.16-1.65.34,3.3-.3,6.62-.51,9.94-.61-2.13-.43-4.23-1.03-6.27-1.89-4.8-2.32-8.4-6.03-11.21-10.49.81,2.24,1.78,4.43,2.91,6.52,1.43,2.65,3.37,5.36,6.28,6.13Z"/>
      <path class="cls-4" d="m339.65,746.59c3.19.79,6.51.46,9.78.52-5.5-.87-10.94-2.12-16.27-3.8-1.06-.34-2.11-.74-3.14-1.15,3.09,1.74,6.28,3.28,9.63,4.43Z"/>
      <path class="cls-4" d="m438.51,708.52c.24-1.86-.63-3.59-1.59-5.3.65,2.37,1.09,4.83,1.25,7.29.11-.67.22-1.34.34-2Z"/>
      <path class="cls-4" d="m205.65,683.32c-.43-.06-.85-.12-1.28-.16-2.24-.2-4.52.09-6.63.85-.47.17-.94.37-1.41.56,3.12-.4,6.17-.77,9.02-1.22.1-.01.2-.02.3-.03Z"/>
      <path class="cls-4" d="m606.44,610.52c2.83-4.22,5.21-8.65,7.19-13.22-3.05,6.38-6.71,12.47-10.92,18.16,1.31-1.59,2.5-3.28,3.72-4.94Z"/>
      <path class="cls-4" d="m204.54,667.17c.21.69.44,1.37.67,2.05,2.84,4.58,6.48,8.38,11.37,10.73,2.2.92,4.47,1.55,6.77,1.98,6.08-.15,12.17.09,18.14,1.01.79.02,1.58.04,2.36.07,8.96.22,19.07,1.47,25.25,8.68,2.1-8.03,8.63-14.73,16.62-17.02-.22-.39-.32-.84-.31-1.28.08-.6.31-1.23.65-1.88-.48-.65-.68-1.66-.48-3.19.73-5.55,8.73-10.37,13.3-12.42-2.2.99-3.59,3.52-3.25,5.91,2.26-1.87,4.71-3.52,7.28-4.94-.09-.02-.19-.04-.27-.05-.25.21-.57.32-.97.28,0,0-.43-.08-.43-.08l.32-.31c.27-.19.56-.28.86-.3.49-.49.5-1.58,0-2.06-.06-.06-.13-.13-.15-.21-.1-.05.2-.36.17-.27.12-.03.24.04.32.06.54.23,1.78.82,3.07,1.46,3.07-1.44,6.29-2.56,9.6-3.31-2.34,1.08-4.22,3.08-5.21,5.46.31.15.62.3.93.45,1.92-1.37,3.93-2.61,6.01-3.72.03-.33.05-.67.08-1.03,0,0,.03-.46.03-.46.37.26.75.55,1.13.84,3.15-1.59,6.45-2.89,9.85-3.88,1.12-1.72,2.77-2.33,5.77-2.2,4.48-.1,8.93.25,13.36.8,4.36-1.12,8.79-2,13.25-2.61-2.69.52-5.24,1.71-7.37,3.43.02,0,.04,0,.06,0,5.65-2.25,11.74-3.13,17.77-3.98,5.78-.82,11.61-1.64,17.43-1.95.41-.89,1-1.84,1.9-2.32,5.25-2.63,13.57,2.61,17.08,6.75,26.66-29.62,56.38-61.51,84.55-87.08-4.22-11.09-9.59-21.73-15.95-31.74-2.4-3.9-5.49-7.91-10.25-8.68-4.65-.82-9.34.57-13.91,1.47,0,0-6.98,1.47-6.98,1.47-8.8,1.87-33.05,6.94-42.22,8.88-13.11-25.45-27.02-53.68-36.76-79.18-14.44.85-51.02,3.03-64.96,3.85-20.93,1.64-44.16,2.17-64.75,5.87-17.73,3.06-35.42,8.39-50.45,18.51-5.93,3.99-11.81,8.61-15.26,15.01-5.17,9.73-4.26,21.13-4.46,31.82-1.28,46.92,13.6,62.91,26.78,104.06,3.23,10.57,5.38,24.94,11.4,35.67.18-.22.29-.39.27-.46Z"/>
      <path class="cls-4" d="m354.33,854.66s-.03.04-.05.07c-.02.05-.04.1-.05.16.03-.07.06-.15.1-.22Z"/>
      <path class="cls-4" d="m592.43,486.97c-5.2-.7-10.52.16-15.04,3.19-.65.43-1.27.88-1.88,1.36,4.95-3.27,10.98-4.87,16.92-4.55Z"/>
      <path class="cls-4" d="m403.78,530.94c-13.49-26-25.99-52.52-37.46-79.48-17.12,1.27-34.25,2.55-51.37,3.82,16.87-1.03,40.3-2.45,50.98-3.11,11.58,26.25,23.55,53.32,37.25,78.9.2-.04.39-.08.6-.13Z"/>
      <path class="cls-4" d="m404.18,647.06c.2,4.03-3.27,7.48-7.11,8.72-1.56.51-3.17.73-4.8.81,3.33.38,6.57,1.25,9.54,2.93.11.06.22.13.33.19-.13-.49-.2-.97-.16-1.45.48-6.95,14.15-17.23,18.67-22.16,7.09-7.73,14.18-15.47,21.27-23.2,6.68-7.29,13.37-14.58,20.05-21.86.1-.11.2-.22.31-.33-18.66,18.76-37.13,37.94-54.54,57.74,0,0-.28.31-.28.31l-.26-.33c-.86-1.08-2.13-2.29-3.62-3.41.36.61.55,1.33.59,2.04Z"/>
      <path class="cls-4" d="m490.5,563.12c1-.91,1.97-1.85,2.95-2.78-.49-.78-1.05-1.78-1.67-2.97.39.97.77,1.94,1.14,2.92-2.47,2.44-4.95,4.89-7.44,7.34,1.68-1.5,3.36-2.99,5.02-4.51Z"/>
      <path class="cls-4" d="m309.72,659.07s0,0,.01,0c0,0,0,0-.01,0,0,0,0,0,0,0Z"/>
      <path class="cls-4" d="m468.16,657.29c-5.3,5.02-10.78,9.88-15.51,15.44-6.4,7.51-11.36,16.2-18.13,23.39.69-.73-2.23-4.77-5.73-9.06,2.35,3.31,4.45,6.78,6.09,10.5.06-.75.29-1.5.81-2.28,6.47-8.68,13.51-16.9,20.94-24.76,14.85-15.67,31.61-29.65,44.56-47.04,3.32-4.43,6.35-9.18,8.95-14.13-.98,1.41-2,2.8-3.03,4.18-11.7,15.67-24.75,30.33-38.95,43.77Z"/>
      <path class="cls-4" d="m539.21,543.49c-.3.46-.62.91-.92,1.37-4.97,7.69-9.21,15.85-12.66,24.33,3.96-8.84,8.61-17.37,13.58-25.7Z"/>
      <path class="cls-4" d="m471.02,520.63c.25.35.5.71.74,1.07l-1.26-1.2c.17.02.34.07.52.13-1.1-1.54-2.37-2.99-4.11-3.67-2.23-.87-4.73-.3-7.05.29-14.86,3.75-29.73,7.5-44.59,11.25,10.57-2.25,23.63-5.05,29.49-6.27,0,0,6.98-1.48,6.98-1.48,4.68-.93,9.44-2.35,14.29-1.5,7.6,1.39,10.91,9.35,14.62,15.22.32.54.62,1.1.93,1.64-3.86-7.73-7.74-14.43-10.56-15.47Z"/>
      <path class="cls-4" d="m360.39,658.65c6.94-.7,13.87-1.33,20.82-1.95,1.34-.13,2.7-.24,4.06-.3-.07,0-.14,0-.21-.01-6.59-.37-13.19-.2-19.79-.03-2.5.06-5.02.13-7.43.78-2.31.62-4.46,1.74-6.72,2.5,3.09-.35,6.18-.68,9.28-.99Z"/>
      <path class="cls-4" d="m417.03,741.03c6.18-2.86,12.78-7.37,15.52-11.23.36-.54.69-1.1,1-1.66-.23.32-.45.64-.7.95-4.42,5.54-10.91,8.9-17.43,11.33-3.65,1.29-7.37,2.43-11.13,3.43,1.4-.04,2.8-.04,4.2-.04,1.93-.23,4.31-.97,6.84-2.03.29-.13.57-.25.86-.38.28-.12.56-.25.84-.37Z"/>
      <path class="cls-4" d="m364.47,846.17c2.01-.05,4.06.08,6.11.29-3.13-.79-6.27-1.44-9.44-.5-1.8.45-3.09,1.53-4.04,2.91,1.72-1.94,4.2-2.75,7.36-2.7Z"/>
      <path class="cls-4" d="m424.35,837.98c-3.6.34-8.76.83-12.71,1.2.91-.03,1.81-.06,2.72-.12l9.44-.41c-.35.88-.7,1.77-1.06,2.66.82-1.69,1.39-2.87,1.61-3.33Z"/>
      <path class="cls-4" d="m396.87,845.04c1.92-1.19,3.62-2.84,5.6-3.98-2.43,1.17-4.66,2.82-7.06,4.37-1.2.74-2.46,1.31-3.76,1.76,1.78-.45,3.52-1.14,5.21-2.14Z"/>
      <path class="cls-4" d="m402.36,835.45s-.06.01-.09.02c.03,0,.06-.01.09-.02Z"/>
      <path class="cls-4" d="m403.14,835.32c2.91-.44,5.86-.57,8.8-.42-2.97-.37-5.89-.08-8.8.42Z"/>
      <path class="cls-4" d="m391.01,837.23c-2.79.07-5.52-.31-8.22-.86,4.19,1.26,8.62,2.25,12.87.77,1.64-.56,3.31-1.01,5-1.37-3.19.62-6.39,1.32-9.64,1.46Z"/>
      <path class="cls-4" d="m302.96,723.46c4.12,3.1,8.03,6.52,12.09,9.62,3.76,3.12,7.9,5.6,12.26,7.58-3.12-1.9-6.14-3.96-9.1-6.03-5.06-3.66-10.01-7.67-15.25-11.16Z"/>
      <path class="cls-4" d="m417.85,852.41c-1.26,2.6-2.56,5.3-3.82,7.9,1.11-2.24,2.45-4.92,3.07-6.17.25-.57.5-1.15.75-1.73Z"/>
      <path class="cls-4" d="m719.98,744.94c-6.46-1.07-12.63-1.45-19.01-3.57-8.3-2.44-16.22-6.05-23.79-10.19-7.58-4.12-14.85-8.79-22.06-13.5-7.2-4.74-14.54-9.38-20.87-15.3-9.55-8.9-15.77-20.7-20.7-32.61-6.34-15.69-11.85-32.07-15.19-48.57-2.37,2.43-4.77,4.83-6.65,7.67-2.95,4.31-5.28,9.23-9.41,12.6-2.03,1.68-4.47,2.99-7.12,3.32-5.34.81-10.65-3.56-11.16-8.87.58,5.24,5.87,9.51,11.13,8.63,2.58-.36,4.95-1.67,6.91-3.36,4.03-3.42,6.26-8.32,9.2-12.63,1.95-3,4.48-5.51,6.94-8.07-.02-.11-.05-.22-.07-.33,8.81-10.52,15.62-22.7,19.98-35.68,4.41-15.92,5.21-33,4.81-49.39-.02-.62-.05-1.24-.07-1.87-.32-5.07-.81-10.13-1.82-15.09-2.1-9.84-6.32-19.08-14.6-25.22-2.34-1.82-5.02-3.3-7.85-4.37-9.58-2.91-20.67-.13-27.49,7.3-4.81,5.81-7.66,13.32-10.27,20.31,2.09-5.87,4.33-12.06,7.73-17.38-2.62,3.3-4.83,6.92-7.15,10.46-1.05,1.62-2.09,3.24-3.14,4.86-2.44,4.38-4.99,8.7-7.74,12.9-2.34,3.56-4.81,7.03-7.26,10.52-7.78,12.53-15.02,25.47-20.46,39.21-.86,2.49-1.67,4.99-2.39,7.52-1.6,5.62-2.88,11.38-5.34,16.68-1.05,2.25-2.29,4.4-3.65,6.48-2.83,5.7-6.25,11.16-10.05,16.21-12.98,17.39-29.76,31.35-44.64,47.01-7.43,7.84-14.49,16.07-20.95,24.72-.56.85-.79,1.67-.81,2.47.17.39.34.78.5,1.17.5,1.23.94,2.51,1.31,3.81,1.05,1.85,2.1,3.72,1.81,5.75-.15.84-.29,1.68-.43,2.53.29,5.87-.95,11.74-4.29,16.6-.39.74-.81,1.47-1.28,2.18-2.35,3.35-5.9,5.58-9.25,7.8-2.02,1.3-4.14,2.43-6.34,3.38-.57.26-1.14.51-1.7.75-2.18.97-4.42,1.92-6.83,2.07-1.46,0-2.92,0-4.38.05-7.25,1.92-14.66,3.29-22.13,4.04-1.82.24-3.65.45-5.48.57-.82.03-1.68.04-2.56.04-.32,0-.64,0-.96,0,0,0-.02,0-.03,0-7.78.26-15.58-.18-23.25-1.38-3.37-.09-6.77.29-10.07-.52-3.51-1.2-6.86-2.83-10.09-4.67-5.27-2.17-10.16-5.18-14.62-8.72-4.79-3.68-9.37-7.81-14.33-11.31-4.3-2.67-8.83-4.92-13.79-6.26-.1.12-.18.24-.26.36.09.44.07.94-.12,1.51-.4,1.45-1.34,2.64-2.06,3.94-.55,3.58.06,7.55.75,10.99,0,0,.21,1.16.52,2.87.38,1.26.74,2.52,1,3.78.6,2.13.88,4.06.74,5.81.5,2.74.88,4.84.88,4.84,0,0,1.27,6.77,2.69,14.32,2.04,9.57,4.22,19.11,6.07,28.73.4,2.25.68,4.58,1.11,6.86,1.45,4.65,3.53,8.99,6.83,12.47,7.98,6.54,21.02,8.71,30.17,4.49,2.7-1.24,5.1-3.09,7.36-5.06,3.36-2.99,6.76-6.05,9.06-9.95,1.97-3.34,3.04-8.58,7.16-9.73,3.67-3.36,10.46-6.57,12.45-7.18,1.38-.43,3.02-.7,4.14.2,1.19.96,1.17,2.88.37,4.19-.8,1.31-2.16,2.15-3.47,2.94-1.64.99-14.61,8.91-15.82,4.27-.35-1.33.64-2.85,2.26-4.35-3.99,1.34-4.87,6.47-6.76,9.85-2.22,4.01-5.63,7.18-8.97,10.24-5.43,5.31-12.02,7.8-19.12,7.65,3.19.93,6.1,2.55,8.31,6.23,1.52,2.36,2.59,4.97,3.6,7.57.67-1.84,3.12-2.06,4.75-1.41.16.06.32.12.48.18,2.76-.09,5.54.86,8.32,1.54,3.99-.03,7.99-.8,11.99-1.13.02,0,.05-.01.07-.02,5.9-1.49,11.77.49,17.38,2.38,4.06,1.01,8.14,1.92,12.34,1.81,7.55-.35,14.99-3.72,22.64-2.09,1.17.19,2.33.44,3.47.71,2.96.5,5.88,1.29,8.68,2.38-.3.03-.62.06-.95.09h0s-2.02,4.18-4.69,9.7c-.92,2.22-1.84,4.45-2.74,6.65-.9,1.9-3.4,7.19-4.34,9.16-1.05,2.2-2.3,4.44-3.74,6.56-1.09,2.25-1.85,3.82-2.07,4.28,6,6.62,14.81,9.22,22.88,12.42,4.15,1.49,8.4,2.78,12.77,3.38,4.36.65,8.8.43,13.21.18,4.38-.32,8.8-1.16,12.62-3.35,3.83-2.16,6.97-5.35,9.85-8.67,5.71-6.76,11.34-13.61,17.02-20.41,0,0,8.5-10.22,8.5-10.22,2.69-3.05,5.77-7.38,8.77-10.04.36-.34.73-.64,1.11-.91,8.71-12.75,17.17-25.65,25.55-38.63,9.41-14.45,19.55-29.85,19.8-47.68.58,17.91-9.63,33.74-18.96,48.23-7.2,10.98-14.42,21.96-22.07,32.63-1.22,1.69-2.45,3.36-3.69,5.03,3.4-2.04,7.29-1.37,10.96.42,4.14,1.66,8.01,3.93,11.68,6.44,14.47,10.09,24.84,26.05,27.67,43.54,13.99-5.78,34.18-12.54,47.62-18.77,30.36-13.74,57.34-34.68,78.51-60.4,11.41-14.13,21.5-29.74,29.03-46.28,2.22-4.61,6.92-13.76-.1-16.22Zm-337.84,40.02c3.89-1.97,4.16-6.96,4.03-10.81-.22-4.06-1.25-8.1-3.17-11.68-3.32-6.28-11.2-15.41-18.96-10.84,7.86-5.43,16.31,3.85,19.85,10.38,1.92,3.74,2.99,7.92,3.05,12.12,0,3.92-.61,9.22-4.8,10.83Zm172.82-218.44c4.06,4.1,9.3,6.71,13.39,10.92,4.35,4.1,6.27,10.53,4.15,16.24-1.14,4.22-5.07,7.09-6.15,11.25-.88,4.1,2.57,8.53,6.88,8.2.87-.03,1.76-.22,2.59-.56,1.15-1.05,2.2-2.2,3.14-3.43-.05-.26-.19-.48-.49-.58.27.05.45.27.54.52,2.61-3.41,4.39-7.43,5.08-11.64.26-1.44.4-3.04,1.42-4.33,1.02-1.36,2.91-1.24,4.38-1.17,2.93.09,5.59-1.56,7.54-3.68,3.93-4.4,5.83-10.27,7.32-15.89,3.31-14.55.94-29.72-2.93-43.93-1.62-5.5-2.94-11.89-7.96-15.29-8.45-5.11-18.02,1.33-20.76,9.9,2.48-8.89,12.37-15.62,21.1-10.43,5.26,3.44,6.8,9.96,8.45,15.59,4,14.34,6.46,29.66,2.98,44.37-1.57,5.77-3.49,11.72-7.65,16.21-2.09,2.21-4.99,3.92-8.12,3.78-1.4-.05-2.97-.29-3.94.9-.89,1.07-1.09,2.61-1.37,4.05-.82,4.32-2.75,8.4-5.52,11.77,0,.03.01.06.01.09-.24,2.57-3.51,4.01-5.8,4.23-4.7.51-8.71-4.31-7.75-8.87,1.01-4.33,4.9-7.13,6.05-11.4,4.51-13.47-9.26-18.71-16.6-26.84Z"/>
      <path class="cls-4" d="m373.94,748.54c.88,0,1.74,0,2.56-.04,1.78-.12,3.56-.32,5.33-.55-2.95.29-5.91.49-8.88.59,0,0,.02,0,.02,0,.32,0,.64,0,.96,0Z"/>
      <path class="cls-4" d="m286.61,740.74c-.03-.41-.08-.83-.11-1.24.03.42.07.84.11,1.27.25,1.4.51,2.81.74,4.09.13-1.73-.15-3.63-.73-5.74-.25-1.22-.6-2.45-.98-3.68.27,1.49.61,3.38.96,5.3Z"/>
      <path class="cls-4" d="m578.69,610.39c.16-.26.3-.65.31-1.01-.95,1.15-2,2.22-3.14,3.19,1.13-.46,2.14-1.19,2.84-2.18Z"/>
      <path class="cls-4" d="m354.46,834.4c1.7-.15,3.32-.7,4.98-1.22-2.94.32-5.88.79-8.83.93,1.29.25,2.57.4,3.85.28Z"/>
      <path class="cls-4" d="m282.73,714.83c-.86.42-1.35,1.26-1.42,2.15.06-.42.21-.83.47-1.18.91-1.11,2.16-1.34,3.46-1.21-.71-.28-1.63-.23-2.51.24Z"/>
      <path class="cls-4" d="m281.3,717.33s0-.04,0-.07c0,.02,0,.04,0,.07Z"/>
      <path class="cls-4" d="m286.35,717.52c.17-.53.2-1,.13-1.42-1.14,1.53-1.79,3.32-2.1,5.22.71-1.24,1.59-2.4,1.97-3.8Z"/>
      <path class="cls-4" d="m285.74,714.78c.37.27.65.65.77,1.13.1-.12.18-.25.28-.37,4.36,1.18,8.37,3.05,12.19,5.3-3.08-2.05-6.32-3.83-9.86-5.08-1.02-.32-2.22-.77-3.39-.98Z"/>
      <path class="cls-4" d="m285.24,734.07c-.05-.26-.28-1.58-.28-1.58-.61-3.34-1.27-7.1-.84-10.57-.18.36-.35.74-.47,1.13-.64,3.74.47,7.4,1.59,11.02Z"/>
      <path class="cls-4" d="m288.07,749.8s-.48-2.69-.77-4.29c-.01.09-.02.18-.04.27.5,3.05,1.14,6.09,1.76,9.12-.57-3.07-.95-5.11-.95-5.11Z"/>
      <path class="cls-4" d="m298.54,801.71c.69,2.87,1.75,5.6,3.75,7.91.34.39.72.76,1.1,1.13-2.13-2.68-3.67-5.76-4.85-9.04Z"/>
      <path class="cls-4" d="m341.29,832.41c1.5.56,2.99,1.04,4.57,1.22.72.09,1.43.13,2.15.15-2.28-.63-4.54-1.33-6.72-1.38Z"/>
      <path class="cls-4" d="m286.88,743.18c.11.85.23,1.7.37,2.54.01-.09.03-.18.04-.27-.15-.85-.22-1.2-.41-2.27Z"/>
      <path class="cls-4" d="m337.61,832.18c-.86.24-1.68.9-1.77,1.79v.14c.37-.39.88-.71,1.3-.93.97-.49,1.95-.74,2.94-.85-.82-.25-1.67-.39-2.47-.14Z"/>
      <path d="m354.28,854.73s-.04.1-.05.15c-.01.02-.01.03-.02.05,0-.07.03-.14.07-.2Z"/>
      <path d="m364.04,751.63c7.76-4.57,15.64,4.56,18.96,10.84,1.92,3.59,2.95,7.62,3.17,11.68.13,3.85-.14,8.84-4.03,10.81,4.18-1.61,4.79-6.91,4.8-10.83-.07-4.2-1.14-8.38-3.05-12.12-3.53-6.53-11.99-15.81-19.85-10.38Z"/>
      <path d="m571.56,593.37c-1.15,4.26-5.04,7.06-6.05,11.4-.95,4.55,3.05,9.38,7.75,8.87,2.29-.22,5.56-1.67,5.8-4.23,0-.03,0-.06-.01-.09,2.77-3.38,4.7-7.46,5.52-11.77.28-1.44.47-2.99,1.37-4.05.97-1.19,2.53-.95,3.94-.9,3.13.14,6.03-1.58,8.12-3.78,4.16-4.49,6.08-10.44,7.65-16.21,3.48-14.71,1.01-30.03-2.98-44.37-1.66-5.63-3.19-12.15-8.45-15.59-8.73-5.19-18.62,1.54-21.1,10.43,2.74-8.57,12.31-15.01,20.76-9.9,5.02,3.4,6.35,9.79,7.96,15.29,3.87,14.22,6.24,29.38,2.93,43.93-1.49,5.62-3.39,11.49-7.32,15.89-1.95,2.12-4.62,3.77-7.54,3.68-1.47-.07-3.36-.19-4.38,1.17-1.02,1.29-1.16,2.89-1.42,4.33-.69,4.21-2.47,8.23-5.08,11.64-.08-.25-.27-.48-.54-.52.3.1.45.32.49.58-.95,1.23-1.99,2.38-3.14,3.43-.83.34-1.72.53-2.59.56-4.31.33-7.76-4.11-6.88-8.2,1.08-4.16,5.01-7.03,6.15-11.25,2.11-5.71.2-12.15-4.15-16.24-4.09-4.21-9.33-6.82-13.39-10.92,7.34,8.13,21.11,13.37,16.6,26.84Zm7.43,16.02c0,.36-.15.74-.31,1.01-.69.99-1.71,1.72-2.84,2.18,1.14-.97,2.19-2.03,3.14-3.19Z"/>
      <path d="m471.76,521.7c-.24-.36-.49-.71-.74-1.07-.18-.06-.35-.11-.52-.13l1.26,1.2Z"/>
      <path d="m287.33,742.64s0-.02-.01-.03c.01.08.02.17.02.25v-.11s-.01-.07-.01-.11Zm-.04-.36s0-.01,0-.02c0,.05,0,.1.02.15,0-.04-.01-.08-.01-.13Zm-.06-.38s.01.02.01.04v-.03s-.01-.01-.01-.01Zm-.06-.4c.01.06.02.11.02.16h.01s-.02-.1-.03-.16Zm0,0c.01.06.02.11.02.16h.01s-.02-.1-.03-.16Zm.06.4s.01.02.01.04v-.03s-.01-.01-.01-.01Zm.06.38s0-.01,0-.02c0,.05,0,.1.02.15,0-.04-.01-.08-.01-.13Zm.04.36s0-.02-.01-.03c.01.08.02.17.02.25v-.11s-.01-.07-.01-.11Zm0,0s0-.02-.01-.03c.01.08.02.17.02.25v-.11s-.01-.07-.01-.11Zm-.04-.36s0-.01,0-.02c0,.05,0,.1.02.15,0-.04-.01-.08-.01-.13Zm-.06-.38s.01.02.01.04v-.03s-.01-.01-.01-.01Zm-.06-.4c.01.06.02.11.02.16h.01s-.02-.1-.03-.16Zm0,0c.01.06.02.11.02.16h.01s-.02-.1-.03-.16Zm.06.4s.01.02.01.04v-.03s-.01-.01-.01-.01Zm.06.38s0-.01,0-.02c0,.05,0,.1.02.15,0-.04-.01-.08-.01-.13Zm.04.36s0-.02-.01-.03c.01.08.02.17.02.25v-.11s-.01-.07-.01-.11Zm0,0s0-.02-.01-.03c.01.08.02.17.02.25v-.11s-.01-.07-.01-.11Zm-.04-.36s0-.01,0-.02c0,.05,0,.1.02.15,0-.04-.01-.08-.01-.13Zm-.06-.38s.01.02.01.04v-.03s-.01-.01-.01-.01Zm-.06-.4c.01.06.02.11.02.16h.01s-.02-.1-.03-.16Zm0,0c.01.06.02.11.02.16h.01s-.02-.1-.03-.16Zm.06.4s.01.02.01.04v-.03s-.01-.01-.01-.01Zm.06.38s0-.01,0-.02c0,.05,0,.1.02.15,0-.04-.01-.08-.01-.13Zm.04.36s0-.02-.01-.03c.01.08.02.17.02.25v-.11s-.01-.07-.01-.11Zm0,0s0-.02-.01-.03c.01.08.02.17.02.25v-.11s-.01-.07-.01-.11Zm-.05-.38s0,.1.02.15c0-.04-.01-.08-.01-.13,0-.01,0-.01,0-.02Zm-.04-.32v-.03s-.01-.01-.01-.01c.01.01.01.02.01.04Zm-.05-.28h.01s-.02-.1-.03-.16c.01.06.02.11.02.16Zm433.06,2.39c-2.14-.59-4.3-.56-6.46-.89-4.25-.55-8.46-1.41-12.56-2.65-8.24-2.41-16.1-5.99-23.63-10.09-7.56-4.1-14.81-8.75-22.02-13.44-7.17-4.71-14.49-9.32-20.78-15.19-9.47-8.82-15.62-20.47-20.55-32.31-6.55-15.38-11.8-33.46-15.52-48.65,1.17-1.21,2.32-2.42,3.39-3.71,1.78-1.95,3.3-4.11,4.87-6.23,6.26-9.25,10.37-19.5,12.99-30.19,3.33-11.43,4.79-23.4,4.06-35.35-.02-.39-.04-.78-.06-1.17.01-3.06-.03-6.1-.13-9.11-.45-12.22-2.55-25.76-9.98-35.68-3.25-4.52-7.47-8.26-12.68-10.42-1.83-.86-3.75-1.54-5.71-2.01-6.24-1.52-12.9-.93-18.36,2.79-1.37.92-2.61,1.95-3.74,3.08-.02.02-.04.03-.06.06-.56.54-1.1,1.11-1.61,1.7-.41.39-.81.79-1.19,1.22-3.72,3.99-6.5,8.68-9.45,13.19-.04.06-.07.11-.11.17.56-1.05,1.11-2.1,1.65-3.15.01,0,.01-.02.02-.03,1.98-3.79,3.91-7.6,5.83-11.4-2.34-.31-4.61-.18-6.81.29-3.36.73-6.55,2.26-9.56,4.28-5.07,3.38-9.63,8.12-13.64,12.68-10.34,11.74-20.55,23.63-31.34,34.94-.09.1-.19.19-.28.29-3.19,3.34-6.44,6.63-9.75,9.84.62-1.75,1.26-3.23,2.14-4.74,1.03-1.76,2.4-3.56,4.48-5.89,11.11-12.42,20.98-25.99,33.09-37.5,5.2-4.94,11.01-9.5,17.27-13.23,0-.01.02-.01.02-.01,12.37-7.42,26.37-11.62,40.24-9.16.32.06.65.11.97.18.08.01.16.03.24.05.25.04.49.1.74.15-10.85-61.06-30.84-124.13-77.03-165.5-45.33-40.6-113.4-53.87-170.65-33.28-24.62,8.85-46.81,23.24-68.47,37.9-23.19,15.71-46.72,32.59-61.23,56.55-4.51,7.46-8.08,15.5-13.08,22.65-4.62,6.6-10.39,12.33-15.13,18.85-6.13,8.44-10.43,18.05-14.68,27.59-7.72,17.33-13.2,37.78-10,56.48.23-.56.47-1.12.72-1.68.09-.19.17-.38.26-.57v.02c-1.36,7.22-.97,14.85-1.09,22.13-1.09,42.84,11.24,59.91,23.48,93.78-.02-.08-.05-.17-.08-.25-.07-.19-.14-.39-.21-.58-.29-.79-.58-1.57-.86-2.34-.19-.52-.38-1.03-.57-1.54-.19-.5-.38-1.01-.57-1.51-.26-.69-.52-1.38-.78-2.06-.09-.21-.17-.43-.25-.64-.51-1.32-1.02-2.62-1.53-3.9-.2-.5-.39-.99-.59-1.48-.31-.76-.61-1.51-.91-2.26-.3-.74-.6-1.48-.89-2.22-.36-.91-.73-1.8-1.09-2.68-.03-.08-.06-.15-.09-.23-.34-.86-.69-1.7-1.03-2.55-.19-.47-.38-.94-.56-1.41-.35-.87-.7-1.73-1.04-2.6-.01-.03-.02-.06-.04-.09-.18-.45-.35-.9-.53-1.35-.71-1.81-1.39-3.6-2.06-5.39-.1-.29-.21-.58-.32-.87-.16-.43-.31-.85-.47-1.28-.06-.18-.13-.35-.19-.53-.32-.89-.63-1.79-.94-2.68-.36-1.08-.72-2.16-1.07-3.24-.14-.44-.28-.87-.41-1.31-.14-.43-.27-.87-.4-1.31-.13-.4-.25-.8-.36-1.2-.12-.4-.23-.8-.35-1.2-.02-.08-.04-.17-.07-.26-.24-.85-.47-1.7-.69-2.57-.13-.49-.25-.99-.38-1.49-.45-1.83-.87-3.7-1.26-5.61-.1-.48-.19-.96-.28-1.45-.1-.48-.19-.97-.27-1.46-.09-.48-.17-.98-.26-1.48-.08-.48-.16-.96-.23-1.44-.09-.58-.18-1.17-.26-1.76-.04-.27-.08-.53-.12-.79-.01-.08-.02-.16-.03-.24-.01-.1-.03-.21-.04-.31-.07-.54-.14-1.1-.2-1.65-.07-.56-.13-1.12-.19-1.68-.12-1.13-.23-2.29-.33-3.46-.04-.44-.07-.89-.1-1.34-.05-.56-.08-1.13-.12-1.7-.04-.57-.07-1.15-.1-1.73s-.06-1.17-.08-1.76c-.17-4.04-.19-8.32-.07-12.9.02-.96.03-1.92.03-2.88.01-1.06.01-2.12.01-3.19,0-.87.01-1.75.02-2.62,0-.72.02-1.43.04-2.14,0-.46.02-.91.03-1.36.02-.56.04-1.12.07-1.68.01-.15.02-.3.03-.45.03-.65.08-1.3.13-1.94.03-.39.07-.77.11-1.16.05-.48.1-.96.16-1.44.03-.25.06-.5.1-.75.01-.08.02-.15.03-.23.01-.06.02-.13.03-.19.01-.08.02-.16.04-.25.04-.3.09-.61.15-.92.02-.17.06-.35.09-.52.06-.31.11-.61.18-.91,0-.02.01-.05.01-.07.01-.08.03-.17.05-.25.01-.06.03-.12.04-.18h0s.02-.04.02-.06,0-.03.01-.05c4.08-8.59,9.81-16.27,16.8-22.54.51-.36,1.02-.71,1.53-1.05.47-.32.94-.63,1.42-.93.48-.31.95-.62,1.43-.91.63-.39,1.26-.77,1.9-1.14.06-.05.13-.09.2-.12.62-.37,1.25-.72,1.88-1.07.63-.35,1.26-.69,1.89-1.03.46-.25.93-.49,1.4-.73.19-.1.38-.19.57-.28.61-.31,1.23-.61,1.85-.9.29-.14.59-.28.89-.42.81-.39,1.63-.76,2.46-1.11.67-.3,1.34-.58,2.01-.85.69-.28,1.38-.56,2.07-.83.56-.22,1.12-.44,1.69-.65,1.21-.46,2.42-.89,3.65-1.3.44-.16.89-.31,1.34-.45.75-.25,1.5-.49,2.25-.72.23-.07.47-.15.72-.22.07-.02.15-.05.22-.07.27-.08.55-.17.82-.24.38-.12.75-.23,1.13-.33.2-.06.39-.11.59-.17.7-.2,1.4-.39,2.1-.58.08-.02.15-.04.23-.06.28-.07.57-.15.85-.22.65-.17,1.29-.33,1.94-.49.86-.21,1.72-.42,2.58-.61.14-.04.28-.07.42-.1.71-.16,1.42-.32,2.14-.47.03-.01.06-.01.09-.02.85-.19,1.7-.36,2.56-.53.06,0,.12-.03.18-.04.79-.16,1.59-.31,2.38-.45.87-.16,1.73-.32,2.6-.47,20.59-3.7,43.82-4.23,64.75-5.87,13.94-.83,50.51-3,64.96-3.85,9.74,25.5,23.65,53.73,36.76,79.18,9.17-1.95,33.42-7.01,42.22-8.89l6.98-1.47c4.57-.9,9.27-2.29,13.92-1.47,4.76.77,7.84,4.79,10.24,8.68,6.37,10.01,11.74,20.66,15.96,31.74-28.18,25.58-57.89,57.46-84.55,87.08-3.52-4.13-11.84-9.37-17.09-6.74-.9.48-1.48,1.42-1.89,2.31-5.83.32-11.65,1.14-17.44,1.96-6.02.85-12.11,1.73-17.76,3.97h-.06c2.13-1.72,4.68-2.91,7.37-3.43-4.46.61-8.89,1.49-13.25,2.61-4.43-.55-8.88-.9-13.36-.8-3-.13-4.66.47-5.77,2.2-3.4.98-6.7,2.28-9.85,3.87-.38-.29-.76-.57-1.13-.84l-.03.46c-.02.36-.05.7-.08,1.03-2.07,1.12-4.08,2.36-6,3.73-.31-.16-.62-.31-.93-.46.99-2.37,2.87-4.38,5.22-5.45-3.31.75-6.53,1.87-9.6,3.31-1.29-.63-2.53-1.23-3.07-1.46-.08-.02-.2-.09-.32-.06.03-.09-.27.23-.17.28.02.08.09.15.15.2.5.48.49,1.57,0,2.06-.3.02-.59.12-.86.3l-.32.31.43.08c.4.04.72-.07.97-.28.09,0,.18.03.27.04-2.57,1.43-5.01,3.07-7.28,4.95-.34-2.39,1.05-4.93,3.25-5.92-4.57,2.05-12.57,6.87-13.3,12.42-.2,1.53,0,2.54.48,3.19-.34.64-.57,1.27-.65,1.87-.02.44.08.89.3,1.28-7.99,2.29-14.52,8.99-16.62,17.02-6.18-7.22-16.3-8.47-25.25-8.68-.79-.04-1.58-.06-2.37-.07-5.97-.92-12.05-1.17-18.14-1.02-2.3-.42-4.57-1.05-6.77-1.97-4.88-2.36-8.53-6.15-11.37-10.73-.24-.67-.46-1.36-.67-2.04,0,.09-.1.24-.27.45-.26-.47-.52-.94-.76-1.42-.11-.21-.22-.42-.32-.63h0c-.29-.57-.56-1.15-.82-1.73-.27-.59-.53-1.19-.78-1.8-.11-.26-.22-.53-.33-.8-.19-.46-.37-.92-.54-1.39-.21-.54-.41-1.09-.6-1.65-.04-.11-.08-.22-.12-.34-.24-.7-.48-1.41-.71-2.13-.26-.83-.52-1.66-.77-2.5-.18-.58-.34-1.17-.51-1.75-.2-.71-.39-1.42-.58-2.12-.07-.27-.14-.54-.22-.81-.11-.44-.22-.88-.34-1.31-.18-.71-.36-1.42-.54-2.12-.1-.41-.21-.82-.31-1.23-.19-.77-.38-1.54-.57-2.3-.39-1.58-.78-3.13-1.17-4.64-.17-.65-.35-1.29-.52-1.93,2.76,10.19,5.01,22.92,10.46,32.66-1.54,1.82-8.21,7.44-9.03,8.29-2.82,2.92-6.75,6.32-8.57,9.95.05.02.1.03.14.05-8.8,1.59-17.34,4.25-23.2,10.3-6.3,5.83-.25,10.85,3.42,15.88,8.74,10.88,19.06,20.48,30.54,28.41,11.39,7.86,24.53,14.27,38.62,14.55,3.48.11,6.97.02,10.42.5,3.45.46,6.83,1.33,10.28,1.86,8.62,1.38,17.7-.37,25.16-4.88,3.05-1.79,4.63-3.9,5.18-6.4,1.24,9.75,3.58,19.37,5.37,29.01,1.17,5.93,2.47,11.83,3.55,17.76,1,5.89,1.28,12.48,5.42,17.28,2.26,2.68,5.16,4.64,8.31,6.09,1.27.7,2.61,1.19,4,1.56,1.19.38,2.4.72,3.61,1,1.74.4,3.46.65,5.16.75.93.23,1.85.5,2.74.84,2.73,1.05,4.91,3.16,6.47,5.6,1.63,2.54,2.75,5.37,3.83,8.19-.37.47-.51,1.02-.07,1.61,1.61,1.75,4.17,2.23,6.31,3.09,4.17,1.38,9.11,3.28,10.66,7.75-.1-.28-.2-.55-.32-.81-.13-.28-.28-.55-.43-.81-.14-.22-.29-.44-.44-.65-.02-.02-.03-.04-.05-.07-.15-.2-.31-.39-.48-.58-.03-.04-.06-.07-.1-.11-.09-.1-.18-.19-.27-.28-.07-.08-.14-.14-.21-.21-.1-.1-.21-.19-.31-.28-.15-.13-.3-.26-.45-.38-.04-.03-.08-.06-.12-.09-.19-.15-.39-.29-.59-.43-.12-.09-.25-.17-.37-.25-.25-.16-.5-.32-.76-.46-.26-.15-.52-.29-.79-.43-.13-.07-.25-.13-.38-.19-.03,0-.05-.03-.08-.04-.07-.04-.15-.08-.24-.11-.08-.04-.16-.08-.24-.11-.26-.12-.53-.24-.8-.35-.26-.11-.53-.22-.8-.32-.36-.14-.73-.28-1.09-.4-.44-.17-.88-.32-1.31-.46-1.42-.63-7.78-2.25-6.21-4.48.02.06.05.12.07.18l.03-.33c1.47-1.24,3.02-1.75,4.63-1.86,1.71.66,3.52,1.31,5.39,1.53,1.18.16,2.35.19,3.52.18,1.73.44,3.46.75,5.15.63,2.41-.18,4.63-1.13,6.9-1.65.34-.08.68-.13,1.03-.19.16,0,.32-.02.48-.03,3.97-.18,7.82.57,11.65,1.5,5.86,1.9,11.57,4.63,17.82,4.32,1.21-.09,2.41-.38,3.55-.72,8.15-2.7,17.03-2.9,25.27-.65-2.94.29-7.58.76-7.58.76-3.01.37-7.09.44-9.96,1.53-3.24,1.22-5.77,3.52-8.58,5.23-2.78,1.75-6,2.72-9.29,3.01-.34.03-.68.03-1.02.04-3.88-.04-7.85-.68-11.79-1.18-3.92-.9-7.92-2.15-11.87-.92-2.23.58-3.68,2.07-4.66,3.91-.54.8-.98,1.76-1.32,2.87-.24.74-.6,1.41-.84,2.13.02-.03.03-.05.05-.07-.04.07-.07.15-.1.22-.01.02-.01.03-.02.05,0,.01-.01.02-.01.03-.1.2-.19.41-.27.62-.02.04-.04.09-.05.14-.01.02-.01.03-.02.05-.02.06-.04.13-.06.19-.12.34-.2.7-.27,1.06-.23-.65-.37-1.33-.45-2.03-.17-1.57-.05-3.22-.08-4.84,0,2.36-.34,4.77.52,6.94-.06.39-.1.78-.08,1.19.12,1.31.73,2.32,1.26,3.33,1.17,1.96,2.14,3.95,3.33,5.89,4.02,6.76,10.77,12.81,18.97,13.27,3.4.06,6.68-.67,10.01.29,8.69,2.21,15.66-2.42,20.7-8.83-.64,1.33-1.02,2.13-1.02,2.14,6.05,6.87,15.04,9.55,23.28,12.82,4.17,1.51,8.45,2.82,12.88,3.42,4.42.67,8.89.45,13.32.2,4.41-.31,8.94-1.16,12.86-3.4,3.92-2.21,7.11-5.45,10.01-8.79,5.74-6.77,11.37-13.6,17.06-20.4l8.51-10.21c2.34-2.7,5.2-6.51,7.88-9.16-.67.97-1.32,1.94-1.99,2.91.88-1.17,1.76-2.35,2.63-3.53.06-.05.12-.12.18-.17,3.57-3.38,7.87-2.81,12.01-.78,20.48,8.6,35.83,28.43,39,50.41l.45-.17,24.13-9.23c16.13-6.04,32.19-12.64,46.87-21.74,21.27-12.75,40.2-29.42,56.03-48.48,11.5-14.17,21.62-29.87,29.15-46.5.79-1.68,2.01-4.25,2.63-5.95,1.63-4.05,1.75-10.17-3.33-11.57ZM236.19,462.14c-2.54.45-5.07.94-7.6,1.49-14.91,3.2-29.53,8.27-42.28,16.73,5.96-4.96,12.74-8.93,20.13-11.63,12.98-4.74,26.67-6.88,40.47-8.24-3.64.48-7.22,1.02-10.72,1.65Zm166.99,68.92c-13.71-25.57-25.67-52.64-37.25-78.89-10.68.66-34.11,2.08-50.98,3.11,17.12-1.27,34.24-2.55,51.37-3.82,11.47,26.95,23.97,53.47,37.46,79.48-.21.04-.4.08-.6.12Zm203.26,79.46c-1.22,1.66-2.41,3.34-3.72,4.93,4.2-5.69,7.87-11.78,10.91-18.16-1.98,4.58-4.36,9.01-7.19,13.23Zm-29.2-120.26s.1-.07.15-.1c.22-.15.45-.29.67-.43.15-.1.31-.19.46-.27.12-.08.24-.15.37-.21.25-.14.51-.28.77-.4.31-.16.62-.3.93-.43.21-.09.43-.18.64-.26.17-.07.35-.14.52-.2l.54-.18c.44-.14.88-.27,1.33-.38.05,0,.1-.03.14-.04.48-.11.96-.21,1.44-.3.02-.01.03-.02.05-.01.25-.04.51-.08.76-.11.18-.03.37-.05.55-.06.21-.03.42-.05.63-.06.3-.03.6-.05.91-.06.25-.01.52-.02.77-.02h.16c1.13,0,2.27.08,3.4.23-.99-.05-1.98-.05-2.97,0-.04,0-.09.01-.13.01-.17.01-.34.02-.51.03-.17,0-.34.03-.51.05h-.05c-.16.02-.32.03-.48.05-.3.03-.61.07-.91.12-.2.02-.39.05-.58.09-.03,0-.05,0-.08,0-.04.01-.09.02-.14.03-.11.02-.22.04-.33.06-.52.09-1.04.21-1.56.33-.31.08-.62.16-.93.25-.23.06-.46.13-.68.2-.38.12-.77.24-1.14.38-.24.08-.47.17-.7.26-.17.06-.35.13-.52.2-.22.1-.44.19-.66.29-.3.13-.61.26-.9.41-.01,0-.01.01-.02.01-.06.03-.12.06-.18.09-.2.1-.4.2-.6.3-.02,0-.04.02-.06.03-.04.02-.08.04-.11.06-.01.01-.02.01-.03.02-.15.08-.3.16-.44.24-.2.11-.4.22-.6.34-.01,0-.01.01-.02.01-.36.22-.73.44-1.08.68.55-.42,1.11-.85,1.7-1.24,0-.01.02-.02.03-.02Zm-38.95,54.6c.3-.46.61-.91.92-1.37-4.97,8.33-9.61,16.86-13.58,25.7,3.45-8.48,7.69-16.64,12.66-24.33Zm-57.64-10.41c-3.72-5.86-7.03-13.82-14.63-15.21-4.84-.85-9.6.57-14.28,1.5l-6.98,1.49c-5.86,1.22-18.92,4.02-29.49,6.27,14.86-3.75,29.73-7.5,44.59-11.25,2.32-.58,4.82-1.16,7.05-.28,1.74.68,3,2.12,4.11,3.66,2.82,1.04,6.7,7.74,10.56,15.47l-.93-1.65Zm12.27,25.83c-.37-.97-.75-1.95-1.14-2.92.62,1.19,1.18,2.2,1.67,2.98-.98.92-1.95,1.86-2.95,2.78-1.66,1.51-3.34,3.01-5.02,4.5,2.49-2.45,4.97-4.9,7.44-7.34Zm-24.76,97.01c14.2-13.45,27.25-28.11,38.95-43.77,1.03-1.38,2.05-2.77,3.03-4.18-2.6,4.94-5.63,9.69-8.95,14.12-12.94,17.39-29.7,31.37-44.55,47.04-7.43,7.86-14.47,16.09-20.94,24.77-.52.78-.75,1.54-.81,2.28-1.64-3.72-3.74-7.2-6.09-10.5,3.5,4.29,6.41,8.33,5.72,9.06,6.77-7.19,11.73-15.87,18.13-23.39,4.73-5.55,10.21-10.42,15.51-15.43Zm-64.57-12.27c1.49,1.12,2.76,2.32,3.62,3.41l.26.33.28-.31c17.4-19.8,35.88-38.98,54.54-57.74-.1.11-.21.22-.31.33-6.68,7.29-13.36,14.58-20.05,21.87-7.09,7.73-14.18,15.46-21.27,23.2-4.53,4.93-18.2,15.21-18.68,22.16-.03.47.04.96.17,1.45-.12-.07-.22-.14-.34-.2-2.97-1.68-6.21-2.55-9.54-2.93,1.63-.08,3.24-.31,4.8-.81,3.84-1.25,7.32-4.69,7.11-8.72-.03-.71-.23-1.44-.59-2.04Zm-12.84-3.51c3.05-1.47,7.28-.06,10.84,2.14-.31-.07-.62-.11-.93-.14-3.8-.42-7.6-.46-11.41-.28.37-.68.83-1.29,1.5-1.72Zm-32.91,15.62c2.41-.64,4.94-.71,7.43-.77,6.6-.18,13.2-.35,19.79.02.07.01.14.01.21.02-1.37.06-2.73.17-4.06.3-6.95.62-13.88,1.25-20.82,1.95-3.09.31-6.19.64-9.28.99,2.27-.77,4.42-1.89,6.73-2.51Zm-23.81-9.03c.62-.01,1.24.01,1.87.01-2.32.34-4.62.81-6.87,1.43,1.17-1.43,3.17-1.44,5-1.44Zm3.49.02c2.81.08,5.62.32,8.42.64-6.44,1.74-12.74,4-18.8,6.79,2.61-3.44,6.28-6.05,10.38-7.43Zm-19.82,5.64c.06.04.13.09.19.14-.07.04-.14.08-.21.11.01-.08.02-.17.02-.25Zm-7.64,4.21c.23.12.46.23.7.34-.14.1-.28.2-.41.3-.17.03-.35.06-.52.09.07-.24.14-.49.23-.73Zm-.34,1.09h.01s0,.01-.01.01h0Zm-6.65-4.5c.73.34,1.5.7,2.28,1.09-.63.3-1.25.63-1.87.96-.17-.06-.34-.11-.51-.14.33-.54.37-1.31.1-1.91Zm-17.03,17.53c.06-.12.14-.24.21-.36,1.04,1.1,3.08.84,5.21.19-1.88.82-3.7,1.71-5.45,2.72-.47-.75-.35-1.73.03-2.55Zm-42.19,11.09c8.98.23,19.11,1.49,25.23,8.8l.13.16.05-.2c1.99-7.83,8.26-14.39,15.95-16.82-5.57,3.36-10.29,7.84-13.39,14.04-1.78,4.62-4.13,3.63-7.7,1.48-.76-.42-2.73-1.51-3.46-1.89-.82-.36-2.75-1.23-3.6-1.61-4.7-1.9-9.55-3.18-14.49-4.01.43.02.86.03,1.28.05Zm-9.19-.32c-2.21-.04-4.41-.11-6.6-.3,2.2.03,4.41.13,6.6.3Zm-18.12-2.8c2.04.86,4.14,1.46,6.27,1.89-3.33.1-6.64.31-9.94.61.54-.18,1.08-.32,1.65-.34-2.92-.77-4.86-3.48-6.28-6.13-1.14-2.1-2.11-4.28-2.91-6.52,2.81,4.46,6.41,8.16,11.21,10.49Zm-18.81,3.95c2.12-.76,4.4-1.05,6.64-.85.42.04.85.1,1.28.16-.11,0-.21.02-.31.03-2.85.45-5.89.82-9.02,1.22.47-.19.94-.38,1.41-.56Zm84.25,68.56c-7.46,4.49-16.54,6.2-25.12,4.8-3.44-.54-6.82-1.42-10.28-1.89-3.46-.48-6.96-.41-10.44-.53-14.04-.32-27.11-6.74-38.45-14.62-11.43-7.94-21.69-17.55-30.39-28.42-3.53-4.93-9.49-9.71-3.41-15.3,6.91-7.07,16.81-9.12,26.35-10.58.51-.07,1.02-.14,1.52-.23,1.11-.17,2.21-.33,3.3-.49,4.41-.62,8.87-1.22,13.35-1.7.55.01,1.09-.02,1.64-.13.11-.02.21-.05.32-.07,5.39-.54,10.8-.89,16.19-.87,3.28.38,6.61.45,9.93.49,5.19.52,10.35,1.46,15.41,3.01,4.04,1.33,8.16,3.1,11.84,5.26,3.89,2.45,6.82,3.25,8.8-1.8,8.56-16.99,29.62-20.7,46.59-24.18,13.68-2.59,27.5-4.3,41.35-5.74,6.93-.72,13.87-1.37,20.8-2.01,6.83-.69,14-.76,20.15,2.67.41.21.79.45,1.18.68,2.34,4.72,10.59,9.91,14.88,13.51,4.43,5.02,8.87,10.05,12.52,15.64,5.03,7.33,7.97,16.09,7.56,24.28-.48,2.95-1.02,5.89-1.9,8.71-1.98,4.85-5.55,9.16-11.06,12.4-2.95,1.82-6.12,3.25-9.37,4.47-4.42,1.58-8.92,2.94-13.47,4.08-.46.05-.91.09-1.37.16-2.68.34-5.31,1.03-7.93,1.69-.78.2-1.57.38-2.36.56-8.7,1.42-17.53,2-26.33,1.69-3.33-.23-6.65-.5-9.69-.71-.15-.02-.3-.03-.46-.05-8.82-.99-17.71-2.88-25.82-6.47-3.28-1.98-6.45-4.15-9.54-6.33-5.59-4.05-11.04-8.53-16.9-12.26-3.77-2.72-7.76-5.1-12.2-6.66-1.09-.34-2.41-.83-3.68-1.01-.76-.39-1.79-.39-2.8.14-1.31.63-1.83,2.27-1.24,3.58l.09-.03c-.29-.81-.19-1.76.33-2.44.97-1.17,2.31-1.33,3.69-1.12.44.26.76.68.89,1.23-1.34,1.73-2.03,3.7-2.31,5.79-.21.4-.4.82-.54,1.26-.64,3.78.52,7.49,1.66,11.16.27,1.49.78,4.29,1.51,8.36.11,1.21.25,2.41.4,3.61-.54,2.51-2.12,4.62-5.19,6.41Zm154.94-49.35c.96,1.71,1.83,3.44,1.59,5.3-.12.66-.23,1.33-.34,2-.16-2.47-.6-4.93-1.25-7.3Zm.56,12.29c-.2,2.23-.66,4.42-1.4,6.51.6-2.13,1.03-4.32,1.4-6.51Zm-35.95,28.57c-3.69.91-7.41,1.68-11.16,2.3.7-.17,1.41-.32,2.11-.5,2.62-.66,5.24-1.34,7.93-1.68.37-.06.74-.08,1.12-.12Zm-38.26,4.01c-2.78-.11-5.56-.31-8.33-.61,2.64.19,5.48.41,8.33.61Zm-13.84-.98c-3.28-.06-6.59.27-9.78-.52-3.35-1.15-6.54-2.69-9.63-4.43,1.03.42,2.08.81,3.14,1.15,5.33,1.68,10.77,2.93,16.27,3.8Zm-22.11-6.46c-4.37-1.98-8.51-4.45-12.27-7.57-4.05-3.1-7.97-6.53-12.09-9.62,5.24,3.49,10.2,7.5,15.26,11.16,2.96,2.07,5.98,4.14,9.1,6.03Zm-40.81-24.75c-.13-.47-.4-.86-.77-1.12,1.17.2,2.37.65,3.39.97,3.54,1.26,6.78,3.04,9.86,5.08-3.83-2.24-7.84-4.11-12.2-5.29-.1.12-.18.24-.28.36Zm-.16,1.62c-.38,1.4-1.26,2.55-1.97,3.8.31-1.9.96-3.68,2.1-5.22.07.41.05.89-.13,1.42Zm-1.1-2.93c-1.31-.13-2.55.1-3.46,1.22-.26.34-.41.75-.47,1.17.07-.89.56-1.73,1.41-2.15.89-.47,1.8-.52,2.52-.24Zm-.29,17.9s.24,1.32.28,1.58c-1.12-3.62-2.23-7.28-1.59-11.02.12-.39.29-.77.47-1.13-.43,3.48.23,7.23.84,10.57Zm1.92,10.69c.2,1.08.26,1.42.41,2.27,0,.09-.02.18-.04.27-.13-.84-.26-1.69-.37-2.54Zm.38,2.6c.02-.09.03-.18.04-.27.29,1.6.77,4.29.77,4.29,0,0,.38,2.03.96,5.11-.63-3.04-1.27-6.07-1.77-9.13Zm15.02,63.84c-1.99-2.31-3.06-5.03-3.74-7.91,1.17,3.28,2.72,6.36,4.84,9.04-.37-.37-.75-.74-1.1-1.13Zm34.86,23.56c-.42.21-.93.53-1.32.92l.02-.13c.09-.89.91-1.55,1.77-1.79.8-.25,1.66-.1,2.47.14-.98.12-1.97.37-2.94.86Zm8.72.45c-1.58-.18-3.07-.66-4.57-1.22,2.18.05,4.45.75,6.72,1.38-.71-.02-1.43-.07-2.15-.16Zm8.6.77c-1.28.11-2.56-.04-3.85-.29,2.95-.14,5.88-.61,8.83-.93-1.66.51-3.28,1.07-4.98,1.22Zm41.2,2.74c-4.25,1.48-8.68.49-12.87-.77,2.71.55,5.43.93,8.22.86,3.25-.14,6.45-.83,9.65-1.46-1.69.36-3.36.81-5,1.37Zm7.48-1.82c2.91-.5,5.83-.8,8.8-.42-2.94-.15-5.89-.02-8.8.42Zm-7.73,10.11c2.4-1.55,4.63-3.2,7.06-4.37-1.98,1.14-3.69,2.79-5.6,3.98-1.7,1.01-3.44,1.7-5.21,2.15,1.29-.45,2.55-1.02,3.75-1.76Zm-34.27.53c3.17-.94,6.31-.29,9.44.5-2.05-.21-4.1-.34-6.11-.29-3.17-.05-5.64.76-7.36,2.7.94-1.37,2.24-2.45,4.03-2.91Zm26.05,34.24c-3.3-.97-6.79-.29-10.14-.34-7.9-.49-14.25-6.34-18.18-12.88-1.17-1.89-2.18-3.95-3.33-5.84-.52-.96-1.08-1.97-1.15-2.92.04-2.4.92-3.17,1.6-5.3,1.3-4.35,4.09-5.9,8.5-5.87,10.81-.26,22.69,4.62,32.67-1.53,2.71-1.72,4.82-4.22,7.85-5.12,2.98-.95,6.21-.87,9.31-1.14l9.48-.61-9.44.41c-.91.06-1.81.09-2.72.12,3.95-.37,9.1-.86,12.71-1.2-.22.46-.79,1.64-1.61,3.33.36-.89.71-1.78,1.06-2.66-.52,1.24-1.05,2.48-1.58,3.73-3.29,6.78-9.42,19.36-12.92,26.56-5.04,7.53-12.56,13.76-22.11,11.26Zm27.64-21.53s.04-.09.06-.14c.03-.06.06-.13.09-.19.95-1.97,1.93-3.98,2.87-5.93-.25.57-.5,1.15-.75,1.72-.2.41-.48.98-.81,1.63-.11.21-.22.44-.34.68-.23.46-.48.96-.73,1.47-.13.25-.26.51-.39.76Zm305.25-97.5c-7.53,16.54-17.62,32.15-29.03,46.28-21.17,25.72-48.14,46.66-78.51,60.4-13.44,6.24-33.63,13-47.62,18.78-2.82-17.49-13.2-33.45-27.66-43.54-3.67-2.51-7.54-4.78-11.68-6.44-3.67-1.79-7.56-2.46-10.96-.42,1.24-1.67,2.47-3.34,3.69-5.03,7.65-10.68,14.87-21.65,22.07-32.63,9.33-14.49,19.54-30.32,18.96-48.23-.25,17.83-10.39,33.23-19.8,47.68-8.38,12.97-16.84,25.88-25.55,38.63-.38.27-.75.56-1.11.91-3,2.66-6.08,6.99-8.77,10.04l-8.5,10.22c-5.67,6.8-11.31,13.65-17.01,20.41-2.89,3.33-6.03,6.52-9.86,8.68-3.81,2.18-8.23,3.03-12.61,3.34-4.41.26-8.85.48-13.21-.17-4.37-.6-8.62-1.89-12.77-3.38-8.07-3.2-16.87-5.8-22.88-12.42.23-.46.98-2.03,2.07-4.28,1.44-2.12,2.69-4.35,3.74-6.56.94-1.97,3.45-7.25,4.34-9.16.9-2.21,1.82-4.43,2.74-6.65,2.67-5.52,4.69-9.7,4.69-9.7.33-.03.65-.06.95-.09-2.8-1.09-5.72-1.88-8.68-2.38-1.15-.27-2.3-.52-3.47-.71-7.65-1.63-15.1,1.75-22.65,2.09-4.21.12-8.28-.79-12.34-1.81-5.62-1.89-11.48-3.86-17.39-2.38-.02.01-.04.02-.06.02-4,.33-8,1.11-11.99,1.14-2.78-.68-5.57-1.64-8.32-1.55-.16-.06-.32-.11-.48-.18-1.63-.64-4.08-.42-4.75,1.42-1.01-2.6-2.08-5.2-3.6-7.57-2.21-3.69-5.12-5.3-8.31-6.23,7.11.15,13.69-2.34,19.12-7.65,3.34-3.06,6.76-6.22,8.97-10.23,1.89-3.38,2.78-8.51,6.76-9.85-1.62,1.5-2.61,3.02-2.26,4.35,1.21,4.64,14.18-3.28,15.83-4.27,1.31-.79,2.67-1.63,3.46-2.94.8-1.31.82-3.23-.37-4.19-1.12-.91-2.76-.63-4.14-.21-1.98.62-8.77,3.83-12.44,7.19-4.12,1.15-5.19,6.39-7.17,9.73-2.3,3.9-5.7,6.96-9.06,9.95-2.26,1.97-4.66,3.81-7.36,5.05-9.15,4.22-22.18,2.05-30.17-4.49-3.3-3.47-5.37-7.82-6.82-12.46-.43-2.28-.71-4.61-1.11-6.86-1.85-9.63-4.02-19.16-6.07-28.74-1.41-7.54-2.68-14.32-2.68-14.32,0,0-.39-2.1-.88-4.83.02-.3.03-.6.03-.9,0-.2-.01-.4-.02-.6v-.07c-.01-.16-.02-.32-.03-.49h0c0,.14.02.3.03.45.01.23.02.46.02.68,0,.29-.01.58-.03.86-.24-1.28-.49-2.69-.75-4.09v-.06s-.01-.03-.01-.05c-.09-.47-.17-.94-.26-1.41-.06-.34-.12-.68-.18-1.01s-.12-.66-.18-.97c-.04-.22-.08-.43-.12-.64-.07-.42-.14-.82-.21-1.19.22.71.42,1.41.6,2.1-.02-.1-.05-.21-.07-.31-.03-.11-.06-.21-.09-.31-.14-.53-.3-1.06-.46-1.58-.31-1.71-.52-2.87-.52-2.87-.69-3.45-1.3-7.42-.75-11,.72-1.29,1.66-2.49,2.06-3.93.18-.57.2-1.08.12-1.51.08-.12.16-.24.26-.36,4.97,1.35,9.49,3.59,13.79,6.27,4.96,3.5,9.54,7.62,14.33,11.31,4.46,3.54,9.35,6.55,14.62,8.72,3.24,1.84,6.58,3.47,10.09,4.67,3.3.81,6.7.43,10.07.52,7.68,1.19,15.47,1.63,23.25,1.37h.03c2.94-.1,5.88-.29,8.81-.58h.04s.1-.01.15-.02c7.48-.75,14.89-2.12,22.14-4.04,1.46-.05,2.92-.04,4.38-.05,2.41-.15,4.65-1.1,6.83-2.06-2.52,1.05-4.91,1.79-6.84,2.02-1.39.01-2.8,0-4.2.05,3.76-1.01,7.48-2.15,11.13-3.44,6.51-2.43,13-5.79,17.43-11.33.25-.31.47-.63.7-.95-.31.57-.64,1.12-1,1.67-2.74,3.85-9.34,8.37-15.52,11.23,2.2-.96,4.32-2.09,6.34-3.39,3.35-2.22,6.9-4.44,9.25-7.8.47-.71.89-1.44,1.28-2.18,3.34-4.86,4.58-10.73,4.29-16.6.14-.85.28-1.69.43-2.52.29-2.04-.77-3.91-1.81-5.76-.38-1.3-.81-2.57-1.31-3.8-.16-.4-.33-.78-.5-1.17.02-.81.25-1.63.81-2.47,6.46-8.65,13.52-16.88,20.95-24.72,14.88-15.65,31.66-29.61,44.64-47,3.79-5.05,7.22-10.51,10.05-16.22,1.35-2.08,2.6-4.22,3.65-6.47,2.46-5.31,3.74-11.07,5.34-16.69.72-2.53,1.53-5.03,2.39-7.52,5.43-13.73,12.67-26.67,20.45-39.21,2.45-3.49,4.92-6.96,7.26-10.52,2.76-4.19,5.31-8.51,7.74-12.9,1.05-1.62,2.1-3.23,3.15-4.85,2.32-3.54,4.53-7.16,7.15-10.46-3.41,5.32-5.65,11.51-7.74,17.38,2.61-6.99,5.46-14.5,10.27-20.31,6.82-7.43,17.91-10.21,27.49-7.3,2.83,1.07,5.51,2.55,7.85,4.37,8.27,6.14,12.49,15.38,14.6,25.22,1,4.96,1.5,10.02,1.81,15.09.03.63.06,1.25.08,1.87.4,16.39-.41,33.47-4.81,49.39-4.36,12.98-11.17,25.16-19.98,35.68.02.11.05.22.07.33-2.46,2.56-5,5.07-6.95,8.07-2.94,4.31-5.17,9.21-9.2,12.63-1.97,1.68-4.33,2.99-6.91,3.35-.23.04-.46.07-.7.09-.19,0-.38.02-.57.02-.32.01-.65,0-.98-.04-.02,0-.03-.01-.04,0-.42-.04-.83-.12-1.24-.22-.13-.04-.27-.07-.4-.11-.14-.04-.28-.09-.41-.13-.14-.05-.27-.1-.41-.15-.26-.11-.52-.22-.78-.35-.13-.07-.26-.13-.38-.2-.13-.07-.25-.14-.38-.22-.12-.07-.24-.15-.36-.23-.12-.08-.24-.16-.35-.24-.12-.09-.23-.17-.35-.27-.11-.08-.22-.18-.33-.27-.11-.09-.22-.19-.32-.29-.11-.1-.21-.2-.31-.3-.27-.26-.52-.55-.76-.85-.09-.12-.19-.24-.27-.36-.03-.04-.06-.08-.09-.12-.01-.02-.02-.03-.03-.05-.07-.09-.14-.2-.2-.3-.1-.15-.19-.3-.28-.46-.07-.12-.14-.25-.21-.38-.01-.02-.02-.03-.03-.05-.04-.09-.09-.18-.13-.28-.05-.09-.09-.19-.13-.29-.07-.15-.13-.3-.19-.46-.1-.26-.18-.52-.25-.8-.03-.1-.05-.2-.08-.3,0,.05.01.1.03.16.07.33.17.66.29.99.03.08.06.17.1.26.06.16.12.32.2.48.06.15.14.31.22.46.06.13.13.26.21.39.09.16.19.32.29.47h0c.1.16.2.31.31.45.07.1.14.2.22.3.46.6.99,1.15,1.58,1.63.12.1.24.2.36.29.36.28.74.53,1.13.75.13.08.26.15.4.22.14.07.27.14.41.2.13.07.27.13.41.18.11.05.22.1.34.14.31.11.63.21.95.29.29.08.59.14.89.18.29.05.58.08.87.1.59.03,1.18,0,1.78-.09,2.65-.33,5.08-1.63,7.11-3.31,4.14-3.38,6.47-8.3,9.42-12.61,1.88-2.84,4.28-5.24,6.65-7.67,3.33,16.5,8.85,32.88,15.19,48.57,4.93,11.91,11.15,23.71,20.69,32.61,6.33,5.92,13.67,10.57,20.87,15.3,7.22,4.72,14.48,9.38,22.06,13.5,7.58,4.15,15.49,7.76,23.8,10.2,6.37,2.11,12.54,2.5,19,3.56,7.02,2.47,2.32,11.62.1,16.23Zm-432.74-18.42s-.01-.07-.01-.11c0-.01,0-.02-.01-.03.01.08.02.17.02.25v-.11Zm-.06-.49s0,.1.02.15c0-.04-.01-.08-.01-.13,0-.01,0-.01,0-.02Zm-.04-.32v-.03s-.01-.01-.01-.01c.01.01.01.02.01.04Zm-.05-.28h.01s-.02-.1-.03-.16c.01.06.02.11.02.16Zm-.02-.16c.01.06.02.11.02.16h.01s-.02-.1-.03-.16Zm.06.4s.01.02.01.04v-.03s-.01-.01-.01-.01Zm.06.38s0-.01,0-.02c0,.05,0,.1.02.15,0-.04-.01-.08-.01-.13Zm.04.36s0-.02-.01-.03c.01.08.02.17.02.25v-.11s-.01-.07-.01-.11Zm0,0s0-.02-.01-.03c.01.08.02.17.02.25v-.11s-.01-.07-.01-.11Zm-.04-.36s0-.01,0-.02c0,.05,0,.1.02.15,0-.04-.01-.08-.01-.13Zm-.06-.38s.01.02.01.04v-.03s-.01-.01-.01-.01Zm-.06-.4c.01.06.02.11.02.16h.01s-.02-.1-.03-.16Zm0,0c.01.06.02.11.02.16h.01s-.02-.1-.03-.16Zm.06.4s.01.02.01.04v-.03s-.01-.01-.01-.01Zm.06.38s0-.01,0-.02c0,.05,0,.1.02.15,0-.04-.01-.08-.01-.13Zm.04.36s0-.02-.01-.03c.01.08.02.17.02.25v-.11s-.01-.07-.01-.11Zm0,0s0-.02-.01-.03c.01.08.02.17.02.25v-.11s-.01-.07-.01-.11Zm-.04-.36s0-.01,0-.02c0,.05,0,.1.02.15,0-.04-.01-.08-.01-.13Zm-.06-.38s.01.02.01.04v-.03s-.01-.01-.01-.01Zm-.06-.4c.01.06.02.11.02.16h.01s-.02-.1-.03-.16Zm0,0c.01.06.02.11.02.16h.01s-.02-.1-.03-.16Zm.06.4s.01.02.01.04v-.03s-.01-.01-.01-.01Zm.06.38s0-.01,0-.02c0,.05,0,.1.02.15,0-.04-.01-.08-.01-.13Zm.04.36s0-.02-.01-.03c.01.08.02.17.02.25v-.11s-.01-.07-.01-.11Zm0,0s0-.02-.01-.03c.01.08.02.17.02.25v-.11s-.01-.07-.01-.11Zm-.04-.36s0-.01,0-.02c0,.05,0,.1.02.15,0-.04-.01-.08-.01-.13Zm-.06-.38s.01.02.01.04v-.03s-.01-.01-.01-.01Zm-.06-.4c.01.06.02.11.02.16h.01s-.02-.1-.03-.16Z"/>
      <path d="m373.94,748.54c-.32,0-.64,0-.96,0,.32,0,.64,0,.96,0Z"/>
      <path d="m416.19,741.4c-.28.13-.57.25-.86.38.56-.23,1.13-.48,1.7-.75-.28.12-.56.25-.84.37Z"/>
      <path d="m376.5,748.5c-.82.03-1.68.04-2.56.04.88,0,1.74,0,2.56-.04Z"/>
    </g>
  </g>
  <g id="Layer_3_copy" data-name="Layer 3 copy">
    <g>
      <path class="cls-3" d="m309.72,659.06s0,0,0,0c0,0,0,0,.01,0,0,0,0,0-.01,0Z"/>
      <path class="cls-3" d="m303.48,656.61c.62-.33,1.24-.66,1.87-.96-.78-.38-1.55-.75-2.28-1.08.26.59.22,1.36-.1,1.91.16.03.33.08.5.14Z"/>
      <path class="cls-3" d="m390.37,746.38c3.75-.62,7.47-1.39,11.16-2.3-.37.04-.75.07-1.12.13-2.68.34-5.31,1.02-7.93,1.68-.7.18-1.4.34-2.11.5Z"/>
      <path class="cls-3" d="m334.03,648.1c-1.83,0-3.83,0-5,1.44,2.26-.62,4.55-1.09,6.87-1.43-.62,0-1.24-.02-1.87-.01Z"/>
      <path class="cls-3" d="m260.66,688.75c.73.38,2.7,1.47,3.47,1.89,3.57,2.16,5.92,3.15,7.7-1.48,3.1-6.2,7.82-10.67,13.38-14.03-7.69,2.43-13.95,8.98-15.94,16.82l-.05.2-.13-.16c-6.12-7.31-16.25-8.57-25.22-8.81-.42-.02-.85-.03-1.28-.04,4.93.83,9.78,2.1,14.48,4.01.86.37,2.79,1.25,3.6,1.61Z"/>
      <path class="cls-3" d="m317.7,653.76c0,.08-.01.17-.02.26.07-.04.14-.08.21-.11-.06-.05-.13-.1-.19-.14Z"/>
      <path class="cls-3" d="m310.76,658.31c-.23-.11-.47-.22-.7-.34-.09.24-.15.49-.22.73.17-.03.34-.06.51-.09.14-.1.27-.2.41-.3Z"/>
      <path class="cls-3" d="m291.46,671.92c-2.14.64-4.17.91-5.22-.19-.07.12-.14.24-.21.36-.38.82-.5,1.79-.03,2.55,1.75-1.01,3.57-1.9,5.45-2.72Z"/>
      <path class="cls-3" d="m228.06,682.56c2.19.19,4.39.27,6.6.3-2.19-.17-4.4-.27-6.6-.3Z"/>
      <path class="cls-3" d="m436.08,722.02c.75-2.09,1.2-4.28,1.4-6.51-.37,2.2-.8,4.39-1.4,6.51Z"/>
      <path class="cls-3" d="m438.51,708.52c.24-1.86-.63-3.59-1.59-5.3.65,2.37,1.09,4.83,1.25,7.29.11-.67.22-1.34.34-2Z"/>
      <path class="cls-3" d="m214.52,682.22c-.57.03-1.11.16-1.65.34,3.3-.3,6.62-.51,9.94-.61-2.13-.43-4.23-1.03-6.27-1.89-4.8-2.32-8.4-6.03-11.21-10.49.81,2.24,1.78,4.43,2.91,6.52,1.43,2.65,3.37,5.36,6.28,6.13Z"/>
      <path class="cls-3" d="m205.65,683.32c-.43-.06-.85-.12-1.28-.16-2.24-.2-4.52.09-6.63.85-.47.17-.94.37-1.41.56,3.12-.4,6.17-.77,9.02-1.22.1-.01.2-.02.3-.03Z"/>
      <path class="cls-3" d="m381.21,656.7c1.34-.13,2.7-.24,4.06-.3-.07,0-.14,0-.21-.01-6.59-.37-13.19-.2-19.79-.03-2.5.06-5.02.13-7.43.78-2.31.62-4.46,1.74-6.72,2.5,3.09-.35,6.18-.68,9.28-.99,6.94-.7,13.87-1.33,20.82-1.95Z"/>
      <path class="cls-3" d="m400.66,643.51c.31.03.62.08.93.14-3.56-2.2-7.79-3.61-10.84-2.14-.67.43-1.13,1.04-1.5,1.72,3.81-.18,7.62-.13,11.42.28Z"/>
      <path class="cls-3" d="m606.44,610.52c2.83-4.22,5.21-8.65,7.19-13.22-3.05,6.38-6.71,12.47-10.92,18.16,1.31-1.59,2.5-3.28,3.72-4.94Z"/>
      <path class="cls-3" d="m314.95,455.28c16.87-1.03,40.3-2.45,50.98-3.11,11.58,26.25,23.55,53.32,37.25,78.9.2-.04.39-.08.6-.13-13.49-26-25.99-52.52-37.46-79.48-17.12,1.27-34.25,2.55-51.37,3.82Z"/>
      <path class="cls-1" d="m421.19,837.35c-2.94.29-7.58.76-7.58.76-3.01.37-7.09.44-9.96,1.53-3.24,1.22-5.77,3.52-8.58,5.23-2.78,1.75-6,2.72-9.29,3.01-.34.03-.68.03-1.02.04-3.88-.04-7.85-.68-11.79-1.18-3.92-.9-7.92-2.15-11.87-.92-2.23.58-3.68,2.07-4.66,3.91-.54.8-.98,1.76-1.32,2.87-.24.74-.6,1.41-.84,2.13-.04.06-.07.13-.07.2,0,.01-.01.02-.01.03-.1.2-.19.41-.27.62-.02.04-.04.09-.05.14-.01.02-.01.03-.02.05-.02.06-.04.13-.06.19-.12.34-.2.7-.27,1.06-.23-.65-.37-1.33-.45-2.03-.17-1.57-.05-3.22-.08-4.84,0-.17,0-.34-.01-.51-.01-.21-.01-.42-.03-.63-.02-.41-.07-.82-.15-1.23-.03-.2-.08-.4-.13-.6-.04-.15-.09-.3-.14-.44-.1-.28-.2-.55-.32-.81-.13-.28-.28-.55-.43-.81-.13-.22-.28-.44-.44-.65-.02-.02-.03-.04-.05-.07-.15-.2-.31-.39-.48-.58-.03-.04-.06-.07-.1-.11-.09-.1-.18-.19-.27-.28-.07-.08-.14-.14-.21-.21-.1-.1-.21-.19-.31-.28-.15-.13-.3-.26-.45-.38-.04-.03-.08-.06-.12-.09-.19-.15-.39-.3-.59-.43-.12-.09-.25-.17-.37-.25-.25-.16-.5-.32-.76-.46-.26-.15-.52-.29-.79-.43-.13-.07-.25-.13-.38-.19-.03,0-.05-.03-.08-.04-.07-.04-.15-.08-.24-.11-.08-.04-.16-.08-.24-.11-.26-.12-.53-.24-.8-.35-.26-.11-.53-.22-.8-.32-.36-.14-.73-.28-1.09-.4-.44-.17-.88-.32-1.31-.46-1.42-.63-7.78-2.25-6.21-4.48.02.06.05.12.07.18l.03-.33c1.47-1.24,3.02-1.75,4.63-1.86,1.71.66,3.52,1.31,5.39,1.53,1.18.16,2.35.19,3.52.18,1.73.44,3.46.75,5.15.63,2.41-.18,4.63-1.13,6.9-1.65.34-.08.68-.13,1.03-.19.16,0,.32-.02.48-.03,3.97-.18,7.82.57,11.65,1.5,5.86,1.9,11.57,4.63,17.82,4.32,1.21-.09,2.41-.38,3.55-.72,8.15-2.7,17.03-2.9,25.27-.65Z"/>
      <path class="cls-3" d="m204.54,667.17c.21.69.44,1.37.67,2.05,2.84,4.58,6.48,8.38,11.37,10.73,2.2.92,4.47,1.55,6.77,1.98,6.08-.15,12.17.09,18.14,1.01.79.02,1.58.04,2.36.07,8.96.22,19.07,1.47,25.25,8.68,2.1-8.03,8.63-14.73,16.62-17.02-.22-.39-.32-.84-.31-1.28.08-.6.31-1.23.65-1.88-.48-.65-.68-1.66-.48-3.19.73-5.55,8.73-10.37,13.3-12.42-2.2.99-3.59,3.52-3.25,5.91,2.26-1.87,4.71-3.52,7.28-4.94-.09-.02-.19-.04-.27-.05-.25.21-.57.32-.97.28,0,0-.43-.08-.43-.08l.32-.31c.27-.19.56-.28.86-.3.49-.49.5-1.58,0-2.06-.06-.06-.13-.13-.15-.21-.1-.05.2-.36.17-.27.12-.03.24.04.32.06.54.23,1.78.82,3.07,1.46,3.07-1.44,6.29-2.56,9.6-3.31-2.34,1.08-4.22,3.08-5.21,5.46.31.15.62.3.93.45,1.92-1.37,3.93-2.61,6.01-3.72.03-.33.05-.67.08-1.03,0,0,.03-.46.03-.46.37.26.75.55,1.13.84,3.15-1.59,6.45-2.89,9.85-3.88,1.12-1.72,2.77-2.33,5.77-2.2,4.48-.1,8.93.25,13.36.8,4.36-1.12,8.79-2,13.25-2.61-2.69.52-5.24,1.71-7.37,3.43.02,0,.04,0,.06,0,5.65-2.25,11.74-3.13,17.77-3.98,5.78-.82,11.61-1.64,17.43-1.95.41-.89,1-1.84,1.9-2.32,5.25-2.63,13.57,2.61,17.08,6.75,26.66-29.62,56.38-61.51,84.55-87.08-4.22-11.09-9.59-21.73-15.95-31.74-2.4-3.9-5.49-7.91-10.25-8.68-4.65-.82-9.34.57-13.91,1.47,0,0-6.98,1.47-6.98,1.47-8.8,1.87-33.05,6.94-42.22,8.88-13.11-25.45-27.02-53.68-36.76-79.18-14.44.85-51.02,3.03-64.96,3.85-20.93,1.64-44.16,2.17-64.75,5.87-17.73,3.06-35.42,8.39-50.45,18.51-5.93,3.99-11.81,8.61-15.26,15.01-5.17,9.73-4.26,21.13-4.46,31.82-1.28,46.92,13.6,62.91,26.78,104.06,3.23,10.57,5.38,24.94,11.4,35.67.18-.22.29-.39.27-.46Z"/>
      <path class="cls-3" d="m354.33,854.66s-.03.04-.05.07c-.02.05-.04.1-.05.16.03-.07.06-.15.1-.22Z"/>
      <path class="cls-3" d="m452.65,672.72c-6.4,7.51-11.36,16.2-18.13,23.39.69-.73-2.23-4.77-5.73-9.06,2.35,3.31,4.45,6.78,6.09,10.5.06-.75.29-1.5.81-2.28,6.47-8.68,13.51-16.9,20.94-24.76,14.85-15.67,31.61-29.65,44.56-47.04,3.32-4.43,6.35-9.18,8.95-14.13-.98,1.41-2,2.8-3.03,4.18-11.7,15.67-24.75,30.33-38.95,43.77-5.3,5.02-10.78,9.88-15.51,15.44Z"/>
      <path class="cls-3" d="m592.43,486.97c-5.2-.7-10.52.16-15.04,3.19-.65.43-1.27.88-1.88,1.36,4.95-3.27,10.98-4.87,16.92-4.55Z"/>
      <path class="cls-3" d="m493.45,560.34c-.49-.78-1.05-1.78-1.67-2.97.39.97.77,1.94,1.14,2.92-2.47,2.44-4.95,4.89-7.44,7.34,1.68-1.5,3.36-2.99,5.02-4.51,1-.91,1.97-1.85,2.95-2.78Z"/>
      <path class="cls-3" d="m397.07,655.78c-1.56.51-3.17.73-4.8.81,3.33.38,6.57,1.25,9.54,2.93.11.06.22.13.33.19-.13-.49-.2-.97-.16-1.45.48-6.95,14.15-17.23,18.67-22.16,7.09-7.73,14.18-15.47,21.27-23.2,6.68-7.29,13.37-14.58,20.05-21.86.1-.11.2-.22.31-.33-18.66,18.76-37.13,37.94-54.54,57.74,0,0-.28.31-.28.31l-.26-.33c-.86-1.08-2.13-2.29-3.62-3.41.36.61.55,1.33.59,2.04.2,4.03-3.27,7.48-7.11,8.72Z"/>
      <path class="cls-3" d="m538.29,544.86c-4.97,7.69-9.21,15.85-12.66,24.33,3.96-8.84,8.61-17.37,13.58-25.7-.3.46-.62.91-.92,1.37Z"/>
      <path class="cls-3" d="m471.02,520.63c.25.35.5.71.74,1.07l-1.26-1.2c.17.02.34.07.52.13-1.1-1.54-2.37-2.99-4.11-3.67-2.23-.87-4.73-.3-7.05.29-14.86,3.75-29.73,7.5-44.59,11.25,10.57-2.25,23.63-5.05,29.49-6.27,0,0,6.98-1.48,6.98-1.48,4.68-.93,9.44-2.35,14.29-1.5,7.6,1.39,10.91,9.35,14.62,15.22.32.54.62,1.1.93,1.64-3.86-7.73-7.74-14.43-10.56-15.47Z"/>
      <path class="cls-3" d="m337.52,648.12c-4.09,1.38-7.77,3.99-10.38,7.43,6.06-2.79,12.36-5.05,18.8-6.79-2.8-.32-5.6-.56-8.42-.64Z"/>
      <path class="cls-3" d="m370.58,846.46c-3.13-.79-6.27-1.44-9.44-.5-1.8.45-3.09,1.53-4.04,2.91,1.72-1.94,4.2-2.75,7.36-2.7,2.01-.05,4.06.08,6.11.29Z"/>
      <path class="cls-3" d="m382.79,836.37c4.19,1.26,8.62,2.25,12.87.77,1.64-.56,3.31-1.01,5-1.37-3.19.62-6.39,1.32-9.64,1.46-2.79.07-5.52-.31-8.22-.86Z"/>
      <path class="cls-3" d="m402.47,841.06c-2.43,1.17-4.66,2.82-7.06,4.37-1.2.74-2.46,1.31-3.76,1.76,1.78-.45,3.52-1.14,5.21-2.14,1.92-1.19,3.62-2.84,5.6-3.98Z"/>
      <path class="cls-3" d="m403.14,835.32c2.91-.44,5.86-.57,8.8-.42-2.97-.37-5.89-.08-8.8.42Z"/>
      <path class="cls-3" d="m354.46,834.4c1.7-.15,3.32-.7,4.98-1.22-2.94.32-5.88.79-8.83.93,1.29.25,2.57.4,3.85.28Z"/>
      <path class="cls-3" d="m354.94,747.48c2.77.29,5.55.49,8.33.61-2.85-.2-5.69-.42-8.33-.61Z"/>
      <path class="cls-3" d="m417.85,852.41c-1.26,2.6-2.56,5.3-3.82,7.9,1.11-2.24,2.45-4.92,3.07-6.17.25-.57.5-1.15.75-1.73Z"/>
      <path class="cls-3" d="m417.03,741.03c6.18-2.86,12.78-7.37,15.52-11.23.36-.54.69-1.1,1-1.66-.23.32-.45.64-.7.95-4.42,5.54-10.91,8.9-17.43,11.33-3.65,1.29-7.37,2.43-11.13,3.43,1.4-.04,2.8-.04,4.2-.04,1.93-.23,4.31-.97,6.84-2.03.29-.13.57-.25.86-.38.28-.12.56-.25.84-.37Z"/>
      <path class="cls-3" d="m424.35,837.98c-3.6.34-8.76.83-12.71,1.2.91-.03,1.81-.06,2.72-.12l9.44-.41c-.35.88-.7,1.77-1.06,2.66.82-1.69,1.39-2.87,1.61-3.33Z"/>
      <path class="cls-3" d="m376.5,748.5c1.78-.12,3.56-.32,5.33-.55-2.95.29-5.91.49-8.88.59,0,0,.02,0,.02,0,.32,0,.64,0,.96,0,.88,0,1.74,0,2.56-.04Z"/>
      <path class="cls-3" d="m286.61,740.74c-.03-.41-.08-.83-.11-1.24.03.42.07.84.11,1.27.25,1.4.51,2.81.74,4.09.13-1.73-.15-3.63-.73-5.74-.25-1.22-.6-2.45-.98-3.68.27,1.49.61,3.38.96,5.3Z"/>
      <path class="cls-3" d="m345.86,833.63c.72.09,1.43.13,2.15.15-2.28-.63-4.54-1.33-6.72-1.38,1.5.56,2.99,1.04,4.57,1.22Z"/>
      <path class="cls-3" d="m286.79,715.54c4.36,1.18,8.37,3.05,12.19,5.3-3.08-2.05-6.32-3.83-9.86-5.08-1.02-.32-2.22-.77-3.39-.98.37.27.65.65.77,1.13.1-.12.18-.25.28-.37Z"/>
      <path class="cls-3" d="m578.69,610.39c.16-.26.3-.65.31-1.01-.95,1.15-2,2.22-3.14,3.19,1.13-.46,2.14-1.19,2.84-2.18Z"/>
      <path class="cls-3" d="m337.61,832.18c-.86.24-1.68.9-1.77,1.79v.14c.37-.39.88-.71,1.3-.93.97-.49,1.95-.74,2.94-.85-.82-.25-1.67-.39-2.47-.14Z"/>
      <path class="cls-3" d="m286.35,717.52c.17-.53.2-1,.13-1.42-1.14,1.53-1.79,3.32-2.1,5.22.71-1.24,1.59-2.4,1.97-3.8Z"/>
      <path class="cls-3" d="m302.96,723.46c4.12,3.1,8.03,6.52,12.09,9.62,3.76,3.12,7.9,5.6,12.26,7.58-3.12-1.9-6.14-3.96-9.1-6.03-5.06-3.66-10.01-7.67-15.25-11.16Z"/>
      <path class="cls-3" d="m339.65,746.59c3.19.79,6.51.46,9.78.52-5.5-.87-10.94-2.12-16.27-3.8-1.06-.34-2.11-.74-3.14-1.15,3.09,1.74,6.28,3.28,9.63,4.43Z"/>
      <path class="cls-3" d="m719.98,744.94c-6.46-1.07-12.63-1.45-19.01-3.57-8.3-2.44-16.22-6.05-23.79-10.19-7.58-4.12-14.85-8.79-22.06-13.5-7.2-4.74-14.54-9.38-20.87-15.3-9.55-8.9-15.77-20.7-20.7-32.61-6.34-15.69-11.85-32.07-15.19-48.57-2.37,2.43-4.77,4.83-6.65,7.67-2.95,4.31-5.28,9.23-9.41,12.6-2.03,1.68-4.47,2.99-7.12,3.32-5.34.81-10.65-3.56-11.16-8.87.58,5.24,5.87,9.51,11.13,8.63,2.58-.36,4.95-1.67,6.91-3.36,4.03-3.42,6.26-8.32,9.2-12.63,1.95-3,4.48-5.51,6.94-8.07-.02-.11-.05-.22-.07-.33,8.81-10.52,15.62-22.7,19.98-35.68,4.41-15.92,5.21-33,4.81-49.39-.02-.62-.05-1.24-.07-1.87-.32-5.07-.81-10.13-1.82-15.09-2.1-9.84-6.32-19.08-14.6-25.22-2.34-1.82-5.02-3.3-7.85-4.37-9.58-2.91-20.67-.13-27.49,7.3-4.81,5.81-7.66,13.32-10.27,20.31,2.09-5.87,4.33-12.06,7.73-17.38-2.62,3.3-4.83,6.92-7.15,10.46-1.05,1.62-2.09,3.24-3.14,4.86-2.44,4.38-4.99,8.7-7.74,12.9-2.34,3.56-4.81,7.03-7.26,10.52-7.78,12.53-15.02,25.47-20.46,39.21-.86,2.49-1.67,4.99-2.39,7.52-1.6,5.62-2.88,11.38-5.34,16.68-1.05,2.25-2.29,4.4-3.65,6.48-2.83,5.7-6.25,11.16-10.05,16.21-12.98,17.39-29.76,31.35-44.64,47.01-7.43,7.84-14.49,16.07-20.95,24.72-.56.85-.79,1.67-.81,2.47.17.39.34.78.5,1.17.5,1.23.94,2.51,1.31,3.81,1.05,1.85,2.1,3.72,1.81,5.75-.15.84-.29,1.68-.43,2.53.29,5.87-.95,11.74-4.29,16.6-.39.74-.81,1.47-1.28,2.18-2.35,3.35-5.9,5.58-9.25,7.8-2.02,1.3-4.14,2.43-6.34,3.38-.57.26-1.14.51-1.7.75-2.18.97-4.42,1.92-6.83,2.07-1.46,0-2.92,0-4.38.05-7.25,1.92-14.66,3.29-22.13,4.04-1.82.24-3.65.45-5.48.57-.82.03-1.68.04-2.56.04-.32,0-.64,0-.96,0,0,0-.02,0-.03,0-7.78.26-15.58-.18-23.25-1.38-3.37-.09-6.77.29-10.07-.52-3.51-1.2-6.86-2.83-10.09-4.67-5.27-2.17-10.16-5.18-14.62-8.72-4.79-3.68-9.37-7.81-14.33-11.31-4.3-2.67-8.83-4.92-13.79-6.26-.1.12-.18.24-.26.36.09.44.07.94-.12,1.51-.4,1.45-1.34,2.64-2.06,3.94-.55,3.58.06,7.55.75,10.99,0,0,.21,1.16.52,2.87.38,1.26.74,2.52,1,3.78.6,2.13.88,4.06.74,5.81.5,2.74.88,4.84.88,4.84,0,0,1.27,6.77,2.69,14.32,2.04,9.57,4.22,19.11,6.07,28.73.4,2.25.68,4.58,1.11,6.86,1.45,4.65,3.53,8.99,6.83,12.47,7.98,6.54,21.02,8.71,30.17,4.49,2.7-1.24,5.1-3.09,7.36-5.06,3.36-2.99,6.76-6.05,9.06-9.95,1.97-3.34,3.04-8.58,7.16-9.73,3.67-3.36,10.46-6.57,12.45-7.18,1.38-.43,3.02-.7,4.14.2,1.19.96,1.17,2.88.37,4.19-.8,1.31-2.16,2.15-3.47,2.94-1.64.99-14.61,8.91-15.82,4.27-.35-1.33.64-2.85,2.26-4.35-3.99,1.34-4.87,6.47-6.76,9.85-2.22,4.01-5.63,7.18-8.97,10.24-5.43,5.31-12.02,7.8-19.12,7.65,3.19.93,6.1,2.55,8.31,6.23,1.52,2.36,2.59,4.97,3.6,7.57.67-1.84,3.12-2.06,4.75-1.41.16.06.32.12.48.18,2.76-.09,5.54.86,8.32,1.54,3.99-.03,7.99-.8,11.99-1.13.02,0,.05-.01.07-.02,5.9-1.49,11.77.49,17.38,2.38,4.06,1.01,8.14,1.92,12.34,1.81,7.55-.35,14.99-3.72,22.64-2.09,1.17.19,2.33.44,3.47.71,2.96.5,5.88,1.29,8.68,2.38-.3.03-.62.06-.95.09h0s-2.02,4.18-4.69,9.7c-.92,2.22-1.84,4.45-2.74,6.65-.9,1.9-3.4,7.19-4.34,9.16-1.05,2.2-2.3,4.44-3.74,6.56-1.09,2.25-1.85,3.82-2.07,4.28,6,6.62,14.81,9.22,22.88,12.42,4.15,1.49,8.4,2.78,12.77,3.38,4.36.65,8.8.43,13.21.18,4.38-.32,8.8-1.16,12.62-3.35,3.83-2.16,6.97-5.35,9.85-8.67,5.71-6.76,11.34-13.61,17.02-20.41,0,0,8.5-10.22,8.5-10.22,2.69-3.05,5.77-7.38,8.77-10.04.36-.34.73-.64,1.11-.91,8.71-12.75,17.17-25.65,25.55-38.63,9.41-14.45,19.55-29.85,19.8-47.68.58,17.91-9.63,33.74-18.96,48.23-7.2,10.98-14.42,21.96-22.07,32.63-1.22,1.69-2.45,3.36-3.69,5.03,3.4-2.04,7.29-1.37,10.96.42,4.14,1.66,8.01,3.93,11.68,6.44,14.47,10.09,24.84,26.05,27.67,43.54,13.99-5.78,34.18-12.54,47.62-18.77,30.36-13.74,57.34-34.68,78.51-60.4,11.41-14.13,21.5-29.74,29.03-46.28,2.22-4.61,6.92-13.76-.1-16.22Zm-337.84,40.02c3.89-1.97,4.16-6.96,4.03-10.81-.22-4.06-1.25-8.1-3.17-11.68-3.32-6.28-11.2-15.41-18.96-10.84,7.86-5.43,16.31,3.85,19.85,10.38,1.92,3.74,2.99,7.92,3.05,12.12,0,3.92-.61,9.22-4.8,10.83Zm172.82-218.44c4.06,4.1,9.3,6.71,13.39,10.92,4.35,4.1,6.27,10.53,4.15,16.24-1.14,4.22-5.07,7.09-6.15,11.25-.88,4.1,2.57,8.53,6.88,8.2.87-.03,1.76-.22,2.59-.56,1.15-1.05,2.2-2.2,3.14-3.43-.05-.26-.19-.48-.49-.58.27.05.45.27.54.52,2.61-3.41,4.39-7.43,5.08-11.64.26-1.44.4-3.04,1.42-4.33,1.02-1.36,2.91-1.24,4.38-1.17,2.93.09,5.59-1.56,7.54-3.68,3.93-4.4,5.83-10.27,7.32-15.89,3.31-14.55.94-29.72-2.93-43.93-1.62-5.5-2.94-11.89-7.96-15.29-8.45-5.11-18.02,1.33-20.76,9.9,2.48-8.89,12.37-15.62,21.1-10.43,5.26,3.44,6.8,9.96,8.45,15.59,4,14.34,6.46,29.66,2.98,44.37-1.57,5.77-3.49,11.72-7.65,16.21-2.09,2.21-4.99,3.92-8.12,3.78-1.4-.05-2.97-.29-3.94.9-.89,1.07-1.09,2.61-1.37,4.05-.82,4.32-2.75,8.4-5.52,11.77,0,.03.01.06.01.09-.24,2.57-3.51,4.01-5.8,4.23-4.7.51-8.71-4.31-7.75-8.87,1.01-4.33,4.9-7.13,6.05-11.4,4.51-13.47-9.26-18.71-16.6-26.84Z"/>
      <path class="cls-3" d="m287.3,745.51c-.01.09-.02.18-.04.27.5,3.05,1.14,6.09,1.76,9.12-.57-3.07-.95-5.11-.95-5.11,0,0-.48-2.69-.77-4.29Z"/>
      <path class="cls-3" d="m302.28,809.62c.34.39.72.76,1.1,1.13-2.13-2.68-3.67-5.76-4.85-9.04.69,2.87,1.75,5.6,3.75,7.91Z"/>
      <path class="cls-3" d="m286.88,743.18c.11.85.23,1.7.37,2.54.01-.09.03-.18.04-.27-.15-.85-.22-1.2-.41-2.27Z"/>
      <path class="cls-3" d="m283.65,723.05c-.64,3.74.47,7.4,1.59,11.02-.05-.26-.28-1.58-.28-1.58-.61-3.34-1.27-7.1-.84-10.57-.18.36-.35.74-.47,1.13Z"/>
      <path class="cls-3" d="m282.73,714.83c-.86.42-1.35,1.26-1.42,2.15.06-.42.21-.83.47-1.18.91-1.11,2.16-1.34,3.46-1.21-.71-.28-1.63-.23-2.51.24Z"/>
      <path d="m354.28,854.73s-.04.1-.05.15c-.01.02-.01.03-.02.05,0-.07.03-.14.07-.2Z"/>
      <path d="m364.04,751.63c7.76-4.57,15.64,4.56,18.96,10.84,1.92,3.59,2.95,7.62,3.17,11.68.13,3.85-.14,8.84-4.03,10.81,4.18-1.61,4.79-6.91,4.8-10.83-.07-4.2-1.14-8.38-3.05-12.12-3.53-6.53-11.99-15.81-19.85-10.38Z"/>
      <path d="m571.56,593.37c-1.15,4.26-5.04,7.06-6.05,11.4-.95,4.55,3.05,9.38,7.75,8.87,2.29-.22,5.56-1.67,5.8-4.23,0-.03,0-.06-.01-.09,2.77-3.38,4.7-7.46,5.52-11.77.28-1.44.47-2.99,1.37-4.05.97-1.19,2.53-.95,3.94-.9,3.13.14,6.03-1.58,8.12-3.78,4.16-4.49,6.08-10.44,7.65-16.21,3.48-14.71,1.01-30.03-2.98-44.37-1.66-5.63-3.19-12.15-8.45-15.59-8.73-5.19-18.62,1.54-21.1,10.43,2.74-8.57,12.31-15.01,20.76-9.9,5.02,3.4,6.35,9.79,7.96,15.29,3.87,14.22,6.24,29.38,2.93,43.93-1.49,5.62-3.39,11.49-7.32,15.89-1.95,2.12-4.62,3.77-7.54,3.68-1.47-.07-3.36-.19-4.38,1.17-1.02,1.29-1.16,2.89-1.42,4.33-.69,4.21-2.47,8.23-5.08,11.64-.08-.25-.27-.48-.54-.52.3.1.45.32.49.58-.95,1.23-1.99,2.38-3.14,3.43-.83.34-1.72.53-2.59.56-4.31.33-7.76-4.11-6.88-8.2,1.08-4.16,5.01-7.03,6.15-11.25,2.11-5.71.2-12.15-4.15-16.24-4.09-4.21-9.33-6.82-13.39-10.92,7.34,8.13,21.11,13.37,16.6,26.84Zm7.43,16.02c0,.36-.15.74-.31,1.01-.69.99-1.71,1.72-2.84,2.18,1.14-.97,2.19-2.03,3.14-3.19Z"/>
      <path d="m471.76,521.7c-.24-.36-.49-.71-.74-1.07-.18-.06-.35-.11-.52-.13l1.26,1.2Z"/>
      <path d="m287.33,742.64s0-.02-.01-.03c.01.08.02.17.02.25v-.11s-.01-.07-.01-.11Zm-.04-.36s0-.01,0-.02c0,.05,0,.1.02.15,0-.04-.01-.08-.01-.13Zm-.06-.38s.01.02.01.04v-.03s-.01-.01-.01-.01Zm-.06-.4c.01.06.02.11.02.16h.01s-.02-.1-.03-.16Zm0,0c.01.06.02.11.02.16h.01s-.02-.1-.03-.16Zm.06.4s.01.02.01.04v-.03s-.01-.01-.01-.01Zm.06.38s0-.01,0-.02c0,.05,0,.1.02.15,0-.04-.01-.08-.01-.13Zm.04.36s0-.02-.01-.03c.01.08.02.17.02.25v-.11s-.01-.07-.01-.11Zm0,0s0-.02-.01-.03c.01.08.02.17.02.25v-.11s-.01-.07-.01-.11Zm-.04-.36s0-.01,0-.02c0,.05,0,.1.02.15,0-.04-.01-.08-.01-.13Zm-.06-.38s.01.02.01.04v-.03s-.01-.01-.01-.01Zm-.06-.4c.01.06.02.11.02.16h.01s-.02-.1-.03-.16Zm0,0c.01.06.02.11.02.16h.01s-.02-.1-.03-.16Zm.06.4s.01.02.01.04v-.03s-.01-.01-.01-.01Zm.06.38s0-.01,0-.02c0,.05,0,.1.02.15,0-.04-.01-.08-.01-.13Zm.04.36s0-.02-.01-.03c.01.08.02.17.02.25v-.11s-.01-.07-.01-.11Zm0,0s0-.02-.01-.03c.01.08.02.17.02.25v-.11s-.01-.07-.01-.11Zm-.04-.36s0-.01,0-.02c0,.05,0,.1.02.15,0-.04-.01-.08-.01-.13Zm-.06-.38s.01.02.01.04v-.03s-.01-.01-.01-.01Zm-.06-.4c.01.06.02.11.02.16h.01s-.02-.1-.03-.16Zm0,0c.01.06.02.11.02.16h.01s-.02-.1-.03-.16Zm.06.4s.01.02.01.04v-.03s-.01-.01-.01-.01Zm.06.38s0-.01,0-.02c0,.05,0,.1.02.15,0-.04-.01-.08-.01-.13Zm.04.36s0-.02-.01-.03c.01.08.02.17.02.25v-.11s-.01-.07-.01-.11Zm0,0s0-.02-.01-.03c.01.08.02.17.02.25v-.11s-.01-.07-.01-.11Zm-.05-.38s0,.1.02.15c0-.04-.01-.08-.01-.13,0-.01,0-.01,0-.02Zm-.04-.32v-.03s-.01-.01-.01-.01c.01.01.01.02.01.04Zm-.05-.28h.01s-.02-.1-.03-.16c.01.06.02.11.02.16Zm433.06,2.39c-2.14-.59-4.3-.56-6.46-.89-4.25-.55-8.46-1.41-12.56-2.65-8.24-2.41-16.1-5.99-23.63-10.09-7.56-4.1-14.81-8.75-22.02-13.44-7.17-4.71-14.49-9.32-20.78-15.19-9.47-8.82-15.62-20.47-20.55-32.31-6.55-15.38-11.8-33.46-15.52-48.65,1.17-1.21,2.32-2.42,3.39-3.71,1.78-1.95,3.3-4.11,4.87-6.23,6.26-9.25,10.37-19.5,12.99-30.19,3.33-11.43,4.79-23.4,4.06-35.35-.02-.39-.04-.78-.06-1.17.01-3.06-.03-6.1-.13-9.11-.45-12.22-2.55-25.76-9.98-35.68-3.25-4.52-7.47-8.26-12.68-10.42-1.83-.86-3.75-1.54-5.71-2.01-6.24-1.52-12.9-.93-18.36,2.79-1.37.92-2.61,1.95-3.74,3.08-.02.02-.04.03-.06.06-.56.54-1.1,1.11-1.61,1.7-.41.39-.81.79-1.19,1.22-3.72,3.99-6.5,8.68-9.45,13.19-.04.06-.07.11-.11.17.56-1.05,1.11-2.1,1.65-3.15.01,0,.01-.02.02-.03,1.98-3.79,3.91-7.6,5.83-11.4-2.34-.31-4.61-.18-6.81.29,10.14-6.46,21.23-10.38,32.67-8.5.32.06.65.11.97.18.08.01.16.03.24.05.25.04.49.1.74.15-10.85-61.06-30.84-124.13-77.03-165.5-45.33-40.6-113.4-53.87-170.65-33.28-24.62,8.85-46.81,23.24-68.47,37.9-23.19,15.71-46.72,32.59-61.23,56.55-4.51,7.46-8.08,15.5-13.08,22.65-4.62,6.6-10.39,12.33-15.13,18.85-6.13,8.44-10.43,18.05-14.68,27.59-7.72,17.33-13.2,37.78-10,56.48.23-.56.47-1.12.72-1.68.09-.18.17-.37.26-.55-1.36,7.22-.97,14.85-1.09,22.13-1.09,42.84,11.24,59.91,23.48,93.78-.02-.08-.05-.17-.08-.25-.07-.19-.14-.39-.21-.58-.29-.79-.58-1.57-.86-2.34-.19-.52-.38-1.03-.57-1.54-.19-.5-.38-1.01-.57-1.51-.26-.69-.52-1.38-.78-2.06-.09-.21-.17-.43-.25-.64-.51-1.32-1.02-2.62-1.53-3.9-.2-.5-.39-.99-.59-1.48-.31-.76-.61-1.51-.91-2.26-.3-.74-.6-1.48-.89-2.22-.36-.91-.73-1.8-1.09-2.68-.03-.08-.06-.15-.09-.23-.34-.86-.69-1.7-1.03-2.55-.19-.47-.38-.94-.56-1.41-.35-.87-.7-1.73-1.04-2.6-.01-.03-.02-.06-.04-.09-.18-.45-.35-.9-.53-1.35-.71-1.81-1.39-3.6-2.06-5.39-.1-.29-.21-.58-.32-.87-.16-.43-.31-.85-.47-1.28-.06-.18-.13-.35-.19-.53-.32-.89-.63-1.79-.94-2.68-.36-1.08-.72-2.16-1.07-3.24-.14-.44-.28-.87-.41-1.31-.14-.43-.27-.87-.4-1.31-.13-.4-.25-.8-.36-1.2-.12-.4-.23-.8-.35-1.2-.02-.08-.04-.17-.07-.26-.24-.85-.47-1.7-.69-2.57-.13-.49-.25-.99-.38-1.49-.45-1.83-.87-3.7-1.26-5.61-.1-.48-.19-.96-.28-1.45-.1-.48-.19-.97-.27-1.46-.09-.48-.17-.98-.26-1.48-.08-.48-.16-.96-.23-1.44-.09-.58-.18-1.17-.26-1.76-.04-.27-.08-.53-.12-.79-.01-.08-.02-.16-.03-.24-.01-.1-.03-.21-.04-.31-.07-.54-.14-1.1-.2-1.65-.07-.56-.13-1.12-.19-1.68-.12-1.13-.23-2.29-.33-3.46-.04-.44-.07-.89-.1-1.34-.05-.56-.08-1.13-.12-1.7-.04-.57-.07-1.15-.1-1.73s-.06-1.17-.08-1.76c-.17-4.04-.19-8.32-.07-12.9.02-.96.03-1.92.03-2.88.01-1.06.01-2.12.01-3.19,0-.87.01-1.75.02-2.62,0-.72.02-1.43.04-2.14,0-.46.02-.91.03-1.36.02-.56.04-1.12.07-1.68.01-.15.02-.3.03-.45.03-.65.08-1.3.13-1.94.03-.39.07-.77.11-1.16.05-.48.1-.96.16-1.44.03-.25.06-.5.1-.75.01-.08.02-.15.03-.23.01-.06.02-.13.03-.19.01-.08.02-.16.04-.25.04-.3.09-.61.15-.92.02-.17.06-.35.09-.52.06-.31.11-.61.18-.91,0-.02.01-.05.01-.07.01-.08.03-.17.05-.25.01-.06.03-.12.04-.18h0s.02-.04.02-.06c8-16.35,23.32-28.43,40.53-34.71,2.51-.91,4.97-1.78,7.43-2.59.07-.02.15-.05.22-.07.27-.08.55-.17.82-.24.38-.12.75-.23,1.13-.33.2-.06.39-.11.59-.17.7-.2,1.4-.39,2.1-.58.08-.02.15-.04.23-.06.28-.07.57-.15.85-.22.65-.17,1.29-.33,1.94-.49.86-.21,1.72-.42,2.58-.61.14-.04.28-.07.42-.1.71-.16,1.42-.32,2.14-.47.03-.01.06-.01.09-.02.85-.19,1.7-.36,2.56-.53.06,0,.12-.03.18-.04.79-.16,1.59-.31,2.38-.45.87-.16,1.73-.32,2.6-.47,20.59-3.7,43.82-4.23,64.75-5.87,13.94-.83,50.51-3,64.96-3.85,9.74,25.5,23.65,53.73,36.76,79.18,9.17-1.95,33.42-7.01,42.22-8.89l6.98-1.47c4.57-.9,9.27-2.29,13.92-1.47,4.76.77,7.84,4.79,10.24,8.68,6.37,10.01,11.74,20.66,15.96,31.74-28.18,25.58-57.89,57.46-84.55,87.08-3.52-4.13-11.84-9.37-17.09-6.74-.9.48-1.48,1.42-1.89,2.31-5.83.32-11.65,1.14-17.44,1.96-6.02.85-12.11,1.73-17.76,3.97h-.06c2.13-1.72,4.68-2.91,7.37-3.43-4.46.61-8.89,1.49-13.25,2.61-4.43-.55-8.88-.9-13.36-.8-3-.13-4.66.47-5.77,2.2-3.4.98-6.7,2.28-9.85,3.87-.38-.29-.76-.57-1.13-.84l-.03.46c-.02.36-.05.7-.08,1.03-2.07,1.12-4.08,2.36-6,3.73-.31-.16-.62-.31-.93-.46.99-2.37,2.87-4.38,5.22-5.45-3.31.75-6.53,1.87-9.6,3.31-1.29-.63-2.53-1.23-3.07-1.46-.08-.02-.2-.09-.32-.06.03-.09-.27.23-.17.28.02.08.09.15.15.2.5.48.49,1.57,0,2.06-.3.02-.59.12-.86.3l-.32.31.43.08c.4.04.72-.07.97-.28.09,0,.18.03.27.04-2.57,1.43-5.01,3.07-7.28,4.95-.34-2.39,1.05-4.93,3.25-5.92-4.57,2.05-12.57,6.87-13.3,12.42-.2,1.53,0,2.54.48,3.19-.34.64-.57,1.27-.65,1.87-.02.44.08.89.3,1.28-7.99,2.29-14.52,8.99-16.62,17.02-6.18-7.22-16.3-8.47-25.25-8.68-.79-.04-1.58-.06-2.37-.07-5.97-.92-12.05-1.17-18.14-1.02-2.3-.42-4.57-1.05-6.77-1.97-4.88-2.36-8.53-6.15-11.37-10.73-.24-.67-.46-1.36-.67-2.04,0,.09-.1.24-.27.45-.26-.47-.52-.94-.76-1.42-.11-.21-.22-.42-.32-.63h0c-.29-.57-.56-1.15-.82-1.73-.27-.59-.53-1.19-.78-1.8-.11-.26-.22-.53-.33-.8-.19-.46-.37-.92-.54-1.39-.21-.54-.41-1.09-.6-1.65-.04-.11-.08-.22-.12-.34-.24-.7-.48-1.41-.71-2.13-.26-.83-.52-1.66-.77-2.5-.18-.58-.34-1.17-.51-1.75-.2-.71-.39-1.42-.58-2.12-.07-.27-.14-.54-.22-.81-.11-.44-.22-.88-.34-1.31-.18-.71-.36-1.42-.54-2.12-.1-.41-.21-.82-.31-1.23-.19-.77-.38-1.54-.57-2.3-.39-1.58-.78-3.13-1.17-4.64-.17-.65-.35-1.29-.52-1.93,2.76,10.19,5.01,22.92,10.46,32.66-1.54,1.82-8.21,7.44-9.03,8.29-2.82,2.92-6.75,6.32-8.57,9.95.05.02.1.03.14.05-8.8,1.59-17.34,4.25-23.2,10.3-6.3,5.83-.25,10.85,3.42,15.88,8.74,10.88,19.06,20.48,30.54,28.41,11.39,7.86,24.53,14.27,38.62,14.55,3.48.11,6.97.02,10.42.5,3.45.46,6.83,1.33,10.28,1.86,8.62,1.38,17.7-.37,25.16-4.88,3.05-1.79,4.63-3.9,5.18-6.4,1.24,9.75,3.58,19.37,5.37,29.01,1.17,5.93,2.47,11.83,3.55,17.76,1,5.89,1.28,12.48,5.42,17.28,2.26,2.68,5.16,4.64,8.31,6.09,1.27.7,2.61,1.19,4,1.56,1.19.38,2.4.72,3.61,1,1.74.4,3.46.65,5.16.75.93.23,1.85.5,2.74.84,2.73,1.05,4.91,3.16,6.47,5.6,1.63,2.54,2.75,5.37,3.83,8.19-.37.47-.51,1.02-.07,1.61,1.61,1.75,4.17,2.23,6.31,3.09,4.17,1.38,9.11,3.28,10.66,7.75-.1-.28-.2-.55-.32-.81-.13-.28-.28-.55-.43-.81-.14-.22-.29-.44-.44-.65-.02-.02-.03-.04-.05-.07-.15-.2-.31-.39-.48-.58-.03-.04-.06-.07-.1-.11-.09-.1-.18-.19-.27-.28-.07-.08-.14-.14-.21-.21-.1-.1-.21-.19-.31-.28-.15-.13-.3-.26-.45-.38-.04-.03-.08-.06-.12-.09-.19-.15-.39-.29-.59-.43-.12-.09-.25-.17-.37-.25-.25-.16-.5-.32-.76-.46-.26-.15-.52-.29-.79-.43-.13-.07-.25-.13-.38-.19-.03,0-.05-.03-.08-.04-.07-.04-.15-.08-.24-.11-.08-.04-.16-.08-.24-.11-.26-.12-.53-.24-.8-.35-.26-.11-.53-.22-.8-.32-.36-.14-.73-.28-1.09-.4-.44-.17-.88-.32-1.31-.46-1.42-.63-7.78-2.25-6.21-4.48.02.06.05.12.07.18l.03-.33c1.47-1.24,3.02-1.75,4.63-1.86,1.71.66,3.52,1.31,5.39,1.53,1.18.16,2.35.19,3.52.18,1.73.44,3.46.75,5.15.63,2.41-.18,4.63-1.13,6.9-1.65.34-.08.68-.13,1.03-.19.16,0,.32-.02.48-.03,3.97-.18,7.82.57,11.65,1.5,5.86,1.9,11.57,4.63,17.82,4.32,1.21-.09,2.41-.38,3.55-.72,8.15-2.7,17.03-2.9,25.27-.65-2.94.29-7.58.76-7.58.76-3.01.37-7.09.44-9.96,1.53-3.24,1.22-5.77,3.52-8.58,5.23-2.78,1.75-6,2.72-9.29,3.01-.34.03-.68.03-1.02.04-3.88-.04-7.85-.68-11.79-1.18-3.92-.9-7.92-2.15-11.87-.92-2.23.58-3.68,2.07-4.66,3.91-.54.8-.98,1.76-1.32,2.87-.24.74-.6,1.41-.84,2.13.02-.03.03-.05.05-.07-.04.07-.07.15-.1.22-.01.02-.01.03-.02.05,0,.01-.01.02-.01.03-.1.2-.19.41-.27.62-.02.04-.04.09-.05.14-.01.02-.01.03-.02.05-.02.06-.04.13-.06.19-.12.34-.2.7-.27,1.06-.23-.65-.37-1.33-.45-2.03-.17-1.57-.05-3.22-.08-4.84,0,2.36-.34,4.77.52,6.94-.06.39-.1.78-.08,1.19.12,1.31.73,2.32,1.26,3.33,1.17,1.96,2.14,3.95,3.33,5.89,4.02,6.76,10.77,12.81,18.97,13.27,3.4.06,6.68-.67,10.01.29,8.69,2.21,15.66-2.42,20.7-8.83-.64,1.33-1.02,2.13-1.02,2.14,6.05,6.87,15.04,9.55,23.28,12.82,4.17,1.51,8.45,2.82,12.88,3.42,4.42.67,8.89.45,13.32.2,4.41-.31,8.94-1.16,12.86-3.4,3.92-2.21,7.11-5.45,10.01-8.79,5.74-6.77,11.37-13.6,17.06-20.4l8.51-10.21c2.34-2.7,5.2-6.51,7.88-9.16-.67.97-1.32,1.94-1.99,2.91.88-1.17,1.76-2.35,2.63-3.53.06-.05.12-.12.18-.17,3.57-3.38,7.87-2.81,12.01-.78,20.48,8.6,35.83,28.43,39,50.41l.45-.17,24.13-9.23c16.13-6.04,32.19-12.64,46.87-21.74,21.27-12.75,40.2-29.42,56.03-48.48,11.5-14.17,21.62-29.87,29.15-46.5.79-1.68,2.01-4.25,2.63-5.95,1.63-4.05,1.75-10.17-3.33-11.57ZM236.19,462.14c-2.54.45-5.07.94-7.6,1.49,5.91-1.45,11.94-2.51,18.32-3.14-3.64.48-7.22,1.02-10.72,1.65Zm166.99,68.92c-13.71-25.57-25.67-52.64-37.25-78.89-10.68.66-34.11,2.08-50.98,3.11,17.12-1.27,34.24-2.55,51.37-3.82,11.47,26.95,23.97,53.47,37.46,79.48-.21.04-.4.08-.6.12Zm203.26,79.46c-1.22,1.66-2.41,3.34-3.72,4.93,4.2-5.69,7.87-11.78,10.91-18.16-1.98,4.58-4.36,9.01-7.19,13.23Zm-29.2-120.26s.1-.07.15-.1c.22-.15.45-.29.67-.43.15-.1.31-.19.46-.27.12-.08.24-.15.37-.21.25-.14.51-.28.77-.4.31-.16.62-.3.93-.43.21-.09.43-.18.64-.26.17-.07.35-.14.52-.2l.54-.18c.44-.14.88-.27,1.33-.38.05,0,.1-.03.14-.04.48-.11.96-.21,1.44-.3.02-.01.03-.02.05-.01.25-.04.51-.08.76-.11.18-.03.37-.05.55-.06.21-.03.42-.05.63-.06.3-.03.6-.05.91-.06.25-.01.52-.02.77-.02h.16c1.13,0,2.27.08,3.4.23-.99-.05-1.98-.05-2.97,0-.04,0-.09.01-.13.01-.17.01-.34.02-.51.03-.17,0-.34.03-.51.05h-.05c-.16.02-.32.03-.48.05-.3.03-.61.07-.91.12-.2.02-.39.05-.58.09-.03,0-.05,0-.08,0-.04.01-.09.02-.14.03-.11.02-.22.04-.33.06-.52.09-1.04.21-1.56.33-.31.08-.62.16-.93.25-.23.06-.46.13-.68.2-.38.12-.77.24-1.14.38-.24.08-.47.17-.7.26-.17.06-.35.13-.52.2-.22.1-.44.19-.66.29-.3.13-.61.26-.9.41-.01,0-.01.01-.02.01-.06.03-.12.06-.18.09-.2.1-.4.2-.6.3-.02,0-.04.02-.06.03-.04.02-.08.04-.11.06-.01.01-.02.01-.03.02-.15.08-.3.16-.44.24-.2.11-.4.22-.6.34-.01,0-.01.01-.02.01-.36.22-.73.44-1.08.68.55-.42,1.11-.85,1.7-1.24,0-.01.02-.02.03-.02Zm-80.16,66.65c1.22-3.45,5.71-6.46,9.77-9.91.09-.07.18-.15.26-.22-.09.1-.19.19-.28.29-3.19,3.34-6.44,6.63-9.75,9.84Zm41.21-12.05c.3-.46.61-.91.92-1.37-4.97,8.33-9.61,16.86-13.58,25.7,3.45-8.48,7.69-16.64,12.66-24.33Zm-57.64-10.41c-3.72-5.86-7.03-13.82-14.63-15.21-4.84-.85-9.6.57-14.28,1.5l-6.98,1.49c-5.86,1.22-18.92,4.02-29.49,6.27,14.86-3.75,29.73-7.5,44.59-11.25,2.32-.58,4.82-1.16,7.05-.28,1.74.68,3,2.12,4.11,3.66,2.82,1.04,6.7,7.74,10.56,15.47l-.93-1.65Zm12.27,25.83c-.37-.97-.75-1.95-1.14-2.92.62,1.19,1.18,2.2,1.67,2.98-.98.92-1.95,1.86-2.95,2.78-1.66,1.51-3.34,3.01-5.02,4.5,2.49-2.45,4.97-4.9,7.44-7.34Zm-24.76,97.01c14.2-13.45,27.25-28.11,38.95-43.77,1.03-1.38,2.05-2.77,3.03-4.18-2.6,4.94-5.63,9.69-8.95,14.12-12.94,17.39-29.7,31.37-44.55,47.04-7.43,7.86-14.47,16.09-20.94,24.77-.52.78-.75,1.54-.81,2.28-1.64-3.72-3.74-7.2-6.09-10.5,3.5,4.29,6.41,8.33,5.72,9.06,6.77-7.19,11.73-15.87,18.13-23.39,4.73-5.55,10.21-10.42,15.51-15.43Zm-64.57-12.27c1.49,1.12,2.76,2.32,3.62,3.41l.26.33.28-.31c17.4-19.8,35.88-38.98,54.54-57.74-.1.11-.21.22-.31.33-6.68,7.29-13.36,14.58-20.05,21.87-7.09,7.73-14.18,15.46-21.27,23.2-4.53,4.93-18.2,15.21-18.68,22.16-.03.47.04.96.17,1.45-.12-.07-.22-.14-.34-.2-2.97-1.68-6.21-2.55-9.54-2.93,1.63-.08,3.24-.31,4.8-.81,3.84-1.25,7.32-4.69,7.11-8.72-.03-.71-.23-1.44-.59-2.04Zm-12.84-3.51c3.05-1.47,7.28-.06,10.84,2.14-.31-.07-.62-.11-.93-.14-3.8-.42-7.6-.46-11.41-.28.37-.68.83-1.29,1.5-1.72Zm-32.91,15.62c2.41-.64,4.94-.71,7.43-.77,6.6-.18,13.2-.35,19.79.02.07.01.14.01.21.02-1.37.06-2.73.17-4.06.3-6.95.62-13.88,1.25-20.82,1.95-3.09.31-6.19.64-9.28.99,2.27-.77,4.42-1.89,6.73-2.51Zm-23.81-9.03c.62-.01,1.24.01,1.87.01-2.32.34-4.62.81-6.87,1.43,1.17-1.43,3.17-1.44,5-1.44Zm3.49.02c2.81.08,5.62.32,8.42.64-6.44,1.74-12.74,4-18.8,6.79,2.61-3.44,6.28-6.05,10.38-7.43Zm-19.82,5.64c.06.04.13.09.19.14-.07.04-.14.08-.21.11.01-.08.02-.17.02-.25Zm-7.64,4.21c.23.12.46.23.7.34-.14.1-.28.2-.41.3-.17.03-.35.06-.52.09.07-.24.14-.49.23-.73Zm-.34,1.09h.01s0,.01-.01.01h0Zm-6.65-4.5c.73.34,1.5.7,2.28,1.09-.63.3-1.25.63-1.87.96-.17-.06-.34-.11-.51-.14.33-.54.37-1.31.1-1.91Zm-17.03,17.53c.06-.12.14-.24.21-.36,1.04,1.1,3.08.84,5.21.19-1.88.82-3.7,1.71-5.45,2.72-.47-.75-.35-1.73.03-2.55Zm-42.19,11.09c8.98.23,19.11,1.49,25.23,8.8l.13.16.05-.2c1.99-7.83,8.26-14.39,15.95-16.82-5.57,3.36-10.29,7.84-13.39,14.04-1.78,4.62-4.13,3.63-7.7,1.48-.76-.42-2.73-1.51-3.46-1.89-.82-.36-2.75-1.23-3.6-1.61-4.7-1.9-9.55-3.18-14.49-4.01.43.02.86.03,1.28.05Zm-9.19-.32c-2.21-.04-4.41-.11-6.6-.3,2.2.03,4.41.13,6.6.3Zm-18.12-2.8c2.04.86,4.14,1.46,6.27,1.89-3.33.1-6.64.31-9.94.61.54-.18,1.08-.32,1.65-.34-2.92-.77-4.86-3.48-6.28-6.13-1.14-2.1-2.11-4.28-2.91-6.52,2.81,4.46,6.41,8.16,11.21,10.49Zm-18.81,3.95c2.12-.76,4.4-1.05,6.64-.85.42.04.85.1,1.28.16-.11,0-.21.02-.31.03-2.85.45-5.89.82-9.02,1.22.47-.19.94-.38,1.41-.56Zm84.25,68.56c-7.46,4.49-16.54,6.2-25.12,4.8-3.44-.54-6.82-1.42-10.28-1.89-3.46-.48-6.96-.41-10.44-.53-14.04-.32-27.11-6.74-38.45-14.62-11.43-7.94-21.69-17.55-30.39-28.42-3.53-4.93-9.49-9.71-3.41-15.3,6.91-7.07,16.81-9.12,26.35-10.58.51-.07,1.02-.14,1.52-.23,1.11-.17,2.21-.33,3.3-.49,4.41-.62,8.87-1.22,13.35-1.7.55.01,1.09-.02,1.64-.13.11-.02.21-.05.32-.07,5.39-.54,10.8-.89,16.19-.87,3.28.38,6.61.45,9.93.49,5.19.52,10.35,1.46,15.41,3.01,4.04,1.33,8.16,3.1,11.84,5.26,3.89,2.45,6.82,3.25,8.8-1.8,8.56-16.99,29.62-20.7,46.59-24.18,13.68-2.59,27.5-4.3,41.35-5.74,6.93-.72,13.87-1.37,20.8-2.01,6.83-.69,14-.76,20.15,2.67.41.21.79.45,1.18.68,2.34,4.72,10.59,9.91,14.88,13.51,4.43,5.02,8.87,10.05,12.52,15.64,5.03,7.33,7.97,16.09,7.56,24.28-.48,2.95-1.02,5.89-1.9,8.71-1.98,4.85-5.55,9.16-11.06,12.4-2.95,1.82-6.12,3.25-9.37,4.47-4.42,1.58-8.92,2.94-13.47,4.08-.46.05-.91.09-1.37.16-2.68.34-5.31,1.03-7.93,1.69-.78.2-1.57.38-2.36.56-8.7,1.42-17.53,2-26.33,1.69-3.33-.23-6.65-.5-9.69-.71-.15-.02-.3-.03-.46-.05-8.82-.99-17.71-2.88-25.82-6.47-3.28-1.98-6.45-4.15-9.54-6.33-5.59-4.05-11.04-8.53-16.9-12.26-3.77-2.72-7.76-5.1-12.2-6.66-1.09-.34-2.41-.83-3.68-1.01-.76-.39-1.79-.39-2.8.14-1.31.63-1.83,2.27-1.24,3.58l.09-.03c-.29-.81-.19-1.76.33-2.44.97-1.17,2.31-1.33,3.69-1.12.44.26.76.68.89,1.23-1.34,1.73-2.03,3.7-2.31,5.79-.21.4-.4.82-.54,1.26-.64,3.78.52,7.49,1.66,11.16.27,1.49.78,4.29,1.51,8.36.11,1.21.25,2.41.4,3.61-.54,2.51-2.12,4.62-5.19,6.41Zm154.94-49.35c.96,1.71,1.83,3.44,1.59,5.3-.12.66-.23,1.33-.34,2-.16-2.47-.6-4.93-1.25-7.3Zm.56,12.29c-.2,2.23-.66,4.42-1.4,6.51.6-2.13,1.03-4.32,1.4-6.51Zm-35.95,28.57c-3.69.91-7.41,1.68-11.16,2.3.7-.17,1.41-.32,2.11-.5,2.62-.66,5.24-1.34,7.93-1.68.37-.06.74-.08,1.12-.12Zm-38.26,4.01c-2.78-.11-5.56-.31-8.33-.61,2.64.19,5.48.41,8.33.61Zm-13.84-.98c-3.28-.06-6.59.27-9.78-.52-3.35-1.15-6.54-2.69-9.63-4.43,1.03.42,2.08.81,3.14,1.15,5.33,1.68,10.77,2.93,16.27,3.8Zm-22.11-6.46c-4.37-1.98-8.51-4.45-12.27-7.57-4.05-3.1-7.97-6.53-12.09-9.62,5.24,3.49,10.2,7.5,15.26,11.16,2.96,2.07,5.98,4.14,9.1,6.03Zm-40.81-24.75c-.13-.47-.4-.86-.77-1.12,1.17.2,2.37.65,3.39.97,3.54,1.26,6.78,3.04,9.86,5.08-3.83-2.24-7.84-4.11-12.2-5.29-.1.12-.18.24-.28.36Zm-.16,1.62c-.38,1.4-1.26,2.55-1.97,3.8.31-1.9.96-3.68,2.1-5.22.07.41.05.89-.13,1.42Zm-1.1-2.93c-1.31-.13-2.55.1-3.46,1.22-.26.34-.41.75-.47,1.17.07-.89.56-1.73,1.41-2.15.89-.47,1.8-.52,2.52-.24Zm-.29,17.9s.24,1.32.28,1.58c-1.12-3.62-2.23-7.28-1.59-11.02.12-.39.29-.77.47-1.13-.43,3.48.23,7.23.84,10.57Zm1.92,10.69c.2,1.08.26,1.42.41,2.27,0,.09-.02.18-.04.27-.13-.84-.26-1.69-.37-2.54Zm.38,2.6c.02-.09.03-.18.04-.27.29,1.6.77,4.29.77,4.29,0,0,.38,2.03.96,5.11-.63-3.04-1.27-6.07-1.77-9.13Zm15.02,63.84c-1.99-2.31-3.06-5.03-3.74-7.91,1.17,3.28,2.72,6.36,4.84,9.04-.37-.37-.75-.74-1.1-1.13Zm34.86,23.56c-.42.21-.93.53-1.32.92l.02-.13c.09-.89.91-1.55,1.77-1.79.8-.25,1.66-.1,2.47.14-.98.12-1.97.37-2.94.86Zm8.72.45c-1.58-.18-3.07-.66-4.57-1.22,2.18.05,4.45.75,6.72,1.38-.71-.02-1.43-.07-2.15-.16Zm8.6.77c-1.28.11-2.56-.04-3.85-.29,2.95-.14,5.88-.61,8.83-.93-1.66.51-3.28,1.07-4.98,1.22Zm41.2,2.74c-4.25,1.48-8.68.49-12.87-.77,2.71.55,5.43.93,8.22.86,3.25-.14,6.45-.83,9.65-1.46-1.69.36-3.36.81-5,1.37Zm7.48-1.82c2.91-.5,5.83-.8,8.8-.42-2.94-.15-5.89-.02-8.8.42Zm-7.73,10.11c2.4-1.55,4.63-3.2,7.06-4.37-1.98,1.14-3.69,2.79-5.6,3.98-1.7,1.01-3.44,1.7-5.21,2.15,1.29-.45,2.55-1.02,3.75-1.76Zm-34.27.53c3.17-.94,6.31-.29,9.44.5-2.05-.21-4.1-.34-6.11-.29-3.17-.05-5.64.76-7.36,2.7.94-1.37,2.24-2.45,4.03-2.91Zm26.05,34.24c-3.3-.97-6.79-.29-10.14-.34-7.9-.49-14.25-6.34-18.18-12.88-1.17-1.89-2.18-3.95-3.33-5.84-.52-.96-1.08-1.97-1.15-2.92.04-2.4.92-3.17,1.6-5.3,1.3-4.35,4.09-5.9,8.5-5.87,10.81-.26,22.69,4.62,32.67-1.53,2.71-1.72,4.82-4.22,7.85-5.12,2.98-.95,6.21-.87,9.31-1.14l9.48-.61-9.44.41c-.91.06-1.81.09-2.72.12,3.95-.37,9.1-.86,12.71-1.2-.22.46-.79,1.64-1.61,3.33.36-.89.71-1.78,1.06-2.66-.52,1.24-1.05,2.48-1.58,3.73-3.29,6.78-9.42,19.36-12.92,26.56-5.04,7.53-12.56,13.76-22.11,11.26Zm27.64-21.53s.04-.09.06-.14c.03-.06.06-.13.09-.19.95-1.97,1.93-3.98,2.87-5.93-.25.57-.5,1.15-.75,1.72-.2.41-.48.98-.81,1.63-.11.21-.22.44-.34.68-.23.46-.48.96-.73,1.47-.13.25-.26.51-.39.76Zm305.25-97.5c-7.53,16.54-17.62,32.15-29.03,46.28-21.17,25.72-48.14,46.66-78.51,60.4-13.44,6.24-33.63,13-47.62,18.78-2.82-17.49-13.2-33.45-27.66-43.54-3.67-2.51-7.54-4.78-11.68-6.44-3.67-1.79-7.56-2.46-10.96-.42,1.24-1.67,2.47-3.34,3.69-5.03,7.65-10.68,14.87-21.65,22.07-32.63,9.33-14.49,19.54-30.32,18.96-48.23-.25,17.83-10.39,33.23-19.8,47.68-8.38,12.97-16.84,25.88-25.55,38.63-.38.27-.75.56-1.11.91-3,2.66-6.08,6.99-8.77,10.04l-8.5,10.22c-5.67,6.8-11.31,13.65-17.01,20.41-2.89,3.33-6.03,6.52-9.86,8.68-3.81,2.18-8.23,3.03-12.61,3.34-4.41.26-8.85.48-13.21-.17-4.37-.6-8.62-1.89-12.77-3.38-8.07-3.2-16.87-5.8-22.88-12.42.23-.46.98-2.03,2.07-4.28,1.44-2.12,2.69-4.35,3.74-6.56.94-1.97,3.45-7.25,4.34-9.16.9-2.21,1.82-4.43,2.74-6.65,2.67-5.52,4.69-9.7,4.69-9.7.33-.03.65-.06.95-.09-2.8-1.09-5.72-1.88-8.68-2.38-1.15-.27-2.3-.52-3.47-.71-7.65-1.63-15.1,1.75-22.65,2.09-4.21.12-8.28-.79-12.34-1.81-5.62-1.89-11.48-3.86-17.39-2.38-.02.01-.04.02-.06.02-4,.33-8,1.11-11.99,1.14-2.78-.68-5.57-1.64-8.32-1.55-.16-.06-.32-.11-.48-.18-1.63-.64-4.08-.42-4.75,1.42-1.01-2.6-2.08-5.2-3.6-7.57-2.21-3.69-5.12-5.3-8.31-6.23,7.11.15,13.69-2.34,19.12-7.65,3.34-3.06,6.76-6.22,8.97-10.23,1.89-3.38,2.78-8.51,6.76-9.85-1.62,1.5-2.61,3.02-2.26,4.35,1.21,4.64,14.18-3.28,15.83-4.27,1.31-.79,2.67-1.63,3.46-2.94.8-1.31.82-3.23-.37-4.19-1.12-.91-2.76-.63-4.14-.21-1.98.62-8.77,3.83-12.44,7.19-4.12,1.15-5.19,6.39-7.17,9.73-2.3,3.9-5.7,6.96-9.06,9.95-2.26,1.97-4.66,3.81-7.36,5.05-9.15,4.22-22.18,2.05-30.17-4.49-3.3-3.47-5.37-7.82-6.82-12.46-.43-2.28-.71-4.61-1.11-6.86-1.85-9.63-4.02-19.16-6.07-28.74-1.41-7.54-2.68-14.32-2.68-14.32,0,0-.39-2.1-.88-4.83.02-.3.03-.6.03-.9,0-.2-.01-.4-.02-.6v-.07c-.01-.16-.02-.32-.03-.49h0c0,.14.02.3.03.45.01.23.02.46.02.68,0,.29-.01.58-.03.86-.24-1.28-.49-2.69-.75-4.09v-.06s-.01-.03-.01-.05c-.09-.47-.17-.94-.26-1.41-.06-.34-.12-.68-.18-1.01s-.12-.66-.18-.97c-.04-.22-.08-.43-.12-.64-.07-.42-.14-.82-.21-1.19.22.71.42,1.41.6,2.1-.02-.1-.05-.21-.07-.31-.03-.11-.06-.21-.09-.31-.14-.53-.3-1.06-.46-1.58-.31-1.71-.52-2.87-.52-2.87-.69-3.45-1.3-7.42-.75-11,.72-1.29,1.66-2.49,2.06-3.93.18-.57.2-1.08.12-1.51.08-.12.16-.24.26-.36,4.97,1.35,9.49,3.59,13.79,6.27,4.96,3.5,9.54,7.62,14.33,11.31,4.46,3.54,9.35,6.55,14.62,8.72,3.24,1.84,6.58,3.47,10.09,4.67,3.3.81,6.7.43,10.07.52,7.68,1.19,15.47,1.63,23.25,1.37h.03c2.94-.1,5.88-.29,8.81-.58h.04s.1-.01.15-.02c7.48-.75,14.89-2.12,22.14-4.04,1.46-.05,2.92-.04,4.38-.05,2.41-.15,4.65-1.1,6.83-2.06-2.52,1.05-4.91,1.79-6.84,2.02-1.39.01-2.8,0-4.2.05,3.76-1.01,7.48-2.15,11.13-3.44,6.51-2.43,13-5.79,17.43-11.33.25-.31.47-.63.7-.95-.31.57-.64,1.12-1,1.67-2.74,3.85-9.34,8.37-15.52,11.23,2.2-.96,4.32-2.09,6.34-3.39,3.35-2.22,6.9-4.44,9.25-7.8.47-.71.89-1.44,1.28-2.18,3.34-4.86,4.58-10.73,4.29-16.6.14-.85.28-1.69.43-2.52.29-2.04-.77-3.91-1.81-5.76-.38-1.3-.81-2.57-1.31-3.8-.16-.4-.33-.78-.5-1.17.02-.81.25-1.63.81-2.47,6.46-8.65,13.52-16.88,20.95-24.72,14.88-15.65,31.66-29.61,44.64-47,3.79-5.05,7.22-10.51,10.05-16.22,1.35-2.08,2.6-4.22,3.65-6.47,2.46-5.31,3.74-11.07,5.34-16.69.72-2.53,1.53-5.03,2.39-7.52,5.43-13.73,12.67-26.67,20.45-39.21,2.45-3.49,4.92-6.96,7.26-10.52,2.76-4.19,5.31-8.51,7.74-12.9,1.05-1.62,2.1-3.23,3.15-4.85,2.32-3.54,4.53-7.16,7.15-10.46-3.41,5.32-5.65,11.51-7.74,17.38,2.61-6.99,5.46-14.5,10.27-20.31,6.82-7.43,17.91-10.21,27.49-7.3,2.83,1.07,5.51,2.55,7.85,4.37,8.27,6.14,12.49,15.38,14.6,25.22,1,4.96,1.5,10.02,1.81,15.09.03.63.06,1.25.08,1.87.4,16.39-.41,33.47-4.81,49.39-4.36,12.98-11.17,25.16-19.98,35.68.02.11.05.22.07.33-2.46,2.56-5,5.07-6.95,8.07-2.94,4.31-5.17,9.21-9.2,12.63-1.97,1.68-4.33,2.99-6.91,3.35-.23.04-.46.07-.7.09-.19,0-.38.02-.57.02-.32.01-.65,0-.98-.04-.02,0-.03-.01-.04,0-.42-.04-.83-.12-1.24-.22-.13-.04-.27-.07-.4-.11-.14-.04-.28-.09-.41-.13-.14-.05-.27-.1-.41-.15-.26-.11-.52-.22-.78-.35-.13-.07-.26-.13-.38-.2-.13-.07-.25-.14-.38-.22-.12-.07-.24-.15-.36-.23-.12-.08-.24-.16-.35-.24-.12-.09-.23-.17-.35-.27-.11-.08-.22-.18-.33-.27-.11-.09-.22-.19-.32-.29-.11-.1-.21-.2-.31-.3-.27-.26-.52-.55-.76-.85-.09-.12-.19-.24-.27-.36-.03-.04-.06-.08-.09-.12-.01-.02-.02-.03-.03-.05-.07-.09-.14-.2-.2-.3-.1-.15-.19-.3-.28-.46-.07-.12-.14-.25-.21-.38-.01-.02-.02-.03-.03-.05-.04-.09-.09-.18-.13-.28-.05-.09-.09-.19-.13-.29-.07-.15-.13-.3-.19-.46-.1-.26-.18-.52-.25-.8-.03-.1-.05-.2-.08-.3,0,.05.01.1.03.16.07.33.17.66.29.99.03.08.06.17.1.26.06.16.12.32.2.48.06.15.14.31.22.46.06.13.13.26.21.39.09.16.19.32.29.47h0c.1.16.2.31.31.45.07.1.14.2.22.3.46.6.99,1.15,1.58,1.63.12.1.24.2.36.29.36.28.74.53,1.13.75.13.08.26.15.4.22.14.07.27.14.41.2.13.07.27.13.41.18.11.05.22.1.34.14.31.11.63.21.95.29.29.08.59.14.89.18.29.05.58.08.87.1.59.03,1.18,0,1.78-.09,2.65-.33,5.08-1.63,7.11-3.31,4.14-3.38,6.47-8.3,9.42-12.61,1.88-2.84,4.28-5.24,6.65-7.67,3.33,16.5,8.85,32.88,15.19,48.57,4.93,11.91,11.15,23.71,20.69,32.61,6.33,5.92,13.67,10.57,20.87,15.3,7.22,4.72,14.48,9.38,22.06,13.5,7.58,4.15,15.49,7.76,23.8,10.2,6.37,2.11,12.54,2.5,19,3.56,7.02,2.47,2.32,11.62.1,16.23Zm-432.74-18.42s-.01-.07-.01-.11c0-.01,0-.02-.01-.03.01.08.02.17.02.25v-.11Zm-.06-.49s0,.1.02.15c0-.04-.01-.08-.01-.13,0-.01,0-.01,0-.02Zm-.04-.32v-.03s-.01-.01-.01-.01c.01.01.01.02.01.04Zm-.05-.28h.01s-.02-.1-.03-.16c.01.06.02.11.02.16Zm-.02-.16c.01.06.02.11.02.16h.01s-.02-.1-.03-.16Zm.06.4s.01.02.01.04v-.03s-.01-.01-.01-.01Zm.06.38s0-.01,0-.02c0,.05,0,.1.02.15,0-.04-.01-.08-.01-.13Zm.04.36s0-.02-.01-.03c.01.08.02.17.02.25v-.11s-.01-.07-.01-.11Zm0,0s0-.02-.01-.03c.01.08.02.17.02.25v-.11s-.01-.07-.01-.11Zm-.04-.36s0-.01,0-.02c0,.05,0,.1.02.15,0-.04-.01-.08-.01-.13Zm-.06-.38s.01.02.01.04v-.03s-.01-.01-.01-.01Zm-.06-.4c.01.06.02.11.02.16h.01s-.02-.1-.03-.16Zm0,0c.01.06.02.11.02.16h.01s-.02-.1-.03-.16Zm.06.4s.01.02.01.04v-.03s-.01-.01-.01-.01Zm.06.38s0-.01,0-.02c0,.05,0,.1.02.15,0-.04-.01-.08-.01-.13Zm.04.36s0-.02-.01-.03c.01.08.02.17.02.25v-.11s-.01-.07-.01-.11Zm0,0s0-.02-.01-.03c.01.08.02.17.02.25v-.11s-.01-.07-.01-.11Zm-.04-.36s0-.01,0-.02c0,.05,0,.1.02.15,0-.04-.01-.08-.01-.13Zm-.06-.38s.01.02.01.04v-.03s-.01-.01-.01-.01Zm-.06-.4c.01.06.02.11.02.16h.01s-.02-.1-.03-.16Zm0,0c.01.06.02.11.02.16h.01s-.02-.1-.03-.16Zm.06.4s.01.02.01.04v-.03s-.01-.01-.01-.01Zm.06.38s0-.01,0-.02c0,.05,0,.1.02.15,0-.04-.01-.08-.01-.13Zm.04.36s0-.02-.01-.03c.01.08.02.17.02.25v-.11s-.01-.07-.01-.11Zm0,0s0-.02-.01-.03c.01.08.02.17.02.25v-.11s-.01-.07-.01-.11Zm-.04-.36s0-.01,0-.02c0,.05,0,.1.02.15,0-.04-.01-.08-.01-.13Zm-.06-.38s.01.02.01.04v-.03s-.01-.01-.01-.01Zm-.06-.4c.01.06.02.11.02.16h.01s-.02-.1-.03-.16Z"/>
      <path class="cls-1" d="m423.8,838.65c-.52,1.24-1.05,2.48-1.58,3.73-3.29,6.78-9.42,19.36-12.92,26.56-5.04,7.53-12.56,13.76-22.11,11.26-3.3-.97-6.79-.29-10.14-.34-7.9-.49-14.25-6.34-18.18-12.88-1.17-1.89-2.18-3.95-3.33-5.84-.52-.96-1.08-1.97-1.15-2.92.04-2.4.92-3.17,1.6-5.3,1.3-4.35,4.09-5.9,8.5-5.87,10.81-.26,22.69,4.62,32.67-1.53,2.71-1.72,4.82-4.22,7.85-5.12,2.98-.95,6.21-.87,9.31-1.14l9.48-.61Z"/>
      <path d="m430.01,690.07c-3.65-5.59-8.09-10.62-12.52-15.64-4.29-3.6-12.54-8.79-14.88-13.51-.39-.23-.77-.47-1.18-.68-6.15-3.43-13.32-3.36-20.15-2.67-6.93.64-13.87,1.29-20.8,2.01-13.85,1.44-27.67,3.15-41.35,5.74-16.97,3.48-38.03,7.19-46.59,24.18-1.98,5.05-4.91,4.25-8.8,1.8-3.68-2.16-7.8-3.93-11.84-5.26-5.06-1.55-10.22-2.49-15.41-3.01-3.32-.04-6.65-.11-9.93-.49-5.39-.02-10.8.33-16.19.87-.11.02-.21.05-.32.07-.55.11-1.09.14-1.64.13-4.48.48-8.94,1.08-13.35,1.7-1.09.16-2.19.32-3.3.49-.5.09-1.01.16-1.52.23-9.54,1.46-19.44,3.51-26.35,10.58-6.08,5.59-.12,10.37,3.41,15.3,8.7,10.87,18.96,20.48,30.39,28.42,11.34,7.88,24.41,14.3,38.45,14.62,3.48.12,6.98.05,10.44.53,3.46.47,6.84,1.35,10.28,1.89,8.58,1.4,17.66-.31,25.12-4.8,3.07-1.79,4.65-3.9,5.19-6.41-.15-1.2-.29-2.4-.4-3.61-.73-4.07-1.24-6.87-1.51-8.36-1.14-3.67-2.3-7.38-1.66-11.16.14-.44.33-.86.54-1.26.28-2.09.97-4.06,2.31-5.79-.13-.55-.45-.97-.89-1.23-1.38-.21-2.72-.05-3.69,1.12-.52.68-.62,1.63-.33,2.44l-.09.03c-.59-1.31-.07-2.95,1.24-3.58,1.01-.53,2.04-.53,2.8-.14,1.27.18,2.59.67,3.68,1.01,4.44,1.56,8.43,3.94,12.2,6.66,5.86,3.73,11.31,8.21,16.9,12.26,3.09,2.18,6.26,4.35,9.54,6.33,8.11,3.59,17,5.48,25.82,6.47.16.02.31.03.46.05,3.04.21,6.36.48,9.69.71,8.8.31,17.63-.27,26.33-1.69.79-.18,1.58-.36,2.36-.56,2.62-.66,5.25-1.35,7.93-1.69.46-.07.91-.11,1.37-.16,4.55-1.14,9.05-2.5,13.47-4.08,3.25-1.22,6.42-2.65,9.37-4.47,5.51-3.24,9.08-7.55,11.06-12.4.88-2.82,1.42-5.76,1.9-8.71.41-8.19-2.53-16.95-7.56-24.28Zm-157.49,57.74l.23-.95s-.1.09-.15.13c-1.57,1.15-3.59,1.41-5.52,1.63-8.51.99-17.07,1.98-25.62,1.5-8.56-.49-17.19-2.54-24.38-7.19-3.29-2.13-6.22-4.77-9.14-7.39-5.79-5.21-11.58-10.42-17.38-15.63-3.37-3.04-6.85-6.2-8.69-10.35-.45-1.02-.79-2.24-.27-3.22.33-.64.96-1.05,1.58-1.42,3.87-2.28,8.32-3.58,12.81-3.76,3.6-.14,7.19.44,10.79.57,9.53.34,19.06-2.43,28.52-1.25,12.04,1.49,22.47,9.21,30.63,18.18,3.66,4.02,7.05,8.46,8.69,13.64,1.63,5.17,1.25,11.24-2.1,15.51Zm136.19-19.01c-.57.72-1.42,1.16-2.25,1.56-12.38,5.87-26.42,6.93-40.08,7.9-3.76.27-7.53.54-11.28.21-6.42-.55-12.55-2.82-18.58-5.11-13.03-4.94-26.14-10.22-37.1-19.03-8.14-6.55-22.44-16.57-9.2-25.59,8.85-6.02,19.12-9.92,29.73-11.28,6.57-.84,13.25-.73,19.77-1.89,3.43-.61,6.81-1.58,10.28-1.78,3.3-.2,6.6.3,9.87.79,6.48.97,13.11,2,18.82,5.2,6.19,3.46,10.77,9.17,15,14.87,6.58,8.86,12.84,18.3,15.43,29.03.42,1.72.69,3.72-.41,5.12Z"/>
      <path class="cls-6" d="m272.52,747.81l.23-.95s-.1.09-.15.13c-1.57,1.15-3.59,1.41-5.52,1.63-8.51.99-17.07,1.98-25.62,1.5-8.56-.49-17.19-2.54-24.38-7.19-3.29-2.13-6.22-4.77-9.14-7.39-5.79-5.21-11.58-10.42-17.38-15.63-3.37-3.04-6.85-6.2-8.69-10.35-.45-1.02-.79-2.24-.27-3.22.33-.64.96-1.05,1.58-1.42,3.87-2.28,8.32-3.58,12.81-3.76,3.6-.14,7.19.44,10.79.57,9.53.34,19.06-2.43,28.52-1.25,12.04,1.49,22.47,9.21,30.63,18.18,3.66,4.02,7.05,8.46,8.69,13.64,1.63,5.17,1.25,11.24-2.1,15.51Z"/>
      <path class="cls-6" d="m408.71,728.8c-.57.72-1.42,1.16-2.25,1.56-12.38,5.87-26.42,6.93-40.08,7.9-3.76.27-7.53.54-11.28.21-6.42-.55-12.55-2.82-18.58-5.11-13.03-4.94-26.14-10.22-37.1-19.03-8.14-6.55-22.44-16.57-9.2-25.59,8.85-6.02,19.12-9.92,29.73-11.28,6.57-.84,13.25-.73,19.77-1.89,3.43-.61,6.81-1.58,10.28-1.78,3.3-.2,6.6.3,9.87.79,6.48.97,13.11,2,18.82,5.2,6.19,3.46,10.77,9.17,15,14.87,6.58,8.86,12.84,18.3,15.43,29.03.42,1.72.69,3.72-.41,5.12Z"/>
      <path class="cls-5" d="m372.98,748.53c.32,0,.64,0,.96,0"/>
      <path d="m416.19,741.4c-.28.13-.57.25-.86.38.56-.23,1.13-.48,1.7-.75-.28.12-.56.25-.84.37Z"/>
      <path d="m376.5,748.5c-.82.03-1.68.04-2.56.04.88,0,1.74,0,2.56-.04Z"/>
    </g>
    <path d="m497.55,561.63l3.9-4.38c1.17-1.31,2.35-2.64,3.15-4.21.44-.85.75-1.76,1.07-2.66.42-1.21.85-2.42,1.27-3.64.22-.64.26-1.63-.42-1.72-.24-.03-.47.09-.68.21-3,1.79-4.61,5.2-7.23,7.5-.7.62-1.5,1.19-1.9,2.03-.67,1.4,0,3.11,1.03,4.27.24.27.51.53.85.66.93.36,2.05-.66,1.79-1.62l-2.84,3.54Z"/>
    <path d="m571.67,494.34c3.06-2.98,6.92-5.03,10.91-6.56.73-.28,1.47-.54,2.24-.67.92-.15,1.86-.11,2.79-.07,2.57.12,5.13.24,7.7.36.58-1.08-.07-2.5-1.1-3.17s-2.31-.78-3.54-.84c-3.22-.15-6.47-.07-9.65.45-5.19.85-10.11,2.85-15.23,4.05-1.78.42-3.6.75-5.23,1.57-1.55.78-2.86,1.97-4.06,3.23-1.68,1.75-3.23,3.68-4.18,5.92s-1.26,4.82-.46,7.11c.21.6.5,1.18.93,1.64.44.47,1,.8,1.59,1.07,1.58.72,3.67,1.48,5.22.5,1.69-1.08,3.08-2.95,4.29-4.51,2.59-3.35,4.73-7.08,7.79-10.06Z"/>
  </g>
</svg>