<?xml version="1.0" encoding="UTF-8"?>
<svg xmlns="http://www.w3.org/2000/svg" viewBox="0 0 845.96 1191.98">
  <defs>
    <style>
      .cls-1 {
        fill: #e8f908;
      }

      .cls-1, .cls-2, .cls-3, .cls-4, .cls-5, .cls-6, .cls-7, .cls-8, .cls-9 {
        stroke: #000;
        stroke-miterlimit: 10;
      }

      .cls-10, .cls-6 {
        fill: #fff;
      }

      .cls-2, .cls-11 {
        fill: none;
      }

      .cls-12 {
        fill: #d64c4c;
      }

      .cls-4 {
        fill: #00ff73;
      }

      .cls-13 {
        fill: #c48e5f;
      }

      .cls-14 {
        fill: #dc9e6b;
      }

      .cls-5 {
        fill: #d62e79;
        opacity: .5;
      }

      .cls-7 {
        fill: #374ad3;
      }

      .cls-8 {
        fill: #536cea;
      }

      .cls-9 {
        fill: #052d1e;
      }

      .cls-15 {
        fill: #b28359;
      }
    </style>
  </defs>
  <g id="Layer_6" data-name="Layer 6">
    <rect class="cls-9" x="3.46" y=".5" width="842" height="1190"/>
    <g>
      <path class="cls-5" d="m574.93,111.48c-.09,2.16-.58,4.07-1.62,5.99-1.41,2.62-3.48,4.51-6.47,6.1-.01,0-.03,0-.04,0-.64.35-1.32.67-2.04.99-.01,0-.02,0-.02,0-4.08,1.78-9.52,3.28-16.78,5.28-6,1.65-10.7,2.95-14.53,3.63-5.06.91-8.6.76-11.6-1.02-5.2-3.09-6.97-10.55-10.29-25.34-3.61-16.06-5.42-24.1-2.22-28.85,1.29-1.9,3.07-3.45,33.02-11.08,8.6-2.2,9.96-2.45,12.14-1.87,11.41,3.03,15.63,21.07,18.03,31.34,1.53,6.55,2.58,11.05,2.42,14.81Z"/>
      <path class="cls-5" d="m545.79,119.92c10.32-2.84,15.47-4.26,17.87-8.74,1.99-3.71,1.13-7.39-.57-14.66-1.69-7.24-4.66-19.96-12.71-22.1-1.53-.41-2.49-.23-8.56,1.32-21.11,5.38-22.37,6.47-23.27,7.81-2.26,3.35-.99,9.01,1.56,20.34,2.34,10.42,3.59,15.68,7.25,17.86,3.72,2.21,8.62.86,18.42-1.84Z"/>
      <path class="cls-5" d="m544.28,114.56c8.27-2.26,12.4-3.39,14.37-6.76,1.64-2.8,1-5.55-.27-10.96-1.26-5.4-3.47-14.88-9.86-16.38-1.22-.29-1.99-.14-6.84,1.09-16.91,4.29-17.93,5.13-18.66,6.14-1.84,2.54-.9,6.76.99,15.2,1.74,7.77,2.67,11.69,5.56,13.27,2.94,1.61,6.86.54,14.72-1.61Z"/>
      <circle class="cls-2" cx="540.57" cy="99.1" r="11.99"/>
      <circle class="cls-2" cx="540.88" cy="99.29" r="7.14"/>
      <circle class="cls-2" cx="549.78" cy="86.13" r="3.06"/>
    </g>
    <g>
      <path class="cls-7" d="m651.15,89.65c-2.4-10.27-6.61-28.32-18.03-31.34-2.17-.58-3.53-.33-12.14,1.87-29.95,7.63-31.73,9.18-33.01,11.08-3.2,4.76-1.4,12.78,2.21,28.85,3.33,14.79,5.1,22.25,10.29,25.34,5.27,3.14,12.22,1.22,26.13-2.62,14.63-4.03,21.96-6.04,25.36-12.38,2.82-5.27,1.6-10.49-.81-20.8Zm-26.62,5.58c1.49,4.68,2.58,9.47,3.27,14.32.45,3.17.96,3.84-1.82,5.14-1.04.48-2.87,1.46-4.04,1.43-3.68-.11-3.38-5.39-4.04-8.29-.27-1.15-3.22-13.63-3.47-13.63-1.75.39-3.51.78-5.27,1.16-.01-2.13-.43-4.27-1.21-6.26,1.33-1.63,3.52-2.54,5.62-2.31-1.98-3.73-1.68-8.56.73-12.02,2.41-3.46,6.84-5.4,11.02-4.84.37,1.91.75,3.82,1.12,5.73-2.19-.59-4.44,1.25-5.13,3.41-.7,2.16-.26,4.51.18,6.73,2.5-.03,4.99-.57,7.28-1.57.34,2.43.68,4.87,1.02,7.3l-3.57.93c-.72.19-1.54.46-1.82,1.15-.21.52-.03,1.09.13,1.62Z"/>
      <path class="cls-6" d="m627.8,109.55c.45,3.17.96,3.84-1.82,5.14-1.04.48-2.87,1.46-4.04,1.43-3.68-.11-3.38-5.39-4.04-8.29-.27-1.15-3.22-13.63-3.47-13.63-1.75.39-3.51.78-5.27,1.16-.01-2.13-.43-4.27-1.21-6.26,1.33-1.63,3.52-2.54,5.62-2.31-1.98-3.73-1.68-8.56.73-12.02,2.41-3.46,6.84-5.4,11.02-4.84.37,1.91.75,3.82,1.12,5.73-2.19-.59-4.44,1.25-5.13,3.41-.7,2.16-.26,4.51.18,6.73,2.5-.03,4.99-.57,7.28-1.57.34,2.43.68,4.87,1.02,7.3l-3.57.93c-.72.19-1.54.46-1.82,1.15-.21.52-.03,1.09.13,1.62,1.49,4.68,2.58,9.47,3.27,14.32Z"/>
    </g>
    <g>
      <path class="cls-8" d="m554.59,274.9c-.37-1.75-.83-3.68-1.33-5.83-.69-2.97-1.54-6.58-2.67-10.3-.66-2.19-1.43-4.42-2.32-6.57-2.81-6.81-6.87-12.83-13.04-14.47-1.33-.35-2.36-.39-4.92.13-1.62.33-3.87.89-7.22,1.74-1.34.34-2.62.67-3.84.98-4.06,1.05-7.53,1.98-10.5,2.79-2.36.65-4.4,1.23-6.18,1.75-10.49,3.11-11.62,4.25-12.5,5.56-.59.88-1.01,1.87-1.29,3.01-.33,1.43-.43,3.09-.33,5.03.15,3.07.81,6.87,1.8,11.62.58,2.73,1.26,5.78,2.03,9.19,3.33,14.79,5.1,22.25,10.29,25.34,5.28,3.13,12.23,1.23,26.14-2.61,14.63-4.03,21.95-6.05,25.35-12.39,2.24-4.17,1.94-8.31.53-14.97Zm-16.36-4.7s-.01.05-.01.08c-.08.44-.16.88-.25,1.32-.04.22-.09.44-.14.65-.08.38-.17.75-.27,1.12-.03.15-.07.29-.11.44-.1.35-.2.7-.31,1.05-.09.29-.18.57-.28.85-.17.52-.36,1.03-.56,1.54-.3.77-.64,1.52-1,2.26-.06.11-.11.22-.17.33-.17.33-.34.66-.52.98-.35.64-.74,1.27-1.15,1.88-.18.28-.38.55-.57.82-1.05,1.44-2.24,2.75-3.58,3.88-.44.37-.89.72-1.36,1.05-.04.04-.08.07-.13.09-.18.13-.36.26-.55.37-.05.04-.1.07-.16.1-.19.13-.4.25-.6.37-1,.57-2.05,1.05-3.16,1.43-3.93,1.34-13.53,2.63-17.02-.02,2.06-2.85,6.29-3.09,8.16-6.6-1.67-.22-3.3-.61-4.75-1.54-.4-.27-3.12-3.32-3.12-3.42,1.24-.16,2.49-.32,3.73-.47-4.07-.58-7.71-3.54-9.11-7.41,1.83.75,3.89.97,5.84.62-.16-.02-.32-.04-.47-.08-.03,0-.06-.01-.09-.02-.07-.01-.14-.02-.21-.04-.2-.05-.39-.11-.58-.18-.18-.06-.36-.13-.54-.21-.1-.04-.18-.09-.28-.13-1.66-.82-3-2.3-3.77-4.01-.03-.06-.05-.11-.07-.17-.06-.14-.12-.28-.17-.42-.15-.4-.26-.81-.34-1.23-.05-.2-.08-.41-.1-.62-.13-1.11-.01-2.23.41-3.29.71.31,1.43.61,2.15.88.36.14.73.27,1.09.4.36.13.73.25,1.1.37.31.11.61.2.91.29.02,0,.04,0,.06.02.2.05.41.11.62.17.21.07.42.13.64.18.19.06.38.1.56.15.19.05.38.1.57.14.37.09.75.18,1.13.26.4.09.81.17,1.21.24.35.07.71.13,1.07.19.35.06.71.11,1.07.16.36.05.72.1,1.08.14,1.43.17,2.88.27,4.33.3.56.01,1.13.02,1.7.01-1.82-3.48-1.08-8.11,1.74-10.86,2.82-2.73,7.47-3.35,10.9-1.44.11-.15.23-.3.36-.45.08-.1.17-.2.27-.29.02-.03.04-.06.07-.08.02-.03.05-.06.1-.09.09-.1.17-.18.27-.26.12-.12.24-.22.36-.32.15-.12.3-.24.46-.34.18-.14.37-.26.57-.37.11-.07.23-.13.34-.19.53-.28,1.1-.5,1.68-.65-.22,2.04-.9,4.05-1.96,5.81,1.64-1.43,3.85-2.21,6.03-2.14-1.39,1.47-2.77,2.93-4.15,4.39,1.58,3.15,1.64,6.83,1.26,10.32-.01.08-.02.15-.03.23-.05.48-.12.97-.2,1.46Z"/>
      <path class="cls-2" d="m508.57,264.17c.37.09.75.18,1.13.26-2.38.99-5.21,1.9-8.56,2.87-.03-.06-.05-.11-.07-.17-.06-.14-.12-.28-.17-.42-.15-.4-.26-.81-.34-1.23-.05-.2-.08-.41-.1-.62-.13-1.11-.01-2.23.41-3.29.71.31,1.43.61,2.15.88.36.14.73.27,1.09.4.36.13.73.25,1.1.37.3.1.6.19.91.29.02,0,.04,0,.06.02.2.06.41.12.62.17.21.07.42.13.64.18.18.05.37.1.56.15s.38.1.57.14Z"/>
      <path class="cls-2" d="m527.95,288.45c.47-.33.92-.68,1.36-1.05-.43.37-.89.73-1.36,1.05Z"/>
      <path class="cls-2" d="m537.2,258.19c1.58,3.15,1.64,6.83,1.26,10.32-.01.08-.02.15-.03.23-1.87-3.64-3.23-8.94-4.93-16.39.02-.03.05-.06.1-.09.09-.1.17-.18.27-.26.12-.12.24-.22.36-.32.15-.12.3-.24.46-.34.18-.14.37-.26.57-.37.11-.07.23-.13.34-.19.53-.28,1.1-.5,1.68-.65-.22,2.04-.9,4.05-1.96,5.81,1.64-1.43,3.85-2.21,6.03-2.14-1.39,1.47-2.77,2.93-4.15,4.39Z"/>
      <path class="cls-6" d="m538.43,268.74c-.05.48-.12.97-.2,1.46,0,.03-.01.05-.01.08-.08.44-.16.88-.25,1.32-.04.22-.09.44-.14.65-.08.38-.17.75-.27,1.12-.03.15-.07.29-.11.44-.1.35-.2.7-.31,1.05-.09.29-.18.57-.28.85-.17.52-.36,1.03-.56,1.54-.3.77-.64,1.52-1,2.26-.06.11-.11.22-.17.33-.17.33-.34.66-.52.98-.35.64-.74,1.27-1.15,1.88-.18.28-.38.55-.57.82-1.05,1.44-2.24,2.75-3.58,3.88-.44.37-.89.72-1.36,1.05-.04.04-.08.07-.13.09-.18.13-.36.26-.55.37-.05.04-.1.07-.16.1-.19.13-.4.25-.6.37-1,.57-2.05,1.05-3.16,1.43-3.93,1.34-13.53,2.63-17.02-.02,2.06-2.85,6.29-3.09,8.16-6.6-1.67-.22-3.3-.61-4.75-1.54-.4-.27-3.12-3.32-3.12-3.42,1.24-.16,2.49-.32,3.73-.47-4.07-.58-7.71-3.54-9.11-7.41,1.83.75,3.89.97,5.84.62-.16-.02-.31-.04-.47-.08-.03,0-.06-.01-.09-.02-.07-.01-.14-.02-.21-.04-.2-.05-.39-.11-.58-.18-.18-.06-.36-.13-.54-.21-.1-.04-.18-.09-.28-.13-1.66-.82-3-2.3-3.77-4.01,3.35-.97,6.18-1.88,8.56-2.87.4.09.8.17,1.21.24.36.07.71.14,1.07.19.36.06.71.12,1.07.16.36.06.72.11,1.08.14,1.44.18,2.88.28,4.33.3.57.02,1.13.02,1.7.01-1.82-3.48-1.08-8.11,1.74-10.86,2.82-2.73,7.47-3.35,10.9-1.44.11-.15.23-.3.36-.45.08-.1.17-.2.27-.29.02-.03.04-.06.07-.08,1.7,7.45,3.06,12.75,4.93,16.39Z"/>
      <path class="cls-2" d="m508.57,264.17c.37.09.75.18,1.13.26-2.38.99-5.21,1.9-8.56,2.87-.03-.06-.05-.11-.07-.17-.06-.14-.12-.28-.17-.42-.15-.4-.26-.81-.34-1.23-.05-.2-.08-.41-.1-.62-.13-1.11-.01-2.23.41-3.29.71.31,1.43.61,2.15.88.36.14.73.27,1.09.4.36.13.73.25,1.1.37.3.1.6.19.91.29.02,0,.04,0,.06.02.2.06.41.12.62.17.21.07.42.13.64.18.18.05.37.1.56.15s.38.1.57.14Z"/>
      <path class="cls-2" d="m527.95,288.45c.47-.33.92-.68,1.36-1.05-.43.37-.89.73-1.36,1.05Z"/>
      <path class="cls-2" d="m537.2,258.19c1.58,3.15,1.64,6.83,1.26,10.32-.01.08-.02.15-.03.23-1.87-3.64-3.23-8.94-4.93-16.39.02-.03.05-.06.1-.09.09-.1.17-.18.27-.26.12-.12.24-.22.36-.32.15-.12.3-.24.46-.34.18-.14.37-.26.57-.37.11-.07.23-.13.34-.19.53-.28,1.1-.5,1.68-.65-.22,2.04-.9,4.05-1.96,5.81,1.64-1.43,3.85-2.21,6.03-2.14-1.39,1.47-2.77,2.93-4.15,4.39Z"/>
    </g>
    <g>
      <path class="cls-3" d="m645.55,278.83c-2.41-10.27-6.62-28.31-18.04-31.34-2.17-.58-3.53-.33-12.14,1.87-8.61,2.19-14.89,3.88-19.5,5.22-11.43,3.33-12.6,4.51-13.51,5.86-1.27,1.88-1.75,4.26-1.65,7.46.15,4.89,1.68,11.67,3.86,21.39,3.33,14.79,5.1,22.24,10.29,25.34,5.27,3.13,12.23,1.22,26.13-2.61,14.64-4.03,21.95-6.05,25.36-12.4,2.83-5.26,1.6-10.48-.8-20.79Zm-24.34-8c1.58,5.47,3.17,10.97,3.89,16.62.44,3.5.48,7.32-1.5,10.24-.86,1.24-2.03,2.24-3.3,3.05-6.45,4.15-16.18,2.83-20.49-3.52-2.54-3.72-3-8.78-1.17-12.9,1.55-3.5,13.28-12.47,11.99-3.59-.36,2.46-3.29,3.4-4.46,5.42-1.6,2.74-.77,6.19,1.45,8.35,2.7,2.63,7.77,2.88,9.97-.2,1.65-2.31,1.23-5.44.74-8.24-1.46-8.32-2.92-16.66-4.38-24.98,4.18,3.7,10.17,5.26,15.62,4.06.31,2.14.88,4.24,1.7,6.24-3.35.36-6.77.18-10.06-.55Z"/>
      <path class="cls-6" d="m621.21,270.83c1.58,5.47,3.17,10.97,3.89,16.62.44,3.5.48,7.32-1.5,10.24-.86,1.24-2.03,2.24-3.3,3.05-6.45,4.15-16.18,2.83-20.49-3.52-2.54-3.72-3-8.78-1.17-12.9,1.55-3.5,13.28-12.47,11.99-3.59-.36,2.46-3.29,3.4-4.46,5.42-1.6,2.74-.77,6.19,1.45,8.35,2.7,2.63,7.77,2.88,9.97-.2,1.65-2.31,1.23-5.44.74-8.24-1.46-8.32-2.92-16.66-4.38-24.98,4.18,3.7,10.17,5.26,15.62,4.06.31,2.14.88,4.24,1.7,6.24-3.35.36-6.77.18-10.06-.55Z"/>
    </g>
    <g>
      <path class="cls-1" d="m646.61,185.09c-2.4-10.27-6.61-28.32-18.03-31.34-2.18-.58-3.53-.33-12.14,1.87-6.7,1.71-11.99,3.11-16.17,4.28-14.55,4.06-15.85,5.32-16.84,6.8-1.18,1.76-1.68,3.95-1.67,6.84.04,4.93,1.61,11.86,3.88,22.01,3.32,14.79,5.09,22.25,10.29,25.34,5.27,3.14,12.22,1.22,26.13-2.61,14.63-4.04,21.95-6.05,25.35-12.39,2.83-5.27,1.61-10.49-.8-20.8Zm-13.35,15.17c-5.35,4.05-11.41,8.3-18.09,7.61-2.3-.25-4.65-1.09-6.88-.44-2.92.83-2.32,0-4.35-1.44-1.49-1.04-3.03-.81-4.6-1.52-3.4-1.56-1.8-2.54.36-4.01,1.77-1.21,6.05-5.17,4.81-7.72-.85-1.73-7.25-.95-5.04-4.86.77-1.35,3.12-1.39,3.8,0,.17-2.63-.16-5.28.02-7.92.16-2.63.94-5.38,2.89-7.16,1.72-1.56,4.08-2.15,6.33-2.69,1.09-.26,2.23-.52,3.32-.25.91.23,1.7.81,2.41,1.42,3.26,2.78,5.7,6.51,6.94,10.61,1.49-1.31,4.09-1.05,5.28.54-2.26-.18-3.81,2.64-3.19,4.82.61,2.18,2.59,3.67,4.56,4.78,1.98,1.12,4.13,2.07,5.57,3.82-2.1.73-4.66,2.25-4.14,4.41Z"/>
      <path class="cls-6" d="m633.26,200.26c-5.35,4.05-11.41,8.3-18.09,7.61-2.3-.25-4.65-1.09-6.88-.44-2.92.83-2.32,0-4.35-1.44-1.49-1.04-3.03-.81-4.6-1.52-3.4-1.56-1.8-2.54.36-4.01,1.77-1.21,6.05-5.17,4.81-7.72-.85-1.73-7.25-.95-5.04-4.86.77-1.35,3.12-1.39,3.8,0,.17-2.63-.16-5.28.02-7.92.16-2.63.94-5.38,2.89-7.16,1.72-1.56,4.08-2.15,6.33-2.69,1.09-.26,2.23-.52,3.32-.25.91.23,1.7.81,2.41,1.42,3.26,2.78,5.7,6.51,6.94,10.61,1.49-1.31,4.09-1.05,5.28.54-2.26-.18-3.81,2.64-3.19,4.82.61,2.18,2.59,3.67,4.56,4.78,1.98,1.12,4.13,2.07,5.57,3.82-2.1.73-4.66,2.25-4.14,4.41Z"/>
    </g>
    <g>
      <path class="cls-4" d="m571.24,183.2c-.44-1.89-.94-4.03-1.54-6.3-.72-2.74-1.57-5.66-2.63-8.5t-.01,0c-.48-1.33-1.01-2.62-1.59-3.88-2.77-6.04-6.65-11.16-12.25-12.65-2.19-.58-3.54-.32-12.15,1.86-1.23.31-2.41.62-3.54.91-6.86,1.77-12.06,3.19-16.02,4.34-5.15,1.5-8.21,2.57-10.1,3.4h-.01c-2.27,1.02-2.84,1.7-3.34,2.44-.65.96-1.09,2.05-1.35,3.32h0c-.58,2.77-.32,6.34.53,11.14h0c.68,3.92,1.74,8.64,3.03,14.39,3.32,14.79,5.09,22.24,10.29,25.33,2.56,1.53,5.52,1.86,9.48,1.36,4.18-.52,9.5-1.99,16.65-3.96,11.98-3.3,19.05-5.25,23.09-9.33.9-.91,1.64-1.92,2.26-3.07,2.83-5.26,1.61-10.48-.8-20.79Zm-46.04,27.03c-1.66-1.48,2.42-9.64,1.05-10.43-1.89-1.1-3.2-3.02-4.1-5.02-3.04-6.71-2.14-15.04,2.28-20.93,3.67-4.91,9.64-7.96,15.75-8.25,1.23-.07,2.47-.01,3.69.16,4.34.61,8.5,2.67,11.42,5.94,1.97,2.21,3.33,4.88,4.41,7.65h.01c.27.7.53,1.4.77,2.11,1,2.94,1.83,6.06,1.24,9.11-.33,1.74-1.12,3.36-2.08,4.85-4.17,6.49-11.89,10.54-19.6,10.3-2.02-.07-4.06-.4-6.02.1-1.76.46-7.54,5.53-8.82,4.41Z"/>
      <path class="cls-2" d="m552.8,189.1c-2.17,5.05-6.56,5.55-11.66,4.88-4.42-.58-8.05-3.87-10.53-7.56-1.15-1.7-2.16-3.76-1.6-5.74.31-1.11,1.1-2.05,2.01-2.76.56-.44,1.23-.82,1.95-.8,1.07.04,1.89.94,2.56,1.76.95,1.15,1.95,2.75,1.15,4.02-.22.37-.58.65-.74,1.05-.38.92.41,1.87,1.17,2.5,2.13,1.74,4.62,3.03,7.26,3.78.58-.32.1-1.21.21-1.86.16-.92,1.39-1.08,2.32-1.02,2.09.14,4.36.34,5.91,1.76Z"/>
      <path class="cls-2" d="m555.29,171.7c-2.92-3.27-7.08-5.33-11.42-5.94-1.22-.17-2.46-.23-3.69-.16.43,1.52.85,2.89,1.3,4.14.5.01,1,.06,1.5.13,3.35.47,6.57,2.07,8.83,4.59,1.43,1.6,2.44,3.52,3.25,5.52,1.4-.08,2.94-.3,4.64-.63-1.08-2.77-2.44-5.44-4.41-7.65Z"/>
      <path class="cls-2" d="m552.8,189.1c-2.17,5.05-6.56,5.55-11.66,4.88-4.42-.58-8.05-3.87-10.53-7.56-1.15-1.7-2.16-3.76-1.6-5.74.31-1.11,1.1-2.05,2.01-2.76.56-.44,1.23-.82,1.95-.8,1.07.04,1.89.94,2.56,1.76.95,1.15,1.95,2.75,1.15,4.02-.22.37-.58.65-.74,1.05-.38.92.41,1.87,1.17,2.5,2.13,1.74,4.62,3.03,7.26,3.78.58-.32.1-1.21.21-1.86.16-.92,1.39-1.08,2.32-1.02,2.09.14,4.36.34,5.91,1.76Z"/>
      <path class="cls-2" d="m555.29,171.7c-2.92-3.27-7.08-5.33-11.42-5.94-1.22-.17-2.46-.23-3.69-.16.43,1.52.85,2.89,1.3,4.14.5.01,1,.06,1.5.13,3.35.47,6.57,2.07,8.83,4.59,1.43,1.6,2.44,3.52,3.25,5.52,1.4-.08,2.94-.3,4.64-.63-1.08-2.77-2.44-5.44-4.41-7.65Z"/>
      <path class="cls-6" d="m561.72,190.57c-.33,1.74-1.12,3.36-2.08,4.85-4.17,6.49-11.89,10.54-19.6,10.3-2.02-.07-4.06-.4-6.02.1-1.76.46-7.54,5.53-8.82,4.41-1.66-1.48,2.42-9.64,1.05-10.43-1.89-1.1-3.2-3.02-4.1-5.02-3.04-6.71-2.14-15.04,2.28-20.93,3.67-4.91,9.64-7.96,15.75-8.25.43,1.52.85,2.89,1.3,4.14-5.17-.21-10.41,2.22-13.52,6.38-3.41,4.55-4.11,10.99-1.77,16.17.71,1.55,1.71,3.03,3.18,3.88,1.05.61-2.1,6.92-.81,8.06.98.87,5.45-3.05,6.81-3.4,1.51-.4,3.1-.14,4.65-.09,5.96.19,11.92-2.94,15.15-7.96.74-1.15,1.34-2.4,1.6-3.74.46-2.35-.18-4.78-.96-7.04-.23-.68-.48-1.35-.75-2.02,1.4-.08,2.94-.3,4.64-.63h.01c.27.7.53,1.4.77,2.11,1,2.94,1.83,6.06,1.24,9.11Z"/>
      <path class="cls-4" d="m555.81,182c-.23-.68-.48-1.35-.75-2.02-.81-2-1.82-3.92-3.25-5.52-2.26-2.52-5.48-4.12-8.83-4.59-.5-.07-1-.12-1.5-.13-5.17-.21-10.41,2.22-13.52,6.38-3.41,4.55-4.11,10.99-1.77,16.17.71,1.55,1.71,3.03,3.18,3.88,1.05.61-2.1,6.92-.81,8.06.98.87,5.45-3.05,6.81-3.4,1.51-.4,3.1-.14,4.65-.09,5.96.19,11.92-2.94,15.15-7.96.74-1.15,1.34-2.4,1.6-3.74.46-2.35-.18-4.78-.96-7.04Zm-14.68,11.99c-4.41-.58-8.04-3.87-10.53-7.56-1.15-1.7-2.16-3.76-1.6-5.75.31-1.11,1.1-2.05,2.01-2.76.56-.44,1.23-.82,1.95-.8,1.07.04,1.88.94,2.56,1.76.95,1.16,1.95,2.75,1.15,4.02-.22.37-.58.65-.74,1.05-.38.92.4,1.87,1.17,2.5,2.13,1.74,4.62,3.04,7.26,3.78.58-.32.1-1.21.21-1.86.16-.92,1.39-1.08,2.31-1.02,2.1.13,4.37.34,5.92,1.75-2.17,5.06-6.57,5.55-11.67,4.89Z"/>
      <path class="cls-2" d="m552.8,189.1c-2.17,5.05-6.56,5.55-11.66,4.88-4.42-.58-8.05-3.87-10.53-7.56-1.15-1.7-2.16-3.76-1.6-5.74.31-1.11,1.1-2.05,2.01-2.76.56-.44,1.23-.82,1.95-.8,1.07.04,1.89.94,2.56,1.76.95,1.15,1.95,2.75,1.15,4.02-.22.37-.58.65-.74,1.05-.38.92.41,1.87,1.17,2.5,2.13,1.74,4.62,3.03,7.26,3.78.58-.32.1-1.21.21-1.86.16-.92,1.39-1.08,2.32-1.02,2.09.14,4.36.34,5.91,1.76Z"/>
      <path class="cls-2" d="m552.8,189.1c-2.17,5.05-6.56,5.55-11.66,4.88-4.42-.58-8.05-3.87-10.53-7.56-1.15-1.7-2.16-3.76-1.6-5.74.31-1.11,1.1-2.05,2.01-2.76.56-.44,1.23-.82,1.95-.8,1.07.04,1.89.94,2.56,1.76.95,1.15,1.95,2.75,1.15,4.02-.22.37-.58.65-.74,1.05-.38.92.41,1.87,1.17,2.5,2.13,1.74,4.62,3.03,7.26,3.78.58-.32.1-1.21.21-1.86.16-.92,1.39-1.08,2.32-1.02,2.09.14,4.36.34,5.91,1.76Z"/>
    </g>
    <g>
      <path class="cls-5" d="m494.96,182.86c14.63-4.03,21.95-6.05,25.35-12.39,2.83-5.27,1.61-10.49-.8-20.79-2.4-10.27-6.62-28.32-18.03-31.34-2.18-.58-3.54-.32-12.14,1.87-29.95,7.63-31.73,9.18-33.01,11.09-3.2,4.75-1.4,12.78,2.21,28.85,3.32,14.79,5.09,22.24,10.29,25.33,5.27,3.14,12.23,1.22,26.13-2.61Z"/>
      <path class="cls-5" d="m492.79,172.92c10.32-2.84,15.47-4.26,17.87-8.74,1.99-3.71,1.13-7.39-.57-14.66-1.69-7.24-4.66-19.96-12.71-22.1-1.53-.41-2.49-.23-8.56,1.32-21.11,5.38-22.37,6.47-23.27,7.81-2.26,3.35-.99,9.01,1.56,20.34,2.34,10.42,3.59,15.68,7.25,17.86,3.72,2.21,8.62.86,18.42-1.84Z"/>
      <path class="cls-5" d="m491.28,167.56c8.27-2.26,12.4-3.39,14.37-6.76,1.64-2.8,1-5.55-.27-10.96-1.26-5.4-3.47-14.88-9.86-16.38-1.22-.29-1.99-.14-6.84,1.09-16.91,4.29-17.93,5.13-18.66,6.14-1.84,2.54-.9,6.76.99,15.2,1.74,7.77,2.67,11.69,5.56,13.27,2.94,1.61,6.86.54,14.72-1.61Z"/>
      <circle class="cls-2" cx="487.57" cy="152.1" r="11.99"/>
      <circle class="cls-2" cx="487.88" cy="152.29" r="7.14"/>
      <circle class="cls-2" cx="496.78" cy="139.13" r="3.06"/>
    </g>
    <g>
      <path class="cls-7" d="m598.15,142.65c-2.4-10.27-6.61-28.32-18.03-31.34-1.37-.37-2.42-.4-5.19.17-1.6.35-3.79.89-6.95,1.7-3.3.84-6.26,1.61-8.92,2.32h0c-12.52,3.31-18.24,5.17-21.06,6.48h-.01c-2,.93-2.54,1.58-3.01,2.28-1.49,2.21-1.89,5.13-1.54,9.23.41,4.73,1.82,11.02,3.75,19.62.12.52.23,1.02.35,1.52.96,4.28,1.8,7.91,2.65,10.97.43,1.52.85,2.89,1.3,4.14,1.54,4.34,3.31,7.11,5.99,8.71,2.14,1.27,4.55,1.71,7.59,1.53,1.4-.08,2.94-.3,4.64-.63h.01c2.82-.54,6.1-1.39,9.99-2.45,1.23-.33,2.53-.69,3.9-1.07,3.03-.83,5.74-1.58,8.16-2.29,9.33-2.76,14.5-5.06,17.2-10.09.62-1.17,1.05-2.33,1.31-3.55.91-4.28-.24-9.22-2.12-17.25Zm-26.62,5.58c1.49,4.68,2.58,9.47,3.27,14.32.45,3.17.96,3.84-1.82,5.14-1.04.48-2.87,1.46-4.04,1.43-.11,0-.22-.01-.33-.03-.1-.01-.2-.03-.29-.05-.07-.01-.13-.02-.19-.05-.08-.02-.15-.04-.22-.07-.32-.12-.6-.3-.84-.52t-.01,0s0,0,0-.01c-.11-.1-.21-.21-.31-.33-.08-.1-.16-.21-.23-.32-.03-.03-.05-.07-.07-.11-.08-.13-.15-.26-.22-.41-.18-.37-.32-.78-.44-1.22-.06-.2-.1-.41-.15-.62-.06-.28-.12-.57-.16-.86-.07-.39-.13-.79-.18-1.18-.03-.22-.06-.45-.09-.67,0-.03-.01-.06-.01-.09-.03-.19-.05-.37-.08-.56-.03-.21-.06-.41-.1-.61-.03-.2-.07-.39-.11-.57-.07-.29-.3-1.29-.62-2.61-.08-.34-.17-.69-.25-1.06-.1-.38-.19-.77-.28-1.15-.1-.39-.19-.8-.29-1.2-.35-1.44-.72-2.91-1.03-4.15-.14-.54-.27-1.05-.39-1.49-.08-.3-.15-.57-.22-.81-.06-.24-.12-.45-.18-.62-.11-.34-.18-.54-.21-.54-1.75.39-3.51.78-5.27,1.16-.01-2.13-.43-4.27-1.21-6.26,1.33-1.63,3.52-2.54,5.62-2.31-1.98-3.73-1.68-8.56.73-12.02.47-.68,1.03-1.3,1.64-1.85.12-.11.23-.21.36-.31.15-.13.3-.25.46-.37.32-.24.64-.46.98-.66,0,0,0,0,.02,0,.16-.1.32-.19.48-.28.16-.09.33-.18.49-.25.03-.02.05-.03.08-.04.16-.08.32-.15.49-.22.16-.07.33-.13.5-.2,0,0,.03,0,.04,0,.16-.07.33-.13.49-.17.15-.05.3-.09.45-.14.24-.07.48-.12.72-.18.11-.02.22-.04.32-.06.69-.12,1.38-.19,2.08-.19.48,0,.95.03,1.42.1.37,1.91.75,3.82,1.12,5.73-2.19-.59-4.44,1.25-5.13,3.41-.7,2.16-.26,4.51.18,6.73,2.5-.03,4.99-.57,7.28-1.57.34,2.43.68,4.87,1.02,7.3l-3.57.93c-.72.19-1.54.46-1.82,1.15-.21.52-.03,1.09.13,1.62Z"/>
      <path class="cls-2" d="m561.64,147.74c.06.17.12.38.18.62-.07-.24-.13-.45-.18-.62Z"/>
      <path class="cls-2" d="m566.8,123.58c-.64.35-1.32.67-2.04.99.16-.1.32-.19.48-.28.16-.09.33-.18.49-.25.03-.02.05-.03.08-.04.16-.08.32-.15.49-.22.16-.07.33-.13.5-.2Z"/>
      <path class="cls-2" d="m565.47,164.51c.58,1.26,1.11,2.55,1.59,3.88t0-.01c-.11-.1-.21-.21-.31-.33-.08-.1-.16-.21-.23-.32-.03-.03-.05-.07-.07-.11-.08-.13-.15-.26-.22-.41-.18-.37-.32-.78-.44-1.22-.05-.2-.1-.41-.15-.62-.06-.28-.12-.57-.16-.86Z"/>
      <path class="cls-6" d="m574.8,162.55c.45,3.17.96,3.84-1.82,5.14-1.04.48-2.87,1.46-4.04,1.43-.12,0-.23-.01-.33-.03-.1-.01-.2-.03-.29-.05-.07-.01-.13-.02-.19-.05-.08-.02-.15-.04-.22-.07-.32-.12-.6-.3-.84-.52t-.01,0c-.48-1.33-1.01-2.62-1.59-3.88-.07-.39-.13-.79-.18-1.18-.03-.23-.06-.45-.09-.67,0-.03-.01-.06-.01-.09-.02-.19-.05-.38-.08-.56-.03-.21-.06-.41-.1-.61-.03-.2-.07-.39-.11-.57-.07-.29-.3-1.29-.62-2.61-.08-.34-.17-.69-.25-1.06-.1-.38-.19-.77-.28-1.15-.1-.39-.19-.8-.29-1.2-.35-1.44-.72-2.91-1.03-4.15-.14-.54-.27-1.05-.39-1.49-.08-.3-.15-.57-.22-.81-.06-.24-.12-.45-.18-.62-.11-.34-.18-.54-.21-.54-1.75.39-3.51.78-5.27,1.16-.01-2.13-.43-4.27-1.21-6.26,1.33-1.63,3.52-2.54,5.62-2.31-1.98-3.73-1.68-8.56.73-12.02.47-.68,1.03-1.3,1.64-1.85.12-.11.23-.21.36-.31.15-.13.3-.25.46-.37.32-.24.64-.46.98-.66,0,0,0,0,.02,0,.72-.32,1.4-.64,2.04-.99,0,0,.03,0,.04,0,.16-.07.33-.13.49-.17.15-.05.3-.09.45-.14.24-.07.48-.12.72-.18.11-.02.22-.04.32-.06.69-.12,1.38-.19,2.08-.19.47,0,.95.04,1.42.1.37,1.91.75,3.82,1.12,5.73-2.19-.59-4.44,1.25-5.13,3.41-.7,2.16-.26,4.51.18,6.73,2.5-.03,4.99-.57,7.28-1.57.34,2.43.68,4.87,1.02,7.3l-3.57.93c-.72.19-1.54.46-1.82,1.15-.21.52-.03,1.09.13,1.62,1.49,4.68,2.58,9.47,3.27,14.32Z"/>
      <path class="cls-2" d="m561.64,147.74c.06.17.12.38.18.62-.07-.24-.13-.45-.18-.62Z"/>
      <path class="cls-2" d="m566.8,123.58c-.64.35-1.32.67-2.04.99.16-.1.32-.19.48-.28.16-.09.33-.18.49-.25.03-.02.05-.03.08-.04.16-.08.32-.15.49-.22.16-.07.33-.13.5-.2Z"/>
      <path class="cls-2" d="m565.47,164.51c.58,1.26,1.11,2.55,1.59,3.88t0-.01c-.11-.1-.21-.21-.31-.33-.08-.1-.16-.21-.23-.32-.03-.03-.05-.07-.07-.11-.08-.13-.15-.26-.22-.41-.18-.37-.32-.78-.44-1.22-.05-.2-.1-.41-.15-.62-.06-.28-.12-.57-.16-.86Z"/>
    </g>
    <g>
      <path class="cls-8" d="m500.26,322.07c-2.4-10.27-6.62-28.31-18.03-31.34-2.18-.57-3.54-.32-12.14,1.87-29.96,7.63-31.74,9.19-33.02,11.08-3.2,4.76-1.4,12.79,2.21,28.85,3.33,14.79,5.1,22.25,10.29,25.34,5.28,3.13,12.23,1.23,26.14-2.61,14.63-4.03,21.95-6.05,25.35-12.39,2.83-5.27,1.61-10.49-.8-20.8Zm-14.8-.56c-1.04,9.43-6.13,19.26-15.11,22.3-3.93,1.34-13.53,2.63-17.02-.02,2.06-2.85,6.29-3.09,8.16-6.6-1.67-.22-3.3-.61-4.75-1.54-.4-.27-3.12-3.32-3.12-3.42,1.24-.16,2.49-.32,3.73-.47-4.07-.58-7.71-3.54-9.11-7.41,1.83.75,3.89.97,5.84.62-4.62-.56-7.92-6.07-6.21-10.4,6.05,2.66,12.68,4,19.29,3.9-1.82-3.48-1.08-8.11,1.74-10.86,2.82-2.73,7.47-3.35,10.9-1.44,1.09-1.48,2.7-2.58,4.48-3.04-.22,2.04-.9,4.05-1.96,5.81,1.64-1.43,3.85-2.21,6.03-2.14-1.39,1.47-2.77,2.93-4.15,4.39,1.58,3.15,1.64,6.83,1.26,10.32Z"/>
      <path class="cls-6" d="m484.2,311.19c1.58,3.15,1.64,6.83,1.26,10.32-1.04,9.43-6.13,19.26-15.11,22.3-3.93,1.34-13.53,2.63-17.02-.02,2.06-2.85,6.29-3.09,8.16-6.6-1.67-.22-3.3-.61-4.75-1.54-.4-.27-3.12-3.32-3.12-3.42,1.24-.16,2.49-.32,3.73-.47-4.07-.58-7.71-3.54-9.11-7.41,1.83.75,3.89.97,5.84.62-4.62-.56-7.92-6.07-6.21-10.4,6.05,2.66,12.68,4,19.29,3.9-1.82-3.48-1.08-8.11,1.74-10.86,2.82-2.73,7.47-3.35,10.9-1.44,1.09-1.48,2.7-2.58,4.48-3.04-.22,2.04-.9,4.05-1.96,5.81,1.64-1.43,3.85-2.21,6.03-2.14-1.39,1.47-2.77,2.93-4.15,4.39Z"/>
    </g>
    <g>
      <path class="cls-3" d="m592.55,331.83c-2.41-10.27-6.62-28.31-18.04-31.34-2.17-.58-3.53-.33-12.14,1.87-29.95,7.62-31.73,9.18-33.01,11.08-3.21,4.75-1.4,12.79,2.21,28.85,3.33,14.79,5.1,22.24,10.29,25.34,5.27,3.13,12.23,1.22,26.13-2.61,14.64-4.03,21.95-6.05,25.36-12.4,2.83-5.26,1.6-10.48-.8-20.79Zm-24.34-8c1.58,5.47,3.17,10.97,3.89,16.62.44,3.5.48,7.32-1.5,10.24-.86,1.24-2.03,2.24-3.3,3.05-6.45,4.15-16.18,2.83-20.49-3.52-2.54-3.72-3-8.78-1.17-12.9,1.55-3.5,13.28-12.47,11.99-3.59-.36,2.46-3.29,3.4-4.46,5.42-1.6,2.74-.77,6.19,1.45,8.35,2.7,2.63,7.77,2.88,9.97-.2,1.65-2.31,1.23-5.44.74-8.24-1.46-8.32-2.92-16.66-4.38-24.98,4.18,3.7,10.17,5.26,15.62,4.06.31,2.14.88,4.24,1.7,6.24-3.35.36-6.77.18-10.06-.55Z"/>
      <path class="cls-6" d="m568.21,323.83c1.58,5.47,3.17,10.97,3.89,16.62.44,3.5.48,7.32-1.5,10.24-.86,1.24-2.03,2.24-3.3,3.05-6.45,4.15-16.18,2.83-20.49-3.52-2.54-3.72-3-8.78-1.17-12.9,1.55-3.5,13.28-12.47,11.99-3.59-.36,2.46-3.29,3.4-4.46,5.42-1.6,2.74-.77,6.19,1.45,8.35,2.7,2.63,7.77,2.88,9.97-.2,1.65-2.31,1.23-5.44.74-8.24-1.46-8.32-2.92-16.66-4.38-24.98,4.18,3.7,10.17,5.26,15.62,4.06.31,2.14.88,4.24,1.7,6.24-3.35.36-6.77.18-10.06-.55Z"/>
    </g>
    <g>
      <path class="cls-1" d="m593.61,238.09c-2.4-10.27-6.61-28.32-18.03-31.34-1.48-.39-2.57-.4-5.8.31-1.54.34-3.56.85-6.34,1.56-29.95,7.63-31.73,9.18-33.01,11.08-.14.21-.27.42-.39.65-1.96,3.56-1.49,8.84.27,17.51.63,3.1,1.42,6.64,2.33,10.69.3,1.32.58,2.59.86,3.8,1.7,7.45,3.06,12.75,4.93,16.39,1.21,2.37,2.64,4.04,4.5,5.15,3.01,1.79,6.57,1.94,11.66,1.01,3.82-.69,8.5-1.98,14.47-3.62,4.56-1.26,8.41-2.32,11.65-3.38,7.16-2.33,11.36-4.65,13.7-9.01.76-1.41,1.23-2.81,1.46-4.31.63-4.11-.49-8.93-2.26-16.49Zm-31.44,22.78c-2.3-.25-4.65-1.09-6.88-.44-2.92.83-2.32,0-4.35-1.44-.12-.08-.23-.15-.35-.22-1.38-.79-2.8-.65-4.25-1.3-3.4-1.56-1.8-2.54.36-4.01.42-.29.97-.72,1.57-1.26,1.91-1.74,4.19-4.51,3.24-6.46-.85-1.73-7.25-.95-5.04-4.86.77-1.35,3.12-1.39,3.8,0,.17-2.63-.16-5.28.02-7.92.16-2.63.94-5.38,2.89-7.16,1.72-1.56,4.08-2.15,6.33-2.69,1.09-.26,2.23-.52,3.32-.25.91.23,1.7.81,2.41,1.42,3.26,2.78,5.7,6.51,6.94,10.61,1.49-1.31,4.09-1.05,5.28.54-2.26-.18-3.81,2.64-3.19,4.82.61,2.18,2.59,3.67,4.56,4.78,1.98,1.12,4.13,2.07,5.57,3.82-2.1.73-4.66,2.25-4.14,4.41-5.35,4.05-11.41,8.3-18.09,7.61Z"/>
      <path class="cls-2" d="m550.59,258.77c-1.38-.79-2.8-.65-4.25-1.3-3.4-1.56-1.8-2.54.36-4.01.42-.29.97-.72,1.57-1.26.89,2.15,1.66,4.38,2.32,6.57Z"/>
      <path class="cls-6" d="m580.26,253.26c-5.35,4.05-11.41,8.3-18.09,7.61-2.3-.25-4.65-1.09-6.88-.44-2.92.83-2.32,0-4.35-1.44-.12-.08-.23-.15-.35-.22-.66-2.19-1.43-4.42-2.32-6.57,1.91-1.74,4.19-4.51,3.24-6.46-.85-1.73-7.25-.95-5.04-4.86.77-1.35,3.12-1.39,3.8,0,.17-2.63-.16-5.28.02-7.92.16-2.63.94-5.38,2.89-7.16,1.72-1.56,4.08-2.15,6.33-2.69,1.09-.26,2.23-.52,3.32-.25.91.23,1.7.81,2.41,1.42,3.26,2.78,5.7,6.51,6.94,10.61,1.49-1.31,4.09-1.05,5.28.54-2.26-.18-3.81,2.64-3.19,4.82.61,2.18,2.59,3.67,4.56,4.78,1.98,1.12,4.13,2.07,5.57,3.82-2.1.73-4.66,2.25-4.14,4.41Z"/>
      <path class="cls-2" d="m550.59,258.77c-1.38-.79-2.8-.65-4.25-1.3-3.4-1.56-1.8-2.54.36-4.01.42-.29.97-.72,1.57-1.26.89,2.15,1.66,4.38,2.32,6.57Z"/>
    </g>
    <g>
      <path class="cls-4" d="m519.25,240.58c-.3-1.35-.64-2.81-1.01-4.38-2.39-10.27-6.61-28.31-18.02-31.34-2.19-.58-3.54-.32-12.15,1.86-29.95,7.64-31.73,9.19-33.01,11.09-3.21,4.75-1.4,12.79,2.21,28.85,3.32,14.79,5.09,22.24,10.29,25.33,4.83,2.87,11.04,1.52,22.69-1.65,1.1-.3,2.24-.62,3.44-.95,2.73-.75,5.2-1.43,7.45-2.09,3.35-.97,6.18-1.88,8.56-2.87,4.58-1.88,7.52-4.04,9.34-7.44,2.4-4.46,1.89-8.89.21-16.41Zm-30.8,18.14c-.47.01-.94.01-1.41,0-2.02-.07-4.06-.4-6.02.1-1.76.46-7.54,5.53-8.82,4.41-1.66-1.48,2.42-9.64,1.05-10.43-1.89-1.1-3.2-3.02-4.1-5.02-3.04-6.71-2.14-15.04,2.28-20.93,4.41-5.9,12.15-9.12,19.44-8.09,4.34.61,8.5,2.67,11.42,5.94,2.47,2.76,3.98,6.25,5.19,9.76.98,2.88,1.79,5.92,1.27,8.91,0,.07-.02.13-.03.2-.33,1.74-1.12,3.36-2.08,4.85-3.91,6.1-10.96,10.04-18.19,10.3Z"/>
      <path class="cls-2" d="m499.8,242.1c-2.17,5.05-6.56,5.55-11.66,4.88-4.42-.58-8.05-3.87-10.53-7.56-1.15-1.7-2.16-3.76-1.6-5.74.31-1.11,1.1-2.05,2.01-2.76.56-.44,1.23-.82,1.95-.8,1.07.04,1.89.94,2.56,1.76.95,1.15,1.95,2.75,1.15,4.02-.22.37-.58.65-.74,1.05-.38.92.41,1.87,1.17,2.5,2.13,1.74,4.62,3.03,7.26,3.78.58-.32.1-1.21.21-1.86.16-.92,1.39-1.08,2.32-1.02,2.09.14,4.36.34,5.91,1.76Z"/>
      <path class="cls-2" d="m502.57,245.12c-.13.23-.26.44-.4.66-2.91,4.53-8.04,7.51-13.39,7.91-.33,1.43-.43,3.09-.33,5.03,7.23-.26,14.28-4.2,18.19-10.3.96-1.49,1.75-3.11,2.08-4.85.01-.07.03-.13.03-.2-2.36.65-4.4,1.23-6.18,1.75Z"/>
      <path class="cls-2" d="m499.8,242.1c-2.17,5.05-6.56,5.55-11.66,4.88-4.42-.58-8.05-3.87-10.53-7.56-1.15-1.7-2.16-3.76-1.6-5.74.31-1.11,1.1-2.05,2.01-2.76.56-.44,1.23-.82,1.95-.8,1.07.04,1.89.94,2.56,1.76.95,1.15,1.95,2.75,1.15,4.02-.22.37-.58.65-.74,1.05-.38.92.41,1.87,1.17,2.5,2.13,1.74,4.62,3.03,7.26,3.78.58-.32.1-1.21.21-1.86.16-.92,1.39-1.08,2.32-1.02,2.09.14,4.36.34,5.91,1.76Z"/>
      <path class="cls-2" d="m502.57,245.12c-.13.23-.26.44-.4.66-2.91,4.53-8.04,7.51-13.39,7.91-.33,1.43-.43,3.09-.33,5.03,7.23-.26,14.28-4.2,18.19-10.3.96-1.49,1.75-3.11,2.08-4.85.01-.07.03-.13.03-.2-2.36.65-4.4,1.23-6.18,1.75Z"/>
      <path class="cls-6" d="m508.75,243.37c-2.36.65-4.4,1.23-6.18,1.75.55-.96.99-1.99,1.2-3.08.46-2.35-.18-4.78-.96-7.04-.93-2.71-2.1-5.4-4-7.54-2.26-2.52-5.48-4.12-8.83-4.59-5.64-.79-11.61,1.69-15.02,6.25-3.41,4.55-4.11,10.99-1.77,16.17.71,1.55,1.71,3.03,3.18,3.88,1.05.61-2.1,6.92-.81,8.06.98.87,5.45-3.05,6.81-3.4,1.51-.4,3.1-.14,4.65-.09.59.02,1.18.01,1.76-.05-.33,1.43-.43,3.09-.33,5.03-.47.01-.94.01-1.41,0-2.02-.07-4.06-.4-6.02.1-1.76.46-7.54,5.53-8.82,4.41-1.66-1.48,2.42-9.64,1.05-10.43-1.89-1.1-3.2-3.02-4.1-5.02-3.04-6.71-2.14-15.04,2.28-20.93,4.41-5.9,12.15-9.12,19.44-8.09,4.34.61,8.5,2.67,11.42,5.94,2.47,2.76,3.98,6.25,5.19,9.76.98,2.88,1.79,5.92,1.27,8.91Z"/>
      <path class="cls-4" d="m502.81,235c-.93-2.71-2.1-5.4-4-7.54-2.26-2.52-5.48-4.12-8.83-4.59-5.64-.79-11.61,1.69-15.02,6.25-3.41,4.55-4.11,10.99-1.77,16.17.71,1.55,1.71,3.03,3.18,3.88,1.05.61-2.1,6.92-.81,8.06.98.87,5.45-3.05,6.81-3.4,1.51-.4,3.1-.14,4.65-.09.59.02,1.18.01,1.76-.05,5.35-.4,10.48-3.38,13.39-7.91.14-.22.27-.43.4-.66.55-.96.99-1.99,1.2-3.08.46-2.35-.18-4.78-.96-7.04Zm-14.68,11.99c-4.41-.58-8.04-3.87-10.53-7.56-1.15-1.7-2.16-3.76-1.6-5.75.31-1.11,1.1-2.05,2.01-2.76.56-.44,1.23-.82,1.95-.8,1.07.04,1.88.94,2.56,1.76.95,1.16,1.95,2.75,1.15,4.02-.22.37-.58.65-.74,1.05-.38.92.4,1.87,1.17,2.5,2.13,1.74,4.62,3.04,7.26,3.78.58-.32.1-1.21.21-1.86.16-.92,1.39-1.08,2.31-1.02,2.1.13,4.37.34,5.92,1.75-2.17,5.06-6.57,5.55-11.67,4.89Z"/>
      <path class="cls-2" d="m499.8,242.1c-2.17,5.05-6.56,5.55-11.66,4.88-4.42-.58-8.05-3.87-10.53-7.56-1.15-1.7-2.16-3.76-1.6-5.74.31-1.11,1.1-2.05,2.01-2.76.56-.44,1.23-.82,1.95-.8,1.07.04,1.89.94,2.56,1.76.95,1.15,1.95,2.75,1.15,4.02-.22.37-.58.65-.74,1.05-.38.92.41,1.87,1.17,2.5,2.13,1.74,4.62,3.03,7.26,3.78.58-.32.1-1.21.21-1.86.16-.92,1.39-1.08,2.32-1.02,2.09.14,4.36.34,5.91,1.76Z"/>
      <path class="cls-2" d="m499.8,242.1c-2.17,5.05-6.56,5.55-11.66,4.88-4.42-.58-8.05-3.87-10.53-7.56-1.15-1.7-2.16-3.76-1.6-5.74.31-1.11,1.1-2.05,2.01-2.76.56-.44,1.23-.82,1.95-.8,1.07.04,1.89.94,2.56,1.76.95,1.15,1.95,2.75,1.15,4.02-.22.37-.58.65-.74,1.05-.38.92.41,1.87,1.17,2.5,2.13,1.74,4.62,3.03,7.26,3.78.58-.32.1-1.21.21-1.86.16-.92,1.39-1.08,2.32-1.02,2.09.14,4.36.34,5.91,1.76Z"/>
    </g>
  </g>
  <g id="Layer_5" data-name="Layer 5">
    <path class="cls-15" d="m537.7,836.41c-.14,3.03-1.77,5.94-3.85,8.3-2.33,2.63-5.23,4.74-7.89,7.08-2.64,2.32-5.08,4.88-7.47,7.48l-.03.02c-2.56,2.26-4.91,4.77-6.93,7.46-.01.01-.03.04-.03.05-.26.34-.52.67-.76,1.03-.01,0-.01.01-.01.01-2.67,3.2-4.54,6.69-4.75,10.81-.17,3.52.89,6.64,2.67,9.5-3.27-3.79-6.78-7.4-10.49-10.82-12.48,8.27-26.93,13.85-41.95,16.45-7.29,1.26-14.72,1.82-22.13,1.64-8.94-.22-10.94-2.46-15.66,4.73-14.58,22.19-32.84,41.61-59.43,51.34-9.75,3.57-17.4,10.83-27.86,11.44-5.02.29-12.42-4.13-17.7-5.86-6.71-2.2-13.2-5.03-18.97-8.93-13.95-9.41-26.8-20.25-38.24-32.26,27.99,14.5,59.47,23.08,91.41,24.94,6.53.38,14.33-.12,17.72-5.34-12.08-1.96-24.36-3.23-36.02-6.75-10.4-3.14-20.02-7.97-29.3-13.43-5.68-3.34-11.21-6.9-16.72-10.45-6.21-4.01-12.53-8.11-17.15-13.69-7.41-8.97-9.59-20.69-11.03-31.94,7.27,3.88,13.08,10.12,16.17,17.41.94-11.46-7.72-22.96-19.57-25.99,9.21-2.42,19.89,1.33,25.11,8.83-1.71-8.62-8.88-16.09-17.86-18.63,8.74-4.4,20.75-1.94,26.74,5.47-4.99-6.55-12.04-11.7-20.03-14.64,8.67-3,18.55-2.84,27.11.45-4.78-4.18-10.57-7.32-16.81-9.13,4.64-8.34,16.39-10.05,26.42-10.75,24.58-1.72,49.16-3.45,73.73-5.17-28-7.46-59.18-14.68-85.18-2.42l4.85-9.15c-20.36,4.56-40.06,11.65-58.42,21.04-3.53,1.81-7.05,3.72-10.9,4.84-4.46,1.31-9.24,1.5-13.9,1.09-24.58-2.2-43.48-20.25-63.8-33.37-21.65-14-46.44-22.93-70.14-33.69,1.05-.33,1.86-1.08,2.3-2.42.12-.35.18-.75.18-1.19.59.6,1.2,1.19,1.84,1.75,11.17,9.77,28,10.5,42.33,15.54,17.61,6.21,31.43,19.03,46.24,29.88,14.82,10.85,32.81,20.35,51.47,17.95,13.56-1.75,25.19-9.48,37.13-15.72,11.93-6.24,26.17-11.22,39.07-6.99-2.62.61-4.58,3.11-4.42,5.61,11.67-6.42,25.25-9.04,38.62-11.02,14.64-2.18,30.51-3.52,43.54,3.08,13.03,6.61,20.46,24.28,10.85,34.85,8.11-.17,13.79-8.46,13.56-16.03-.25-7.57-4.67-14.4-8.99-20.8,9.08-1.46,14.3,9.52,14.63,18.13.33,8.61.29,19.25,8.47,23.23,1.56.77,3.32,1.19,5.08,1.21,6.8.1,12.06-5.22,16.85-9.75,10.85-10.26,23.96-18.4,38.28-23.77,2.49-.93,5.17-1.79,7.77-1.26,4.95.99,7.37,6.69,6.27,11.3-1.11,4.6-4.67,8.29-8.1,11.75,3.31,1.46,6.63,2.9,9.94,4.35-3.02,2.18-2.85,6.75-.67,9.68,2.2,2.92,5.78,4.6,9.22,6.15,8.37,3.79,16.75,7.59,25.12,11.38,2.64-5.75,6.63-10.89,11.54-15.15.3-.27.6-.53.92-.78Z"/>
    <g>
      <path class="cls-12" d="m670.58,431.59c-2.45,10.54-5.34,21.83-13.04,29.61-.92.94-1.91,1.82-2.98,2.65.56-.04,1.11-.06,1.66-.07-3.87,5.6-12.78,8.45-18.06,13.73-3.23,3.25-5.05,7.47-7.46,11.29-6.88,10.88-18.51,18.38-30.51,24.19-29.41,14.24-63.26,20.36-96.22,17.39-1.82-.17-3.73-.39-5.25-1.36-1.31-.83-2.15-2.09-2.71-3.48,1.23-4.88-1.67-13.82-2.93-19.82-.3-17.69,4.7-35.54,11.89-52.08,4.15-9.5,9.04-18.78,15.6-27,12.33-15.42,29.87-26.36,47.06-36.97,5.47-3.39,11.03-6.8,17.28-8.62,7.39-2.15,15.31-1.93,23.04-1.69,7.67.23,15.33.48,22.99.71,12.36.38,26.06,1.3,34.65,9.62,10.87,10.58,8.3,27.56,4.99,41.9Z"/>
      <path d="m670.72,431.63c-2.7,11.75-6.11,24.61-16.08,32.36,0,0-.11-.28-.11-.28l1.67-.08.33-.02c-2.25,3.35-5.76,5.5-9.11,7.6-3.26,2.03-6.62,3.98-9.27,6.72-2.64,2.75-4.33,6.24-6.26,9.58-1.95,3.35-4.3,6.47-6.99,9.27-10.92,11.12-25.4,17.75-39.69,23.39-21.7,8.17-44.97,12.23-68.16,11.89-3.87-.08-7.73-.23-11.59-.54-2.84-.17-6.59-.35-8.73-2.81-.84-.92-1.39-1.97-1.82-3.06,0,0,.08-.35.08-.35.98-6.51-1.79-12.94-3.01-19.33-.82-27.03,13.22-64.95,31.47-84.92,12.44-13.64,28.42-23.44,43.93-32.99,5.17-3.18,10.55-6.44,16.64-8.23,12.11-3.38,24.48-1.4,36.74-1.18,12.12.74,24.74.15,36.23,4.85,20.24,8.49,18.19,30.36,13.72,48.15h0Zm-.29-.07c4.07-17.39,6.18-39.11-13.91-46.9-11.36-4.3-23.83-3.37-35.81-3.78-10.45.22-25.93-1.7-35.83,1.69-5.59,1.76-10.75,4.84-15.89,8.04-10.32,6.41-20.63,12.8-30.08,20.26-14.52,10.97-25.29,25.81-32.36,42.48-7.33,16.11-12.59,35.16-12.38,52.13,1.24,6.64,4.06,13.38,2.85,20.31,0,0-.04-.65-.04-.65.64,1.63,1.7,2.92,3.26,3.49,1.56.6,3.48.71,5.39.85,3.81.33,7.64.51,11.46.61,22.98.5,46.03-3.39,67.61-11.31,14.21-5.39,28.67-11.78,39.59-22.62,2.69-2.72,5.03-5.75,7-9.03,1.96-3.28,3.72-6.8,6.46-9.62,2.76-2.79,6.17-4.71,9.44-6.7,3.25-2,6.63-4.02,8.88-7.13l.14.26c-.49.02-1.72.07-2.15.08,10.2-7.63,13.63-20.63,16.37-32.48h0Z"/>
    </g>
    <path d="m656.21,463.79c.62-1.42,1.13-2.87,1.3-4.39,0,0,.65.5.65.5-1.2.56-2.42,1.09-3.66,1.55-1.25.46-2.5.89-3.82,1.17,2.23-1.49,4.64-2.59,7.11-3.59,0,0,.8-.32.8-.32-.26,1.89-1.01,3.75-2.38,5.07h0Z"/>
    <path d="m656.35,656.09c2.44-11.31,10.96-19.91,18.36-28.3,1.09-1.2,2.14-2.42,3.21-3.65-7.18,10.66-17.44,19.46-21.58,31.95h0Z"/>
    <path d="m371.29,429.37c-.07-.66.24-.93.84-.44.08.75-.32.89-.84.44h0Z"/>
    <path d="m375,427.43l2.01-1.15s.06-.02.08-.02h-.05c7.55-4.24,16.49-4.37,24.9-4.3,2.79-.22,5.85-1.21,8.58.13,0,0-.18-.04-.18-.04,0,0,.03,0,.11.01.04.01.12.03.21.12.09.09.12.23.12.29l-.24-.38c3.23,1.58,6.19,3.57,9.07,5.68.96.7,1.91,1.4,2.86,2.12l-3.02-1.88-3.03-1.86c-2.02-1.23-4.08-2.38-6.23-3.31l-.24-.38c-.04.13.18.39.31.39.11.02.08,0,.05.04l-.15-.07c-2.59-1.18-5.4-.17-8.14.07-5.67.11-11.29-.18-16.87.99-3.55.67-7,1.98-10.16,3.52h0Z"/>
    <path d="m435.81,437.17c3.38.41,6.1,2.78,8.27,5.25-3.06-1.4-5.38-3.54-8.27-5.25h0Z"/>
    <path d="m465.07,451.38c-4.89-1.98-9.69-3.62-14.59-5.58,5.21.6,10.38,2.39,14.59,5.58h0Z"/>
    <path d="m152.37,512.28c.19,2.29,1.67,4.18,3.56,5.02.83.19,2.56.6,3.71.81,0,0,3.86.72,3.86.72-2.66.36-5.39.09-7.97-.63-2.2-.97-3.76-3.56-3.16-5.92h0Z"/>
    <g>
      <path class="cls-12" d="m496.21,478.62c-2.08,7.57-3.7,15.31-3.68,23.12,0,1.04.22,2.41.55,3.97.09,5.61.73,11.2,1.99,16.74.22,1.03.52,2.09.94,3.08-.52,2.07-1.79,3.4-4.24,3.47-8.44.26-26.5-8.35-33.97-12.13,6.04,2.85-2.39-3.61-15.64-12.59.35.21.71.43,1.06.64,8.65,5.23,26.56,20.98,37.05,20.28-3.89-6.19-11.21-11.38-16.9-16.26-12.42-10.66-24.83-21.34-37.26-32-2.93-2.52-5.89-5.06-9.16-7.15.37.16.73.31,1.1.46.73-4.34,1.47-8.79.54-13.1-.79-4.38-3.96-8.09-8.3-9.81,2.9-5.89-7.39-8.79-10.79-4.16-.25.34-.44.71-.59,1.12-.73-2.32-1.77-4.5-3.45-6.32,6.29-3.11,13.91-.65,20.62,1.58,14.29,4.73,29.07,8.2,44.05,10.33,1.2.66,2.89,1.14,4.93,1.47.27.15.55.31.84.46,3.34,1.9,10.49.1,14.39,0,12.19-.32,22.6-3.3,25.59-4.84-4.34,9.79-6.88,21.43-9.68,31.62Z"/>
      <path d="m496.21,478.62c-2.08,7.72-3.76,15.66-3.59,23.7.77,4.5.62,8.89,1.33,13.41.53,3.28.97,6.66,2.18,9.76-.14.88-.6,1.78-1.24,2.45-3.29,3.25-13.88-.96-17.87-2.25-6.62-2.44-13.05-5.37-19.38-8.49l.32-.65c.55.24,1.1.52,1.65.63.04.02.07-.03-.06.04-.08.03-.15.21-.14.24,0,.07,0,.05,0,.06-2.18-2.31-5.03-4.04-7.57-5.95-3.29-2.33-6.63-4.6-9.98-6.85l.56-.88c9.41,5.67,17.74,13.07,27.66,17.85,3.23,1.53,6.72,2.88,10.13,2.7l-.64,1.25c-3.81-5.79-9.57-10-14.88-14.42-5.4-4.54-10.7-9.12-16.05-13.68-5.29-4.52-18.93-16.15-24-20.57-2.65-2.29-5.32-4.52-8.2-6.38l.88-1.66,1.1.47-1.3.71c1.68-8.44,2.18-18.16-7.15-21.93,0,0-.9-.35-.9-.35,4.02-6-7.53-8.39-9.42-3.23,0,0-.8,2.3-.8,2.3l-.71-2.32c-.76-2.59-2.04-4.94-3.93-6.8,5.5-3.03,11.99-1.94,17.65-.18,5.31,1.69,10.5,3.52,15.86,5,10.67,3.07,21.56,5.38,32.54,7.07,1.48.82,3.22,1.16,4.91,1.5,2.99,1.95,6.66,1.3,10.02,1.01,3.43-.5,6.94-.47,10.4-.77,6.94-.71,14.04-1.74,20.46-4.57-4.53,10.17-6.89,21.11-9.86,31.8h0Zm0,0c1.45-5.32,2.74-10.69,4.23-16,1.49-5.31,3.15-10.59,5.37-15.65l.12.11c-8.02,3.39-16.87,4.5-25.51,4.92-3.47.17-6.89.97-10.39.93-1.75.02-3.62-.36-5.08-1.32-1.28-.12-3.48-.67-4.95-1.44-10.44-1.33-21.98-3.72-32.54-6.58-5.35-1.41-10.66-3.19-15.93-4.79-5.09-1.47-10.83-2.55-15.73-.13,0,0,.22-1.18.22-1.18,1.77,1.87,2.91,4.22,3.67,6.59l-1.51-.02c.57-1.68,2-2.88,3.53-3.47,4.52-1.95,12.21,1.48,9.39,7.14,0,0-.46-1.2-.46-1.2,10.27,4.12,10.21,14.6,8.37,23.87,0,0-.19,1.17-.19,1.17-.53-.23-1.67-.7-2.21-.93,0,0,.88-1.66.88-1.66,5.21,3.34,11.68,9.35,16.47,13.34,9.42,8.07,22.61,19.59,31.91,27.51,5.4,4.55,11.25,8.83,15.13,14.92,0,0,.75,1.21.75,1.21-4.4.42-8.6-1.09-12.28-2.95-9.92-4.94-18.19-12.48-27.54-18.29,0,0,.56-.88.56-.88,5.79,4.1,11.76,7.96,17.09,12.66.26.29.96.91.4,1.34-.24.12-.34.07-.43.07-.68-.12-1.27-.45-1.88-.72,0,0,.32-.65.32-.65,6.37,3.13,31.35,16.01,36.73,11.19.6-.48,1.03-1.75,1.19-2.17-1.21-3.15-1.62-6.52-2.15-9.83-.45-3.33-.69-6.68-.74-10.03-.54-2.17-.62-4.56-.47-6.83.34-6.88,1.83-13.64,3.67-20.26h0Z"/>
    </g>
    <path d="m465.07,451.38c6.99.6,14.07.04,21.01-.8,6.96-1.04,14.23-1.82,20.57-5.04-.02.06-.71,1.35-.76,1.46,0,0,.51-1.3.51-1.3l.11.1c-2.99,1.95-6.46,2.96-9.86,3.87-10.28,2.35-21.13,3.59-31.58,1.71h0Z"/>
    <path d="m450.46,445.8c-2.45-.39-4.64-1.56-6.35-3.36,2.41.61,4.47,1.73,6.35,3.36h0Z"/>
    <path d="m440.72,446.15c-6.06-3.75-12.51-8.13-18.84-11.31-2.17-1.1-4.39-2.09-6.67-2.89l-.31-.44c-.04.15.2.44.35.44.11.03.1,0,.07.03-2.89-1.1-5.89.48-8.94.14-1.59-.14-3.12-.84-4.33-1.82-.63-.53-1.09-.96-1.73-1.25-5.66-2.21-12.94,4.68-18.24,6.53-1.18.62-4.66,1.6-5.78,2.82.66-.81,1.76-1.33,2.72-1.77,0,0,2.95-1.39,2.95-1.39l.08-.02c5.06-2.16,12.65-9.44,18.67-6.98,1.98,1.13,3.34,2.86,5.77,2.93,2.78.18,6.75-1.16,8.99-.12.05.01.14.03.24.14.11.11.14.26.13.33l-.31-.44c9.26,3.42,17.22,9.42,25.2,15.09h0Z"/>
    <path d="m457.1,516.53c.25-.25.38-.37.65-.22,0,0-.07-.04-.07-.04.09.05.13.17.14.43.11.05-.05.02,0,.17-.02.06-.08.09-.16.09l.05.03c-.19.17-.33.21-.44.17-.18-.07-.19-.34-.16-.63h0Z"/>
    <polygon points="455.33 515.62 455.33 516.12 455.32 515.62 455.33 515.12 455.33 515.62 455.33 515.62"/>
    <path d="m454.46,515.15c.08-.04.13-.13.05-.2,0,0,.15.06.15.06,0-.06-.07-.11-.13-.12l.3.29c.04-.14-.16-.34-.28-.33.17.05.28.18.28-.04l.27.42c.03-.22-.24-.48-.44-.47,0,0,.33.13.33.13.02-.02.01,0,0,.02l-.11-.05c.02.05.04.12.05.24.07.02,0,.18-.01.29-.07.1-.13.16-.18.21h.03c-.11.15-.15.18-.27.1-.07-.01-.14-.04-.18-.1l.33.13c-.23.02-.53-.24-.49-.5,0,0,.27.42.27.42-.22-.28-.1-.2.12-.11-.14.01-.35-.19-.31-.35,0,0,.3.29.3.29-.08-.03-.16-.08-.18-.15l.15.06c-.09-.06-.13-.16-.05-.25h0Z"/>
    <polygon points="455.33 515.62 455.33 516.12 455.32 515.62 455.33 515.12 455.33 515.62 455.33 515.62"/>
    <path d="m457.1,516.53c.25-.25.38-.37.65-.22,0,0-.07-.04-.07-.04.09.05.13.17.14.43.11.05-.05.02,0,.17-.02.06-.08.09-.16.09l.05.03c-.19.17-.33.21-.44.17-.18-.07-.19-.34-.16-.63h0Z"/>
    <g>
      <path d="m324.56,485.39c-7.3-5.4-21.33-13.3-25.4-20.85-1.4-2.59-1.36-5.62-1.03-8.5.26-2.4.81-4.94,2.6-6.68,2.11-2.04,5.57-2.46,8.47-1.61,2.9.84,5.31,2.75,7.35,4.85.46.48.92,1,1.03,1.64.26,1.57-1.71,2.63-3.4,2.86-2.03.28-4.45.23-5.25,2.4-.3.82-.25,1.72.05,2.54,3.31,9.05,11,15.15,15.57,23.34Z"/>
      <path d="m324.56,485.39c-7.57-5.25-15.76-9.7-22.42-16.3-1.6-1.69-3.15-3.51-3.99-5.81-.79-2.3-.73-4.73-.5-7.04.23-2.29.67-4.78,2.28-6.71,4.45-4.95,12.07-2.3,16.05,1.87,2.58,2.15,3.08,4.49-.49,5.85-2.04.75-4.84.03-6.02,2.09-.48.9-.42,1.99.05,3.01,3.22,8.69,10.75,14.92,15.04,23.05h0Zm0,0c-4.71-7.98-12.3-13.98-15.75-22.77-.52-1.05-.7-2.5-.08-3.67,1.19-2.4,4.44-1.86,6.47-2.54,2.94-1.16,2.16-2.57.14-4.33-6.15-6.2-16.28-6.22-16.79,4.27-.25,2.25-.3,4.56.41,6.67.74,2.06,2.21,3.89,3.73,5.56,6.41,6.62,14.58,11.25,21.86,16.82h0Z"/>
    </g>
    <g>
      <path d="m160.47,689.05c6.66,9.97,14.16,20.98,15.36,32.99-9-14.59-22.77-26.46-35.75-37.86-2.5-2.2-5.02-4.41-7.97-6.06-2.13-1.21-4.5-2.13-6.31-3.74-4.64-4.13-4.07-11.15-6.78-16.58-1.4-2.81-3.68-5.15-5.6-7.67-12.47-16.35-9.43-38.85-2.68-57.9,3.02-8.5,6.83-17.06,13.63-23.37,6.8-6.32,17.22-9.94,26.23-6.9-5.91,9.05-8.64,19.89-7.64,30.46.21,2.25.58,4.54.03,6.74-.73,3-3.06,5.39-4.97,7.9-3.41,4.44-5.73,9.6-6.75,14.98-2.34,12.3,2.07,24.76,6.42,36.58,1.91,5.2,3.93,10.55,7.85,14.65,2.39,2.49,5.4,4.4,7.92,6.79,2.77,2.65,4.91,5.83,7,8.99Z"/>
      <path d="m160.47,689.05c6.73,10.09,14.09,20.6,15.45,32.98,0,0,.04.4.04.4-9.48-15.32-23.45-27.04-36.86-38.8-3.29-3.06-6.97-5.39-11.02-7.34-6.64-3.23-6.52-11.39-8.9-17.38-.83-2.02-2.16-3.79-3.55-5.51-2.91-3.34-5.47-7.13-7.26-11.24-7.25-16.75-3.28-35.82,2.72-52.32,3.13-8.33,7.33-16.65,14.31-22.44,6.92-5.64,16.62-8.68,25.33-5.77,0,0,.44.15.44.15l-.26.39c-5.59,8.53-8.45,18.89-7.75,29.09,1.71,11.28-2.44,11.34-7.55,19.82-6.21,10.23-5.63,22.87-2.35,34,1.6,5.65,3.65,11.16,5.69,16.66,1.06,2.73,2.24,5.43,3.83,7.9,3.04,5.17,8.67,7.84,12.49,12.3,1.94,2.22,3.57,4.67,5.19,7.12h0Zm0,0c-1.63-2.44-3.28-4.88-5.22-7.09-3.84-4.44-9.5-7.09-12.57-12.25-1.6-2.47-2.81-5.18-3.88-7.91-2.08-5.5-4.16-11-5.79-16.65-2.43-8.43-3.64-17.57-1.22-26.15,1.2-4.27,3.21-8.3,5.88-11.84,1.72-2.33,3.85-4.47,4.83-7.23,1.01-2.78.27-5.75.11-8.63-.32-4.42,0-8.89.94-13.22,1.24-5.78,3.54-11.33,6.76-16.3l.19.54c-8.44-2.77-17.87.25-24.55,5.75-6.82,5.71-10.89,13.9-13.93,22.12-6,16.28-10.05,35.12-2.99,51.67,1.75,4.05,4.2,7.74,7.11,11.11,1.39,1.73,2.76,3.57,3.62,5.68,1.72,4.12,1.88,8.75,4,12.67,2.06,4.16,6.84,5.28,10.41,7.78,8.8,6.8,16.9,14.5,24.9,22.22,6.28,6.3,12.16,13.07,16.83,20.67l-.17.06c-1.3-12.35-8.6-22.9-15.27-33h0Z"/>
    </g>
    <g>
      <path d="m175.93,723.37c.03.38.04.75.05,1.12-.16-.55-.43-1.31-.61-1.86.18.24.37.49.56.73Z"/>
      <path d="m175.93,723.37c.54.63.89,3.19,1.14,3.99-.56-1.17-2.03-3.28-2.06-4.61,0,0-.19-2.15-.19-2.15.25.64,1.1,2.09,1.1,2.77h0Zm0,0c-.37-.17-.63-.34-.86-.51l.65-.34c.35.58.57,1.2.66,1.86l-.82.13c.06-.33.16-.68.36-1.14,0,0-.2.46,0,0Z"/>
    </g>
    <g>
      <path d="m178.77,727.24c-.77-1.36-1.87-2.65-2.84-3.88-.03-.44-.07-.89-.1-1.33,1.05,1.7,2.04,3.44,2.94,5.21Z"/>
      <path d="m178.77,727.24c-1.1-1.26-2.24-2.4-3.3-3.68l-.02-.17c-.08-.81-.26-2.81-.34-3.64,0,0,1.14,2.02,1.14,2.02,1.02,1.63,1.66,3.91,2.52,5.47h0Zm0,0c-1.04-1.95-2.39-3.13-3.37-4.95,0,0,.92-.31.92-.31l.09,1.35-.1-.27c.94,1.27,1.93,2.61,2.46,4.17h0Z"/>
    </g>
    <g>
      <path d="m246.77,645.74c-1.26,3.91-.96,8.68,2.28,11.43-1.4.55-2.94.77-4.46.64-1.01,2.19-.47,4.93,1.28,6.64-3.7-.12-5.57,4.34-5.06,7.78.51,3.44,2.26,6.87,1.36,10.23-2.85-1.97-5.72-3.92-8.57-5.89,1.11,3.18,1.56,7.73-1.9,8.75-1.09.32-2.3.12-3.28-.42-3.65-2.02-3.77-6.85-6.97-9.15-1.61,1.75-3.22,3.5-4.83,5.25-1.45-7.25-7.42-13.54-14.94-15.75-1.16-.34-2.49-.57-3.53,0-1.91,1.05-3.94,4.35-5,2.53-8.5-11.43-17.01-22.88-25.5-34.31-.34,1.39-2.51,2.01-3.61,1.01,1.01-4.84,2.01-9.68,3.01-14.53.14-.72.3-1.43.44-2.15.92-4.44,1.84-8.93,1.77-13.45-2.41.23-5.27-.28-6.33-2.32-1.05-2.03,1.9-4.92,3.64-3.36.59-6.1,4.67-11.82,10.48-14.66-2.92-1.64-5.5-3.8-7.54-6.35,1.39-1.79,4.29-1.21,6.66-1.04,2.36.18,5.52-1.52,4.45-3.48,1.33.93,2.68,1.86,4.02,2.8-1.5-.95-.09-3.48,1.73-3.45,1.81.05,3.15,1.66,3.7,3.28,5.17-3.42,11.27-5.61,17.56-6.27.71,1.31,1.4,2.6,2.09,3.91-11.55,4.56-24.82,11.18-26.1,22.83.13-.1.26-.2.41-.28-4.44,9.52-2.5,20.47-.47,30.7,1.09,5.5,2.45,11.48,6.82,15.21-.3-.04-.59-.09-.89-.13,9.7,14.16,29.24,19.72,40.64,32.73.56-3.07,1.26-6.13,2.09-9.13,2.32-4.72,4.08-9.66,5.27-14.72.71-2.95,1.2-5.94,1.5-8.95.2-2.02.35-4.18,1.65-5.81.92-1.17,2.32-1.92,3.45-2.92,4.11-3.63,4.06-9.66,3.57-14.92-1.3-13.77-3.57-27.45-6.83-40.94-1.44-5.95-2.93-12.72.77-17.75,1.07.7,2.16,1.41,3.15,2.21,8.19,6.58,9.21,17.89,9.63,27.98.26,6.35.52,12.69.79,19.04.37,8.79.68,17.91-2.94,26.03-1.69,3.78-4.19,7.23-5.44,11.15Z"/>
      <path d="m246.77,645.74c-1.28,3.85-.87,8.73,2.28,11.45-1.36.55-3.09.8-4.44.63-1.03,2.21-.42,5.02,1.35,6.67-3.85-.18-5.6,4.45-5.11,7.69.25,1.72.81,3.38,1.2,5.09.4,1.72.65,3.56.15,5.3l-.08-.06-8.58-5.88.13-.1c.66,1.98,1.12,4.14.58,6.21-.96,3.69-5.61,3.48-7.67.81-2.06-2.34-2.65-5.83-5.22-7.7,0,0,.16-.02.16-.02l-4.82,5.25-.18.19-.06-.26c-1.38-6.66-6.43-12.26-12.66-14.82-4.92-1.99-5.15-1.37-8.84,1.88-.28.2-.62.39-1.03.41-.44.02-.79-.31-.97-.62.06.08-25.55-34.27-25.54-34.25,0,0,.45-.09.45-.09-.49,1.71-2.89,2.26-4.14,1.05,0,0,.03-.15.03-.15l3.08-15c1.01-5,2.17-10,2.08-15.07l.34.3c-2.66.31-7.18-.57-6.84-4.05.31-1.83,2.69-3.6,4.34-2.18,0,0-.54.21-.54.21.62-6.4,4.92-12.14,10.65-14.95,0,0-.02.63-.02.63-3.01-1.68-5.7-3.94-7.83-6.65l.18-.23c2.57-2.97,6.89-.03,9.92-1.87.94-.49,1.64-1.42,1.14-2.24l-.95-1.57c.9.64,4.56,3.15,5.54,3.85,0,0-.45.67-.45.67-.46-.27-.8-.83-.81-1.37.12-2.98,3.54-3.67,5.43-1.6.65.66,1.13,1.46,1.43,2.32l-.62-.21c5.29-3.51,11.43-5.69,17.74-6.37l.3-.03.14.26,2.1,3.91.24.44-.47.19c-10.34,4.32-23.98,10.01-25.78,22.46,0,0-.78-.45-.78-.45l.45-.31,1.42-.98c-1.08,2.3-2.08,4.72-2.61,7.22-1.69,7.85-.31,15.94,1.19,23.73,1.15,6.2,2.61,13.1,7.97,17-.51-.09-1.82-.27-2.33-.36,0,0,.41-.64.41-.64,10.22,14.58,28.98,19.51,40.55,32.75,0,0-.58.16-.58.16.57-3.08,1.27-6.14,2.11-9.16,3.06-6.23,5.21-12.92,6.31-19.77.95-5.41-.16-9.07,5.22-12.34,5.74-4.62,4.15-12.89,3.57-19.35-1.23-11.52-3.16-22.96-5.76-34.25-1.46-6.55-4.04-14.27.25-20.3,0,0,.08-.12.08-.12l.11.08c3.25,2.09,6.24,4.66,8.14,8.1,5.55,9.93,4.37,22.97,5.12,33.96.27,11.38,1.99,23.5-3.07,34.13-1.67,3.46-3.89,6.66-5.09,10.34h0Zm0,0c1.18-3.68,3.4-6.89,5.05-10.36,5.03-10.64,3.27-22.74,2.96-34.11-.8-10.95.36-23.97-5.2-33.84-.98-1.65-2.15-3.17-3.5-4.52-1.37-1.34-3.02-2.34-4.57-3.46l.19-.04c-4.21,5.97-1.6,13.57-.14,20.05,2.64,11.29,4.61,22.74,5.88,34.27.65,6.61,2.21,15.07-3.7,19.82-.92.73-1.91,1.34-2.65,2.17-2.28,2.68-1.6,6.59-2.33,9.84-1.05,6.81-3.3,13.88-6.26,19.86-.89,3.22-1.61,6.49-2.2,9.78-5.85-6.83-13.68-11.48-21.21-16.26-7.37-4.69-14.93-9.66-19.98-16.98,0,0-.54-.78-.54-.78.47.06,1.36.21,1.82.27,0,0-.32.73-.32.73-3.17-2.7-4.86-6.67-5.89-10.6-2.55-11.63-5.72-24.45-.63-35.84,0,0,.69.63.69.63l-.36.25-.9.63c1.07-13.56,15.56-19.78,26.54-24.27,0,0-.23.63-.23.63l-2.09-3.91.44.23c-6.17.64-12.19,2.76-17.38,6.18l-.45.3-.17-.51c-.53-2.03-3.39-4.35-4.97-2.02-.4.62-.41,1.39.15,1.71l-.45.67-4.01-2.8.57-.51c.78,1.3-.32,2.74-1.45,3.3-2.91,1.97-7.21-.92-9.71,1.64,0,0,0-.46,0-.46,2.03,2.54,4.58,4.67,7.42,6.27l.59.33-.61.3c-5.52,2.68-9.7,8.22-10.31,14.37l-.07.67-.48-.46c-.71-.68-1.89-.28-2.57.48-1.82,1.94.06,3.96,2.17,4.43,1.16.31,2.41.33,3.61.2.13,5.28-1.09,10.44-2.14,15.52,0,0-3.13,14.99-3.13,14.99l-.08-.25c.46.42,1.19.51,1.83.34.92-.24,1.37-.88,1.49-1.74,0,0,.32.43.32.43l25.45,34.35c.16.26.38.47.66.45.94-.16,1.63-1.05,2.36-1.66.5-.46,1.02-.93,1.62-1.29,1.25-.77,2.8-.4,4.09.01,7.19,2.23,13.21,8.34,14.73,15.79,0,0-.23-.07-.23-.07l4.84-5.24.08-.08.09.06c1.76,1.28,2.62,3.32,3.57,5.15,1.2,2.68,4.01,5.64,7.16,4.2,3.06-1.68,2.11-5.93,1.2-8.66,0,0,.21.15.21.15l8.56,5.91-.11.04c.9-3.47-.88-6.84-1.35-10.24-.48-3.26,1.27-7.89,5.12-7.79-1.76-1.35-2.32-4.52-1.3-6.63,1.51.14,3.06-.07,4.47-.63-3.25-2.6-3.51-7.63-2.27-11.41h0Z"/>
    </g>
    <path d="m239.58,641.26c.88-.64,2.38.23,2.24,1.36-.55,1.44-1.22,2.82-1.93,4.18-.71,1.31-1.47,2.6-2.42,3.82.79-2.92,2.13-5.64,3.65-8.24,0-.33-.48-1.3-1.54-1.12h0Z"/>
    <path d="m230.95,670.13c-1.13,1.41-2.85,2.85-4.16,4.1.97-1.8,2.12-3.93,3.2-5.64.69-1.1,1.38-2.2,2.21-3.25-.65,2.57-1.92,4.92-3.45,7.06,0,0-.62-.57-.62-.57.9-.62,1.82-1.22,2.83-1.7h0Z"/>
    <g>
      <path d="m233.22,635.94c-4.91,4.46-12.04,6.02-18.85,6.65-7.85.75-15.82.51-23.6-.66-.14-.01-.27-.04-.41-.06-4.37-3.73-5.73-9.71-6.82-15.21-2.03-10.23-3.96-21.18.47-30.7,12.98-9.04,31.73-10.17,45.82-2.73,3.59,1.9,6.97,4.41,8.78,7.87,1.61,3.11,1.79,6.68,1.87,10.14.18,8.79-.52,18.57-7.26,24.7Z"/>
      <path d="m233.22,635.94c-9.59,8.67-30.66,7.77-42.9,6.15-4.88-3.96-6.13-10.6-7.35-16.44-1.21-5.93-2.28-11.93-2.06-18.03.14-4.12.98-8.23,2.71-11.99,6.77-4.74,14.94-7.23,23.11-7.66,10.76-.59,26.99,3.29,32.28,13.58,1.68,3.77,1.54,7.97,1.57,12,0,7.92-1.17,16.8-7.36,22.39h0Zm0,0c6.14-5.63,7.25-14.48,7.21-22.39-.07-3.98-.01-8.18-1.72-11.86-5.38-10.04-21.39-13.51-31.93-12.85-7.99.46-15.91,2.97-22.49,7.52l.16-.2c-.82,1.8-1.45,3.67-1.89,5.6-.44,1.93-.65,3.91-.75,5.89-.25,5.98.78,11.97,1.87,17.85.95,5.66,2.55,12.48,6.71,16.13,12.32,1.83,32.99,2.98,42.82-5.71h0Z"/>
    </g>
    <path d="m184.66,597.17c-.8-.05-1.05-.51-.65-1.21.8.04,1.04.51.65,1.21h0Z"/>
    <path d="m190.76,641.93c-.71.12-.87-.18-.42-.75.72-.12.87.18.42.75h0Z"/>
    <g>
      <path d="m524.32,960.11c.16,2.23.24,4.44.25,6.65v.06c.01,2.67-.07,5.32-.22,7.96v.02c-.37,5.98-1.16,11.92-2.34,17.8,0,.01,0,.02-.01.04-5.67,28.26-19.93,55.36-35.13,80.76-5.67,9.45-11.68,19.58-10.77,30.37.55,6.37,3.49,12.31,6.44,18.08,11.53,22.58,23.8,44.82,36.82,66.69,0,.01.01.02.02.03.81,1.38-.32,2.96-1.92,2.83-56.15-4.6-106.27,1.93-168.99.09-18.75-.55-46.24-1.24-65-1-22.53.29-37.47.79-60,1-58.63.55-142.13-3.68-219-1,2.25-54.58-3.03-117.39-4-172-.97-54.62,3.97-111.39,3-166-.71-39.57,1.16-102.43,2-142,.08-4.02,8-2,3.18,18.69-1.57,6.75,1.14-6.14.67-9.18-.41-2.68-5.85-54.5.48-8.57.05.36.27-.68.44-1h.01c.92.86,1.84,1.72,2.77,2.58,1.14,1.04,2.28,2.07,3.44,3.08h0c13.18,11.62,27.79,21.76,43.5,30.19,6.08,3.26,12.34,6.27,18.67,9.15,23.71,10.76,48.49,19.69,70.14,33.69,20.32,13.12,39.21,31.17,63.8,33.37,4.66.42,9.43.22,13.9-1.09,3.85-1.12,7.37-3.03,10.9-4.84,18.36-9.39,38.06-16.48,58.42-21.04l-4.85,9.15c26-12.26,57.18-5.04,85.18,2.42-24.57,1.72-49.14,3.45-73.73,5.17-10.02.7-21.77,2.41-26.42,10.75,6.24,1.81,12.04,4.95,16.81,9.13-8.56-3.29-18.44-3.45-27.11-.45,7.99,2.93,15.05,8.08,20.03,14.64-5.99-7.41-18-9.87-26.74-5.47,8.98,2.54,16.15,10.01,17.86,18.63-5.22-7.5-15.9-11.25-25.11-8.83,11.85,3.03,20.52,14.54,19.57,25.99-3.09-7.29-8.9-13.54-16.17-17.41,1.44,11.25,3.62,22.96,11.03,31.94,4.62,5.59,10.94,9.68,17.15,13.69,5.51,3.56,11.04,7.12,16.72,10.45,9.28,5.45,18.89,10.28,29.3,13.43,11.66,3.52,23.94,4.79,36.02,6.75-3.39,5.22-11.19,5.72-17.72,5.34-31.94-1.86-63.42-10.44-91.41-24.94,11.45,12.01,24.3,22.84,38.24,32.26,5.77,3.9,12.26,6.72,18.97,8.93,5.29,1.72,12.68,6.15,17.7,5.86,10.45-.61,18.11-7.87,27.86-11.44,26.59-9.73,44.85-29.15,59.43-51.34,4.72-7.19,6.73-4.95,15.66-4.73,7.41.18,14.84-.38,22.13-1.64,15.02-2.59,29.47-8.18,41.95-16.45,3.72,3.42,7.22,7.03,10.49,10.82,0,.01.01.01.01.02,1.7,1.94,3.32,3.95,4.88,5.99h.01c7.3,9.51,13.24,19.91,17.6,30.87-7.08-13.45-19.23-24.5-33.82-30.74,15.86,18.7,25.42,41.99,26.99,65.81Z"/>
      <path d="m524.32,960.11c1.8,26.32-6.11,52.22-17.16,75.85-6.46,13.87-14.07,27.17-21.94,40.28-3.84,6.56-7.64,13.4-8.83,21-1.38,7.66,1.44,15.23,4.87,21.96,11.23,22.16,23.21,43.97,35.84,65.37,0,0,1.46,2.47,1.46,2.47l.73,1.23c.26.39.48.89.43,1.4-.05,1.04-1.03,1.84-2.03,1.84-.97-.04-1.91-.13-2.87-.19l-5.72-.4c-61.13-3.34-122.31,3.4-183.48.14-26.49-.9-64.87-.02-91.75.51-76.47.89-152.95-3.6-229.4-.79,1.39-58.23-3.29-118.13-4.41-176.93-.57-47.15,2.87-94.22,3.11-141.35-.35-35.34-.33-70.71.58-106.04.37-12.58.9-42.85,1.24-55.22-.12-3.88,3.19-3.7,4.57-.27,2.07,5.7.81,11.96-.35,17.71,0,0-.51,2.16-.51,2.16l-.08.28c-.21.15.4-.12-.52.45-.85-.92-.23-.41-.42-.63.45-3.42,1.2-6.92,1.2-10.35-.52-4.08-.98-9.34-1.41-13.15-.1-2.34-1.25-11.68-1.2-14.35,0,0,0-.3,0-.3v-.17c.04-.09-.02-.07.12-.35,1.2-.35.71.29.88.18,1.09,5.04,1.77,10.65,2.51,15.78.13.85.32,2.36.44,3.14.51,0-.92-.43-.78-.13.02-.04.1-.27.15-.43.06-.19.13-.41.25-.66,0,0,.06-.06.06-.06h.01s.31-.3.31-.3c1.74,1.66,4.65,4.29,6.52,5.95,8.36,7.47,20.52,16.59,31.36,23.17,22.17,13.81,46.88,22.62,70.53,33.5,11.85,5.45,23.49,11.49,34.28,18.88,16.09,10.85,31.28,24.07,50.36,29.1,9.3,2.4,19.57,2.93,28.36-1.48,8.72-4.39,17.52-8.77,26.64-12.31,12.43-4.92,25.25-8.83,38.3-11.71,0,0-.43.81-.43.81l-4.86,9.14-.55-.57c13.26-6.29,28.33-7.45,42.78-6.14,15.29,1.38,30.17,5.22,44.92,9.16l-2.31.16c-18.46,1.31-59.73,4.1-77.51,5.46-8.14.89-17.93,2.57-22.36,10.24,0,0-.21-.5-.21-.5,6.22,1.81,12.06,4.94,16.94,9.21l1.43,1.26-1.78-.68c-8.54-3.27-18.23-3.42-26.88-.46v-.62c7.92,2.91,15.06,8.02,20.18,14.75l-.5.4c-6.14-7.45-17.76-9.65-26.35-5.39,0,0-.05-.58-.05-.58,9.28,2.61,16.94,10.64,18.35,20.28-5.19-8.37-16.16-12.36-25.61-9.9,0,0,0-.56,0-.56,11.49,2.9,20.74,14.26,19.78,26.3,0,0-.09,1.12-.09,1.12l-.44-1.03c-3.13-7.38-8.98-13.52-16.04-17.28l.39-.27c.77,5.98,1.72,11.96,3.56,17.7,1.82,5.72,4.61,11.19,8.71,15.6,4.08,4.43,9.12,7.83,14.17,11.12,5.07,3.28,10.14,6.57,15.3,9.7,24.05,15.14,40.75,18.22,68.25,21.97,0,0,.32.05.32.05l-.18.28c-1.33,2.08-3.5,3.48-5.77,4.27-5.72,1.97-11.98,1.14-17.88.75-20.27-1.73-40.33-6.09-59.44-13.06-8.99-3.29-17.78-7.13-26.29-11.52l.2-.27c12.34,12.85,26.07,24.48,41.09,34.07,7.62,4.72,16.46,6.84,24.53,10.58,12.23,6.36,22.33-2.25,33.08-7.41,2.68-1.32,5.55-2.18,8.27-3.37,5.47-2.31,10.76-5.08,15.73-8.33,9.99-6.47,18.76-14.69,26.4-23.79,4.79-5.63,9.14-11.78,13.23-17.94,3.21-5.07,6.04-5.14,11.61-4.48,11.86.82,23.84-.49,35.35-3.46,11.52-3.01,22.59-7.83,32.52-14.4,3.71,3.42,7.24,7.04,10.53,10.86,9.17,10.6,17.25,23.52,22.5,36.91-7.38-13.48-19.53-24.67-33.87-30.7,15.61,18.13,25.43,41.76,27,65.78h0Zm0,0c-1.59-24.09-11.41-47.42-27.01-65.79,0,0-.07-.09-.07-.09l.1.04c14.27,6.1,26.58,16.98,33.85,30.74-7.31-17.91-18.98-34.71-33-47.63-19.89,13.09-44.16,19.41-67.92,17.91-8.88-1.29-9.43,1.59-13.92,8.11-13.24,19.66-30.75,37.3-52.95,46.48-5.6,2.09-10.98,4.5-16.14,7.54-5.19,2.85-10.76,5.57-16.81,5.65-6.02-.39-11.24-3.93-16.84-5.78-8.55-2.68-16.6-6.77-23.76-12.15-12.42-8.8-23.99-18.81-34.46-29.87,25.74,13.4,54.07,21.78,82.94,24.61,8.04.54,21.62,3.12,26.82-4.5,0,0,.15.33.15.33-11.91-1.93-24-3.17-35.64-6.62-11.64-3.44-22.46-9.11-32.79-15.36-5.17-3.13-10.25-6.41-15.32-9.69-5.06-3.29-10.13-6.71-14.28-11.19-8.56-9.19-10.99-22.05-12.49-34.09,7.37,3.81,13.5,10.11,16.76,17.78l-.53.09c.93-11.76-8.15-22.88-19.37-25.69,0,0-1.08-.28-1.08-.28l1.08-.28c9.21-2.38,19.87,1.1,25.43,8.94,0,0-.54.23-.54.23-1.78-8.81-9.1-15.98-17.65-18.39,0,0-.77-.22-.77-.22l.71-.36c8.89-4.39,20.75-2.15,27.13,5.54,0,0-.5.4-.5.4-5.23-6.88-12.62-12.01-20.76-14.84,0,0,.88-.3.88-.3,8.8-3.02,18.64-2.87,27.34.45l-.35.57c-4.8-4.2-10.56-7.28-16.69-9.06l-.42-.12.21-.38c4.55-7.93,14.56-9.71,22.9-10.62,17.65-1.38,59.38-4.2,77.52-5.52,0,0-.07.76-.07.76-14-3.72-28.12-7.22-42.55-8.51-14.31-1.29-29.23-.14-42.35,6.1,0,0-1.14.54-1.14.54.78-1.47,4.64-8.75,5.44-10.26,0,0,.46.61.46.61-19.04,4.28-37.59,10.79-55.1,19.42-5.85,2.84-11.57,6.45-18.16,7.36-6.53.97-13.2.2-19.56-1.42-19.2-5.02-34.59-18.36-50.67-29.19-10.74-7.35-22.33-13.35-34.16-18.78-23.67-10.85-48.41-19.74-70.62-33.58-10.83-6.59-23.21-15.87-31.47-23.29,0,0-3.14-2.81-3.14-2.81-1.04-.95-2.06-1.92-3.09-2.87h.63s-.01.01-.01.01l.09-.12c-.04.08-.11.28-.16.44-.07.19-.08.31-.22.61.09.44-1.44-.08-.92-.19l-.02-.14-.04-.27-.08-.55-.3-2.19c-.71-4.96-1.41-10.66-2.45-15.57.13-.17-.4.3.72.01.1-.2.03-.08.05-.08v.11s-.01.25-.01.25c.36,6.72,1.41,16.29,2.11,23.05,0,0,.49,4.42.49,4.42.03,1.54-.16,3-.33,4.48-.26,1.8-.5,3.68-.8,5.47,0,0-.07.53-.07.53-.19-.14.41.48-.42-.36-.86.5-.24.13-.42.19.96-3.57,1.63-7.37,1.9-11.04.16-2.88.13-5.89-.93-8.5-.27-.63-.63-1.24-1.11-1.66-.47-.43-1.05-.54-1.37-.19-.41.46-.36,1.13-.37,1.78,0,0-.05,2.21-.05,2.21l-.41,17.67c-1.15,46.61-2.13,94.89-1.47,141.37-.28,47.13-3.75,94.2-3.21,141.34.45,58.34,6.86,119.38,3.7,176.38,76.48-2.75,152.94,1.8,229.41.96,27.03-.52,65.12-1.36,91.77-.44,61.17,3.3,122.35-3.39,183.49,0,0,0,5.72.41,5.72.41.95.06,1.92.15,2.85.19.92,0,1.8-.74,1.85-1.67.04-.46-.14-.89-.4-1.29l-.73-1.23-1.46-2.47c-12.62-21.41-24.58-43.23-35.79-65.4-2.53-5.11-4.86-10.54-5.17-16.31-.49-9.74,4.39-18.62,9.16-26.76,21.03-35.07,41.82-73.95,39.17-116.08h0Z"/>
    </g>
    <path d="m9.99,710.39c0-.07.11.01.12,0,.2,0,.45-.12.15-.3,0,0-.12.92-.12.92-.06.02-.16.04-.31-.03-.32-.12-.36-.62,0-.6.03-.02.17-.06.16.02h0Zm0,0c-.02.1.13.05.25.09.25.02.14-.34-.06-.41-.12-.06-.19-.04-.22-.03l-.12.92c-.31-.17-.22-.42.03-.53.01-.03.12.03.12-.05h0Z"/>
    <path d="m10.23,710.39c0-.09.09-.15.18-.14v.34c.12.19.03.33-.07.35l-2.42.45,1.88-1.25c.12-.08.37-.06.42.26,0,0-.06-.32,0,0Zm0,0c0,.39.18.47.24.45l-.54-.8s-.02.07.17.2v.34c.08-.01.15-.08.13-.19,0,0,.02.11,0,0Z"/>
    <path d="m10.41,710.13c-.02.06.08.08.12.01v.06c.22.18.27.25.24.29-.04.03-.15.02-.52-.07-.5-.29-.53-.51.03-.34,0,0-.01.06-.01.06.04-.08.15-.07.14-.01h0Z"/>
    <path d="m10.41,710.13c-.02.06.08.08.12.01l-.02.07c.22.19.25.3.2.35-.06.04-.17.04-.49-.16-.26-.28-.32-.37-.32-.42.01-.04.1-.02.37.09l-.02.07c.04-.08.15-.07.15-.01,0,0,0-.06,0,0Z"/>
    <path d="m194.68,479.49c2.55,1.45,4.85,3.26,7.08,5.15,0,0-.54.77-.54.77l-4.44-2.77c1.73.4,3.38,1.1,4.93,1.95l-.54.77c-2.31-1.8-4.53-3.68-6.48-5.88h0Z"/>
    <path class="cls-11" d="m16.3,709.87c-.33.32-.67.62-.99.94.41.35,0,.92-.72,1.41-.43.32-.99.6-1.56.79-.77.28-1.54.39-1.96.16-.68-.37-1.06-1.01-1.27-1.74-.17-.56-.25-1.16-.29-1.74-3.14-39.89-5.02-81.29-4.45-132.31.18-16.18,11.74-24.11,26.46-32.62,6.83-3.95,5.05-7.51,13.08-7.34,5.63.12,12.09-7.58,17.4-9.34,3.51-1.17,6.54-3.28,9.59-5.27,16.66-10.96,34.84-19.67,52.98-28.35,4.68-2.24,9.41-4.5,14.2-6.57,3.89-1.7,7.81-3.26,11.83-4.61,3.77-1.27,7.6-2.35,11.54-3.14,2.39-.49,4.84-.87,7.3-1.11,1.06-.11,2.11-.18,3.17-.24,3.85-.21,7.72-.09,11.5.43"/>
    <path d="m299.01,915.25l-3.68,1.16-.02-.07c9.85-1.48,18.89-8.25,22.45-17.6,1.27-3.05,1.31-6.49,2.82-9.63.74-1.56,2.03-2.91,3.57-3.69,1.5-.82,3.1-1.36,4.29-2.39,1.2-1.02,1.77-2.57,2.39-4.13,1.07-3.4,4.26-5.68,7.66-6.32,4.84-1.15,10.1-.68,14.68-2.59,6.3-2.35,10.69-8.18,16.99-10.54,6.68-2.14,9.85,3.86,7.61,9.66-2.06,5.06-4.75,8.42-1.78,13.86.66,1.52,1.38,3.17,1.3,5-.11,1.82-.96,3.38-1.66,4.87l-8.71,18.04-.12.24c-5.18-1.38-11.04,2.34-15.88-.82-3-2.06-3.96-5.92-6.9-7.95-4.04-2.69-8.8.97-10.37,4.83-.22.37-.61.75-1.08.64-.46-.1-.23-1.2.21-.8-.44-.38-.65.69-.21.78.45.09.82-.28,1.03-.65,1.04-2.42,2.85-4.64,5.4-5.58,6.5-2.27,8.1,5.44,12.2,8.31,1.42.96,3.18,1.23,4.9,1.16,3.45-.14,6.95-1.41,10.59-.64l-.38.18,8.54-18.12c.71-1.51,1.48-2.99,1.56-4.54.07-1.55-.57-3.08-1.24-4.6-3.1-5.7-.46-9.29,1.71-14.53,1.89-4.93-.47-10.35-6.42-8.39-3.07.98-5.6,3.26-8.3,5.22-2.68,2-5.46,3.97-8.65,5.24-3.19,1.32-6.64,1.52-9.93,1.86-4.71.38-10.38,1.36-11.97,6.51-.62,1.51-1.25,3.23-2.65,4.41-2.68,2.06-6.33,2.44-7.77,5.78-1.45,2.91-1.56,6.4-2.89,9.53-3.68,9.47-13.05,16.17-22.98,17.47l-.02-.07,3.7-1.09h0Z"/>
    <path d="m423.85,893.75l-1.58.62-.1.04.05-.09c3.68-6.3,3.83-13.8,3.7-20.9.09-14.26-2.03-21.69-10.39-33.36,0,0-.38-.54-.38-.54,2.19-.87,4.59-.56,6.7-.28,4.06.89,7.44-1.28,11.14-2.63,1.9-.65,3.84-1.09,5.77-1.52,7.21-1.51,16.83-3.57,18.64-11.89.03.09-.63-1.94-.62-1.93,0,0,.71,1.92.71,1.92-.48,4.07-3.81,7.13-7.25,8.99-5.32,2.84-11.4,3.24-16.98,5.24-2.77.9-5.43,2.75-8.49,2.9-2.88.17-5.99-.96-8.7-.06,0,0,.24-.74.24-.74,8.35,11.47,10.72,19.82,10.29,33.91.01,7.14-.35,14.76-4.32,20.94,0,0-.04-.05-.04-.05l1.6-.55h0Z"/>
    <g>
      <path class="cls-12" d="m480.28,525.2c-10.49.7-28.41-15.05-37.05-20.28-.35-.21-.71-.43-1.06-.64-15.75-10.71-38.3-25.02-51.39-31.57-2.26-1.71-4.38-3.55-6.27-5.62-4.2-4.67-6.86-10.15-8.64-16.01-.59-5.04-.37-10.25-2.92-14.62-.33-2.52-.59-5.04-.82-7.53.92-.49,1.83-.97,2.75-1.44.04-.01.08-.02.12-.05,6.79-2.97,13.93-5.43,21.39-5.42,9.24.01,17.87,3.79,26.09,7.89,4.25,2.89,8.56,5.66,13.25,7.23t.03.01s.04.02.05.02c2.75,1.85,5.5,3.63,8.27,5.25.01.01.03.02.04.02,1.91,1.43,3.87,2.7,6.08,3.29.09.02.18.05.26.07h.01c2.72,1.27,5.46,2.3,8.23,2.98.34.43.82.79,1.43,1.12-14.98-2.13-29.77-5.6-44.05-10.33-6.71-2.23-14.33-4.68-20.62-1.58,1.69,1.82,2.72,4,3.45,6.32h0c-1.16,3.28.77,8.53,3.01,12.73t.01.02c.85,2.49,2.08,4.77,4.16,6.55.68.57,1.44,1.09,2.21,1.54,0,0,.01.01.03.01,2.54,1.92,5.59,3.31,8.61,4.6,0,.01.01.01.01.01,3.27,2.09,6.23,4.63,9.16,7.15,12.43,10.66,24.85,21.34,37.26,32,5.69,4.88,13.02,10.08,16.9,16.26Z"/>
      <path d="m480.28,525.2c-11.8.18-26.86-13.72-36.92-19.75-.72-.4-2.09-1.28-2.77-1.74-16.32-10.68-32.8-21.44-50.14-30.34-7.56-5.26-12.9-13.31-15.41-22.11-.61-4.87-.34-10.07-2.84-14.36,0,0-.09-.16-.09-.16l-.02-.17-.84-7.56-.07-.59.53-.28c4.5-2.47,9.54-4.37,14.77-5.75,12.65-3.59,25.23.86,36.43,6.64,4.3,2.97,8.74,5.6,13.5,7.37-.15-.16-.43-.27-.65-.26l.68.27c-.14-.15-.42-.26-.63-.25l.56.17,8.21,5.22.18.13c-.14-.15-.42-.26-.63-.24l.59.2c.95.71,1.9,1.38,2.89,1.94,1.02.58,2,.98,3.15,1.28,0,0-.29-.04-.29-.04h.01s.22,0,.22,0c2.76,1.31,5.62,2.4,8.56,3.11.34.47.74.81,1.34,1.14,0,0,4.6,2.53,4.6,2.53l-5.19-.75c-13.77-1.98-27.38-5.09-40.64-9.29-5.23-1.61-10.4-3.76-15.85-4.12-2.66-.2-5.33.19-7.67,1.32l.25-1.33c1.78,1.97,3.01,4.42,3.64,6.89,0,0,0,.01,0,.01v.14c-.35.94-.41,2-.31,3.09.13,2.89,2.22,7.18,3.02,8.95.14.12.25.38.25.56l-.04-.24c.54,1.61,1.26,3.16,2.26,4.48,1.01,1.39,2.38,2.43,3.88,3.35-.1-.11-.29-.18-.44-.17l.41.14c2.52,1.92,5.47,3.27,8.44,4.56l.39.58c.03-.19-.19-.54-.43-.59,2.3,1.34,6.01,4.42,8.51,6.6,12.33,10.65,27.47,23.97,39.74,34.59,5.32,4.52,11.09,8.85,14.87,14.83h0Zm0,0c-3.91-5.9-9.75-10.06-15.14-14.51-12.43-10.4-27.82-23.49-40.24-34.02-2.67-2.27-5.37-4.5-8.29-6.35l.33.1c-.34.03-.67-.37-.64-.65,0,0,.39.58.39.58-3.01-1.27-6.06-2.62-8.77-4.64l.41.14c-3.05-1.13-6.21-5.17-7.14-8.79-.01.17.09.41.22.52-1.21-2.01-2.11-4.21-2.85-6.46-.67-2.28-1.18-4.68-.42-7.07,0,0-.05.27-.05.27h0s.04.23.04.23c-.8-2.63-2.15-4.96-4.08-6.82,2.92-1.6,6.31-2.28,9.55-2.01,8.44.74,16.09,4.52,24.23,6.49,10.65,2.95,21.49,5.21,32.43,6.75l-.59,1.78c-.59-.33-1.21-.74-1.72-1.37l.52.33c-2.92-.72-5.72-1.78-8.41-3.03l.41.09h-.01s-.14,0-.14,0c-2.49-.59-4.79-2.03-6.8-3.55,0,0,.59.2.59.2-.24,0-.54-.12-.71-.29l.18.13-8.33-5.27.56.17c-.25,0-.56-.12-.73-.29l.68.27c-.24,0-.54-.12-.7-.28l.36.22c-4.79-1.58-9.81-4.82-13.37-7.3-10.79-5.6-22.95-10.05-35.12-6.61-5.22,1.36-10.2,3.26-14.37,5.54,0,0,.47-.87.47-.87l.81,7.5-.11-.33c2.66,4.58,2.43,9.97,3.01,14.97,2.25,7.9,7.25,16.02,14.5,21.14,14.83,7.72,30.11,17.69,44.43,27.22.75.49,6.02,4.12,6.73,4.59,10.49,6.15,25.8,21.17,37.91,21.26h0Z"/>
    </g>
    <path d="m374.88,427.48c-.69.46-1.62,1.49-2.51,1.88,0,0-.59.32-.59.32l-.13-.65c-.04-.17-.04-.44-.06-.61,1.01-.56,2.36-.66,3.29-.93h0Zm0,0c-1.13.46-1.61,1.25-2.57,1.7,0,0,.29-.45.29-.45.01.03.02.06.02.09l-.72-.33c.97-.49,1.9-.39,2.98-1h0Z"/>
    <path d="m372.95,436.46c2.72,4.32,2.67,9.7,3.41,14.56,0,0-.97.2-.97.21-1.31-4.85-1.98-9.82-2.44-14.77h0Zm0,0c.79,4.91,1.79,9.8,3.4,14.48l-.97.2c-.43-4.97,0-10.15-2.42-14.68h0Z"/>
    <path d="m401.92,457.05c-2.6-4.17-5.15-9.44-2.99-14.34,1.66,4.66,1.91,9.57,2.99,14.34h0Zm0,0c-1.73-4-2.16-8.46-3.48-12.56,0,0,.95.02.95.02-1.11,4.24,1.04,8.63,2.54,12.55h0Z"/>
    <path d="m416.94,469.78c-3.17-.92-6.24-2.21-8.91-4.2,0,0,.56-.83.56-.83,2.84,1.52,5.81,3.03,8.36,5.03h0Zm0,0c-2.97-1.6-5.95-2.48-8.86-4.17,0,0,.56-.83.56-.83,2.54,1.93,5.46,3.36,8.31,5h0Z"/>
    <path d="m390.77,472.71c13.55,6.65,26.38,14.7,39.08,22.84,4.23,2.73,8.43,5.5,12.6,8.32l-.54.84c-6.43-3.91-19.34-11.78-25.75-15.71-7.47-4.76-18.44-10.96-25.38-16.29h0Zm0,0c7.12,4.99,18.26,11.02,25.78,15.63,6.45,3.85,19.43,11.64,25.87,15.51,0,0-.54.84-.54.84-16.67-11.22-33.47-22.33-51.11-31.98h0Z"/>
    <path d="m462.57,450.25c-.79-.12-1.62-.17-2.47-.29-.43-.21-1.33-.82-1.42-1.08-2.68-.6-6.14-1.8-8.22-2.82-1.2-.26-2.41-.76-3.49-1.35-1.08-.59-2.09-1.28-3.07-1.99l.21.07c-.09,0-.21-.05-.28-.12-2.7-1.64-7-4.32-8.4-5.22-3.99-1.12-9.32-4.48-13.24-7.13,0,0,.5-.86.5-.86,12.77,6.49,27.25,13.98,39.87,20.79h0Zm0,0c-13.09-6.2-27.35-13.4-40.31-19.9,0,0,.5-.86.5-.86,4.15,2.83,8.39,5.62,13.11,7.22l.16.1c-.06-.07-.18-.11-.27-.11l.3.12c-.05-.06-.17-.11-.25-.09l.24.07c2.77,1.76,5.53,3.54,8.27,5.35-.04-.05-.14-.08-.2-.07,1.57.96,3,2.21,4.74,2.88.5.22,1.4.52,1.68.57,2.64,1.27,5.36,2.39,8.19,3.15.4.44.88.87,1.43,1.17.66.09,1.6.29,2.4.4h0Z"/>
    <g>
      <path class="cls-10" d="m418.06,470.25c-.37-.16-.73-.31-1.1-.46,0,0-.01,0-.01-.01-3.02-1.28-6.07-2.68-8.61-4.6-.01,0-.03-.01-.03-.01-1.15-.87-2.2-1.83-3.09-2.96-.93-1.17-2.15-3.02-3.28-5.14t-.01-.02c-2.24-4.19-4.17-9.45-3.01-12.72h0c.14-.43.34-.79.59-1.14,3.4-4.63,13.7-1.74,10.79,4.16,4.33,1.71,7.51,5.43,8.3,9.81.93,4.3.2,8.75-.54,13.1Z"/>
      <path d="m418.06,470.25c-7.63-2.88-12.5-5.31-16.48-12.99-1.44-2.45-4.53-9.45-3.14-12.95,1.89-6.7,15.67-4.16,12.26,3.23,0,0-.23-.61-.23-.61,9.95,4.06,9.69,14.38,7.6,23.31h0Zm0,0c1.49-8.95,1.68-18.98-8.36-22.66,3.51-6.3-8.44-8.55-10.33-3.11-.58,1.34-.29,4.36.37,6.3,1.41,4.29,2.8,6.89,5.21,10.51,3.13,4.49,8.17,6.66,13.11,8.97h0Z"/>
    </g>
    <path d="m367.39,456.61c.38.24.83.02,1.09-.27-2.91,5.26-9.67,6.13-15.09,6.66-4.17.3-8.59.69-12.67-.68-6.93-2.23-11.36-8.76-14.26-15.09-2.32-5.12-4.17-10.45-5.45-15.9,1.67,5.33,3.68,10.56,6.14,15.58,6.09,12.17,12.39,16.7,26.18,15.3,5.32-.38,11.7-.92,14.98-5.72,0,0,.05.05.05.05-.28.22-.69.28-.98.07h0Z"/>
    <path d="m501.69,875.64c-1.51,1.49-3.91,1.89-5.97,2.12,5.86-2.76,10.84-6.82,15.78-10.96-3.62,4.54-8.24,8.46-13.67,10.64,0,0-.17-.65-.17-.65,1.38-.05,2.77-.44,4.04-1.15h0Z"/>
    <path class="cls-14" d="m843.77,1053.9c-.2-40.91-.39-81.82-.59-122.74v-1.83c-.52,6.08-2.56,12.06-5.95,17.3-.18.28-.52.43-.84.37-5.2-1-7.98-6.38-10.76-10.73-7.01-10.96-18.74-18.43-28.26-27.58-16.3-15.69-26-36.17-37.25-55.35-11.16-19.01-24.13-37.1-38.72-53.97-7.69-8.91-16.05-17.64-26.68-23.37-9.86-5.32-22.09-7.72-32.85-4.5-.73.22-1.35-.57-.95-1.21,7.35-11.49,2.06-27.16-5.64-38.89-4.57-6.96-10.73-14.01-19.35-15.37-4.34-.68-9.21.1-12.86-2.23-5.74-3.66-4.28-11.87-1.74-17.91,4.76-11.31,9.97-36.22,21.22-30.13,7.89,4.28,27.44-26.4,31.39-35.41,1.84-4.18,3.07-1.25,3.62-1.12.28.07.54.17.59.45,1.46,8.55,8.29,22.76,15.57,36.6-1.2-2.4-2.37-4.82-3.49-7.24-5.17-11.15-9.44-22.59-12.21-34.54-.05-.23,0-.48.14-.67,4.38-5.99,5.42-14.17,9.68-20.22,9.63-13.68,14.34-30.15,16.36-46.1,2.17-17.18.3-34.59-5.05-51.16-3.64-11.29-8.44-23.1-17.38-31.75-6.58-6.36-15.7-10.86-25.13-10.84-.26,0-.51.13-.66.34-3.99,5.38-12.65,8.22-17.81,13.39-3.23,3.25-5.05,7.47-7.46,11.29-6.88,10.88-18.51,18.38-30.51,24.19-29.41,14.24-63.26,20.36-96.22,17.39-1.82-.17-3.73-.39-5.25-1.36-.81-.51-1.43-1.19-1.93-1.96-.33-.51-1.08-.52-1.39,0-.7,1.18-1.86,1.89-3.63,1.94-8.44.26-26.5-8.35-33.97-12.13,6.04,2.85-2.39-3.61-15.64-12.59-13.71-8.3-27.41-16.58-41.12-24.87-3.49-2.1-7-4.24-10.22-6.66-.03-.03-.07-.05-.11-.07-.54-.28-1.06-.54-1.56-.78-6.37-3.07-10.44-9.7-12.39-16.15-.45-1.5-.71-3.04-.88-4.61,0-.04-.01-.08-.03-.13-1.43-4.69-2.27-9.62-2.9-14.56-.04-.07-.09-.15-.13-.22-1.23-2.05-3.1-4.44-1.84-6.47.09-.15.2-.28.31-.4-2.08,1.11-4.15,2.23-6.21,3.29-11.17,5.76-25.23,10.14-36.28,4.19-6.82-3.64-11-10.53-17.57-14.54-5.35-3.28-11.84-4.38-18.16-5.31-5.4-.79-10.99-1.5-16.32-.32-9.38,2.1-16.12,9.56-22.15,16.59-10.02,11.68-20.03,23.34-30.05,35.01-.24.28-.27.7-.05,1,0,0,0,0,0,.01.21.3.19.7-.04.98-3.53,4.25-13.93,18.88-19.43,20.9-.13.05-.24.12-.33.23-2.49,2.91-5,5.82-7.49,8.73-4.25,4.95-8.58,9.98-14.22,13.49-5.72,3.56-12.63,5.36-19.48,5.18-3.59.49-7.37-.16-10.05-2.3-.34-.27-.81-.27-1.12.03-3.21,3.16-6.43,6.33-9.64,9.49-.68.67.13,1.77.97,1.3,8.99-4.95,18.81-7.89,29.04-7.13.77.06,1.06,1.06.42,1.5-10.26,7.19-18.69,16.64-24.41,27.37-1.06,1.97-2.07,4.03-3.82,5.5-2.6,2.18-6.31,2.6-9.73,3.24-22.24,4.11-40.93,21.67-45.19,42.48-.69,3.41-1.13,7.09-3.44,9.81-1.96,2.3-4.95,3.55-7.76,4.84-13.24,6.11-25.49,16.18-28.88,29.61-3.49,13.82,3.36,28.67,14.58,38.25,11.08,9.46,25.8,14.44,40.56,17.06.31.06.62-.08.81-.34,5.86-8.13,18.91-9.52,28.57-5.5,9.81,4.1,16.87,12.29,23.33,20.32,6.23,7.74,12.56,15.83,21.42,20.79.49.27,1.11-.02,1.22-.57,2.97-16.06-5.98-31.76-15.39-45.85-.49-.73.36-1.61,1.11-1.16,18.85,11.34,37.71,22.68,56.56,34.01,1.47.88,3,1.79,4.72,1.94,6.59.61,8.31-8.08,9.16-14.22,1.96-14.34,12.69-26.04,21.85-37.7,8.77-11.18,16.8-24.72,14.17-38.18-.13-.65.52-1.17,1.13-.9,6.58,2.89,15.3-2.86,17.53-9.77,2.41-7.46.26-15.47.27-23.26.03-12.51,5.64-24.91,3.31-37.22-2.16-11.42-11.49-21.28-23.18-25.15-11.68-3.89-25.29-1.87-35.46,4.78-6.14,4.02-14.32,9.68-20.05,5.99-.5-.32-.47-1.06.03-1.38,7.15-4.57,13.41-10.39,18.32-17.06,3.04-4.11,5.77-8.73,10.43-11.2,7.89-4.18,17.61-.59,26.36,1.59,8.77,2.19,20.66,1.36,23.56-6.68,3.71-10.26-11.67-19.89-9.44-30.27.09-.44.56-.71.99-.61,10.34,2.48,17.62,11.23,26.8,16.45,8.88,5.04,23.64,4.36,26.81-4.22.23-.63,1.09-.69,1.45-.13,6.62,10.4,14.27,20.22,22.81,29.29.5.53.13,1.38-.6,1.38-17.9.07-35.75,5.57-50.17,15.5-.37.25-.46.75-.22,1.13,11.09,17.05,13.65,38.74,6.84,57.64-.14.39-.54.6-.95.53-9.38-1.62-15.6,9.7-17.05,18.79-2.75,17.17-2.05,34.81,2.01,51.75.8,3.29,1.75,6.61,3.79,9.39,3.64,4.94,10.04,7.26,15.71,10.06,29.43,14.54,48.97,48.54,82.23,50.07,15.03.68,29.22-5.81,43.74-9.49,18.99-4.81,39.96-4.64,57.7,3.2.68.3.63,1.28-.07,1.52-10.46,3.62-19.53,10.67-25.23,19.63-3.01,4.72-4.78,11.44-.46,15.17,4.4,3.8,11.5,1.5,17.36,2.7,12.36,2.54,14.18,18.12,13.2,29.92-1,12.03-2,24.05-2.99,36.08-.04.46.3.87.76.9,11.55.72,19.76-10.3,27.96-18.2,9.48-9.16,22.18-15.36,35.64-17.43.58-.09,1.07.46.92,1.03-1.58,6.14-3.16,12.27-4.74,18.41-.12.48.21.95.7,1.02,3.94.54,7.55,2.1,10.23,4.88.47.49.18,1.3-.49,1.39-12.26,1.72-25.09,5.49-32.14,14.92-7.34,9.82-3.38,26.89,9.28,28.84,3.62.56,7.33-.16,10.91-.9,24.68-5.15,49-11.7,72.81-19.64,5.17-1.71,10.41-3.52,15.9-3.75,4.07-.17,8.15.54,12.22.26,6.08-.43,11.7-3.02,17.48-4.82,19.5-6.06,42.05-2.67,58.51,8.82,16.38,11.42,25.88,29.3,34.78,46.5-4.17-7.97-18.36-6.46-23.37,1.09-5.02,7.53-2.97,17.51,1.26,25.46,6.99,13.16,18.98,23.27,30.71,33.03,1.98,1.65,4.08,3.35,6.67,3.83,2.04.37,4.13-.06,6.15-.5,14.93-3.22,31.4-7.47,40.02-19,.48-.64,1.48-.32,1.49.48.25,21.07-13.88,41.82-34.58,50.29-16.78,6.87-38.3,7.13-49.44,20.52-.31.37-.23.94.16,1.21,5.23,3.54,12.38,4.41,18.45,2.4.79-.26,1.44.65.91,1.3-10.84,13.25-27.42,22.33-45.14,24.56-8.84,1.12-17.98.62-26.56,2.96-7.08,1.92-13.84,5.76-21.21,5.33-6.21-.37-12.43-3.79-18.34-1.94-8.03,2.52-9.39,12.31-10.45,20.17-1.04,7.6-5.97,16.99-13.84,16.18-.43-.04-.83.23-.9.66-3.7,22.64,6.85,46.53-.68,68.35-3.73,10.82-11.57,12.69-20.62,18.62-5.98,3.92-9.37,9.76-17.05,10.76-10.62,1.38-23.46-2.2-34.19-1.16-2.26.22-4.61.49-6.97.76,48.62,2.75,97.32,5.04,145.97,3.09,10.38-.4,20.74-1.01,31.09-1.63,9.84-.57,19.69-1.15,29.53-1.72,11.54-.67,23.15-1.36,34.35-4.02,2.66-.64,5.38-1.39,8.1-1.06,2.89.34,5.44,1.85,7.9,3.29,3.89,2.29,7.97,4.55,12.53,4.99,4.55.44,9.71-1.5,11.34-5.5.69-1.68.71-3.51.71-5.31.08-25.05.17-50.11.13-75.16-.03-16.43-.1-32.87-.18-49.29ZM175.81,721.86c.01.12.05.23.11.32,1.01,1.65,1.98,3.34,2.85,5.06-.77-1.36-1.87-2.65-2.84-3.88.03.38.04.75.05,1.12-.16-.55-.43-1.31-.61-1.86.18.24.37.49.56.73-.02-.37-.05-.76-.09-1.13-.01-.13-.05-.26-.12-.37-9-14.51-22.71-26.33-35.64-37.68-2.5-2.2-5.02-4.41-7.97-6.06-2.13-1.21-4.5-2.13-6.31-3.74-4.64-4.13-4.07-11.15-6.78-16.58-1.4-2.81-3.68-5.15-5.6-7.67-12.47-16.35-9.43-38.85-2.68-57.9,3.02-8.5,6.83-17.06,13.63-23.37,6.55-6.08,16.44-9.66,25.2-7.21.52.15.74.76.45,1.23-5.51,8.86-8.02,19.34-7.06,29.55.21,2.25.58,4.54.03,6.74-.73,3-3.06,5.39-4.97,7.9-3.41,4.44-5.73,9.6-6.75,14.98-2.34,12.3,2.07,24.76,6.42,36.58,1.91,5.2,3.93,10.55,7.85,14.65,2.39,2.49,5.4,4.4,7.92,6.79,2.77,2.65,4.91,5.83,7,8.99,6.63,9.92,14.08,20.87,15.34,32.81Zm54.02-128.63c3.59,1.9,6.97,4.41,8.78,7.87,1.61,3.11,1.79,6.68,1.87,10.14.18,8.79-.52,18.57-7.26,24.7-4.91,4.46-12.04,6.02-18.85,6.65-7.85.75-15.82.51-23.6-.66.09.17.18.33.27.5-.24-.17-.46-.35-.68-.56-.3-.04-.59-.09-.89-.13,9.39,13.72,28.03,19.37,39.55,31.53.46.49,1.27.23,1.4-.42.5-2.52,1.09-5.03,1.78-7.51,1.38-4.99,3.14-9.89,5.24-14.65.02-.05.04-.09.05-.14.7-2.92,1.19-5.89,1.49-8.88.2-2.02.35-4.18,1.65-5.81.92-1.17,2.32-1.92,3.45-2.92,4.11-3.63,4.06-9.66,3.57-14.92-1.3-13.77-3.57-27.45-6.83-40.94-1.37-5.68-2.79-12.09.29-17.04.25-.4.77-.53,1.17-.27.85.56,1.69,1.13,2.47,1.77,8.19,6.58,9.21,17.89,9.63,27.98.26,6.35.52,12.69.79,19.04.37,8.79.68,17.91-2.94,26.03-1.69,3.78-4.19,7.23-5.44,11.15-1.12,3.5-1,7.68,1.35,10.5.4.47.2,1.21-.4,1.35-.83.19-1.69.28-2.54.26-.35,0-.7.18-.81.52-.55,1.66-.29,3.55.66,5.05.29.46.04,1.05-.48,1.2-2.82.83-4.19,4.61-3.74,7.61.44,2.97,1.81,5.94,1.59,8.86-.05.64-.76,1-1.29.64-1.88-1.3-3.77-2.59-5.66-3.89-.61-.42-1.42.11-1.27.83.55,2.81.27,5.84-2.47,6.65-1.09.32-2.3.12-3.28-.42-3.38-1.87-3.73-6.16-6.32-8.6-.34-.32-.87-.31-1.19.03-1.09,1.18-2.17,2.36-3.26,3.54-.43.47-1.21.29-1.39-.32-1.91-6.63-7.57-12.23-14.59-14.3-1.16-.34-2.49-.57-3.53,0-1.91,1.05-3.94,4.35-5,2.53-8.27-11.11-16.54-22.24-24.79-33.35-.29-.39-.86-.46-1.21-.12-.61.58-1.62.83-2.44.56-.4-.13-.64-.55-.55-.96.97-4.65,1.93-9.3,2.89-13.95.14-.72.3-1.43.44-2.15.86-4.15,1.72-8.35,1.77-12.57,0-.46-.37-.84-.83-.83-2.2.05-4.57-.56-5.51-2.37-.89-1.73,1.1-4.07,2.79-3.78.45.08.91-.16.98-.61.85-5.27,4.27-10.14,9.1-12.96.52-.31.54-1.06.03-1.39-2.2-1.39-4.17-3.09-5.82-5.02-.33-.38-.22-.97.2-1.24,1.53-.99,3.94-.54,5.96-.4,1.78.14,4.03-.8,4.55-2.12.2-.51.8-.74,1.25-.42.29.2.57.4.86.6.46.32,1.09.09,1.26-.45.28-.91,1.21-1.76,2.27-1.74,1.49.04,2.66,1.14,3.34,2.43.23.43.76.59,1.17.33,4.83-3.03,10.42-5,16.19-5.69.34-.04.67.14.83.44.47.87.93,1.73,1.39,2.6.23.43.04.97-.42,1.15-10.68,4.28-22.53,10.36-24.92,20.55l1.25.87c12.92-8.31,30.97-9.16,44.65-1.94Zm69.33-128.69c-1.4-2.59-1.36-5.62-1.03-8.5.26-2.4.81-4.94,2.6-6.68,2.11-2.04,5.57-2.46,8.47-1.61,2.9.84,5.31,2.75,7.35,4.85.46.48.92,1,1.03,1.64.26,1.57-1.71,2.63-3.4,2.86-2.03.28-4.45.23-5.25,2.4-.3.82-.25,1.72.05,2.54,2.82,7.71,8.82,13.28,13.36,19.82.52.75-.39,1.67-1.14,1.15-7.62-5.21-18.53-11.97-22.04-18.48Zm69.19-8.03c.08-.12.14-.24.21-.37-.03.15-.1.27-.21.37Z"/>
    <path class="cls-14" d="m843.18,929.33c-.54,6.26-2.68,12.41-6.25,17.75-5.55-.72-8.43-6.32-11.3-10.82-7.01-10.96-18.74-18.43-28.26-27.58-16.3-15.69-26-36.17-37.25-55.35-11.16-19.01-24.13-37.1-38.72-53.97-7.69-8.91-16.05-17.64-26.68-23.37-10.61-5.72-23.96-8.07-35.27-3.67,9.46-11.62,4-28.49-4.16-40.92-4.57-6.96-10.73-14.01-19.35-15.37-4.34-.68-9.21.1-12.86-2.23-5.74-3.66-4.28-11.87-1.74-17.91,4.76-11.31,9.97-36.22,21.22-30.13,7.89,4.28,27.44-26.4,31.39-35.41,2.59-5.91,3.99,2.37,3.94-3.08.35,8.08,7.82,23.77,15.84,39.02,2.97,5.93,6.16,11.79,9.47,17.61,1.22,2.24,2.38,4.37,3.45,6.37,16.34,30.42,34.75,60.63,47.22,92.61,4.81,12.32,9.05,24.88,14.59,36.94,0,.04.01.07.04.1,4.74,12.29,9.93,24.37,16.34,35.91.01.01.01.02.01.04,1.01,2.78,2.09,5.5,3.47,8.14,2.64,5.07,6.31,9.61,9.94,14.11,7.18,8.89,14.44,17.85,23.45,25.16.1.09.2.16.3.23.01.02.03.04.05.05,4.74,4.49,9.66,8.62,14.6,12.14,2.16,1.54,4.33,2.97,6.49,4.26.01,1.03.01,2.02.01,2.96.03,2.62.01,4.83.01,6.42Z"/>
    <path d="m620.52,879.19s0-.22.03-.21c.63-.03,1.25-.35,1.88-.48.28.13.55.22.7.53.44,1.66-2.7,1.54-2.6.16h0Zm0,0c.04,1.01,1.32.41,1.7.03.03-.06-.06.04.01.19-.01.02.03.04.02,0-.02-.03-.05-.06-.07-.09l.2.05c-.59-.12-1.27-.36-1.82-.38,0,0-.04.19-.04.19h0Z"/>
    <path class="cls-14" d="m808.18,995.55c-17.06,6.98-39.03,7.14-49.99,21.21,6.1,4.59,15.22,5.28,22.03,1.7-10.74,14.61-28.27,24.7-47.09,27.07-8.84,1.12-17.98.62-26.56,2.96-7.08,1.92-13.84,5.76-21.21,5.33-6.21-.37-12.43-3.79-18.34-1.94-8.03,2.52-9.39,12.31-10.45,20.17-1.07,7.85-6.29,17.59-14.61,16.07-4.07,22.86,6.8,47.05-.81,69.12-3.73,10.82-11.57,12.69-20.62,18.62-5.98,3.92-9.37,9.76-17.05,10.76-10.62,1.38-23.46-2.2-34.19-1.16-2.26.22-4.61.49-6.97.76h-.01c-5.13-.28-10.24-.59-15.36-.88.77-1.1.85-2.49.73-3.86,5.51,5.18,17.77,5.54,24.09,1.38,5.1-3.35,2.3-6.97,3.76-11.68,2.42-7.86,7.67-4.11,14.1-2.42,8.05,2.12,15.83-5.27,17.49-12.92,1.65-7.64-.64-15.49-1.16-23.28-.38-5.69.2-11.43,1.71-16.96,1.13-4.08,2.98-8.31,6.79-10.58,3.49-2.08,8.95-1.48,10.98,1.71-3.83-7.92-1.77-17.36,1.53-25.57,3.43-8.52,8.15-16.84,8.79-25.92.67-9.43-2.93-19.86,2.55-27.79,2.3-3.35,5.93-5.69,8.71-8.69,7.44-8.07,7.56-21.2.27-29.39.39,3.17-3.93,5.86-6.91,4.32,2.49-3.39-.39-7.94-3.57-10.77-3.17-2.82-7.08-5.94-6.79-10.03.29-3.94,4.68-6.71,8.9-6.91,4.21-.2,8.23,1.5,12.06,3.15-5.12-12.41-16.2-22.56-29.58-27.08-4.15-1.39-9.66-4.82-7.18-8.24,1.26-1.75,3.91-1.88,6.18-1.85,18.21.35,37.35.94,52.98,9.68-10.82-19.59-32.08-33.82-55.41-37.1-15.74-2.21-31.73.29-47.59,1.55-2.67.21-5.7.28-7.63-1.46-2.77-2.51-1.22-7.24,2.01-9.21,3.22-1.97,7.33-1.97,11.19-1.97,23.84.05,47.68-1.87,71.16-5.71,8.07-1.32,16.34-2.97,23.05-7.35,6.73-4.38,11.53-12.18,9.7-19.64-13.95,13.28-35.9,14.65-55.72,16.31-1.47.12-3.34.61-3.59,1.91-22.54.6-45.06,1.19-67.61,1.79-3.9.1-8.13.11-11.28-2.04-6.04-4.13-4.25-12.84-1.84-19.48-4.02-.01-8.07,1.38-11.11,3.79,3.52-3.67,8.41-6.08,13.14-8.35-3.76-4.19-2.62-11.36,2.26-14.35-6.59,1.01-11.37,6.13-15.45,11.15.04-.22.1-.44.2-.64,0-.01.01-.01.01-.01.37-.37.69-.73,1.03-1.11.01-.01.01-.02.03-.04.18-.15.37-.29.55-.44-.1.05-.21.1-.3.16,6.04-6.76,11.34-14.18,18.81-19.49,1.01-.71,2.07-1.37,3.19-1.97,5.12-1.97,10.57-3.14,16.12-3.36.01-.12.04-.26.05-.38.35.01.69.04,1.05.07,4.84.46,9.26,2.4,12.19,6.17-12.7,1.63-26.31,5.31-33.65,15.12-7.34,9.82-3.38,26.89,9.28,28.84,3.62.56,7.33-.16,10.91-.9,24.68-5.15,49-11.7,72.81-19.64,5.17-1.71,10.41-3.52,15.9-3.75,4.07-.17,8.15.54,12.22.26,6.08-.43,11.7-3.02,17.48-4.82,19.5-6.06,42.05-2.67,58.51,8.82,16.38,11.42,25.88,29.3,34.78,46.5-4.17-7.97-18.36-6.46-23.37,1.09-5.02,7.53-2.97,17.51,1.26,25.46,6.99,13.16,18.98,23.27,30.71,33.03,1.98,1.65,4.08,3.35,6.67,3.83,2.04.37,4.13-.06,6.15-.5,15.78-3.4,33.29-7.96,41.41-21.04,1.47,21.91-12.95,44.01-34.48,52.81Z"/>
    <path class="cls-13" d="m562.74,904.65c1.92,1.74,4.96,1.66,7.63,1.46,15.86-1.26,31.85-3.77,47.59-1.55,23.33,3.28,44.59,17.51,55.41,37.1-15.62-8.74-34.76-9.33-52.98-9.68-2.26-.04-4.92.1-6.18,1.85-2.47,3.42,3.04,6.85,7.18,8.24,13.38,4.52,24.47,14.67,29.58,27.08-3.83-1.65-7.85-3.35-12.06-3.15-4.21.2-8.61,2.97-8.9,6.91-.29,4.08,3.62,7.2,6.79,10.03,3.18,2.84,6.06,7.39,3.57,10.77,2.98,1.54,7.3-1.15,6.91-4.32,7.29,8.19,7.17,21.32-.27,29.39-2.79,3.01-6.41,5.34-8.71,8.69-5.48,7.94-1.88,18.37-2.55,27.79-.64,9.08-5.36,17.4-8.79,25.92-3.3,8.2-5.36,17.64-1.53,25.57-2.03-3.19-7.48-3.79-10.98-1.71-3.81,2.26-5.67,6.49-6.79,10.58-1.52,5.53-2.09,11.27-1.71,16.96.52,7.79,2.81,15.64,1.16,23.28-1.66,7.65-9.45,15.04-17.49,12.92-6.44-1.69-11.68-5.44-14.1,2.42-1.45,4.71,1.35,8.33-3.76,11.68-6.32,4.16-18.58,3.8-24.09-1.38-.03-.4-.08-.82-.13-1.21-2.28-18.03-3.68-36.28-1.61-54.34.89-7.84,2.42-15.59,4.19-23.28.86-3.8,1.71-7.43,2.56-10.97,3.22-11.31,7.33-22.39,12.27-33.14,1.23-2.12,2.29-4.32,3.17-6.59.67-1.35,1.35-2.68,2.04-4.01,1.07-2.03,2.19-4.18,2.43-6.41.42-.44.71-.92.6-1.58-.14-.84-.75-1.87-1.52-2.93-.58-1.17-1.36-2.29-2.11-3.39-1.26-1.85-2.43-3.75-3.52-5.7-1.02-2.16-1.99-4.34-2.89-6.55-.6-1.47-1.18-2.95-1.71-4.44-.76-2.07-1.45-4.17-2.05-6.27-.1-.35-.21-.71-.3-1.06-.33-1.16-.61-2.32-.88-3.48-1.09-4.74-1.71-9.55-1.71-14.38,0-.42,0-.82.01-1.24-.01-.04-.01-.09,0-.13.01-.37.03-.72.04-1.09.01-.31.03-.61.05-.92.01-.32.04-.64.07-.95.01-.21.04-.42.05-.62.04-.42.08-.82.13-1.22.05-.46.1-.92.17-1.38.01-.09.03-.17.04-.26.08-.46.14-.93.24-1.41.09-.55.2-1.1.31-1.65.08-.38.16-.77.25-1.16.08-.38.17-.76.27-1.15.09-.38.2-.77.3-1.15,1.16-4.37,2.83-8.62,4.87-12.74.27-.59.56-1.16.86-1.72.38-.72.76-1.43,1.15-2.14.52-.97,1.07-1.92,1.65-2.87.26-.45.54-.89.81-1.34.84-1.36,1.73-2.71,2.63-4.05.47-.7.96-1.39,1.44-2.09,0-.01.01-.02.03-.04,2.01-2.38,4.21-4.63,6.59-6.71-.43-.13-.88-.23-1.31-.32.12-.15.22-.28.34-.43-1.56-.11-3.06.02-4.51.35-4.4.66-8.44,3.58-11.78,7.23-.07.06-.13.12-.18.18-1.88,1.87-3.62,3.91-5.23,5.88.34-4.39.71-8.84,2.34-12.96,1.64-4.12,4.76-7.94,9.15-9.51.64-.23,1.32-.43,2.01-.62,1.94-.33,3.93-.54,5.53-1.57.99-.64,1.67-1.44,2.07-2.36.05-.11.1-.22.13-.34.07-.1.09-.21.13-.32.03-.1.07-.21.07-.31.05-.18.08-.37.09-.55.46-3.64-2.32-8.19-6.01-10.36-2.7-1.58-5.8-2.67-8.67-3.99-2.96-2.14-5.67-4.46-7.59-7.43-1.57-2.42-2.56-5.2-3.57-7.94-1.05-4.6-2.13-9.06-6.21-11.46-1.44-.84-3.04-1.28-4.7-1.55-4.55-1.54-9.79-1.85-13.21-4.99-4.34-4-3.62-11.04-.07-15.66.43-.57.92-1.11,1.41-1.64,0,0,0-.01.01-.01,3.04-2.41,7.09-3.8,11.11-3.79-2.41,6.64-4.2,15.35,1.84,19.48,3.15,2.15,7.38,2.14,11.28,2.04,22.54-.6,45.06-1.19,67.61-1.79-.01.06-.03.12-.03.2-.08,1.46,3.21.45,1.84-.24-.6.01-1.22.04-1.82.05.25-1.3,2.12-1.79,3.59-1.91,19.82-1.66,41.78-3.03,55.72-16.31,1.83,7.46-2.97,15.26-9.7,19.64-6.71,4.38-14.98,6.03-23.05,7.35-23.49,3.84-47.32,5.76-71.16,5.71-3.86,0-7.97,0-11.19,1.97-3.23,1.97-4.79,6.7-2.01,9.21Z"/>
    <path class="cls-11" d="m540.56,885.35c-3.23-.55-6.7-.5-9.72-1.7-5.91-2.37-8.64-9.61-6.31-15.22.88-2.1,2.33-3.91,4.16-5.37-.5.53-.98,1.06-1.41,1.64-3.56,4.62-4.28,11.66.07,15.66,3.43,3.14,8.66,3.45,13.21,4.99Z"/>
    <path d="m577.22,928.62c.19.22.19.58.22.9,0,0-.88-.46-.88-.46.17-.21.48-.37.66-.44h0Zm0,0c-.1.31.03.66.27.81,0,0-.88-.46-.88-.46.06,0,.32-.14.32-.1.13.02.29-.08.3-.24h0Z"/>
    <path d="m525.5,993.11c-1.53-11.3-3.03-23.07.39-34.06-.19,1.3-.41,2.58-.56,3.88-1.24,9.81.07,20.23.17,30.19h0Z"/>
    <path d="m677.88,627.27c-.68-.13-.68-.41-.01-.59.69.18.68.36.01.59h0Z"/>
    <path d="m570.96,804.43c-.19,6.68-1.05,13.28-2.6,19.78.18-6.68,1.06-13.28,2.6-19.78h0Z"/>
    <path d="m569.4,824.29c.38.12.45.17.46.2-.02.03-.12.04-.51,0-.38-.12-.46-.17-.46-.2.03-.03.12-.04.51,0,0,0-.39-.05,0,0Z"/>
    <path class="cls-13" d="m574.68,803.76c-1.77,6.85-3.52,13.68-5.29,20.53-.35-.04-.69-.06-1.05-.07-5.42-.31-11.28,1.12-16.17,3.74-5.29,2.03-10.21,4.9-14.48,8.45.03-.34.03-.67,0-1.01-.3.6-.61,1.2-.92,1.8-4.91,4.26-8.9,9.4-11.54,15.15-8.37-3.79-16.75-7.59-25.12-11.38-3.44-1.55-7.03-3.23-9.22-6.15-2.19-2.93-2.36-7.51.67-9.68-3.31-1.46-6.63-2.9-9.94-4.35,3.43-3.46,6.99-7.15,8.1-11.75,1.1-4.61-1.32-10.31-6.27-11.3-2.6-.53-5.29.33-7.77,1.26-14.33,5.37-27.44,13.51-38.28,23.77-4.79,4.52-10.05,9.84-16.85,9.75-1.75-.02-3.52-.44-5.08-1.21-8.18-3.99-8.14-14.62-8.47-23.23-.33-8.61-5.55-19.59-14.63-18.13,4.32,6.39,8.74,13.23,8.99,20.8.24,7.57-5.44,15.86-13.56,16.03,9.62-10.56,2.19-28.23-10.85-34.85-13.03-6.6-28.9-5.26-43.54-3.08-13.37,1.98-26.95,4.6-38.62,11.02-.16-2.51,1.81-5,4.42-5.61-12.9-4.23-27.14.76-39.07,6.99-11.95,6.25-23.58,13.98-37.13,15.72-18.66,2.4-36.65-7.1-51.47-17.95-14.81-10.86-28.63-23.67-46.24-29.88-14.33-5.04-31.15-5.77-42.33-15.54-.64-.56-1.26-1.15-1.84-1.75.2-6.06-9.22-19.62-11.54-24.16-3.48-6.81-6.99-13.67-11.78-19.71-6.37-9.07-14.1-17.5-19.73-26.79-1.24-3.2-2.29-6.49-3.34-9.73-1.83-5.72-3.66-11.63-4.46-17.53.25-10.64,3.93-21.31,9.6-30.63.61-1.01,1.26-2.02,1.91-3.02.01-.02.03-.05.05-.06,9.3-11.71,21.08-21.54,32.92-31.26,12.72-6.7,22.43-17.03,31.81-27.69,8.02-7.52,15.83-15.21,23.64-22.9,2.45-2.41,4.89-4.82,7.34-7.23,11.2-7.57,24-12.37,37.43-10.64-11.11,7.32-20.21,17.26-26.27,28.64-1.06,1.97-2.07,4.03-3.82,5.5-2.6,2.18-6.31,2.6-9.73,3.24-22.24,4.11-40.93,21.67-45.19,42.48-.69,3.41-1.13,7.09-3.44,9.81-1.96,2.3-4.95,3.55-7.76,4.84-13.24,6.11-25.49,16.18-28.88,29.61-3.49,13.82,3.36,28.67,14.58,38.25,11.21,9.57,26.14,14.55,41.07,17.15,5.7-8.51,19.04-10.01,28.86-5.93,9.81,4.1,16.87,12.29,23.33,20.32,6.46,8.02,13.03,16.43,22.41,21.32,3.86-17.62-6.92-34.85-17.24-50.03,19.91,11.98,39.83,23.95,59.74,35.92,1.47.88,3,1.79,4.72,1.94,6.59.61,8.31-8.08,9.16-14.22,1.96-14.34,12.69-26.04,21.85-37.7,9.16-11.66,17.51-25.91,13.76-39.95,6.67,4.67,16.66-1.44,19.06-8.9,2.41-7.46.26-15.47.27-23.26.03-12.51,5.64-24.91,3.31-37.22-2.16-11.42-11.49-21.28-23.18-25.15-11.68-3.89-25.29-1.87-35.46,4.78-6.5,4.26-15.28,10.34-21.03,5.25,7.58-4.66,14.18-10.71,19.33-17.69,3.04-4.11,5.77-8.73,10.43-11.2,7.89-4.18,17.61-.59,26.36,1.59,8.77,2.19,20.66,1.36,23.56-6.68,3.81-10.52-12.46-20.37-9.24-31.06,10.77,2.21,18.17,11.27,27.59,16.63,9.43,5.36,25.51,4.26,27.27-5.93,7.18,11.52,15.62,22.35,25.13,32.27-18.81-.34-37.71,5.37-52.75,15.94,11.59,17.35,14.25,39.68,7.04,58.98-9.77-2.32-16.26,9.33-17.76,18.65-2.75,17.17-2.05,34.81,2.01,51.75.8,3.29,1.75,6.61,3.79,9.39,3.64,4.94,10.04,7.26,15.71,10.06,29.43,14.54,48.97,48.54,82.23,50.07,15.03.68,29.22-5.81,43.74-9.49,19.68-4.99,41.48-4.62,59.61,4.08-11.29,3.39-21.16,10.75-27.21,20.27-3.01,4.72-4.78,11.44-.46,15.17,4.4,3.8,11.5,1.5,17.36,2.7,12.36,2.54,14.18,18.12,13.2,29.92-1.02,12.3-2.04,24.6-3.06,36.9,11.98,1.32,20.4-10.04,28.78-18.13,9.77-9.44,22.96-15.74,36.87-17.61Z"/>
    <path class="cls-15" d="m204.18,494.39c-4.65,5.99-10.78,10.92-16.83,15.79-3.87,3.09-7.87,6.27-12.74,7.87-1.1.35-2.27.62-3.45.77-4.05.53-8.32-.26-11.15-2.8-5.35,5.03-10.71,10.05-16.08,15.08-6.97,4.5-13.36,9.98-18.95,15.63-4.63,4.68-9.06,9.62-13.56,14.5-6.75,6.06-13.66,12.03-20.79,17.78-4.15,3.34-8.36,6.63-12.59,9.92l-.15.09c-14.4,6.8-25.86,18.64-34.39,31.17-.03.01-.04.04-.05.06-1.33,1.6-2.62,3.24-3.86,4.92-3.36,4.57-6.32,9.48-7.7,14.79-1.19,4.59-1.19,9.27-.52,13.94-.12,4.71.45,9.4,1.85,13.99,1.44,4.71,3.67,9.07,6.33,13.28,1.85,4.59,4.12,9.01,7.33,12.95,3.38,4.14,7.7,7.62,11.37,11.57.69.75,3.28,4,3.93,4.77,2.42,3.28,1.58,4.84,4.6,7.68,11.14,10.5,13.49,23.82,17.94,33.7,0,.44-.07.83-.19,1.19-.47,1.34-1.32,2.09-2.42,2.42-6.64-2.87.24,2.84-6.15-.43-16.49-8.42-45.27-27.29-59.09-38.9h0c-.74-1.27-1.39-2.56-1.98-3.89-.96-2.19-6.03,8.97-6.93,6.78-6.5-15.82-.8-35.76-3-60-1-11-1.26-31.7-1-45,.15-7.84,5.96-13.11,9.71-18.26,1.21.54,2.57-.79,6.03-2.23,5.59-2.31,11.05-4.27,17.2-5.09,4.57-.61,9.82-.94,12.66-4.19.41-.46.76-.98,1.03-1.5,0,0,0-.01.01-.01.41-.4.76-.82,1.02-1.26.85-1.39.99-3.03,1.4-4.57.54-2.03,1.52-3.89,2.81-5.6.03-.01.04-.05.07-.07,2.65-2.85,6.29-5.09,9.8-7.17,5.13-3.04,10.42-5.92,15.73-8.75h0c5.36-2.38,10.74-4.73,15.73-7.65,2.72-1.59,5.33-3.33,7.87-5.16h.01c7.18-4.2,14.08-8.7,20.39-13.87,2.79-2.29,5.77-4.96,8.7-7.75h.01c3.71-2.12,7.61-3.89,11.83-5.17,2.92-.89,6.05-1.55,8.46-3.3,3.83-2.76,4.75-7.28,5.88-11.69.41.05.76.1,1.02.15.03-1.11-.04-2.38.04-3.67v-.02h0c.05-.2.12-.38.19-.56,1.11-2.9,2.84-5.43,5.05-7.63h.01s.01-.02.03-.04c.01-.02.03-.04.07-.05.56-.43,1.15-.86,1.73-1.27,1.69-1.21,3.36-2.42,5.05-3.64.01,0,.01-.01.03-.01,0-.01.01-.01.01-.01,5.66-3.01,12.47-4.62,19.21-4.72h.05c4.59.59,9.06,1.7,13.25,3.42l.04.03c2.89,3.39.78,8.24-1.93,11.72Z"/>
    <path class="cls-11" d="m69.59,727.66c2.32,4.54,11.74,18.1,11.54,24.16-8.38-1.07,1.41-15.09-17.1-33.7-2.85-2.86-3.91-6.9-6.21-10.17,4.79,6.04,8.3,12.9,11.78,19.71Z"/>
    <path class="cls-15" d="m192.44,481.61c2.17.06,3.24,2.67,1.74,4.24-5.24,5.47-14.23,14.63-23.4,23.01l-.02.02c-14.13,7.75-26.08,18.81-39.35,28.12-.04,0-.07.03-.11.06-10.38,5.81-21.19,11.18-31.88,16.65l-.16.07c-7.69,3.28-15.36,6.57-22.4,10.76-4.62,2.74-9.05,6.04-12.17,9.98-.04.03-.06.08-.09.1-1.64,1.72-2.98,3.6-3.89,5.71-1.28,3-1.64,6.36-3.2,9.2-.02,0-.02.02-.02.02-5.36,5.13-18.74,7.96-26.17,7.89-10.86-.08-17.77,2.61-22.18,7.1-1.13,1.15-3.04.96-3.89-.41-.22-.35-.45-.75-.69-1.18-2.35-4.19-.17-14.33-.34-18.93-.25-7.45-.61-14.91-1.06-22.35-.08-1.31.87-2.47,2.18-2.63,7.07-.85,12.82-5.87,18.37-10,8.84-6.6,19.04-11.69,29.19-16.73,38.1-18.93,76.2-37.86,114.28-56.8,1.87-.93,3.98.69,3.57,2.74-.12.61-.25,1.23-.37,1.84-.36,1.79,1.27,3.32,3.05,2.89.01,0,.03,0,.04,0-.34.62-.65,1.24-.97,1.87,1.47-2.97,11.06-3.49,19.95-3.24Z"/>
    <path class="cls-15" d="m558.15,954.98c1.54-2.41,1.31-6.11,3.93-4.89,0-1.22,5.16-4.83,5.23-4.89,3.64-3.37,4.45-1.44,9.16-2.45,1.44-.21,3.54.37,5.06.64-1.93,2.29-3.82,4.63-5.61,7.03-.01.01-.03.02-.03.04-1.08,1.2-2.11,2.45-3.08,3.72-.33.43-.65.86-.96,1.28-.29.37-.56.75-.82,1.12-.4.59-.81,1.17-1.19,1.77-.39.59-.78,1.19-1.14,1.8-.36.61-.72,1.22-1.07,1.85-.04.05-.07.11-.1.18-.36.62-.69,1.26-1.01,1.9-.06.07-.1.15-.11.23-.24.43-.44.86-.64,1.3-.19.35-.38.73-.54,1.11-.11.23-.22.46-.31.71-.28.57-.53,1.16-.76,1.76-.03.06-.06.13-.07.21-.24.56-.46,1.12-.67,1.7-.14.37-.28.75-.4,1.11-.13.33-.24.66-.33.99-.18.54-.35,1.08-.5,1.61-.08.22-.14.44-.19.66-.11.35-.21.71-.31,1.06-.14.51-.26,1.01-.39,1.53-.1.39-.19.79-.26,1.19-.06.22-.1.44-.14.65-.12.54-.22,1.08-.31,1.61-.07.31-.13.61-.17.93-.08.49-.17.99-.22,1.49-.01.09-.03.17-.04.26-.07.46-.13.92-.18,1.38-.06.4-.1.81-.14,1.22-.01.21-.04.42-.06.62-.03.32-.06.64-.07.95-.03.31-.04.61-.06.92-.01.37-.03.72-.04,1.09-.01.05-.01.1,0,.13-.01.42-.01.82-.01,1.24-.03,2.56.1,5.11.38,7.65.75,6.87,2.61,13.66,5.45,20.13.63,1.43,1.29,2.85,2.01,4.26.72,1.41,1.49,2.79,2.31,4.16.72,1.44,1.46,2.89,2.22,4.3.67,1.26,2.42,3.07,3.75,4.78.44.82.79,1.69.93,2.59.11.65.11,1.28.04,1.92-.83.81-2.18,1.44-2.42,2.64-.51,2.65-1.31,5.26-2.33,7.78-1.17,2.18-2.29,4.38-3.36,6.59-.99,1.59-2.08,3.13-3.28,4.61-.64.77-2.64,3.14-1.86,2.48-3.28,9.15-5.64,17.33-7.89,26.04-8.31,27.4-11.18,56.1-8.27,84.34.24,2.19,1.31,4.01,2.94,5.45.13,1.37.04,2.76-.78,3.86-.69-.04-1.4-.07-2.1-.11-3.25-.17-6.56-.37-9.82-.73-1-.81-1.69-1.86-2.03-3.18-.78-3.12-6.99-1.92-9.92-3.8-7.6-4.9-9.6-14.02-10.4-22.29-.4-4.12-.65-8.24-.78-12.36v-.04c0-.17.01-.33.03-.5.36-5.55,1.08-11.09,1-16.64-.04-2.69-.26-5.37-.38-8.06-.01-.01,0-.02,0-.02.47-6.43,1.15-12.86,1.94-19.29v-.04c.28-1.41.57-2.82.86-4.23,4.25-21.08,7.06-42.38,8.38-63.75.65-10.56,1.65-21.53.88-32.1-.12-1.68-.26-3.36-.42-5.07h0c-.4-11.42-.89-22.84.42-34.08h0c.38-1.55.79-3.09,1.19-4.62,1.39-5.22,2.76-10.44,4.15-15.66,1.17-4.39,2.33-8.8,2.54-13.3.25-5.71-1.08-11.47-3.85-16.63-.85-1.57-1.83-3.09-3.24-4.29-1.29-1.11-2.88-1.9-4.36-2.78-5.9-3.53-10.28-8.73-13.74-14.22-1.82-2.87-4.02-6.31-3.99-9.59.01-3.33,1.76-6.55,4.33-8.94.91-.84-3.31.77-3.02.38,0,0,2.6-1.22,2.62-1.22,4.08-4.62,7.51-13.82,15.7-15.9.74-.19-.56.5,0,0h1.31c.82-.48-.85-2.02,0-2.45-.01-.26,39.25-26.9,3.28,1.66,4.33-5.03,9.4-10.14,16.41-11.15-5.18,3-6.39,10.16-2.4,14.35-5.01,2.27-10.21,4.68-13.95,8.35-.01,0-.01.01-.01.01-1.94,1.46-3.49,3.26-4.42,5.37-2.47,5.61,1.36,10.82,7.63,13.19,3.21,1.2,5.95,3.18,9.38,3.73,1.43.44,2.79.99,4.03,1.76,4.17,2.59,5.86,6.87,7.56,11.25.9,3.73,1.79,7.57,4.32,10.47,1.94,2.24,4.64,3.67,7.53,4.9,4.22,2.9,8.92,5.45,12.61,8.88,1.61,1.5,3.11,3.47,2.97,5.47-.03.18-.06.37-.1.55-.06.21-.13.43-.21.62-.03.12-.08.23-.14.34-1.28,2.4-4.82,3.08-8.07,3.92-.58.1-1.17.2-1.74.34-10.39,2.57-13.32,11.62-13.29,21.13Z"/>
    <path class="cls-10" d="m185.79,596.11c6.21-5.52,12.99-10.48,20.22-14.78,5.21-3.1,10.82-5.9,16.95-6.6,6.13-.7,12.9,1.1,16.57,5.75,2.22,2.81,3.1,6.33,3.93,9.74,2.31,9.52,4.64,19.26,3.5,28.97-.85,7.2-3.57,14.07-6.26,20.85-4.03,10.13-8.06,20.27-12.09,30.4-6.79-6.13-15.14-10.48-22.88-15.53s-15.17-11.17-18.75-19.33c11.35,7.64,27.72,8.06,39.51,1.03,1.98-1.18,3.84-2.56,5.34-4.24,4.03-4.54,4.99-10.78,5.35-16.67.23-3.67.29-7.39-.56-10.97-1.54-6.48-6.15-12.26-12.36-15.49s-13.9-3.84-20.6-1.64c-5.46,1.79-10.1,5.27-15.37,7.51-5.27,2.23-11.99,2.99-16.46-.45l13.96,1.46Z"/>
    <path d="m533.01,919.48c.55-8.53-5.59-16.99-13.88-19.07,3.64-1.3,7.72-.24,10.58,2.27,5.53,4.88,8.11,12.95,6.6,20.15-2.11,10.84-9.23,20.15-10.43,31.23-.78,7.3.69,14.58,1.46,21.89,1.56,14.71-.22,29.46-1.72,44.04l-4.61,43.84c-1.4,13.92-5.58,52.15-6.97,65.76-1.87,17.44-5.72,39.09,12.91,48.82,9.77,5.1,21,5.71,31.86,6.41,0,0,22,1.35,22,1.35,51.26,3.05,102.79,5.18,154.02.51,6.42-.64,15.55-1.62,21.86-2.49,18.05-2.3,36.79-6.32,55.07-2.44,7.13,1.3,13.85,5.34,21.06,5.31,8.11-.25,10.5-7.98,10.54-15.05.23-71.46.37-159.89.6-231.41.77-20.77-9.76-27.42-24.25-39.57-2.37-2.3-5.91-5.21-8.07-7.61-1.43-1.5-4.42-4.55-5.66-6.09-.88-1.07-2.68-3.18-3.57-4.24-7.5-9.25-13.99-19.61-19.62-30.1-20.43-39.28-32.39-82-52.57-121.33-13.7-28.02-29.35-55.1-46.7-81.03-5.99-8.5-9.42-15.66-4.49-26.05,8.29-16.37,16.72-32.75,21.74-50.48,4.1-14.05,6.27-28.79,5.06-43.42-2.39-28.75-20.34-58.72-49.43-66.42,0,0,2.07-8.49,2.07-8.49-.02-.01-2.01,8.61-2.04,8.48,14.37,3.6,26.65,13.27,35.04,25.31,27.17,38.1,13.4,87.52-6.56,125.61-5.55,10.81-10.99,18.73-3.46,30.25,10.14,15.3,20.18,30.74,29.26,46.7,14.68,25.49,27.73,51.93,39.04,79.09,18.36,43.45,31.78,91.59,67.09,124.78,10.38,10.04,25.34,18.04,28.11,33.47,1.54,7.5.58,25.4.81,33.19,0,0-.08,44.09-.08,44.09-.08,40.39-.19,114.52-.33,154.3-.15,10.32,1.91,27.1-12.47,27.94-7.69.07-14.23-4.03-21.53-5.37-10.71-2.29-21.78-1.76-32.61-.53-14.31,1.89-29.32,4.1-43.77,5.41-51.31,4.61-102.97,2.51-154.28-.73-12.76-1.15-31.51-1.11-43.97-4.18-7.21-1.75-14.41-5.08-19.16-11.01-4.85-5.86-6.46-13.65-6.52-21.07.1-12.58,2.95-31.22,4.12-43.95,2.45-21.9,7.13-65.77,9.59-87.65,1.59-14.58,3.44-29.26,1.96-43.88-.72-7.27-2.17-14.61-1.34-22.01.43-3.68,1.49-7.25,2.84-10.68,2.63-6.84,6.33-13.32,7.77-20.56,2.34-9.74-4.79-25.46-16.6-22.3,7.96,1.64,14.26,10.71,13.61,19.01h0Z"/>
  </g>
</svg>