<?xml version="1.0" encoding="UTF-8"?>
<svg xmlns="http://www.w3.org/2000/svg" viewBox="0 0 595 842">
  <defs>
    <style>
      .cls-1 {
        fill: #7dd3f9;
      }

      .cls-1, .cls-2, .cls-3, .cls-4, .cls-5, .cls-6, .cls-7, .cls-8, .cls-9, .cls-10, .cls-11, .cls-12, .cls-13, .cls-14, .cls-15, .cls-16 {
        stroke: #000;
        stroke-miterlimit: 10;
      }

      .cls-2, .cls-17 {
        fill: #aa7331;
      }

      .cls-18 {
        fill: #fff;
      }

      .cls-3, .cls-9 {
        fill: none;
      }

      .cls-4 {
        fill: #e52ea3;
      }

      .cls-5 {
        fill: #06ef16;
      }

      .cls-19 {
        fill: #0c7a0f;
      }

      .cls-6 {
        fill: #1a2cd3;
      }

      .cls-7 {
        fill: #08f2d6;
      }

      .cls-8 {
        fill: #005c2c;
      }

      .cls-20 {
        fill: #edda56;
      }

      .cls-9 {
        stroke-width: .25px;
      }

      .cls-10 {
        fill: #ff003d;
      }

      .cls-11 {
        fill: #1e56f4;
      }

      .cls-12 {
        fill: #e7ff00;
      }

      .cls-21 {
        fill: #231f20;
      }

      .cls-13 {
        fill: #e5dcea;
      }

      .cls-14 {
        fill: #991ed3;
      }

      .cls-22 {
        fill: #f2c4cd;
      }

      .cls-15 {
        fill: #a47bb7;
      }

      .cls-16 {
        fill: #8bffc9;
      }
    </style>
  </defs>
  <g id="Layer_4" data-name="Layer 4">
    <rect class="cls-19" width="595" height="842"/>
  </g>
  <g id="Layer_3" data-name="Layer 3">
    <path d="m208.18,515.82c-.2.83-.96,1.06-1.58.46.4-.76.83-.88,1.58-.46h0Z"/>
    <path d="m327.66,623.06c.23.65.19.66-.25.13-.29-.62-.13-.69.25-.13h0Z"/>
    <path d="m206.6,516.28c-.66.16-.72.05-.12-.29.67-.16.71-.05.12.29h0Z"/>
    <path d="m327.4,623.19c.14.78-.28,1.14-1.04.9-.12-.8.27-1.12,1.04-.9h0Z"/>
    <path class="cls-3" d="m402.45,464.34l-.06-.18"/>
    <path class="cls-3" d="m388.06,515.39c-.46.11-.92.21-1.39.31"/>
    <path d="m291.94,591.19c3.69,1.01,7.63,1.72,11.44,1.25,0,0,.09,1.34.09,1.34-6.89,1.34-14.04-.81-19.71-4.74,2.9-.33,5.51,1.34,8.18,2.15h0Zm0,0c-2.29-.65-4.68-1.84-7.11-1.55,0,0,.11-.6.11-.6,5.15,2.1,10.54,3.12,16.04,3.37.78.04,1.57.05,2.36.04l.09,1.34c-2.02-.09-3.96-.51-5.86-1.01-1.89-.51-3.75-1.06-5.63-1.59h0Z"/>
    <path d="m290.42,531.36c-.93-.6-2.06-.95-3.17-1.11-1.83-.26-3.7-.08-5.54-.19-1.85-.11-3.77-.56-5.12-1.82-.44-.42-.83-.98-.78-1.59.04-.67.62-1.22,1.26-1.42.64-.21,1.33-.14,2-.02,4.31.76,7.99,3.24,11.35,6.15Z"/>
    <path d="m291.65,532.44c-.4-.36-.81-.73-1.23-1.08.46.29.88.65,1.23,1.08Z"/>
    <path d="m292.25,532.99l-.3-.14c-.09-.14-.19-.28-.3-.41.2.19.4.37.6.55Z"/>
    <path d="m294.36,534c-.03.3-.06.61-.08.92-.67-.64-1.34-1.29-2.03-1.93l2.11,1.01Z"/>
    <path class="cls-3" d="m316.45,530.47s.05-.05.07-.08c.06-.08.08-.19-.02-.23"/>
    <path d="m316.4,530.49c-.71.6-1.46,1.15-2.26,1.63l2.26-1.63Z"/>
    <path d="m328.57,526.42c-3.24,2.96-7.76,4.47-12.12,4.05t-.02-.01s.06-.05.09-.07c1.29-1.1,2.48-2.34,3.72-3.5,1.96-1.83,4.21-3.54,6.85-4.01.92-.17,2.06-.08,2.52.74.52.94-.25,2.07-1.04,2.8Z"/>
    <path d="m274.8,526.01c-4.65-1.64-7.32-7.05-6.04-11.79.91-3.66,3.81-5.95,5.89-8.81.7-.92,1.27-1.93,1.68-3.03-.19,1.16-.69,2.26-1.27,3.29-1.73,2.93-4.53,5.48-5.33,8.79-1.19,4.46,1.02,9.29,5.07,11.55h0Z"/>
    <path d="m330.78,524.57c5.55-3.65,5.88-9.27,1.37-14-3.72-3.99-9.9-6.86-11-12.78.89,2.73,2.91,4.84,5.09,6.61,3.27,2.63,7.35,5.06,9.09,9.17,2.11,4.43-.33,9.05-4.56,11h0Z"/>
    <path class="cls-3" d="m332.79,568.49s-.08.03-.12.03"/>
    <path class="cls-3" d="m201.7,498.04s-.03.05-.05.08c-.58-.29-.55-.51.05-.08Z"/>
    <path class="cls-3" d="m201.98,498.26c-.1-.08-.19-.16-.28-.22.02-.01.03-.02.03-.04.09.09.17.18.25.26Z"/>
    <path class="cls-3" d="m201.73,498c-1.6-1.66-5.31-4.84-6.71-7.06-.42-.65-.73-1.35-.84-2.13-.42-2.88.09-6.66.31-9.59.23-3.21,1.31-7.2,3.93-9.34.65-.53,1.64-.01,1.57.83-.1,1.32.1,2.64.13,3.95h0c.05,1.2-.04,2.38-.6,3.52-1.05,2.15-2.38,3.74-1.2,6.29,1.02,2.21,2.95,3.47,3.64,5.87.67,2.3,1.29,5.61-.23,7.66Z"/>
    <path class="cls-3" d="m204,506.93c-.35,1.05-1.82,2.17-2.96,2.13-1.06-.03-2.76-.7-3.31-1.67-.73-1.29-.09-2.55.09-3.68.65-.53,1.33-1.01,2.03-1.45.72-.22,1.99.38,3.02,1.57.71.83,1.5,2,1.13,3.1Z"/>
    <path class="cls-3" d="m401,503.93c-.35,1.05-1.82,2.17-2.96,2.13-1.06-.03-2.76-.7-3.31-1.67-.73-1.29-.09-2.55.09-3.68.65-.53,1.33-1.01,2.03-1.45.72-.22,1.99.38,3.02,1.57.71.83,1.5,2,1.13,3.1Z"/>
    <path d="m200.3,455.35c1.69.66,1.9,2.86,2.26,4.41.76,5.06-.37,10.3-2.44,14.9.98-4.94,2.02-9.79,1.67-14.8-.24-1.54-.06-3.51-1.49-4.51h0Z"/>
    <g>
      <path class="cls-17" d="m402.45,464.34l-2.34,1s-.03.05-.04.08c-.41.91-1.45,1.09-2.16.65-.33-.2-.59-.53-.68-.98-.59-2.96-.6-6.1-1.09-9.1-.15-.9-.34-1.79-.58-2.66,0-.02,0-.03-.01-.04-4.42-9.81-12.17-18.15-21.79-23.01-2.17-1.09-4.3-1.97-6.41-2.66-2.66-.83-5.37-1.46-8.12-1.96-6.73-1.08-13.58-1.09-21.23-1.66-3.5-.26-7.25-.56-11.11-.84-6.9-.36-13.85-.8-20.82-1.13h-.17c-2.38-.05-4.69-.06-6.9-.03-16.68.26-43.12,3.28-56,5-.96.13-1.89.28-2.8.44-1.54.45-3.08.94-4.61,1.46-6.52,2.2-13.16,5.83-19.19,10.31-1.71,1.27-3.37,2.6-4.96,3.99-.06.06-.13.12-.2.18-.27.24-.54.48-.82.73-.28.24-.54.49-.81.74-3.53,3.28-6.7,6.83-9.31,10.5-.04-.04-.09-.05-.14-.07-1.41-.46-2.63,1.06-3.31,2.38-2.9,5.71-4.7,18.67-5.79,27.26v.02c.3,5.85,1.09,11.67,2.37,17.38.84,3.74,1.96,7.56,4.47,10.44,2.14,2.47,5.56,4.06,8.7,3.52,13.89,33.9,31.6,66.24,52.69,96.2,2.34,3.33,4.76,6.67,7.91,9.25,3.74,3.06,8.35,4.91,13.02,6.19,15.59,4.27,32.74,2.55,47.18-4.73h0c19.16-16.68,31.48-39.75,43.34-62.26,7.62-14.45,15.38-29.37,17.31-45.54,7.24-1.64,13.79-4.62,15.44-11.89,3.02-13.31,2.47-29.23-1.05-39.16Zm-208.27,24.47c-.42-2.88.09-6.66.31-9.59.23-3.21,1.31-7.2,3.93-9.34.65-.53,1.64-.01,1.57.83-.1,1.32.1,2.64.13,3.95h0c.05,1.2-.04,2.38-.6,3.52-1.05,2.15-2.38,3.74-1.2,6.29,1.02,2.21,2.95,3.47,3.64,5.87.67,2.3,1.29,5.61-.23,7.66.09.09.17.18.25.26-.1-.08-.19-.16-.28-.22-.01.03-.03.05-.05.08-.58-.29-.55-.51.05-.08.02-.01.03-.02.03-.04-1.6-1.66-5.31-4.84-6.71-7.06-.42-.65-.73-1.35-.84-2.13Zm9.82,18.12c-.35,1.05-1.82,2.17-2.96,2.13-1.06-.03-2.76-.7-3.31-1.67-.73-1.29-.09-2.55.09-3.68.65-.53,1.33-1.01,2.03-1.45.72-.22,1.99.38,3.02,1.57.71.83,1.5,2,1.13,3.1Zm112.4,23.56s.02-.02.03-.03c.03-.02.06-.05.09-.07,1.29-1.1,2.48-2.34,3.72-3.5,1.96-1.83,4.21-3.54,6.85-4.01.92-.17,2.06-.08,2.52.74.52.94-.25,2.07-1.04,2.8-3.24,2.96-7.76,4.47-12.12,4.05-.02.01-.04.02-.05.02-.71.6-1.46,1.15-2.26,1.63l2.26-1.63Zm-39.33-5.26c.64-.21,1.33-.14,2-.02,4.31.76,7.99,3.24,11.35,6.15.46.29.88.65,1.23,1.08.2.19.4.37.6.55l2.11,1.01c-.03.3-.06.61-.08.92-.67-.64-1.34-1.29-2.03-1.93l-.3-.14c-.09-.14-.19-.28-.3-.41-.4-.36-.81-.73-1.23-1.08-.93-.6-2.06-.95-3.17-1.11-1.83-.26-3.7-.08-5.54-.19-1.85-.11-3.77-.56-5.12-1.82-.44-.42-.83-.98-.78-1.59.04-.67.62-1.22,1.26-1.42Zm-16.3-62.35c-.59,1.19-1.65,2.07-2.69,2.9-.57.46-1.15.92-1.81,1.25-2.47,1.23-5.42.38-8.03-.49-.9-.3-1.83-.61-2.57-1.2-1.93-1.66-2.35-4.73-2.43-7.15-.09-3.18,2.63-2.17,5.26-2.69.29-.06.65-.3,1-.51.31-.18.61-.34.87-.34.57.01,1.14.16,1.71.18.77.02,1.53-.18,2.3-.24,1.61-.12,3.19.38,4.71.95.19.07.39.15.58.22.48.19.99.4,1.26.84.17.28.21.63.25.96.21,1.8.39,3.71-.41,5.32Zm-31.88-23.61c-1.21.41-2.3.94-3.31,1.73,3.17-3.21,8.38-5.11,12.75-5.85-1.24-.97-2.99-1.23-4.46-.68,4.51-2.15,9.63-2.99,14.6-2.4-1.6-.94-3.5-1.34-5.33-1.13,5.93-1.58,12.32-1.37,18.13.6-1.19-1.33-2.81-2.26-4.56-2.64,4.78-.25,9.78-.45,14.1,1.58,1.35.64,2.77,1.83,2.54,3.31-.29,1.79-2.62,2.27-4.44,2.29-13.45.18-27.27-1.09-40.02,3.19Zm102.6,134.01c-4.99,10.93-16.18,18.67-28.09,19.83.37-.01.75-.03,1.13-.07,2.78-.26,5.46-1.17,8.08-2.14.51-.2,1.18-.36,1.54.06.18.19.22.47.26.73.14.91.28,1.83.41,2.75.05.33.1.69-.05.99-.46.89-2.14.44-2.55,1.35-.17-.16-.34-.31-.5-.47-.31.32-.61.65-.91.97-.15-.32-.31-.64-.46-.96-.53,1.27-2.95.45-3.52,1.7-.25-.35-.71-.52-1.13-.43-.26.05-.49.19-.75.23-.44.06-.86-.18-1.29-.29-.43-.1-1.01.04-1.08.47-.2-.72-1.27-.54-1.94-.23-.68.31-1.8.38-1.87-.37-.53.83-2.01.67-2.35-.25-.31.18-.61.36-.92.53-.25-.29-.5-.58-.76-.87-.08.4-.58.55-.98.49-.4-.06-.78-.25-1.18-.24-.45.01-.85.27-1.29.34-.43.08-1.01-.17-.98-.61-.29.18-.58.36-.88.55-.37-.27-.74-.54-1.12-.8-.25.17-.5.34-.75.51-.3-.19-.57-.45-.77-.75-.29.18-.52.45-.67.75-.35-.22-.65-.52-.88-.88-.24.22-.49.44-.74.65-.16-.36-.43-.68-.76-.91-.12.44-.44.82-.86,1.01-.28-1.7-.36-6.14,1.23-7.36.17-.13.4-.21.68-.24-2.91-1.53-5.61-3.47-8-5.72-3.06-2.91-5.43-6.29-7.34-10.04-.83-1.63-1.04-2.76-.79-3.73.36-1.36,1.61-2.4,3.3-4.04,4.07-3.93,8.34-7.66,12.79-11.16,1.98-1.56,4.23-3.15,6.75-3.01,2.82.15,5.33,2.46,8.13,2.05,1.83-.28,3.28-1.67,4.99-2.36,3.29-1.34,7.02.02,10.21,1.58,4.46,2.19,7.85,5.45,12.19,7.92,2.49,1.41,4.99,3.38,5.62,6.16.01.03.01.06.02.09.1.47.14.95.13,1.43-.02,1.64-.6,3.28-1.3,4.79Zm6.5-15.69c.01-.08.11-.15.2-.13.01,0,.03.01.04.02-.09.01-.17.05-.24.11Zm18.22-93.25c-.75.59-1.67.9-2.57,1.2-2.62.87-5.57,1.72-8.04.49-.65-.33-1.23-.79-1.81-1.25-1.03-.83-2.09-1.71-2.68-2.9-.81-1.61-.62-3.52-.42-5.32.04-.33.08-.68.26-.96.26-.44.78-.65,1.25-.84.19-.07.38-.15.57-.22h.01c1.52-.57,3.11-1.07,4.71-.95.77.06,1.53.26,2.31.24.57-.02,1.13-.17,1.71-.18.25,0,.56.16.87.34.35.21.71.45,1,.51,2.63.52,5.35-.49,5.25,2.69-.07,2.42-.49,5.49-2.42,7.15Zm17.85-25.07c-12.75-4.28-26.57-3.01-40.02-3.19-1.82-.02-4.15-.5-4.44-2.29-.23-1.48,1.19-2.67,2.54-3.31,4.32-2.03,9.32-1.83,14.1-1.58-1.75.38-3.37,1.31-4.56,2.64,5.81-1.97,12.2-2.18,18.13-.6-1.83-.21-3.73.19-5.32,1.13,4.96-.59,10.08.25,14.59,2.4-1.47-.55-3.22-.29-4.46.68,4.37.74,9.58,2.64,12.75,5.85-1.01-.79-2.1-1.32-3.31-1.73Zm26.94,64.66c-.35,1.05-1.82,2.17-2.96,2.13-1.06-.03-2.76-.7-3.31-1.67-.73-1.29-.09-2.55.09-3.68.65-.53,1.33-1.01,2.03-1.45.72-.22,1.99.38,3.02,1.57.71.83,1.5,2,1.13,3.1Zm1.62-21.37c-.53,1.07-1.44,1.93-1.88,3.05-.57,1.48-.21,3.13-.22,4.72-.01,1.14-.92,6.62-2.82,6.15-1.37-.34-1.16-4.21-1.1-5.15.41-5.69,1.27-10.94.92-16.53-.08-1.28,1.45-1.98,2.39-1.1.77.74,1.48,1.53,2.04,2.44,1.19,1.91,1.68,4.41.67,6.42Z"/>
      <g>
        <path d="m402.45,464.34l-2.34,1.01c-.24.64-.95,1.08-1.65.94-.66-.09-1.21-.66-1.28-1.33-.25-1.28-.4-2.59-.52-3.89-.2-2.62-.52-5.24-1.16-7.77-5.73-12.64-17.09-22.78-30.62-26.22-6.71-1.88-13.71-2.12-20.65-2.47-13.66-.77-27.98-2.11-41.68-2.31-13.91-.05-27.78,1.44-41.61,2.87-6.84.77-14.01,1.56-20.66,2.6-15.83,4.44-29.99,14.56-39.67,27.81,0,0-.6.05-.6.05.06.06-.14-.03-.25-.03-.41-.04-.79.12-1.13.38-1.48,1.25-2.08,3.29-2.72,5.1-.84,2.55-1.44,5.19-1.97,7.84-1.06,5.21-1.8,10.92-2.46,16,.17,3.18.49,6.42.95,9.6,1.11,6.13,1.76,13.07,5.86,17.99,2.12,2.4,5.46,3.91,8.6,3.25,0,0,.14.34.14.34,14.75,35.54,33.28,69.69,56.03,100.76,4.66,6.23,11.94,9.56,19.38,11.2,14.64,3.73,32.2,1.3,44.74-5.14,15.78-13.78,26.96-31.84,36.89-50.08,4.93-9.19,9.95-18.37,14.42-27.79,4.43-9.42,8.1-19.31,9.39-29.68,0,0,.02-.12.02-.12l.12-.03c4.79-1.11,9.88-2.78,13.02-6.77,3.05-4.03,3.14-9.47,3.87-14.3.96-9.95.67-20.24-2.46-29.81h0Zm0,0c3.19,9.55,3.54,19.86,2.64,29.82-.7,4.89-.77,10.33-3.84,14.44-3.17,4.07-8.31,5.8-13.15,6.95,0,0,.13-.15.13-.15-2.62,20.98-14.1,39.29-23.65,57.71-10,18.3-21.15,36.82-37.18,50.42-16.38,8.39-38.81,9.87-56.1,1.38-7.1-3.59-11.23-10.69-15.66-16.95-19.69-28.63-36.33-59.35-49.47-91.51,0,0,.51.28.51.28-1.71.29-3.46-.02-5.01-.68-4.78-1.96-7.13-7.17-8.25-11.84-1.56-6.35-2.46-12.76-2.79-19.3.68-5.4,1.44-10.8,2.51-16.16.81-3.21,2.55-14.73,7.03-13.89.08,0,.26.08.41.19l-.6.05c9.81-13.37,24.13-23.55,40.13-28.01,6.91-1.09,13.84-1.8,20.78-2.58,13.85-1.41,27.74-2.87,41.68-2.79,13.7.24,28.05,1.57,41.7,2.42,6.93.4,13.98.67,20.71,2.6,13.57,3.54,24.95,13.79,30.62,26.51.59,2.41.97,5.21,1.13,7.8.12,1.3.25,2.6.5,3.88.06.66.6,1.21,1.25,1.31.68.14,1.39-.29,1.64-.93,0,0,2.34-.99,2.34-.99h0Z"/>
        <path d="m194.18,488.81c-.31-2.13-.17-4.28-.02-6.42.31-4.47.41-9.63,4.12-12.82,1-.73,2.31.27,2.08,1.39-.05,2.14.56,4.33-.07,6.51-1.35,3.41-3.27,4.98-.57,8.45,2.24,2.45,3.4,5.72,3.2,9.07-.06,1.1-.36,2.23-1.04,3.13l-.02-.26.24.27-.25.28-.26-.22.27-.09c-.04.07-.12.2-.16.26l-.15-.08c-.15-.09-.31-.17-.43-.3,0-.04-.09-.01-.05-.24.13-.15.15-.08.2-.1.19.04.35.17.51.28h-.16s-.07.04-.05.09l.04.11c-1.37-1.46-2.85-2.83-4.25-4.28-1.33-1.45-2.9-2.98-3.19-5.02h0Zm0,0c.33,2.03,1.92,3.51,3.27,4.94,1.41,1.45,2.95,2.76,4.42,4.17v.08c.03.08-.08.18-.1.18-.2.02-.36-.17-.52-.21.02-.02.02.05.14-.08.03-.19-.02-.12,0-.13l.03.03c.09.07.2.13.31.18l-.23.06s.02-.03.03-.04l.16-.18c.1.09.31.23.41.31,0,0-.25.28-.25.28-.09-.08-.29-.29-.37-.37,1.74-2.6.76-6.47-.56-9.04-1.12-1.82-2.95-3.3-3.44-5.55-.58-2.33,1.24-4.3,1.93-6.23.61-2,.01-4.17.18-6.28.03-.33.04-.41-.04-.58-.42-.66-1.04-.18-1.45.26-1.49,1.43-2.4,3.43-2.95,5.47-.84,4.13-1.3,8.51-.97,12.74h0Z"/>
        <path d="m204,506.93c-1.13,2.64-4.16,2.88-6.23,1.13-1.31-1.1-.75-3.21-.43-4.43,0,0,.04-.21.04-.21.78-.53,1.55-1.08,2.36-1.53,2.06-.35,4.85,3.15,4.26,5.03h0Zm0,0c.59-1.84-2.29-4.65-4.04-4.31,0,0,.09-.04.09-.04-.63.53-1.27,1.03-1.92,1.51l.17-.3c-.24,1.45-.86,2.6.02,3.74.87.91,2.36,1.67,3.64,1.26.87-.32,1.69-.97,2.04-1.86h0Z"/>
        <path d="m316.4,530.49c3.33-2.81,7.92-9.32,12.85-7.82,2.22,1.26.3,3.85-1.16,4.8-3.24,2.57-7.61,3.63-11.65,3.1-.27.26-1.58,1.18-2.29,1.57,0,0-.03-.04-.03-.04l2.27-1.61h0Zm0,0l-2.25,1.65c.64-.55,1.57-1.14,2.25-1.76,4.03.2,7.97-1.18,11.07-3.68.81-.68,2.04-1.67,1.77-2.73-.44-1.05-2.09-.75-3.06-.51-3.95,1.1-6.79,4.41-9.78,7.03h0Z"/>
        <path d="m277.07,525.23c1.23-.36,2.51.08,3.71.35,4.51,1.23,8.59,4.22,11.76,7.08,0,0-.11-.07-.11-.07.16.07,2.34,1.08,2.43,1.11-.05.64-.13,1.63-.18,2.27-.92-.85-1.88-1.75-2.77-2.62l.13.08c-.09-.05-.33-.15-.41-.2-.06-.07-.29-.4-.35-.48.27.26-1.37-1.22-1.11-1-3.85-2.52-9.24-.22-13.03-3.01-1.43-.92-2.04-2.82-.06-3.51h0Zm0,0c-.71.22-1.36.91-1.24,1.69.69,2.26,3.59,2.82,5.66,2.93,3.07.11,6.41-.64,9.22,1.14,0,0,1.26,1.08,1.26,1.08l.03.03.02.02.34.46-.2-.18.3.14.07.03c.71.65,1.4,1.32,2.09,1.99l-.83.32.09-.94.27.48-2.09-1.04s-.08-.04-.11-.07c-3.23-3.15-6.79-6.3-11.19-7.68-1.19-.32-2.47-.75-3.7-.41h0Z"/>
        <path d="m260.77,462.88c-1.06,1.86-2.86,3.25-4.69,4.31-2.01.95-4.33.61-6.39.07-1.55-.48-3.31-.74-4.57-1.9-2.03-2.06-2.41-5.1-2.35-7.87.26-2.89,3.85-1.99,5.78-2.46.41-.16.83-.53,1.49-.72.66-.12,1.14.1,1.73.16.97.16,2.03-.2,3.16-.14,1.67.07,3.19.68,4.69,1.31.49.21,1.04.43,1.35.92.55,1.9.64,4.49-.21,6.33h0Zm0,0c.71-1.47.63-3.15.43-4.73-.09-.52-.08-1.09-.34-1.53-.28-.43-.81-.61-1.31-.79-1.48-.52-3.05-1.04-4.62-1.01-1.23.05-2.67.53-4.04.24-.9-.17-1.12.35-2,.76-.64.23-1.11.23-1.72.3-2.5.19-3.75-.09-3.39,3,.35,4.61,1.51,6.46,6.05,7.67,1.99.64,4.2,1.11,6.19.28,1.84-.96,3.69-2.35,4.74-4.18h0Z"/>
        <path d="m228.89,439.27c-1.19.37-2.34,1.06-3.32,1.72,1.67-1.7,3.76-2.93,5.93-3.89,2.18-.95,4.48-1.61,6.82-2.03l-.04.14c-1.23-.94-2.94-1.17-4.36-.62l-.1-.25c4.51-2.21,9.67-3.12,14.69-2.58l-.19.56c-1.55-.88-3.38-1.25-5.13-1.03l-.14-.72c5.98-1.69,12.47-1.47,18.38.5l-.51.78c-1.8-2.24-5.3-2.7-7.92-3.28,5.22-.18,10.77-.88,15.86.68,2.49.59,6.74,3.16,4.12,5.99-1.14.99-2.64,1.13-4.05,1.17-2.69,0-5.39-.05-8.08-.1-10.71-.24-21.66-.43-31.96,2.96h0Zm0,0c10.26-3.45,21.25-3.4,31.96-3.44,2.69,0,5.38-.02,8.06-.08,1.28-.04,2.67-.26,3.53-1.05,2.55-3.48-5.39-5.18-7.72-5.33-2.63-.25-5.31-.12-7.99.03l.08-.98c2.51.45,4.49,2.26,6.04,4.18-6.21-2.43-13.13-2.97-19.62-1.3,0,0-.14-.72-.14-.72,1.92-.2,3.88.24,5.52,1.23l1.24.75c-5.36-.9-10.98-.29-15.94,2.03,0,0-.1-.25-.1-.25,1.52-.55,3.3-.26,4.56.74l.14.11-.18.03c-4.62.82-9.33,2.47-12.75,5.78.86-.8,2.15-1.34,3.3-1.74h0Z"/>
        <path d="m331.49,573.28c-4.98,10.98-16.14,18.69-28.08,19.96l-.02-.26c3.11-.11,6.1-1.11,9-2.21.36-.14.76-.3,1.22-.27.49-.01.93.49.96.91l.37,2.32c.14.77.42,1.97-.55,2.35-.78.38-1.86.18-2.09,1.14,0,0-.27-.25-.27-.25l-.51-.47h.38c-.2.23-.99,1.05-1.17,1.27-.09-.21-.54-1.09-.65-1.33,0,0,.52-.01.52-.01-.54,1.43-2.87.65-3.5,1.72,0,0-.21.51-.21.51l-.33-.46c-.52-.71-1.26.06-1.95-.05-.61-.06-1.41-.61-1.7-.09,0,0-.68.04-.68.04-.19-.46-1.07-.17-1.45,0-.77.38-2.26.47-2.4-.66,0,0,.7.17.7.17-.35.56-1.03.78-1.61.71-.57-.05-1.2-.4-1.44-1.03l.57.21c-.17.09-1.04.62-1.2.7-.13-.16-.84-.94-.99-1.11,0,0,.71-.2.71-.2-.07.39-.41.66-.68.75-.6.3-1.51-.21-1.96-.15-.29.02-.67.26-1.21.34-.65.07-1.43-.26-1.42-1.07,0,0,.66.4.66.4l-.87.55-.25.16c-.18-.1-1.16-.84-1.35-.96,0,0,.5,0,.5,0l-.75.51-.24.16c-.45-.26-.86-.59-1.15-1.03,0,0,.6.13.6.13-.35.2-.55.66-.72,1.01-.55-.32-1.11-.72-1.44-1.28,0,0,.69.09.69.09-.24.21-.96.85-1.21,1.07-.18-.46-.43-1-.86-1.28,0,0,.7-.25.7-.25-.16.58-.57,1.06-1.11,1.31l-.56.26-.09-.6c-.26-2.23-.6-7.63,2.31-8.16,0,0-.17.91-.17.91-5.85-3.03-10.81-7.73-14.12-13.43-1.81-3.11-3.86-6.29-.47-9.22,3.88-3.8,7.92-7.41,12.15-10.81,3.24-2.58,7.26-6.38,11.73-4.38,1.97.71,3.94,1.97,6.08,1.49,2.04-.48,3.66-2.25,5.9-2.63,6.7-.84,12.34,4.04,17.5,7.61,6.03,4.05,12.25,6.35,8.14,14.9h0Zm0,0c4.05-8.53-2.13-10.79-8.2-14.81-5.1-3.51-10.8-8.3-17.38-7.39-2.13.37-3.66,2.13-5.87,2.71-2.24.54-4.33-.72-6.34-1.42-4.36-1.83-7.97,1.92-11.13,4.44-4.14,3.4-8.14,7.14-11.96,10.9-3.06,2.61-.92,5.37.64,8.14,3.25,5.54,8.11,10.03,13.77,13.04,0,0,1.34.72,1.34.72l-1.52.19c-.3.04-.41.09-.61.31-1.3,1.88-1.1,4.55-.89,6.74,0,0-.64-.35-.64-.35.52-.19.66-.86.78-1.34.58.37,1.17.82,1.45,1.48,0,0-.71-.16-.71-.16.27-.24.87-.76,1.13-.99.27.43.57.93,1.02,1.19,0,0-.64.18-.64.18.23-.51.71-.89,1.2-1.16.24.36.49.76.87.98,0,0-.48,0-.48,0l.75-.51.25-.17.24.17,1.13.81-.49-.02c.55-.35,2.49-1.54,3.08-1.91,0,0-1.53,1.76-1.53,1.76.48.44.93-.11,1.67-.17.74-.12,1.52.54,1.92.08,0,0-1.29-2.52-1.29-2.52l2,2.33.76.88-.5-.09c.31-.17,1.05-.6,1.34-.76,0,0,.15.45.15.45.19.61,1.34.74,1.66.18,0,0,.56-.9.56-.9l.14,1.06c.13.46,1.01.21,1.34.07.75-.35,2.11-.58,2.42.47,0,0-.68.04-.68.04.13-.65.8-.83,1.33-.77.51.09.82.29,1.13.32.37.05.64-.2,1.06-.24.51-.06,1.02.16,1.32.58l-.54.05c.6-1.41,2.9-.58,3.54-1.68,0,0,.24-.61.24-.61.19.37.55,1.18.73,1.56,0,0-.45-.07-.45-.07l.92-.97.18-.19.2.19.49.47-.42.08c.24-.49.75-.67,1.13-.75,1.61-.27,1.68-.56,1.39-2.12,0,0-.33-2.31-.33-2.31-.13-.86-1.02-.6-1.62-.36-2.93,1.06-5.97,2.04-9.13,2.1l-.02-.26c11.91-1.07,23.08-8.8,28.1-19.7h0Z"/>
        <path d="m337.99,557.59c-.19-.08-.19-.29-.12-.42.18-.28.48-.26.71-.04,0,0-.29.84-.29.84.02-.02.02-.16-.29-.38h0Zm0,0c-.18-.34-.01-.56.19-.6l-.29.84c.06.09.21.14.31.12h-.11c.29,0,.21-.37-.09-.36h0Z"/>
        <path d="m356.21,464.34c-.85.67-1.91.99-2.93,1.34-2.04.68-4.19,1.36-6.38.97-2.2-.47-3.9-2.03-5.45-3.6-1.73-2.01-1.55-4.93-1.08-7.36.32-1,1.52-1.33,2.3-1.65,0,0,.1,0,.1,0,.04,0-.17.03-.17.03,1.52-.56,3.19-1.09,4.86-.94,1.1.1,2,.41,3.09.23.55-.09,1.33-.13,1.77.21,1.37,1.08,2.89.75,4.49,1.04.53.1,1.12.29,1.5.76.38.47.44,1.07.43,1.6-.13,2.59-.49,5.54-2.52,7.37h0Zm0,0c1.62-1.45,2.12-3.71,2.27-5.78.11-1.49.25-3.46-1.74-3.55-1.05-.12-2.13-.02-3.2-.18-.87-.05-1.39-.82-2.12-.81-1.29.3-2.73.21-4.01.03-1.54-.06-3,.41-4.45.96l-.08.03h-.09s0,0,0,0l.17-.03c-.49.19-1.03.36-1.34.6-.31.21-.38.53-.44,1.09-.12,1.06-.25,2.11-.17,3.13.07,2.18,1.65,3.7,3.26,5,.81.7,1.69,1.28,2.72,1.51,2.09.51,4.28-.07,6.3-.7,1.02-.33,2.08-.64,2.94-1.3h0Z"/>
        <path d="m374.06,439.27c-12.92-4.25-26.66-2.84-40.03-2.86-1.41-.04-2.91-.17-4.05-1.16-1.3-1.09-.84-3.18.38-4.1,2.17-1.78,5.07-2.34,7.78-2.69,3.83-.4,7.94-.02,11.77.13-2.6.59-6.08,1.06-7.86,3.28,0,0-.51-.78-.51-.78,5.91-1.96,12.4-2.19,18.38-.5l-.14.72c-1.75-.22-3.58.14-5.12,1.03l-.19-.57c5.02-.54,10.18.37,14.68,2.58l-.11.25c-1.42-.55-3.14-.32-4.36.62l-.04-.15c4.63.87,9.34,2.56,12.75,5.92-.98-.66-2.13-1.35-3.32-1.72h0Zm0,0c1.15.4,2.44.94,3.3,1.74-3.43-3.32-8.14-4.97-12.75-5.78,0,0-.18-.03-.18-.03l.15-.12c1.25-1,3.03-1.29,4.56-.74l-.11.25c-4.96-2.32-10.58-2.93-15.93-2.03,0,0,1.25-.75,1.25-.75,1.64-.99,3.6-1.43,5.52-1.23l-.14.72c-6.49-1.67-13.42-1.13-19.63,1.31,1.55-1.92,3.53-3.74,6.05-4.18,0,0,.08.98.08.98-2.68-.15-5.35-.28-7.99-.03-2.38.15-10.27,1.85-7.73,5.33.86.79,2.26,1.01,3.54,1.05,2.68.06,5.37.07,8.06.08,10.71.05,21.7-.01,31.96,3.44h0Z"/>
        <path d="m401,503.93c-1.13,2.64-4.16,2.88-6.23,1.13-1.31-1.1-.75-3.21-.43-4.43,0,0,.04-.21.04-.21.78-.53,1.55-1.08,2.36-1.53,2.06-.35,4.85,3.15,4.26,5.03h0Zm0,0c.59-1.84-2.29-4.65-4.04-4.31,0,0,.09-.04.09-.04-.63.53-1.27,1.03-1.92,1.51l.17-.3c-.24,1.45-.86,2.6.02,3.74.87.91,2.36,1.67,3.64,1.26.87-.32,1.69-.97,2.04-1.86h0Z"/>
        <path d="m402.62,482.56c-.47.96-1.23,1.74-1.7,2.69-.48.96-.49,2.06-.42,3.11.31,2.11.02,4.31-.68,6.36-.24.63-.54,1.36-1.12,1.81,0,0-.2.14-.2.14l-.25.09c-3.37.51-1.81-7.89-1.78-9.82.36-3.7.8-7.37.79-11.08.02-.51-.11-1.16.08-1.68.21-.6.79-1.02,1.39-1.07.6-.08,1.18.29,1.53.72,2.19,2.21,3.81,5.72,2.35,8.73h0Zm0,0c1.44-3.02-.25-6.46-2.57-8.5-.37-.4-.78-.61-1.26-.54-1.21.22-1.02,1.31-.92,2.32.03.53.06,1.07.07,1.61.15,4.21-.38,8.58-.77,12.77-.08,1.84-.62,4.3.45,5.86,2.01.81,3.11-6.29,2.75-7.7-.04-1.06.02-2.17.52-3.13.49-.95,1.25-1.72,1.73-2.68h0Z"/>
      </g>
    </g>
    <g>
      <path class="cls-22" d="m332.64,566.97c-.2-.14-.44-.23-.67-.31-4.18-1.46-8.79-1-13.1-.02-4.32.97-8.54,2.44-12.94,2.95-5.26.62-10.58-.15-15.8-1.08-3.59-.64-7.18-1.37-10.83-1.41-3.21-.04-7.56,1.1-10.64,2.73.36-1.36,1.61-2.4,3.3-4.04,4.07-3.93,8.34-7.66,12.79-11.16,1.98-1.56,4.23-3.15,6.75-3.01,2.82.15,5.33,2.46,8.13,2.05,1.83-.28,3.28-1.67,4.99-2.36,3.29-1.34,7.02.02,10.21,1.58,4.46,2.19,7.85,5.45,12.19,7.92,2.49,1.41,4.99,3.38,5.62,6.16Z"/>
      <path d="m332.64,566.97c-7.89-3.12-16.06.9-23.85,2.46-5.37,1.18-10.95.75-16.33-.1-5.29-.77-10.68-2.34-16.01-1.55-2.62.43-5.22,1.24-7.57,2.47l-.98.51.29-1.06c.52-1.74,1.94-2.78,3.12-3.98,1.16-1.13,2.34-2.24,3.54-3.33,3.63-3.27,7.29-6.44,11.24-9.33,3.14-2.31,6.12-2.36,9.51-.66,1.47.62,2.98,1.14,4.43.76,1.46-.37,2.72-1.46,4.28-2.13,4.84-1.88,9.86,1,13.89,3.49,2.72,1.79,5.19,3.88,7.93,5.59,2.71,1.58,5.8,3.56,6.51,6.85h0Zm0,0c-.84-3.26-3.9-5.08-6.66-6.61-2.79-1.66-5.34-3.68-8.06-5.4-3.88-2.3-8.78-5.06-13.32-3.24-1.41.61-2.66,1.75-4.36,2.23-3.3.96-6.26-2.14-9.43-1.88-3.14.3-5.57,2.84-8,4.71-3.75,3.06-7.34,6.3-10.82,9.67-1.13,1.12-2.48,2.18-2.87,3.51l-.69-.55c2.48-1.28,5.14-2.09,7.88-2.53,8.22-.98,16.2,2.42,24.33,2.55,2.69.12,5.39-.06,8.04-.58,7.77-1.46,16.18-5.27,23.96-1.88h0Z"/>
    </g>
    <g>
      <path class="cls-22" d="m332.79,568.49c-.02,1.64-.6,3.28-1.3,4.79-4.99,10.93-16.18,18.67-28.09,19.83-3.87.13-7.7-.9-11.46-1.92-1.35-.37-5.28-2.12-7.15-1.87-2.91-1.53-5.61-3.47-8-5.72-3.06-2.91-5.43-6.29-7.34-10.04-.83-1.63-1.04-2.76-.79-3.73,3.08-1.63,7.43-2.77,10.64-2.73,3.65.04,7.24.77,10.83,1.41,5.22.93,10.54,1.7,15.8,1.08,4.4-.51,8.62-1.98,12.94-2.95,4.31-.98,8.92-1.44,13.1.02.23.08.47.17.67.31.01.03.01.06.02.09.1.47.14.95.13,1.43Z"/>
      <path d="m332.79,568.49c-.42,4.98-3.64,9.42-6.77,13.14-6.54,7.19-16.82,12.7-26.75,11.55-3.74-.52-7.43-1.54-10.95-2.78-1.22-.38-2.49-.76-3.63-.63l-.11-.06c-5.89-3.07-10.97-7.77-14.27-13.56-1.06-2.05-2.71-4.13-2.05-6.63,2.53-1.32,5.26-2.17,8.05-2.61,8.23-.97,16.16,2.55,24.32,2.67,10.79,1.02,21.42-6.85,32.01-2.61.12.5.16,1.01.15,1.53h0Zm0,0c0-.51-.04-1.02-.16-1.52-2.47-1.1-5.28-1.32-7.97-1.17-8.16.56-15.75,4.68-24.04,4.19-8.14.02-16.09-3.25-24.18-2.24-2.63.44-5.23,1.25-7.57,2.48l.23-.29c-.4,1.98,1.13,3.98,2.05,5.7,3.27,5.61,8.08,10.25,13.84,13.28,0,0-.26-.05-.26-.05,2.7-.09,4.95,1.22,7.38,1.95,3.59,1.01,7.21,2.03,10.94,2,8.68-.66,17.04-4.83,22.89-11.29,3.15-3.69,6.4-8.09,6.85-13.06h0Z"/>
    </g>
    <path d="m240.2,427.44c21.26-6.96,43.47-7.14,65.7-5.41-22.12-.37-44.22-.23-65.7,5.41h0Z"/>
    <path d="m326.89,423.16c10.81-.08,21.79-.11,32.34,2.5-10.75-1.26-21.59-1.22-32.34-2.5h0Z"/>
    <path d="m367.35,427.62c12.76,3.02,25.26,12.35,28.2,25.67-4.29-12.73-15.98-21.31-28.2-25.67h0Z"/>
    <path d="m400.11,465.34c-.11-1.65,1.67-2.53,2.87-1.33.46.63.54,1.06.72,1.73.1.56.23,1.3-.2,1.76-.03-.8-.6-1.52-.91-2.22-.28-.66-.65-1.02-1.36-.9-.5.1-.75.6-1.12.96h0Z"/>
    <path class="cls-3" d="m402.62,482.56c-.53,1.07-1.44,1.93-1.88,3.05-.57,1.48-.21,3.13-.22,4.72-.01,1.14-.92,6.62-2.82,6.15-1.37-.34-1.16-4.21-1.1-5.15.41-5.69,1.27-10.94.92-16.53-.08-1.28,1.45-1.98,2.39-1.1.77.74,1.48,1.53,2.04,2.44,1.19,1.91,1.68,4.41.67,6.42Z"/>
    <path d="m398,466.09c-1.93.91-2.3,2.8-3.33,4.47,0,0-.1,0-.1,0-.51-1.05-.05-2.24.73-3,.71-.81,1.66-1.37,2.66-1.56l.03.09h0Z"/>
    <path d="m417.75,462.85c-.13,2.39-1.28,4.61-2.97,6.41-2.93,3.14-8.09,2.38-10.05-1.44l-1.87-3.65-.3.13-.11.04-2.34,1-.93.39c-.61-4.29-1.84-8.46-3.62-12.4,0-.02,0-.03-.01-.04-4.42-9.81-12.17-18.15-21.79-23.01-2.17-1.09-4.3-1.97-6.41-2.66-2.72-.9-5.41-1.52-8.12-1.96-6.73-1.08-13.58-1.09-21.23-1.66-3.5-.26-7.25-.56-11.11-.84-6.88-.5-14.09-.97-20.82-1.13h-.17c-2.38-.05-4.69-.06-6.9-.03-16.68.26-43.12,3.28-56,5-.96.13-1.89.28-2.8.44-12.51,2.29-19.98,8.07-28.76,15.76-.06.06-.13.12-.2.18-.27.24-.54.48-.82.73-1.42,1.24-2.89,2.55-4.42,3.89-4.46,3.91-9.39,7.42-11.9,12.81-2.04,4.4-2.35,8.81-3.08,13.22-.35,2.05-2.71,3.05-4.44,1.91-5.48-3.61-8.69-6.88-8.09-12.99,1.37-13.75,2.57-27.88-2.35-40.49-2.23-5.71-3.03-11.91-1.86-17.93,1.56-7.97,5.04-13.72,11.1-18.33.7-.54,1.43-1.06,2.19-1.56,56.96-37.39,132.02-45.65,195.74-21.52,8.78,3.32,17.56,7.81,24.09,14.3,3.02,2.99,5.55,6.41,7.39,10.32,2.7,5.74,5.64,11.71,3.12,20.58-3.37,11.85-.49,26.04,1.12,39.32.38,3.13-.94,9.02-1.28,15.21Z"/>
    <path d="m207,331.57c-4.08-6.49-1.86-14.93.49-22.24,4.31-13.41,8.78-27.13,17.48-38.2,8.71-11.07,22.67-19.11,36.57-16.84,11.87,1.94,22.34,10.99,34.33,10.08,12.62-.96,21.68-12.48,33.42-17.2,14.82-5.96,32.99.43,42.51,13.25,9.52,12.82,10.78,30.7,5.16,45.65-2.81,2.1-3.27,6.3-2.07,9.6s3.69,5.93,6.01,8.56c11.59,13.1,20.59,28.47,26.36,44.98.97,2.78,1.77,6.13-.03,8.46-2.34,3.03-7.06,2.06-10.7.88-29.76-9.65-61.36-13.6-92.57-11.56-27.25,6.27-54.5,12.55-81.75,18.82-6.61,1.52-13.21,3.05-19.82,4.56-4.39,1-11.33,3.35-15.07-.49-5.26-5.4-.7-20.41,1.02-26.44s4.16-11.76,7.3-17.13c.82-1.41,11.24-14.94,11.36-14.74Z"/>
    <path class="cls-21" d="m229.38,463.35c10.16-9.7,26.5-11.7,38.8-5,1.74.95,3.41,2.01,4.94,3.26-1.66-1.06-3.37-2.03-5.15-2.82-12.45-5.91-27.79-3.95-38.58,4.56h0Z"/>
    <path class="cls-21" d="m230.71,462.56c11.26,7.51,25.93,8.19,37.86,1.85,1.71-.84,3.34-1.83,4.93-2.91-11.97,10.29-30.43,11.15-42.79,1.06h0Z"/>
    <path class="cls-21" d="m267,458.09c-.34.03-.67.05-1,.06l.06-.35c2.28.38,1.94,3.22,1.53,4.89-.29,1.7-1.49,3.88-3.46,3.88.82-.37,1.38-1.01,1.76-1.72.68-1.42.96-3.32,1.11-4.84.02-.74-.29-1.55-1.02-1.85l.06-.35c.32.09.64.19.96.29h0Z"/>
    <path class="cls-21" d="m260.77,462.88c-.59,1.19-1.65,2.07-2.69,2.9-.57.46-1.15.92-1.81,1.25-2.47,1.23-5.42.38-8.03-.49-.9-.3-1.83-.61-2.57-1.2-1.93-1.66-2.35-4.73-2.43-7.15-.09-3.18,2.63-2.17,5.26-2.69.29-.06.65-.3,1-.51.31-.18.61-.34.87-.34.57.01,1.14.16,1.71.18.77.02,1.53-.18,2.3-.24,1.61-.12,3.19.38,4.71.95.19.07.39.15.58.22.48.19.99.4,1.26.84.17.28.21.63.25.96.21,1.8.39,3.71-.41,5.32Z"/>
    <path class="cls-21" d="m342.77,454.54c-4.9,1.68-9.44,3.63-14.01,6.07,3.73-3.57,8.86-5.77,14.01-6.07h0Z"/>
    <path class="cls-21" d="m342.78,454.54c9.06-2.51,19.16-.34,26.69,5.21,1.06.81,2.09,1.67,3.03,2.6-8.48-6.3-19.23-9.22-29.72-7.81h0Z"/>
    <path class="cls-21" d="m371.17,461.56c-12.32,10.09-30.87,9.22-42.79-1.06,1.58,1.08,3.22,2.07,4.93,2.91,11.94,6.34,26.6,5.66,37.86-1.85h0Z"/>
    <path class="cls-21" d="m334.88,457.09c.32-.11.64-.21.96-.29l.06.35c-.72.31-1.03,1.11-1.02,1.85.15,1.52.43,3.42,1.11,4.84.38.71.94,1.36,1.76,1.72-1.97,0-3.16-2.18-3.46-3.88-.41-1.67-.75-4.51,1.53-4.89,0,0,.06.35.06.35-.33,0-.67-.03-1-.06h0Z"/>
    <path class="cls-21" d="m358.63,457.19c-.07,2.42-.49,5.49-2.42,7.15-.75.59-1.67.9-2.57,1.2-2.62.87-5.57,1.72-8.04.49-.65-.33-1.23-.79-1.81-1.25-1.03-.83-2.09-1.71-2.68-2.9-.81-1.61-.62-3.52-.42-5.32.04-.33.08-.68.26-.96.26-.44.78-.65,1.25-.84.19-.07.38-.15.57-.22h.01c1.52-.57,3.11-1.07,4.71-.95.77.06,1.53.26,2.31.24.57-.02,1.13-.17,1.71-.18.25,0,.56.16.87.34.35.21.71.45,1,.51,2.63.52,5.35-.49,5.25,2.69Z"/>
    <path d="m273.35,433.79c-.29,1.79-2.62,2.27-4.44,2.29-13.45.18-27.27-1.09-40.02,3.19-1.21.41-2.3.94-3.31,1.73,3.17-3.21,8.38-5.11,12.75-5.85-1.24-.97-2.99-1.23-4.46-.68,4.51-2.15,9.63-2.99,14.6-2.4-1.6-.94-3.5-1.34-5.33-1.13,5.93-1.58,12.32-1.37,18.13.6-1.19-1.33-2.81-2.26-4.56-2.64,4.78-.25,9.78-.45,14.1,1.58,1.35.64,2.77,1.83,2.54,3.31Z"/>
    <path d="m377.37,441c-1.01-.79-2.1-1.32-3.31-1.73-12.75-4.28-26.57-3.01-40.02-3.19-1.82-.02-4.15-.5-4.44-2.29-.23-1.48,1.19-2.67,2.54-3.31,4.32-2.03,9.32-1.83,14.1-1.58-1.75.38-3.37,1.31-4.56,2.64,5.81-1.97,12.2-2.18,18.13-.6-1.83-.21-3.73.19-5.32,1.13,4.96-.59,10.08.25,14.59,2.4-1.47-.55-3.22-.29-4.46.68,4.37.74,9.58,2.64,12.75,5.85Z"/>
    <path d="m260.46,559.42c-1.41,2.69-1.93,5.91-1.49,8.88.04.07.19-.04.12-.1v-.02c.13.09-.04.26-.16.18-.11-.07-.12-.2-.14-.29-.56-2.92.15-6.17,1.68-8.65h0Z"/>
    <path d="m264.62,549.82c-2.08,2.21-3.45,5.17-3.82,8.16.02.08.19,0,.14-.06l.02-.02c.09.12-.12.24-.21.13-.08-.1-.07-.22-.06-.32.25-2.97,1.81-5.91,3.94-7.88h0Z"/>
    <path d="m267.62,549.82c-2.08,2.21-3.45,5.17-3.82,8.16.02.08.19,0,.14-.06l.02-.02c.09.12-.12.24-.21.13-.08-.1-.07-.22-.06-.32.25-2.97,1.81-5.91,3.94-7.88h0Z"/>
    <path d="m270.62,549.82c-2.08,2.21-3.45,5.17-3.82,8.16.02.08.19,0,.14-.06l.02-.02c.09.12-.12.24-.21.13-.08-.1-.07-.22-.06-.32.25-2.97,1.81-5.91,3.94-7.88h0Z"/>
    <path d="m274.62,548.82c-2.08,2.21-3.45,5.17-3.82,8.16.02.08.19,0,.14-.06l.02-.02c.09.12-.12.24-.21.13-.08-.1-.07-.22-.06-.32.25-2.97,1.81-5.91,3.94-7.88h0Z"/>
    <path d="m278.62,547.82c-2.08,2.21-3.45,5.17-3.82,8.16.02.08.19,0,.14-.06l.02-.02c.09.12-.12.24-.21.13-.08-.1-.07-.22-.06-.32.25-2.97,1.81-5.91,3.94-7.88h0Z"/>
    <path d="m282.62,544.82c-2.08,2.21-3.45,5.17-3.82,8.16.02.08.19,0,.14-.06l.02-.02c.09.12-.12.24-.21.13-.08-.1-.07-.22-.06-.32.25-2.97,1.81-5.91,3.94-7.88h0Z"/>
    <path d="m264.05,558.74c-1.41,2.65-1.48,5.77-1.03,8.63-1-2.79-.45-6.16,1.03-8.63h0Z"/>
    <path d="m267.37,557.84l-.99,3.99c-.33,1.29-.69,2.75-.02,3.94-1-1.08-.57-2.74-.18-3.99.02,0,1.14-4.01,1.19-3.94h0Z"/>
    <path class="cls-9" d="m270.82,557.33c-.61,1.15-1.23,2.31-1.55,3.57s-.31,2.65.29,3.81"/>
    <path class="cls-9" d="m274.83,554.59c-.45,1.32-1.33,2.47-1.68,3.82-.32,1.21-.19,2.53.36,3.65"/>
    <path d="m278.57,552.89l-1.2,3.19c-.35,1.01-.96,2.21-.25,3.15-1.05-.78-.36-2.29.06-3.22.02,0,1.34-3.19,1.38-3.11h0Z"/>
    <path d="m283.1,550.55c-1.1,2-2,4.2-1.91,6.48-.65-2.29.75-4.65,1.91-6.48h0Z"/>
    <path d="m288.1,543.53l-1.54,5.3-.15-.11c.24-.17.54.11.48.33-.03.19,0,.5-.3.56,0,0,.11-.06.11-.06-.77,1.49-1.32,3.07-1.72,4.7.1-1.67.79-3.66,1.66-4.99.05-.14.11-.48-.13-.4,0,0-.23.16-.23.16l.09-.27s1.68-5.31,1.72-5.24h0Z"/>
    <path d="m285.74,544.22l-.84,2.49c-.27.83-.56,1.66-.96,2.45l-.07-.07.33-.08v.02c-.06.03-.33.18-.4.22.4-1.51,1.31-3.62,1.94-5.02h0Z"/>
    <path d="m338.23,557.47c1.59,2.18,1.49,5.7-.07,7.91.03-.17.12-.73.14-.91,0,0,.02,0,.02,0v.63s-.12-.04-.12-.04c.58-1.19.92-2.48.96-3.8,0-1.28-.21-2.77-.94-3.8h0Z"/>
    <path d="m338,557.68c-.1.04-.25-.12-.02-.09.22.09.12-.06.02.09h0Z"/>
    <path d="m335.72,556.99c.6,2.29,1.24,4.72.74,7.11-.1.39-.28.83-.69,1.04-.39.18-.99-.02-1-.47h.02c.08.41.61.48.9.32.31-.19.45-.57.53-.94.53-2.34-.07-4.79-.49-7.05h0Z"/>
    <path d="m333.75,556.12l.83,3.51c.3,1.02.67,2.89-.66,3.28,1.12-.73.64-2.14.47-3.24.02,0-.7-3.59-.63-3.55h0Z"/>
    <path class="cls-9" d="m332.19,555.11l.74,5.28c-.34.13-.58.47-.59.83-.17.04-.36-.03-.48-.16"/>
    <path d="m330.33,553.57c.38,1.74.93,4.08,1.26,5.81-.39-.18-.56.16-.7.6-.09.32-.53.81-.85.48,0,0,.02-.02.02-.02.14.13.32.04.42-.08.39-.38.21-1.33.97-1.27,0,0-.15.15-.15.15-.2-.94-.34-1.88-.51-2.83.02,0-.54-2.88-.47-2.83h0Z"/>
    <path d="m338,557.6c-.08.14.06.25-.2.23-.23-.16.16-.3.2-.23h0Z"/>
    <path d="m337.31,552.89c.47,1.5,1.25,3.44,1.51,4.97-.14-.19-.31-.42-.59-.36.05-.12.41-.07.52.05,0,0-.12.07-.12.07-.31-.76-.51-1.55-.72-2.34.02,0-.67-2.41-.6-2.38h0Z"/>
    <path d="m334.93,550.85c.64,1.62,1.59,3.8,2.16,5.43-.56.07-1.13.14-1.69.17.43-.2,1.03-.26,1.52-.38,0,0-.09.15-.09.15-.58-1.52-1.42-3.84-1.9-5.37h0Z"/>
    <path d="m332.38,549.31l1.37,2.89c.37.89,1.33,2.23.36,3.06,0,0-.07.04-.07.04-.17-.23-.33-.46-.49-.7.2.09.39.38.57.54,0,0-.11-.01-.11-.01.71-.81-.14-1.99-.43-2.86.02,0-1.28-2.99-1.2-2.97h0Z"/>
    <path d="m330.16,547.27l1.44,2.99c.41.86,1.38,2.45.1,3.02,0,0,0-.02,0-.02,1.01-.77.02-2-.27-2.91.02,0-1.33-3.09-1.25-3.07h0Z"/>
    <path d="m327.96,545.9l1.55,3.1c.25.52.56,1.01.68,1.63.09.58-.18,1.35-.68,1.58.88-.97.28-2.11-.18-3.13.02,0-1.44-3.21-1.37-3.19h0Z"/>
    <path d="m325.74,544.55l1.5,2.71c.36.83,1.39,1.95.91,2.92,0,0-.02.04-.02.04h-.05s-.46.06-.46.06l.08-.12c.55,2.04.37,4.21.75,6.19,0-.01-1.16,1.08-1.15,1,0,0,1.04-1.11,1.04-1.11-.68-1.63-.29-4.25-.86-6.13.07,0,.5-.05.57-.06l-.07.04c.45-.81-.54-2.04-.85-2.78.02,0-1.48-2.79-1.4-2.77h0Z"/>
    <path d="m323.87,544.04c.46,1.07,1.54,3.46,1.96,4.5.21.48.47,1.29-.13,1.62,0,0-.02,0-.02,0l-.47-.14v-.02s.49.04.49.04c.5-.67-.48-2.06-.7-2.93.02,0-1.22-3.09-1.14-3.07h0Z"/>
    <path d="m325.05,551.36c.56,1.8,1.48,4.24,1.86,6.06-.35-.02-.37.25-.44.26.02-.18.16-.35.36-.39l-.05.08c-.63-1.69-1.3-4.29-1.72-6.02h0Z"/>
    <path d="m328.97,551.87l.54,3.39c.15.93.59,2.88-.72,3.08,1.11-.56.54-2.06.52-3.05.02,0-.41-3.46-.34-3.41h0Z"/>
    <path d="m320.99,543.18c.45,1.33,1.14,3.18,1.54,4.51.04.17.11.16-.1.15-.17,0-.35.19-.34.39l-.15.04c-.03-.21-.14-.48-.1-.65.09.2.18.4.25.61l-.15.04c-.06-.29.15-.6.47-.65l-.1.15c-.41-1.3-1.01-3.28-1.31-4.58h0Z"/>
    <path d="m321.3,549.15l1.63,3.51c.45,1.15,1.47,2.47.76,3.73-.26.29-.73.03-.7-.27h.02c.02.28.44.37.55.19.26-.51.13-1.21-.08-1.79-.44-1.2-1.77-4.16-2.19-5.37h0Z"/>
    <path d="m318.43,540.29l1.26,3.24c.31,1,1.28,2.45.26,3.33,0,0-.04.02-.04.02l-.03-.02-.29-.27.02-.02.34.21h-.06c.41-.4.31-1.02.16-1.55l-.54-1.64s-1.16-3.34-1.08-3.31h0Z"/>
    <path d="m318.74,547.62l1.49,3.36c.3.85,1.01,1.73.7,2.67-.11.28-.55.6-.79.42,1.45-.27.1-2.18-.1-3.02.02,0-1.38-3.45-1.3-3.43h0Z"/>
    <path d="m316.37,540.13c.34,1.7.94,4.05,1.14,5.74,0,0-.16.04-.16.04-.04-.18-.31-.32-.52-.2l-.02-.02c.19-.18.57-.12.69.17l-.16.04c-.25-.95-.39-1.91-.55-2.88.02,0-.51-2.94-.43-2.9h0Z"/>
    <path d="m317.22,547.1c.49,1.94,1.22,4.51,1.61,6.45,0,0-.25-.21-.25-.21-.24-.2-.75-.01-.79.35l-.03.27c-.02-.1-.27-.77-.2-.73,0,0,.23.44.23.44l-.11.02c0-.47.6-.82,1.04-.53l-.18.12c-.27-1.02-.47-2.05-.69-3.08.02,0-.71-3.13-.63-3.1h0Z"/>
    <path d="m314.36,539.78c.2,1.29.79,3.16.67,4.43-.25-.72-.37-1.45-.44-2.2.02,0-.31-2.27-.24-2.23h0Z"/>
    <path d="m315.02,545.4c.36,1.86.94,4.35,1.22,6.19,0,0-.18-.08-.18-.08-.22-.1-.55.09-.58.36h-.14c-.02-.22-.03-.45-.04-.67.11.15.11.45.18.66,0,0-.14,0-.14,0,0-.38.4-.69.8-.57l-.15.13c-.21-.99-.35-2-.51-3.01.02,0-.52-3.06-.45-3.02h0Z"/>
    <path d="m311.77,538.25c.47,1.76.82,3.56,1.02,5.38-.28.09-.59.11-.88.05,0,0,.11-.11.11-.11.48,2.12.8,4.26.95,6.42v.17c-.23-.24-.45-.09-.75.09-.21.13-.7.08-.63-.24,0,0,.02,0,.02,0-.04.13.09.21.21.22.42.07.67-.54,1.11-.3,0,0-.12.08-.12.08-.31-2.14-.54-4.29-.97-6.4l-.03-.14c.28.08.58.1.87.02,0,0-.06.09-.06.09-.14-1.78-.52-3.62-.85-5.32h0Z"/>
    <path d="m309.22,538.25c.43,1.56,1.14,3.59,1.39,5.18,0,0-.19-.23-.19-.23-.18-.25-.44-.27-.53-.36.23,0,.47.08.65.24l-.14.08c-.28-.8-.45-1.62-.64-2.44.02,0-.61-2.51-.53-2.47h0Z"/>
    <path d="m309.9,544.21c.42,1.68.84,3.39.81,5.13-.17-.17-.33-.35-.48-.53,0,0,.02-.02.02-.02.15.1.3.2.44.31l-.12.06c-.23-1.64-.41-3.37-.67-4.96h0Z"/>
    <path d="m290.67,543.71c-.98,2.32-.76,4.86-1.02,7.31,0,0-.07-.06-.07-.06.17,0,.32-.1.4-.27.07.11-.22.39-.38.39-.08.01-.06.02-.07-.06-.03-2.43.05-5.14,1.14-7.31h0Z"/>
    <path d="m295.27,542.69l-1.1,2.34c-.37.78-.72,1.57-1.18,2.3l-.11-.09c.16-.08.36-.28.52-.29-.2.21-.44.43-.66.62.59-1.5,1.74-3.51,2.54-4.88h0Z"/>
    <path d="m307.18,538.25c.4,1.56,1.05,3.51,1.19,5.11-.08-.28-.34-.77-.34-1.03.09.14.18.27.26.41l-.14.04c-.26-.74-.4-1.49-.55-2.25.02,0-.5-2.32-.42-2.29h0Z"/>
    <path d="m307.52,544.38c.16,1.59.48,3.72.53,5.29-.19-.15-.47-.24-.67-.03,0,0-.09.09-.09.09-.01-.07-.11-.51-.13-.58h.02s.2.43.2.43l-.11-.02c.15-.21.46-.31.71-.18l-.16.1c-.12-.85-.14-1.69-.19-2.54.02,0-.18-2.6-.12-2.56h0Z"/>
    <path d="m295.41,537.4c-.36,1.39-.6,3.51-1.23,4.76.07-.83.27-1.62.52-2.4.02,0,.67-2.42.71-2.35h0Z"/>
    <path d="m294.08,536.56c-.66,1.53-1.45,3.73-2.24,5.18,0,0-.08-.1-.08-.1.19,0,.46-.1.62-.05-.24.08-.47.17-.72.24.57-1.58,1.67-3.79,2.42-5.26h0Z"/>
    <path d="m291.18,538.94l-1.68,2.15c-.56.71-1.11,1.43-1.75,2.08l-.1-.11c.18-.11.6-.03.62.14-.31-.23-.63.05-.87.21.98-1.43,2.63-3.23,3.79-4.47h0Z"/>
    <path d="m298.5,536.89c-.13,1.76-.2,4.24-.45,5.96,0,0-.18,0-.18,0,.02-.25-.14-.54-.41-.65v-.02c.31.05.58.34.59.68h-.18c.02-1.01.16-2,.26-2.99.02,0,.31-3.03.37-2.97h0Z"/>
    <path d="m297.16,544.04c-.06,1.55-.1,3.72-.19,5.25,0,0-.24.03-.24.03.03,0-.09-.03-.12.02-.07.07-.05.29-.04.42-.49.06-.95-.33-.97-.78,0,0,.02,0,.02,0,.1.38.49.62.83.59l-.1.11c-.01-.13-.04-.3.06-.47.13-.19.45-.22.55.04,0,0-.24.03-.24.03.04-.87.13-1.74.2-2.62.02.01.18-2.67.24-2.61h0Z"/>
    <path d="m295.27,545.75c-.41,1.52-.87,3.69-1.4,5.16,0,0-.16-.04-.16-.04.07-.22.08-.53.2-.7,0,.24-.02.48-.04.72l-.16-.04c.34-1.49,1.06-3.69,1.56-5.11h0Z"/>
    <path d="m292.72,541.83c-.05,1.83-.03,4.39-.15,6.19,0,0-.21-.05-.21-.05.24-.45.76-.92,1.23-.95-.65.29-.99.89-1.24,1.51.02-1.99.2-4.75.37-6.7h0Z"/>
    <path d="m305.14,537.06c.42,1.56,1.14,3.71,1.4,5.28,0,0-.14.04-.14.04-.04-.18-.06-.36-.09-.54.11.09.15.35.23.5,0,0-.14.04-.14.04-.49-1.49-.97-3.8-1.26-5.31h0Z"/>
    <path class="cls-9" d="m305.14,543.02l.26,6.56c-.4.07-.81-.35-.71-.75"/>
    <path class="cls-9" d="m303.27,537.06l.44,6.45c-.2-.23-.4-.45-.6-.68"/>
    <path class="cls-9" d="m302.57,544.04c.29,2.24.5,4.49.61,6.74-.31,0-.62-.16-.81-.41"/>
    <path d="m301.06,537.24c-.16,1.77-.24,4.26-.54,5.99,0,0-.1-.07-.1-.07.18-.06.33-.25.33-.47h.02c.07.27-.12.57-.4.66.06-1.78.42-4.37.69-6.1h0Z"/>
    <path d="m299.85,545.06c0,1.46.1,3.92-.03,5.35,0,.14-.08.4.09.41.13-.07.03-.1.06-.13.17.13-.15.33-.25.12-.08-.15-.06-.28-.07-.41-.05-1.21.09-4.2.2-5.35h0Z"/>
    <path d="m301.22,545.23c.26,1.83.72,4.39.88,6.2,0,.18.07.18-.13.1-.4-.14-.73-.68-.58-1.02.02.4.31.73.65.83l-.13.1c-.19-1.03-.27-2.07-.38-3.1.02,0-.37-3.16-.3-3.12h0Z"/>
    <path d="m302.41,538.6c-.13,1.93-.16,4.5-.49,6.38,0,0-.08-.33-.08-.33-.03-.19-.14-.45-.1-.61.08.19.17.37.24.57h-.14c.03-1.73.34-4.31.58-6.01h0Z"/>
    <path d="m299.86,538.09c0,1.79.29,4.41-.02,6.13-.22-1.75-.06-4.4.02-6.13h0Z"/>
    <path class="cls-9" d="m287.79,540.82l-1,3.24"/>
    <path d="m267.4,545.5c-.66,1.45-1.08,2.97-1.76,4.41-.03-.06-.14-.29-.17-.35,0,0,.02-.01.02-.01l.19.21h-.1c.35-1.48,1.07-2.97,1.81-4.26h0Z"/>
    <path d="m269.69,545.24c-.49,1.04-.95,2.72-1.68,3.56.16-.65.43-1.25.75-1.82.02,0,.9-1.81.93-1.74h0Z"/>
    <path d="m272.12,544.85c-.23,1-.28,2.57-.79,3.44,0-.6.12-1.18.3-1.74.02,0,.44-1.76.49-1.7h0Z"/>
    <path d="m275.31,543.83c-.45,1.19-.84,3.06-1.56,4.08.13-.73.38-1.41.68-2.07.02,0,.83-2.07.87-2h0Z"/>
    <path d="m277.34,543.7c-.31,1.19-.48,3.03-1.06,4.07.05-.71.21-1.39.43-2.06.02,0,.58-2.08.63-2.01h0Z"/>
    <path d="m280.02,543.19c-.38,1-.67,2.61-1.31,3.43.09-.62.3-1.19.56-1.75.02,0,.71-1.75.75-1.68h0Z"/>
    <path d="m282.44,541.66c-.31.93-.48,2.41-1.06,3.18.05-.57.22-1.1.43-1.62.02,0,.58-1.63.62-1.56h0Z"/>
    <path d="m285.24,540s0-.11.06-.12c-.06.22-.22.71-.28.94-.3,1.05-.69,2.27-1.04,3.27-.1-1.12.59-2.26.92-3.31.11-.25.26-.7.39-.94.04.09-.02.1-.02.16h-.02Z"/>
    <path class="cls-9" d="m287.92,539.23l-1.29,3.57"/>
    <path d="m290.25,538.09c-.38,1-.66,2.61-1.3,3.44.09-.62.3-1.2.56-1.75.02,0,.7-1.75.74-1.68h0Z"/>
    <path d="m292.03,537.07c-.34,1.08-.56,2.78-1.17,3.69.07-.66.25-1.27.49-1.88.02,0,.64-1.88.68-1.82h0Z"/>
    <path d="m293.95,537.58c-.34,1.36-.68,3.46-1.2,4.75-.16.08,0-.08.03-.16h.02c-.03.08-.03.23-.11.27-.09-.05-.04-.06-.05-.07,0-.01,0-.05,0-.07.12-.74.32-1.51.55-2.22.02.01.72-2.57.77-2.5h0Z"/>
    <path d="m296.76,537.19c-.23,1.34-.27,3.37-.79,4.59,0-.79.12-1.55.3-2.31.02,0,.44-2.34.49-2.28h0Z"/>
    <path d="m298.8,538.6c0,.97.28,2.42-.02,3.32-.13-.55-.14-1.11-.09-1.66.02,0,.05-1.71.11-1.66h0Z"/>
    <path d="m265.89,549.98c-.89,1.67-1.4,3.46-2.15,5.19.21-1.8,1.21-3.68,2.15-5.19h0Z"/>
    <path d="m262.83,559.04c-.27.71-2.63,7.08-.99,6.57,0,0,.02.02.02.02-2.11.74.52-5.91.97-6.59h0Z"/>
    <path d="m265.48,558.38l-.13,3.27c-.04,1.09-.08,2.18-.23,3.27l-.13-.04c.12-.15.23-.41.37-.49-.09.18-.16.37-.26.55l-.12.24c-.02-2,.27-4.85.49-6.81h0Z"/>
    <path class="cls-9" d="m269.16,557.36l-.39,5.46c.05-.12.1-.24.14-.36"/>
    <path d="m271.21,550.98c-.34,1.79-.69,4.32-1.19,6.05,0,0-.03-.07-.03-.07l.42.32v.02s-.48-.24-.48-.24c-.05-.02-.03-.02-.03-.07.24-1.75.87-4.33,1.32-6.02h0Z"/>
    <path d="m269.05,550.6c-.34,1.94-.54,4.82-1.17,6.63.12-1.94.76-4.77,1.17-6.63h0Z"/>
    <path d="m276.07,548.55l-1.16,2.91c-.38.97-.78,1.94-1.28,2.86l-.08-.05.22-.25h.02s-.16.3-.16.3l-.08-.05c.57-1.71,1.75-4.14,2.53-5.74h0Z"/>
    <path class="cls-9" d="m273.52,555.19c-.61,1.74-1.13,3.52-1.55,5.32.39.19.64.63.61,1.06"/>
    <path d="m278.78,548.57c-.64,1.96-.94,3.99-1.51,5.98.03-1.99.79-4.15,1.51-5.98h0Z"/>
    <path class="cls-9" d="m276.45,555.7c-.21,1.41-.36,2.84-.45,4.27.06-.1.13-.21.19-.31"/>
    <path d="m283.22,546.01c-.56,1.43-1.32,3.61-1.99,4.96-.04.06-.03.09-.09.14-.1-.04-.04-.05-.05-.05,0-.02.07-.18.07-.21,0,0,.02,0,.02,0l-.02.18c-.11.02-.04-.04-.03-.1l.09-.34c.29-.98,1.58-3.76,2-4.58h0Z"/>
    <path d="m280.66,552.64c-.35,1.57-.56,3.93-1.19,5.35.1-1.47.8-3.97,1.19-5.35h0Z"/>
    <path d="m284.87,549.96c-.2,1.3-.19,3.28-.68,4.46-.02-.76.08-1.51.24-2.25.02,0,.38-2.28.44-2.22h0Z"/>
    <path d="m289.86,544.22c-.88,2.21-.54,4.64-.92,6.89-.16-2.28-.04-4.81.92-6.89h0Z"/>
    <path d="m291.78,544.09c-.16,1.49-.08,3.72-.54,5.1-.05-.86.04-1.72.17-2.56.02,0,.31-2.6.37-2.54h0Z"/>
    <path d="m293.18,547.02c.09.96.46,2.01.23,2.94-.3-.94-.25-2.01-.23-2.94h0Z"/>
    <path d="m298.65,544.21c.21,1.98,1.2,3.77,1.4,5.78h-.19c.04-2.38-.09-4.75-.22-7.14.49,2.28.5,4.78.41,7.15,0,0-.19,0-.19,0-.13-1.95-1.15-3.86-1.21-5.8h0Z"/>
    <path d="m314.77,595.43c-.46.89-2.14.44-2.55,1.35-.17-.16-.34-.31-.5-.47-.31.32-.61.65-.91.97-.15-.32-.31-.64-.46-.96-.53,1.27-2.95.45-3.52,1.7-.25-.35-.71-.52-1.13-.43-.26.05-.49.19-.75.23-.44.06-.86-.18-1.29-.29-.43-.1-1.01.04-1.08.47-.2-.72-1.27-.54-1.94-.23-.68.31-1.8.38-1.87-.37-.53.83-2.01.67-2.35-.25-.31.18-.61.36-.92.53-.25-.29-.5-.58-.76-.87-.08.4-.58.55-.98.49-.4-.06-.78-.25-1.18-.24-.45.01-.85.27-1.29.34-.43.08-1.01-.17-.98-.61-.29.18-.58.36-.88.55-.37-.27-.74-.54-1.12-.8-.25.17-.5.34-.75.51-.3-.19-.57-.45-.77-.75-.29.18-.52.45-.67.75-.35-.22-.65-.52-.88-.88-.24.22-.49.44-.74.65-.16-.36-.43-.68-.76-.91-.12.44-.44.82-.86,1.01-.28-1.7-.36-6.14,1.23-7.36.17-.13.4-.21.68-.24,1.87-.25,5.8,1.5,7.15,1.87,3.76,1.02,7.59,2.05,11.46,1.92.37-.01.75-.03,1.13-.07,2.78-.26,5.46-1.17,8.08-2.14.51-.2,1.18-.36,1.54.06.18.19.22.47.26.73.14.91.28,1.83.41,2.75.05.33.1.69-.05.99Z"/>
  </g>
  <g id="Layer_2" data-name="Layer 2">
    <path class="cls-16" d="m394.14,511.72c-1.25-.03-2.54-.08-3.69-.58s-2.13-1.59-2.13-2.84c0-1.63,1.53-2.77,2.79-3.8,1.85-1.53,3.5-3.58,3.64-5.98.08-1.37-.34-2.72-.66-4.06-.85-3.57-.98-7.3-.39-10.92.36-2.23.99-4.53.4-6.71-.22-.82-.61-1.59-.69-2.43-.07-.79.14-1.58.36-2.33.63-2.09,1.74-4.41,3.88-4.88,1.46-.32,3,.4,4,1.5s1.54,2.55,1.92,3.99c1.12,4.25,1.04,8.71.96,13.1-.01.62-.03,1.25-.3,1.81-.26.54-.73.95-1.01,1.49-.34.66-.35,1.44-.33,2.18.17,4.8,1.48,10-.96,14.14-1.14,1.93-2.95,3.34-4.73,4.71-1.61,1.24-3.22,2.48-4.82,3.71"/>
    <path class="cls-6" d="m203.4,513.41c-.4-.42-.82-.85-.98-1.41-.37-1.28.74-2.47,1.14-3.74.23-.72.22-1.5.21-2.25-.09-6.65-.22-13.51-2.86-19.62-.49-1.12-1.06-2.22-1.33-3.41-.43-1.89-.09-3.85.26-5.76,1.29-7.12,2.58-14.25,3.87-21.37-1.45,1.47-4.19.69-5.71,2.08-.59.54-.89,1.32-1.16,2.08-4.94,14.03-5.96,29.41-2.9,43.97.47,2.25,1.09,4.58,2.62,6.29,1.9,2.13,4.85,2.94,7.24,4.51,2.61,1.72,5.13,4.67,6.16,7.65-1.85-3.25-3.97-6.3-6.55-9.02Z"/>
    <path class="cls-14" d="m321.21,470.07c-5.83,1.93-11.13,6.07-13.42,11.77-.48-11.26,5.55-22.57,15.16-28.45,1.91-1.17,4.11-2.31,4.86-4.42.96-2.68-1.12-5.73-3.81-6.66s-5.68-.23-8.29.91c-3.57,1.56-6.79,3.93-9.34,6.88-1.3-5.96,1.88-12.23,6.59-16.11s10.72-5.8,16.64-7.25c5.5-1.35,11.16-2.38,16.82-2.04,5.22.32,10.29,1.8,15.31,3.28,2.89.85,5.82,1.71,8.39,3.29,3.65,2.23,6.32,5.72,8.9,9.13,2.68,3.54,5.36,7.08,8.04,10.61-3.44-2.31-7.65-3.43-11.78-3.14-.31,2.7,3.17,3.91,5.74,4.79,6.28,2.15,11.07,8.13,11.8,14.72-2.93-.85-5.03-3.34-7.36-5.32s-5.61-3.56-8.36-2.21c-1.01.5-1.86,2.95-2.61,2.11-9.44-10.66-46.08-26.98-45.99,7.55"/>
    <path class="cls-18" d="m232.85,461.18c-.27.22-.56.47-.67.8-.32.92.71,1.69,1.58,2.12,3.82,1.86,7.82,3.77,12.07,3.69.76-.01,1.54-.09,2.29.07,1.1.24,2.04.99,3.15,1.22,1.03.21,2.1-.05,3.12-.3,2.92-.74,5.85-1.48,8.77-2.22.67-.17,1.38-.36,1.88-.84.46-.44.68-1.06.88-1.66.7-2.14,1.16-4.82-.47-6.38-1.21-1.16-3.08-1.18-4.76-1.13,1.58,2.7.63,6.43-1.73,8.48s-5.81,2.55-8.86,1.82c-2.89-.69-5.72-2.71-6.27-5.63-.56-2.94.07-5.11-3.67-3.95-2.65.82-5.15,2.16-7.31,3.91Z"/>
    <path class="cls-18" d="m335.25,457.53c-.31.41-.3.97-.27,1.48.05.96.1,1.91.15,2.87.03.56.07,1.16.39,1.62.26.38.68.62,1.09.83,4.8,2.46,10.34,2.94,15.72,3.37,1.18.09,2.37.19,3.56.09,2.3-.2,4.46-1.12,6.57-2.03,2.64-1.13,5.28-2.27,7.92-3.4-2.58-3.57-6.82-5.89-11.22-6.12.75,1.66.52,3.67-.36,5.26s-2.34,2.82-3.97,3.64c-2.36,1.2-5.15,1.64-7.72.96s-4.84-2.52-5.83-4.98c-.52-1.3-.37-4.74-1.74-5.33-.93-.4-3.75,1.01-4.3,1.73Z"/>
    <path class="cls-22" d="m335.44,463.47c-2.19-.31-4.31-1.06-6.2-2.21,1.54-1.5,3.33-2.75,5.26-3.69-.26.5-.5,1.02-.58,1.58-.06.44-.02.89.02,1.33.11,1.17.43,2.61,1.57,2.89.36.09.73.04,1.09-.02.13-.02.26-.04.38-.06l-1.54.17Z"/>
    <path class="cls-22" d="m266,458.49c.97.17,1.92.45,2.83.81,1.5.61,2.87,1.47,4.02,2.54.16.15-3.85,2.74-5.17,2.04-1.5-.8-.78-3.93-1.68-5.39Z"/>
    <path class="cls-20" d="m198.76,502.97c.25-.14.52-.21.8-.29.6-.16,1.26-.32,1.84-.08.31.13.57.36.81.6,1,.99,1.86,2.35,1.56,3.73-.05.23-.13.45-.26.64-.16.23-.38.4-.6.57-.34.27-.7.54-1.13.64-.29.07-.59.05-.88.03-1.51-.1-2.93-.57-3.28-2.23-.24-1.12.08-2.99,1.15-3.59Z"/>
    <path class="cls-20" d="m394.9,504.32c-.8-1.04-.61-2.58.07-3.7.18-.31.41-.6.71-.8.29-.19.64-.27.97-.35.55-.13,1.13-.26,1.68-.11.64.18,1.11.73,1.54,1.24.38.46.76.93,1.02,1.47s.37,1.17.18,1.74c-.85,2.57-4.71,2.41-6.16.52Z"/>
    <path class="cls-2" d="m197.01,492.83c-.96-.96-1.94-1.98-2.37-3.26-.26-.8-.29-1.65-.3-2.48-.03-3.74.28-7.48.94-11.17.16-.9.34-1.8.72-2.62.62-1.36,1.72-2.43,2.79-3.46.12-.12.27-.24.44-.23.24.02.36.28.44.51,1.04,3.27.71,6.95-.9,9.98-.36.68-.8,1.38-.79,2.15,0,.4.12.79.25,1.17.28.81.61,1.6,1.03,2.35.63,1.1,1.47,2.07,2.09,3.18,1.1,1.94,1.74,4.85.95,7.02-.56,1.55-1.43.74-2.26-.08-1.02-1.01-2.02-2.02-3.03-3.03Z"/>
    <path class="cls-2" d="m396.48,491.9c.62-5.68,1.03-11.37,1.24-17.08,0-.22.02-.45.11-.66.2-.43.73-.63,1.21-.57s.89.34,1.26.63c.71.56,1.33,1.24,1.85,1.98.53.76.96,1.61,1.15,2.52.44,2.08-.41,4.27-1.74,5.94-.23.29-.47.57-.57.92-.07.24-.06.5-.05.75.03,1.52-.1,3.04-.24,4.56-.14,1.53-.29,3.12-1.06,4.46-.59,1.03-1.76,1.55-2.67.55s-.63-2.81-.5-4Z"/>
    <path class="cls-10" d="m305.8,612.97c2.55-3.5,5.96-6.29,8.5-9.79s4.16-8.17,2.47-12.16c.75,1.63,1.49,3.26,2.24,4.9.08.18.17.37.31.51.83.78,1.88-.69,2.11-1.8,1.63-7.91,6.23-15.16,12.69-20-1.2.71-2.46,1.49-3.09,2.73s-.28,3.09,1.04,3.54c1.1.38,2.25-.33,3.15-1.06,4.72-3.88,7.79-9.7,8.33-15.79.54-6.09-1.46-12.36-5.43-17,2.89,1.1,5.28,3.45,6.42,6.33.61,1.56.88,3.27,1.79,4.68,1.65,2.56,4.91,3.44,7.52,5.04,5.22,3.2,7.89,10.04,6.21,15.92-.66,2.32-1.89,4.42-3.12,6.49-7.57,12.85-15.33,25.92-26.5,35.79-1.87,1.65-3.85,3.22-6.11,4.28-2.02.94-4.2,1.45-6.37,1.96-4.04.94-12.91,4.66-15.79.05-2.68-4.27,1.12-11.17,3.62-14.6Z"/>
    <path class="cls-11" d="m361.23,578.09c-.39-3.93-1.64-7.77-3.64-11.17-1.02-1.73-2.31-3.41-4.14-4.23-1.39-.62-3.02-.71-4.27-1.58-2.02-1.4-2.32-4.2-3.31-6.44-1.81-4.11-6.16-6.59-8.3-10.55-3.39-6.25-.39-13.82.81-20.83,1.06-6.19.64-12.54,1.26-18.79.62-6.25,2.51-12.75,7.18-16.95-2.05,2.36-2.92,5.71-2.27,8.77.09.44.22.88.5,1.22.75.92,2.24.75,3.29.19,2.52-1.31,3.96-4.17,4.17-7s-.66-5.64-1.82-8.23c-.74-1.65-1.66-3.31-3.13-4.37-2.23-1.6-5.35-1.47-7.88-.38s-4.59,3.01-6.59,4.88c1.08-2.19,2.32-4.36,4.11-6.02s4.22-2.77,6.65-2.5c2.44.27,4.63,1.89,7.08,1.91,3.06.03,5.53-2.36,7.82-4.39"/>
    <path class="cls-11" d="m358.24,471.33c0,.89-.72,1.73-1.6,1.88,6.3-6.35,15.5-9.7,24.41-8.89-.96,1.13-2.75.79-4.18,1.2-1.8.52-3.03,2.5-2.71,4.34s2.17,3.28,4.03,3.15c1.23-.09,2.35-.75,3.57-.92,3.12-.42,5.65,2.46,7.25,5.17,1.82,3.09,3.31,6.39,4.21,9.86-1.48-2.26-3.79-3.96-6.38-4.71-.87-.25-1.95-.34-2.54.34-.6.69-.34,1.75-.04,2.61,1.18,3.49,2.72,7.38,6.13,8.78.75.31,1.56.48,2.24.92,1.71,1.12,1.95,3.49,2.02,5.54-2.37-2.47-6.68-2.42-9.36-.29s-3.77,5.87-3.24,9.26c.28,1.78.95,3.48,1.23,5.26,1.03,6.34-3.07,12.64-8.49,16.09-2.93,1.86-6.22,3.07-9.34,4.59s-6.18,3.46-8.11,6.34-2.51,6.9-.63,9.82c2.25-6.28,8.02-11.17,14.6-12.35,2.62-.47,6.11.23,6.55,2.85.14.8-.06,1.61-.29,2.39-3.42,11.85-12.55,21.35-16.38,33.08-.68-4.27-1.44-8.71-4.01-12.18-.46-.61-1.57-1.11-1.81-.38"/>
    <path class="cls-5" d="m273.74,623.54c-4.77-3.52-8.48-8.25-12.02-13-15.61-20.89-29.33-43.25-40.09-67.01-2.67-5.89-5.19-12.04-5.39-18.5-.27-8.69,3.94-17.3,10.65-22.82s15.75-7.97,24.4-7.1c-3.4,2.39-6.76,4.97-9.13,8.37s-3.64,7.8-2.47,11.78c.56,1.9,1.84,3.77,3.77,4.24,2.52.62,4.9-1.34,6.67-3.25,4.05-4.39,7.61-9.72,7.89-15.69s-3.8-12.44-9.75-12.97c6.34.66,12.32,4.27,15.86,9.57,3.54,5.3,4.59,12.2,2.77,18.32-1.78,6-6.01,10.9-9.44,16.14-4.83,7.36-13.03,12.62-9.96,20.87,1.08-5.32,5.56-8.19,10.01-11.28,7.46-5.18,5.79-.74,9.99-.72-8.27,8.5-13.92,10.53-14.01,22.39-.07,8.4,4.81,16.66,12.2,20.66,2.66,1.44,6.05,2.94,6.31,5.95.15,1.79-.93,3.42-1.64,5.07-2.55,5.99.47,13.74,6.41,16.42.88-3.19,4.01-5.35,7.24-6.06s6.59-.24,9.86.24c-2.68,1.03-5.37,2.07-8.05,3.1-1.07,2.54.38,5.44,2.2,7.51s4.08,3.87,5.1,6.43c4.94,12.45-16.13,3.71-19.37,1.32Z"/>
    <path class="cls-7" d="m208.87,476.42c.2-3.86.61-7.74,1.83-11.4,2.27-6.84,7.45-12.66,13.98-15.71-2.96,1.92-4.69,5.59-4.28,9.1s2.93,6.68,6.26,7.87c1.31-3.56,2.7-7.23,5.38-9.92,4.53-4.55,11.56-5.19,17.97-5.56,6.81-.4,13.85-.77,20.27,1.56,2.29.83,4.51,2.03,6.04,3.92s2.27,4.55,1.41,6.82c-.63,1.66-2,2.94-3.49,3.92-3,1.98-6.51,2.98-9.86,4.27s-6.72,3.01-8.78,5.95-2.38,7.36.14,9.91c-.23-5.13,3.44-10.17,8.39-11.52,2.52-.69,5.23-.5,7.69-1.38,4.11-1.47,6.66-5.59,8.23-9.67,3.44-8.92,3.74-19.03.81-28.13-1.34-4.16-3.68-8.45-7.78-9.99-2.05-.77-4.3-.75-6.48-.69-5.11.13-10.22.38-15.33.75-6.47.48-13.1,1.2-18.89,4.14-5.86,2.98-10.38,8-15.46,12.19-3.02,2.49-6.33,4.76-8.59,7.95-2.95,4.18-3.78,9.47-4.06,14.57-.45,8.16.29,16.33,1.03,24.46.71,7.78,1.16,21.9,7.79,27.27,1.14-4.93-2.13-11.94-2.93-16.86-1.27-7.86-1.71-15.86-1.3-23.81Z"/>
    <path class="cls-13" d="m271.81,502.56c-.62-2.59-.78-5.34-.05-7.9.7-2.47,2.16-4.64,3.55-6.8,4.97-7.72,9.31-15.97,11.58-24.87s2.38-18.53-.91-27.1c-1.57-4.08-4.25-8.16-8.43-9.44,12.21-.55,24.43-.98,36.66-1.29-11.17,2.74-18.85,15.4-16.11,26.57.25,1.02.86,2.24,1.91,2.16.74-.05,1.24-.74,1.7-1.33,2.25-2.87,5.96-4.54,9.6-4.31-7.82,5.21-11.41,15.29-10.68,24.66.73,9.36,5.17,18.07,10.62,25.72,1.19-5.75,3.19-11.47,6.89-16.04,3.7-4.57,9.29-7.85,15.17-7.73-5.79,2.92-9.67,9.27-9.63,15.74.08,12.01,12.19,21.81,11.11,33.78-.19,2.16-.86,4.33-2.26,5.99-1.71,2.04-4.3,3.08-6.8,3.98-3.37,1.2-6.99,2.29-10.48,1.47s-6.61-4.22-5.84-7.71c.44-2,1.92-4.37.43-5.77-2.46-.5-5.18.6-6.6,2.67-1.43,2.09-1.38,4.8-.26,7-4.61-2.19-1.29-7.02-4.16-9.75-2.06-1.96-7.03-.91-9.65-1.69-8.09-2.39-15.38-9.83-17.36-18.02Z"/>
    <path class="cls-12" d="m216.82,482.43c1.28-5.06,3.54-10.35,8.13-12.83-4.14,4.04-5.7,10.52-3.85,16,.53,1.58,1.77,3.32,3.42,3.06,1.21-.19,1.96-1.37,2.56-2.44,1.63-2.94,3.26-6.02,3.46-9.38s-1.45-7.06-4.62-8.18c3.53.53,7.44,1.29,9.53,4.18,1.95,2.69,1.66,6.35,1.09,9.62-.54,3.1-1.26,6.17-2.16,9.19,4.85-5.86,6.64-14.11,4.67-21.46,2.51,2.15,4.8,4.64,6.2,7.64s1.8,6.56.55,9.61c-1.64,4.01-5.71,6.43-9.69,8.16-3.52,1.53-7.34,2.77-10.34,5.25-2.35,1.94-4.33,7.64-7.74,6.32-6.61-2.55-2.38-20.11-1.2-24.75Z"/>
    <path class="cls-4" d="m273.13,542.17l1.38-8.67c-2.22-1.31-4.03-3.31-5.11-5.65-1.03-2.23-1.4-4.84-.62-7.18s2.85-4.29,5.29-4.57c-1.34,1.13-2.3,2.86-2.08,4.61s1.84,3.32,3.59,3.1c1.15-.14,2.1-.97,3.21-1.26,1.87-.48,3.75.58,5.38,1.61,4.35,2.72,8.7,5.45,13.05,8.17.62.39,1.29.84,1.46,1.55.21.86-.44,1.73-1.25,2.09s-1.72.33-2.6.31c-6.43-.13-13.33.81-18.12,5.09-.54.48-1.06,1.01-1.74,1.27s-1.56.13-1.94-.48c-.95-1.56,2.24-3.37,1.34-4.96"/>
    <path class="cls-15" d="m248.31,544.61c7.59-3.76,9.57-14.17,16.65-18.81.24-.16.54-.32.81-.21.16.06.27.21.37.35,1.88,2.52,3.76,5.05,5.64,7.57.73.98,1.49,2.04,1.48,3.26,0,1.82-1.66,3.14-3.08,4.28-5.4,4.35-9.53,10.27-11.74,16.84-1.21,3.6-1.8,7.73.04,11.05,3.98-1.89,7.97-3.77,11.95-5.66-1.93,1.77-2.62,4.61-2.3,7.21s1.54,5,2.95,7.21c2.6,4.09,5.93,7.72,9.78,10.67-.25,3.71-.02,8.31,3.32,9.93,1.32.64,2.85.63,4.29.93s2.97,1.1,3.32,2.52c-3.92-.41-7.99.86-10.99,3.43-.85.73-1.64,1.57-2.68,1.99-2.51,1.01-5.4-1.01-6.37-3.53s-.55-5.34-.17-8.02.67-5.54-.49-7.98c-1.04-2.18-3.08-3.68-5.01-5.13-4.27-3.2-8.51-6.77-10.8-11.59-2.2-4.65-2.34-10.17-.64-15.03s5.16-9.02,9.46-11.84c.99-.65,2.19-1.63,1.8-2.75-.12-.33-.36-.6-.63-.82-1.47-1.24-3.67-1.28-5.47-.61s-3.31,1.94-4.77,3.19c-2.57,2.2-5.15,4.39-7.72,6.59-.65-3.17,1.45-6.67,4.55-7.59"/>
    <path class="cls-8" d="m320.13,444.66c1.69.31,3.5,1.43,3.6,3.14.09,1.63-1.36,2.89-2.65,3.88-4.77,3.67-9.4,7.77-12.21,13.09s-3.49,12.1-.37,17.25c2.4-2.25,4.13-5.15,6.56-7.37,4.91-4.47,12.63-5.53,18.56-2.53.52,3.63-3.31,6.24-5,9.5-.88,1.7-1.17,3.64-1.45,5.54-.75,5.13-1.45,10.61.8,15.28,1.54,3.18,4.29,5.6,6.23,8.56s2.95,7.1.8,9.9c2.72-6.14,2.29-13.14,2.32-19.85.01-2.98.18-6.13,1.83-8.6,1.12-1.68,2.81-2.88,4.1-4.43s2.16-3.77,1.24-5.56c-3.83.37-7.57,1.66-10.81,3.72-1.8-4-.39-9.17,3.18-11.71-.85-1.93-2.87-3.29-4.97-3.34-9.59,4.11-17.3,12.37-20.74,22.22-1.93-1.01-3.1-3-4.18-4.89-1.96-3.46-3.92-6.98-4.95-10.82-2.75-10.24,2.57-35.83,18.11-32.97Z"/>
    <path class="cls-1" d="m265.03,495.12c-2.3-1.98-4.66-4.05-5.96-6.79s-1.29-6.34.85-8.5c2.25-2.27,5.87-2.2,8.87-3.3,6.3-2.32,9.16-9.45,11.31-15.82,1.59-4.7,3.19-9.53,3-14.49-.23-5.87-2.98-11.36-6.27-16.22,3.82.27,7.03,3.3,8.51,6.84s1.51,7.5,1.24,11.32c-.3,4.21-.93,8.38-1.57,12.55-.44,2.89-.89,5.8-1.88,8.56-2.91,8.03-10.2,13.96-12.76,22.11-2.1,6.68-.54,14.38,3.98,19.72-3.22-.24-4.77-3.93-6.11-6.86-3.33-7.24-9.64-13.05-17.12-15.78-.84-.31-1.72-.59-2.41-1.17-2.3-1.92-1.22-5.59-1.69-8.55-.46-2.9-2.75-5.43-5.59-6.17,5.12-1,10.15-2.44,15.03-4.3-2.78,5.59-5.51,12.53-2.03,17.71,1.79.02,3.27-1.41,4.16-2.96s1.4-3.31,2.44-4.76c2.27-3.17,7.09-4.15,10.42-2.12"/>
    <path class="cls-16" d="m326.26,539.42c.28-1.24,1.02-2.32,1.81-3.31.44-.55.94-1.11,1.61-1.28s1.54.24,1.57.94c-1.5,1.89-1.97,4.54-1.22,6.83.44,1.32,1.24,2.49,2.1,3.58,1.34,1.69,2.85,3.23,4.51,4.61-1.83-1.7-2.53-4.29-2.75-6.78s-.05-5.01-.53-7.46c-1.13-5.73-5.77-2.33-9.13-.77-5.77,2.68-.17,4.39,2.85,7.06-.85-.93-1.1-2.2-.82-3.41Z"/>
  </g>
</svg>